<svg width="372" height="786" xmlns="http://www.w3.org/2000/svg"><defs><linearGradient x1="81.819%" y1="3.653%" x2="15.351%" y2="97.463%" id="a"><stop stop-color="#FBFBFB" offset="0%"/><stop stop-color="#E3E3E3" offset="100%"/></linearGradient><linearGradient x1="50%" y1="0%" x2="50%" y2="100%" id="c"><stop stop-color="#ECECEC" offset="0%"/><stop stop-color="#FBFBFB" offset="100%"/></linearGradient><linearGradient x1="50%" y1="0%" x2="50%" y2="100%" id="b"><stop stop-color="#F2F2F2" offset="0%"/><stop stop-color="#FFF" offset="100%"/></linearGradient></defs><g fill="none" fill-rule="evenodd"><path stroke="url(#a)" stroke-width="3" fill="#F6F6F6" d="M1.5 1.5h369v783H1.5z"/><path stroke="#DDDDE0" fill="#F4F4F5" d="M32.5 88.5h306v591h-306z"/><g transform="translate(160 654)" stroke="#0EE0DC"><circle fill="#0EE0DC" cx="4.5" cy="4.5" r="4.5"/><circle fill="#FBFAF9" cx="24.5" cy="4.5" r="4.5"/><circle fill="#FBFAF9" cx="44.5" cy="4.5" r="4.5"/></g><path fill="#FFF" d="M47 118h276v269H47zm0 290.139h276V519H47z"/><path fill="#0EE0DC" d="M207 161h76v3h-76zm0 34h76v3h-76z"/><path d="M207.91 153a.162.162 0 0 1-.119-.049.162.162 0 0 1-.049-.119v-9.464a.16.16 0 0 1 .049-.119.162.162 0 0 1 .119-.049h3.01c.625 0 1.178.117 1.659.35.48.233.852.565 1.113.994.261.43.392.929.392 1.498v4.116c0 .57-.13 1.069-.392 1.498a2.59 2.59 0 0 1-1.113.994c-.48.233-1.034.35-1.659.35h-3.01zm1.806-1.764c0 .047.023.07.07.07l1.148-.014c.345 0 .625-.124.84-.371.215-.247.327-.576.336-.987v-3.668c0-.42-.107-.754-.322-1.001-.215-.247-.5-.371-.854-.371h-1.148c-.047 0-.07.023-.07.07v6.272zm8.302-5.544c.57 0 1.073.1 1.512.301.439.2.782.48 1.029.84.247.36.371.768.371 1.225v4.774a.162.162 0 0 1-.049.119.162.162 0 0 1-.119.049h-1.638a.162.162 0 0 1-.119-.049.162.162 0 0 1-.049-.119v-.378c0-.028-.01-.047-.028-.056-.019-.01-.037 0-.056.028-.373.457-.933.686-1.68.686-.625 0-1.148-.163-1.568-.49-.42-.327-.63-.873-.63-1.638 0-1.521.952-2.282 2.856-2.282h1.036c.047 0 .07-.023.07-.07v-.322c0-.28-.082-.504-.245-.672-.163-.168-.39-.252-.679-.252a.94.94 0 0 0-.546.154.656.656 0 0 0-.28.42c-.028.093-.093.14-.196.14l-1.694-.098a.177.177 0 0 1-.119-.042c-.033-.028-.044-.065-.035-.112.047-.644.334-1.164.861-1.561.527-.397 1.192-.595 1.995-.595zm-.21 5.922c.317 0 .588-.089.812-.266a.85.85 0 0 0 .336-.7v-.588c0-.047-.023-.07-.07-.07h-.798c-.336 0-.602.075-.798.224-.196.15-.294.364-.294.644 0 .243.075.43.224.56.15.13.345.196.588.196zm4.27 4.172c-.028 0-.051-.016-.07-.049a.236.236 0 0 1-.028-.119v-1.288c0-.047.01-.086.028-.119.019-.033.037-.049.056-.049h.07c.523 0 .898-.075 1.127-.224.229-.15.38-.448.455-.896l-.014-.084-2.016-6.958-.014-.056c0-.093.051-.14.154-.14h1.75c.103 0 .163.051.182.154l.924 4.214c.01.037.023.056.042.056.019 0 .033-.019.042-.056l.868-4.214c.019-.103.08-.154.182-.154h1.764c.056 0 .098.019.126.056.028.037.033.084.014.14l-2.128 7.266c-.205.681-.422 1.192-.651 1.533-.229.34-.553.59-.973.749-.42.159-1.022.238-1.806.238h-.084zm9.1-2.786c-.056 0-.098-.016-.126-.049-.028-.033-.033-.082-.014-.147l3.346-9.464c.028-.093.089-.14.182-.14h1.61c.056 0 .098.016.126.049.028.033.033.082.014.147l-3.332 9.464c-.028.093-.089.14-.182.14h-1.624zm9.842-9.758a.6.6 0 0 1 .21-.042h1.694a.16.16 0 0 1 .119.049.162.162 0 0 1 .049.119v9.464a.162.162 0 0 1-.049.119.162.162 0 0 1-.119.049h-1.638a.162.162 0 0 1-.119-.049.162.162 0 0 1-.049-.119v-7.714a.093.093 0 0 0-.021-.056c-.014-.019-.03-.023-.049-.014l-1.148.224-.056.014c-.084 0-.126-.051-.126-.154v-1.19c0-.093.042-.159.126-.196l1.176-.504zm8.68 4.844c.317.504.476 1.11.476 1.82 0 .644-.13 1.2-.392 1.666a2.31 2.31 0 0 1-.966 1.134c-.439.261-.975.392-1.61.392-.607 0-1.13-.128-1.568-.385a2.356 2.356 0 0 1-.98-1.113.115.115 0 0 0-.007-.035.138.138 0 0 0-.035-.049c-.243-.41-.364-.92-.364-1.526l-.014-4.382c0-.765.266-1.377.798-1.834.532-.457 1.237-.686 2.114-.686.84 0 1.521.229 2.044.686.523.457.784 1.064.784 1.82V146a.162.162 0 0 1-.049.119.162.162 0 0 1-.119.049h-1.638a.162.162 0 0 1-.119-.049.162.162 0 0 1-.049-.119v-.21c0-.29-.082-.525-.245-.707a.785.785 0 0 0-.609-.273.865.865 0 0 0-.665.28c-.173.187-.259.425-.259.714v1.372c0 .028.01.044.028.049.019.005.037-.002.056-.021.336-.308.76-.462 1.274-.462.495 0 .924.119 1.288.357s.64.567.826.987zm-1.624 2.604a3.3 3.3 0 0 0 .098-.826c0-.373-.047-.686-.14-.938-.15-.392-.43-.588-.84-.588-.401 0-.677.196-.826.588-.093.233-.14.55-.14.952 0 .317.033.593.098.826.13.467.42.7.868.7.439 0 .733-.238.882-.714zM207.91 187a.162.162 0 0 1-.119-.049.162.162 0 0 1-.049-.119v-9.464a.16.16 0 0 1 .049-.119.162.162 0 0 1 .119-.049h1.61c.093 0 .163.037.21.112l1.596 2.926c.028.037.056.037.084 0l1.61-2.926a.231.231 0 0 1 .21-.112h1.61a.16.16 0 0 1 .119.049.162.162 0 0 1 .049.119v9.464a.162.162 0 0 1-.049.119.162.162 0 0 1-.119.049h-1.638a.162.162 0 0 1-.119-.049.162.162 0 0 1-.049-.119v-6.076c0-.037-.01-.056-.028-.056-.019 0-.037.014-.056.042l-1.134 2.072a.231.231 0 0 1-.21.112h-.476c-.103 0-.173-.037-.21-.112l-1.12-2.086c-.019-.028-.037-.04-.056-.035-.019.005-.028.026-.028.063v6.076a.162.162 0 0 1-.049.119.162.162 0 0 1-.119.049h-1.638zm11.326.112c-.812 0-1.475-.205-1.988-.616-.513-.41-.821-.98-.924-1.708a9.888 9.888 0 0 1-.098-1.4c0-.579.033-1.05.098-1.414.112-.7.425-1.255.938-1.666.513-.41 1.176-.616 1.988-.616.793 0 1.447.205 1.96.616.513.41.821.961.924 1.652.075.43.112.9.112 1.414 0 .467-.033.929-.098 1.386-.103.737-.41 1.314-.924 1.729-.513.415-1.176.623-1.988.623zm0-1.694a.872.872 0 0 0 .644-.252 1.2 1.2 0 0 0 .322-.672c.037-.299.056-.667.056-1.106 0-.439-.019-.803-.056-1.092-.047-.28-.154-.502-.322-.665a.886.886 0 0 0-.644-.245.886.886 0 0 0-.644.245c-.168.163-.275.385-.322.665-.047.355-.07.719-.07 1.092 0 .29.019.658.056 1.106.047.28.159.504.336.672a.902.902 0 0 0 .644.252zm7.686-5.726c.681 0 1.216.217 1.603.651.387.434.581 1.038.581 1.813v4.676a.162.162 0 0 1-.049.119.162.162 0 0 1-.119.049H227.3a.162.162 0 0 1-.119-.049.162.162 0 0 1-.049-.119v-4.396c0-.327-.08-.583-.238-.77-.159-.187-.373-.28-.644-.28-.28 0-.502.096-.665.287-.163.191-.245.45-.245.777v4.382a.162.162 0 0 1-.049.119.162.162 0 0 1-.119.049h-1.638a.162.162 0 0 1-.119-.049.162.162 0 0 1-.049-.119v-6.86a.16.16 0 0 1 .049-.119.162.162 0 0 1 .119-.049h1.638a.16.16 0 0 1 .119.049.162.162 0 0 1 .049.119v.378c0 .028.01.044.028.049.019.005.042-.007.07-.035.345-.448.84-.672 1.484-.672zm7.112 1.428a.162.162 0 0 1-.049.119.162.162 0 0 1-.119.049h-1.078c-.047 0-.07.023-.07.07v3.122c0 .29.058.497.175.623.117.126.296.184.539.175h.28a.16.16 0 0 1 .119.049.162.162 0 0 1 .049.119v1.358c0 .112-.056.168-.168.168-.159.01-.392.014-.7.014-.737 0-1.286-.121-1.645-.364-.36-.243-.539-.7-.539-1.372v-3.892c0-.047-.023-.07-.07-.07h-.644a.162.162 0 0 1-.119-.049.162.162 0 0 1-.049-.119v-1.148a.16.16 0 0 1 .049-.119.162.162 0 0 1 .119-.049h.644c.047 0 .07-.023.07-.07v-1.61a.16.16 0 0 1 .049-.119.162.162 0 0 1 .119-.049h1.554a.16.16 0 0 1 .119.049.162.162 0 0 1 .049.119v1.61c0 .047.023.07.07.07h1.078a.16.16 0 0 1 .119.049.162.162 0 0 1 .049.119v1.148zm4.536-1.428c.681 0 1.216.217 1.603.651.387.434.581 1.038.581 1.813v4.676a.162.162 0 0 1-.049.119.162.162 0 0 1-.119.049h-1.638a.162.162 0 0 1-.119-.049.162.162 0 0 1-.049-.119v-4.396c0-.327-.08-.583-.238-.77-.159-.187-.373-.28-.644-.28-.28 0-.502.096-.665.287-.163.191-.245.45-.245.777v4.382a.162.162 0 0 1-.049.119.162.162 0 0 1-.119.049h-1.638a.162.162 0 0 1-.119-.049.162.162 0 0 1-.049-.119v-9.464a.16.16 0 0 1 .049-.119.162.162 0 0 1 .119-.049h1.638a.16.16 0 0 1 .119.049.162.162 0 0 1 .049.119v2.982c0 .028.01.044.028.049.019.005.042-.007.07-.035.345-.448.84-.672 1.484-.672zm6.006 7.308c-.056 0-.098-.016-.126-.049-.028-.033-.033-.082-.014-.147l3.346-9.464c.028-.093.089-.14.182-.14h1.61c.056 0 .098.016.126.049.028.033.033.082.014.147l-3.332 9.464c-.028.093-.089.14-.182.14h-1.624zm14.224 0c-.093 0-.154-.047-.182-.14l-.322-1.372c-.01-.037-.033-.056-.07-.056h-2.618c-.037 0-.06.019-.07.056l-.322 1.372c-.028.093-.093.14-.196.14h-1.694c-.121 0-.168-.06-.14-.182l2.52-9.478c.028-.093.093-.14.196-.14h2.03c.103 0 .168.047.196.14l2.534 9.478.014.056c0 .084-.051.126-.154.126H258.8zm-2.87-3.178c-.01.028-.005.049.014.063a.093.093 0 0 0 .056.021h1.848a.093.093 0 0 0 .056-.021c.019-.014.023-.035.014-.063l-.938-3.976c-.01-.037-.023-.054-.042-.049-.019.005-.033.021-.042.049l-.966 3.976zm11.508-1.904c.103.448.154.966.154 1.554 0 .504-.042.994-.126 1.47-.29 1.447-1.036 2.17-2.24 2.17-.327 0-.607-.044-.84-.133a1.476 1.476 0 0 1-.616-.455c-.019-.028-.037-.037-.056-.028-.019.01-.028.028-.028.056v2.884a.162.162 0 0 1-.049.119.162.162 0 0 1-.119.049h-1.638a.162.162 0 0 1-.119-.049.162.162 0 0 1-.049-.119v-9.464a.16.16 0 0 1 .049-.119.162.162 0 0 1 .119-.049h1.638a.16.16 0 0 1 .119.049.162.162 0 0 1 .049.119v.294c0 .028.01.047.028.056.019.01.037 0 .056-.028.345-.401.84-.602 1.484-.602 1.148 0 1.876.742 2.184 2.226zm-1.96 2.744c.084-.27.126-.686.126-1.246 0-.476-.033-.877-.098-1.204-.14-.55-.43-.826-.868-.826-.439 0-.719.27-.84.812-.065.27-.098.677-.098 1.218 0 .541.037.952.112 1.232.047.243.14.432.28.567.14.135.317.203.532.203.42 0 .705-.252.854-.756zm6.636-4.956c.27 0 .5.056.686.168.075.047.103.117.084.21l-.266 1.624c-.01.112-.075.145-.196.098a1.736 1.736 0 0 0-.42-.056c-.112 0-.233.014-.364.042-.27.037-.497.168-.679.392a1.247 1.247 0 0 0-.273.812v3.836a.162.162 0 0 1-.049.119.162.162 0 0 1-.119.049h-1.638a.162.162 0 0 1-.119-.049.162.162 0 0 1-.049-.119v-6.86a.16.16 0 0 1 .049-.119.162.162 0 0 1 .119-.049h1.638a.16.16 0 0 1 .119.049.162.162 0 0 1 .049.119v.546c0 .037.007.058.021.063.014.005.03-.007.049-.035.327-.56.78-.84 1.358-.84zm2.632-.588c-.345 0-.628-.11-.847-.329-.22-.22-.329-.502-.329-.847s.11-.625.329-.84c.22-.215.502-.322.847-.322s.628.107.847.322c.22.215.329.495.329.84s-.107.628-.322.847c-.215.22-.5.329-.854.329zM273.92 187a.162.162 0 0 1-.119-.049.162.162 0 0 1-.049-.119v-6.86a.16.16 0 0 1 .049-.119.162.162 0 0 1 .119-.049h1.638a.16.16 0 0 1 .119.049.162.162 0 0 1 .049.119v6.86a.162.162 0 0 1-.049.119.162.162 0 0 1-.119.049h-1.638zm3.318 0a.162.162 0 0 1-.119-.049.162.162 0 0 1-.049-.119v-9.464a.16.16 0 0 1 .049-.119.162.162 0 0 1 .119-.049h1.638a.16.16 0 0 1 .119.049.162.162 0 0 1 .049.119v9.464a.162.162 0 0 1-.049.119.162.162 0 0 1-.119.049h-1.638z" fill="#979797" opacity=".6"/><path d="M214.383 213.876c.056 0 .104.02.143.059.04.039.059.087.059.143v1.73c0 .056-.02.104-.059.143a.194.194 0 0 1-.143.059h-.605c-.056 0-.084.028-.084.084v2.704c0 .056-.02.104-.058.143a.194.194 0 0 1-.143.059h-1.966a.194.194 0 0 1-.143-.059.194.194 0 0 1-.058-.143v-2.704c0-.056-.028-.084-.084-.084h-4.654a.194.194 0 0 1-.143-.06.194.194 0 0 1-.059-.142v-1.36a.83.83 0 0 1 .05-.253l2.638-6.804c.034-.1.112-.151.236-.151h2.1c.168 0 .224.078.168.235l-2.42 6.3c-.01.067.012.101.068.101h2.016c.056 0 .084-.028.084-.084v-1.915c0-.056.02-.104.058-.143a.194.194 0 0 1 .143-.059h1.966c.056 0 .103.02.143.059.039.04.058.087.058.143v1.915c0 .056.028.084.084.084h.605zm8.148 2.234c0 .919-.319 1.652-.957 2.201-.639.549-1.484.823-2.537.823-1.008 0-1.826-.274-2.453-.823-.627-.549-.94-1.277-.94-2.184v-.487c0-.056.019-.104.058-.143a.194.194 0 0 1 .143-.059h1.965c.056 0 .104.02.143.06.04.038.059.086.059.142v.252c0 .347.098.63.294.848a.94.94 0 0 0 .73.328c.326 0 .592-.112.799-.336.207-.224.31-.51.31-.857v-1.646c0-.034-.01-.053-.033-.059-.022-.006-.045.003-.067.025-.403.37-.913.555-1.529.555-.594 0-1.109-.143-1.546-.429a2.677 2.677 0 0 1-.99-1.184c-.382-.605-.572-1.333-.572-2.184 0-.773.157-1.44.47-2a2.772 2.772 0 0 1 1.16-1.36c.526-.314 1.17-.47 1.932-.47.728 0 1.355.153 1.881.461.527.308.919.754 1.176 1.336l.034.084c.302.504.453 1.12.453 1.848l.017 5.258zm-2.553-3.981c.112-.28.168-.661.168-1.143a3.7 3.7 0 0 0-.118-.99c-.157-.56-.504-.84-1.042-.84-.526 0-.879.285-1.058.856a3.944 3.944 0 0 0-.118.991c0 .448.056.823.168 1.126.18.47.516.705 1.008.705.482 0 .812-.235.992-.705zM206.806 244a.194.194 0 0 1-.142-.059.194.194 0 0 1-.06-.143v-1.63c0-.089.034-.167.102-.234a105.432 105.432 0 0 0 3.376-4.05c.807-1.04 1.21-1.864 1.21-2.469 0-.392-.106-.703-.32-.932-.212-.23-.498-.345-.856-.345-.347 0-.63.115-.848.345-.219.23-.328.529-.328.899v.554c0 .056-.02.104-.059.143a.194.194 0 0 1-.143.059h-1.999a.194.194 0 0 1-.143-.06.194.194 0 0 1-.058-.142v-.79c.056-.918.42-1.654 1.092-2.209.672-.554 1.517-.831 2.536-.831.706 0 1.325.14 1.857.42.532.28.943.672 1.235 1.176a3.33 3.33 0 0 1 .436 1.696 4 4 0 0 1-.319 1.554c-.213.51-.537 1.056-.974 1.638-.325.437-.711.922-1.16 1.454-.447.532-.895 1.05-1.343 1.554l-.236.268c-.022.023-.028.045-.016.068.01.022.033.033.067.033h3.981c.056 0 .104.02.143.059.04.04.059.087.059.143v1.63c0 .055-.02.103-.059.142a.194.194 0 0 1-.143.059h-6.888zm15.96-5.124c.056 0 .104.02.143.059.04.039.059.087.059.143v1.73c0 .056-.02.104-.059.143a.194.194 0 0 1-.143.059h-.604c-.056 0-.084.028-.084.084v2.704c0 .056-.02.104-.06.143a.194.194 0 0 1-.142.059h-1.966a.194.194 0 0 1-.142-.059.194.194 0 0 1-.06-.143v-2.704c0-.056-.027-.084-.083-.084h-4.654a.194.194 0 0 1-.143-.06.194.194 0 0 1-.058-.142v-1.36a.83.83 0 0 1 .05-.253l2.638-6.804c.033-.1.112-.151.235-.151h2.1c.168 0 .224.078.168.235l-2.42 6.3c-.01.067.012.101.068.101h2.016c.056 0 .084-.028.084-.084v-1.915c0-.056.02-.104.059-.143a.194.194 0 0 1 .142-.059h1.966c.056 0 .104.02.143.059.039.04.059.087.059.143v1.915c0 .056.028.084.084.084h.604zm-14.851 19.414a.72.72 0 0 1 .252-.05h2.033c.056 0 .104.02.143.059a.196.196 0 0 1 .059.143v11.356c0 .056-.02.104-.06.143a.194.194 0 0 1-.142.059h-1.966a.194.194 0 0 1-.142-.059.194.194 0 0 1-.06-.143v-9.256a.112.112 0 0 0-.024-.068c-.017-.022-.037-.028-.06-.016l-1.377.268-.067.017c-.1 0-.151-.061-.151-.185v-1.428c0-.112.05-.19.151-.235l1.411-.605zm10.416 5.813c.381.605.571 1.333.571 2.184 0 .773-.156 1.44-.47 2a2.772 2.772 0 0 1-1.16 1.36c-.526.314-1.17.47-1.931.47-.728 0-1.355-.153-1.882-.461a2.827 2.827 0 0 1-1.176-1.336.138.138 0 0 0-.008-.042.165.165 0 0 0-.042-.059c-.291-.493-.437-1.103-.437-1.831l-.017-5.258c0-.919.32-1.652.958-2.201.638-.549 1.484-.823 2.537-.823 1.008 0 1.825.274 2.452.823.628.549.941 1.277.941 2.184v.487c0 .056-.02.104-.059.143a.194.194 0 0 1-.142.059H216.5a.194.194 0 0 1-.143-.06.194.194 0 0 1-.059-.142v-.252c0-.347-.098-.63-.294-.848a.942.942 0 0 0-.73-.328c-.325 0-.591.112-.798.336-.208.224-.311.51-.311.857v1.646c0 .034.011.053.033.059.023.006.045-.003.068-.025.403-.37.912-.555 1.528-.555.594 0 1.11.143 1.546.429.437.285.767.68.991 1.184zm-1.949 3.125c.079-.302.118-.633.118-.991 0-.448-.056-.823-.168-1.126-.18-.47-.515-.705-1.008-.705-.482 0-.812.235-.991.705-.112.28-.168.661-.168 1.143 0 .38.039.71.117.99.157.56.504.84 1.042.84.526 0 .88-.285 1.058-.856zm-6.467 17.062a.72.72 0 0 1 .252-.05h2.033c.056 0 .104.02.143.059a.196.196 0 0 1 .059.143v11.356c0 .056-.02.104-.06.143a.194.194 0 0 1-.142.059h-1.966a.194.194 0 0 1-.142-.059.194.194 0 0 1-.06-.143v-9.256a.112.112 0 0 0-.024-.068c-.017-.022-.037-.028-.06-.016l-1.377.268-.067.017c-.1 0-.151-.061-.151-.185v-1.428c0-.112.05-.19.151-.235l1.411-.605zm10.769 6.267c.157.493.235 1.047.235 1.663 0 .672-.112 1.277-.336 1.814a2.962 2.962 0 0 1-1.218 1.546c-.577.37-1.268.554-2.075.554-.918 0-1.694-.235-2.326-.705a2.998 2.998 0 0 1-1.185-1.882 5.547 5.547 0 0 1-.151-1.142c0-.135.067-.202.202-.202h1.965c.135 0 .202.067.202.202.022.28.056.515.1.705.068.303.208.544.42.723.213.179.471.269.773.269.292 0 .54-.084.748-.252.207-.168.35-.392.428-.672.09-.336.135-.706.135-1.11 0-.425-.045-.8-.135-1.125a1.385 1.385 0 0 0-.445-.705 1.125 1.125 0 0 0-.73-.252c-.213 0-.437.084-.673.252a.207.207 0 0 1-.117.033.228.228 0 0 1-.168-.067l-.991-1.109a.209.209 0 0 1-.068-.151c0-.045.023-.09.068-.134l2.503-2.436c.022-.023.028-.045.017-.068-.012-.022-.034-.033-.068-.033h-3.746a.194.194 0 0 1-.143-.059.194.194 0 0 1-.059-.143v-1.63c0-.055.02-.103.06-.142a.194.194 0 0 1 .142-.059h6.569c.056 0 .103.02.143.059a.195.195 0 0 1 .058.143v1.68a.429.429 0 0 1-.1.252l-2.084 2.2c-.044.045-.033.079.034.101.493.079.916.283 1.268.613.353.33.602.754.748 1.269zm-8.45 30.628c-1.11 0-1.994-.328-2.655-.983-.66-.655-.991-1.537-.991-2.646v-4.872c0-1.098.33-1.974.991-2.63.661-.654 1.546-.982 2.655-.982 1.108 0 1.996.328 2.662.983.667.655 1 1.531 1 2.629v4.872c0 1.109-.333 1.99-1 2.646-.666.655-1.554.983-2.662.983zm0-2.033c.392 0 .705-.132.94-.395.236-.263.353-.619.353-1.067v-5.124c0-.448-.117-.8-.353-1.058-.235-.258-.548-.386-.94-.386-.392 0-.703.128-.933.386-.23.258-.344.61-.344 1.058v5.124c0 .448.115.804.344 1.067.23.263.54.395.933.395zm11.676-1.042c0 .919-.32 1.652-.958 2.201-.638.549-1.484.823-2.537.823-1.008 0-1.825-.274-2.453-.823-.627-.549-.94-1.277-.94-2.184v-.487c0-.056.02-.104.058-.143a.194.194 0 0 1 .143-.059h1.966c.056 0 .103.02.143.06a.19.19 0 0 1 .058.142v.252c0 .347.098.63.294.848.196.219.44.328.731.328.325 0 .591-.112.798-.336.207-.224.311-.51.311-.857v-1.646c0-.034-.011-.053-.034-.059-.022-.006-.044.003-.067.025-.403.37-.913.555-1.529.555-.593 0-1.108-.143-1.545-.429a2.677 2.677 0 0 1-.991-1.184c-.381-.605-.572-1.333-.572-2.184 0-.773.157-1.44.47-2a2.772 2.772 0 0 1 1.16-1.36c.526-.314 1.17-.47 1.932-.47.728 0 1.355.153 1.882.461.526.308.918.754 1.176 1.336l.033.084c.303.504.454 1.12.454 1.848l.017 5.258zm-2.554-3.981c.112-.28.168-.661.168-1.143a3.7 3.7 0 0 0-.118-.99c-.156-.56-.504-.84-1.041-.84-.527 0-.88.285-1.059.856a3.944 3.944 0 0 0-.117.991c0 .448.056.823.168 1.126.179.47.515.705 1.008.705.481 0 .812-.235.991-.705zm-9.122 32.056c-1.11 0-1.994-.328-2.655-.983-.66-.655-.991-1.537-.991-2.646v-4.872c0-1.098.33-1.974.991-2.63.661-.654 1.546-.982 2.655-.982 1.108 0 1.996.328 2.662.983.667.655 1 1.531 1 2.629v4.872c0 1.109-.333 1.99-1 2.646-.666.655-1.554.983-2.662.983zm0-2.033c.392 0 .705-.132.94-.395.236-.263.353-.619.353-1.067v-5.124c0-.448-.117-.8-.353-1.058-.235-.258-.548-.386-.94-.386-.392 0-.703.128-.933.386-.23.258-.344.61-.344 1.058v5.124c0 .448.115.804.344 1.067.23.263.54.395.933.395zm11.44-4.25c.37.672.555 1.467.555 2.385 0 .818-.174 1.54-.521 2.167-.28.538-.68.95-1.201 1.235-.521.286-1.14.429-1.857.429-.873 0-1.607-.213-2.2-.639-.594-.425-.992-1.036-1.193-1.831a2.655 2.655 0 0 1-.135-.722v-.034c0-.112.062-.168.185-.168h2c.134 0 .207.067.218.202.022.134.045.224.067.268.078.292.207.513.386.664.18.151.404.227.672.227.27 0 .499-.081.69-.244.19-.162.313-.383.369-.663.078-.236.117-.527.117-.874 0-.358-.039-.672-.117-.94-.079-.27-.207-.471-.387-.606a1.089 1.089 0 0 0-.672-.201c-.526 0-.884.218-1.075.655-.033.112-.106.168-.218.168h-2.033a.194.194 0 0 1-.143-.059.194.194 0 0 1-.059-.143v-6.736c0-.056.02-.104.06-.143a.194.194 0 0 1 .142-.059h6.418c.056 0 .103.02.142.059.04.039.06.087.06.143v1.63c0 .055-.02.103-.06.142a.194.194 0 0 1-.142.059h-4.167c-.056 0-.084.028-.084.084l-.017 2.62c0 .045.012.07.034.076.022.006.045-.003.067-.025.448-.347.986-.52 1.613-.52.571 0 1.067.117 1.487.352.42.235.753.582 1 1.042z" fill="#0EE0DC"/><path d="M73.98 139.58c.09 0 .165.031.227.093a.308.308 0 0 1 .093.226v2.607a.308.308 0 0 1-.093.226.308.308 0 0 1-.226.093h-4.043c-.09 0-.133.045-.133.133v14.923a.308.308 0 0 1-.093.226.308.308 0 0 1-.227.093h-3.112a.308.308 0 0 1-.226-.093.308.308 0 0 1-.093-.226v-14.923c0-.088-.044-.133-.133-.133h-3.91a.308.308 0 0 1-.226-.093.308.308 0 0 1-.093-.226v-2.607c0-.088.03-.164.093-.226a.308.308 0 0 1 .226-.093h11.97zm7.377 18.86c-1.224 0-2.301-.249-3.232-.745a5.322 5.322 0 0 1-2.168-2.102c-.514-.904-.772-1.96-.772-3.165v-7.076c0-1.188.258-2.234.772-3.139a5.322 5.322 0 0 1 2.168-2.101c.93-.497 2.008-.745 3.232-.745 1.223 0 2.305.248 3.245.745a5.302 5.302 0 0 1 2.181 2.101c.514.905.771 1.951.771 3.14v7.075c0 1.206-.257 2.26-.771 3.165a5.302 5.302 0 0 1-2.181 2.102c-.94.496-2.022.744-3.245.744zm0-3.22c.744 0 1.338-.243 1.782-.73.443-.488.665-1.122.665-1.903v-7.341c0-.798-.222-1.441-.665-1.929-.444-.487-1.038-.731-1.782-.731-.727 0-1.313.244-1.756.731-.443.488-.665 1.13-.665 1.929v7.341c0 .78.222 1.415.665 1.902.443.488 1.029.732 1.756.732zm15.09-15.667c1.063 0 2.008.24 2.832.719a4.9 4.9 0 0 1 1.916 2.021c.452.87.678 1.862.678 2.98 0 1.099-.226 2.07-.678 2.912a4.786 4.786 0 0 1-1.916 1.955c-.824.461-1.769.692-2.833.692h-2.872c-.09 0-.133.044-.133.133v6.916a.308.308 0 0 1-.093.226.308.308 0 0 1-.227.093H90.01a.308.308 0 0 1-.226-.093.308.308 0 0 1-.093-.226v-18.008a.31.31 0 0 1 .093-.227.308.308 0 0 1 .226-.093h6.437zm-.612 8.3c.691 0 1.245-.226 1.662-.679.417-.452.625-1.06.625-1.822 0-.78-.208-1.4-.625-1.862-.417-.46-.97-.691-1.662-.691h-2.261c-.09 0-.133.044-.133.133v4.788c0 .088.044.133.133.133h2.26zm19.486-8.3c1.064 0 2.008.24 2.833.719a4.9 4.9 0 0 1 1.915 2.021c.452.87.678 1.862.678 2.98 0 1.099-.226 2.07-.678 2.912a4.786 4.786 0 0 1-1.915 1.955c-.825.461-1.769.692-2.833.692h-2.873c-.088 0-.133.044-.133.133v6.916a.308.308 0 0 1-.093.226.308.308 0 0 1-.226.093h-3.112a.308.308 0 0 1-.226-.093.308.308 0 0 1-.093-.226v-18.008c0-.09.03-.164.093-.227a.308.308 0 0 1 .226-.093h6.437zm-.612 8.3c.692 0 1.246-.226 1.663-.679.416-.452.625-1.06.625-1.822 0-.78-.209-1.4-.625-1.862-.417-.46-.971-.691-1.663-.691h-2.26c-.09 0-.134.044-.134.133v4.788c0 .088.045.133.133.133h2.261zm16.526 10.347c-.177 0-.292-.089-.345-.266l-.612-2.607c-.018-.07-.062-.106-.133-.106h-4.974c-.071 0-.116.035-.133.106l-.612 2.607c-.053.177-.178.266-.373.266h-3.218c-.23 0-.32-.115-.266-.346l4.788-18.008c.053-.177.177-.266.372-.266h3.857c.195 0 .32.089.373.266l4.814 18.008.027.107c0 .16-.098.239-.293.239h-3.272zm-5.453-6.038c-.017.053-.008.093.027.12.035.026.07.04.106.04h3.512c.035 0 .07-.014.106-.04.035-.027.044-.067.027-.12l-1.783-7.555c-.017-.07-.044-.102-.08-.093-.035.01-.061.04-.08.093l-1.835 7.555zm13.175 6.011a.308.308 0 0 1-.226-.093.308.308 0 0 1-.093-.226v-6.81l-.027-.159-4.602-10.933a.37.37 0 0 1-.026-.16c0-.141.088-.212.266-.212h3.351c.195 0 .32.089.373.266l2.474 6.73c.017.053.044.08.08.08.035 0 .061-.027.08-.08l2.473-6.73c.053-.177.177-.266.372-.266h3.352c.124 0 .204.035.24.106.035.071.035.16 0 .266l-4.629 10.933-.027.16v6.81a.308.308 0 0 1-.093.225.308.308 0 0 1-.226.093h-3.112zm21.101-15.694a.308.308 0 0 1-.093.226.308.308 0 0 1-.226.094h-7.129c-.088 0-.133.044-.133.133v4.15c0 .088.045.132.133.132h4.443c.088 0 .164.031.226.093a.308.308 0 0 1 .093.226v2.58a.308.308 0 0 1-.093.227.308.308 0 0 1-.226.093h-4.443c-.088 0-.133.044-.133.133v4.282c0 .09.045.133.133.133h7.13c.088 0 .163.031.225.093a.308.308 0 0 1 .093.227v2.58a.308.308 0 0 1-.093.226.308.308 0 0 1-.226.093h-10.693a.308.308 0 0 1-.226-.093.308.308 0 0 1-.093-.226v-17.982c0-.088.03-.164.093-.226a.308.308 0 0 1 .226-.093h10.693c.089 0 .164.031.226.093a.308.308 0 0 1 .093.226v2.58zm10.728 15.721c-.195 0-.32-.089-.373-.266l-2.686-7.342c-.036-.07-.08-.106-.133-.106h-1.676c-.089 0-.133.044-.133.133v7.262a.308.308 0 0 1-.093.226.308.308 0 0 1-.226.093h-3.112a.308.308 0 0 1-.226-.093.308.308 0 0 1-.094-.226v-18.008c0-.09.031-.164.094-.227a.308.308 0 0 1 .226-.093h6.49c1.046 0 1.977.235 2.793.705a4.79 4.79 0 0 1 1.889 1.982c.443.851.665 1.827.665 2.926 0 1.135-.253 2.124-.758 2.966a4.625 4.625 0 0 1-2.115 1.875c-.071.036-.089.098-.053.186l3.032 7.635c.018.035.027.08.027.133 0 .16-.098.239-.293.239h-3.245zm-4.868-15.401c-.089 0-.133.044-.133.133v4.522c0 .088.044.133.133.133h2.314c.656 0 1.188-.218 1.596-.652.408-.435.612-1.006.612-1.716 0-.745-.204-1.334-.612-1.769-.408-.434-.94-.651-1.596-.651h-2.314zM65.292 219.357c-.889 0-1.673-.177-2.352-.53a3.798 3.798 0 0 1-1.578-1.499c-.372-.647-.558-1.395-.558-2.244v-5.508c0-.849.186-1.594.558-2.234a3.817 3.817 0 0 1 1.578-1.49c.68-.352 1.463-.529 2.352-.529.875 0 1.656.173 2.342.52.686.346 1.215.83 1.588 1.45.372.62.558 1.323.558 2.107v.431a.226.226 0 0 1-.068.167.227.227 0 0 1-.167.068h-2.293a.227.227 0 0 1-.167-.068.227.227 0 0 1-.068-.167v-.411c0-.497-.157-.909-.47-1.235-.314-.327-.732-.49-1.255-.49-.523 0-.944.17-1.264.51-.32.34-.48.783-.48 1.332v5.606c0 .549.166.993.5 1.333.333.34.767.51 1.303.51.51 0 .918-.151 1.225-.452.307-.3.46-.712.46-1.234v-1.216c0-.065-.032-.098-.098-.098H65.41a.227.227 0 0 1-.167-.068.227.227 0 0 1-.069-.167v-1.783c0-.066.023-.121.069-.167a.227.227 0 0 1 .167-.069h4.135c.066 0 .121.023.167.069a.227.227 0 0 1 .068.167v3.116c0 1.307-.408 2.345-1.225 3.116-.816.771-1.904 1.157-3.263 1.157zm9.668-10.388c.797 0 1.503.14 2.117.421.614.281 1.095.673 1.44 1.176.347.503.52 1.075.52 1.715v6.684c0 .065-.023.12-.068.166a.227.227 0 0 1-.167.069h-2.293a.227.227 0 0 1-.167-.069.227.227 0 0 1-.068-.166v-.53c0-.039-.013-.065-.04-.078-.026-.013-.052 0-.078.04-.523.64-1.307.96-2.352.96-.875 0-1.607-.229-2.195-.686-.588-.458-.882-1.222-.882-2.293 0-2.13 1.333-3.195 3.998-3.195h1.45c.066 0 .099-.033.099-.098v-.451c0-.392-.115-.706-.343-.94-.23-.236-.546-.354-.951-.354-.3 0-.555.072-.764.216a.919.919 0 0 0-.392.588c-.04.13-.131.196-.275.196l-2.371-.137a.247.247 0 0 1-.167-.059c-.046-.04-.062-.091-.049-.157.065-.901.467-1.63 1.205-2.185.739-.556 1.67-.833 2.793-.833zm-.294 8.29c.445 0 .824-.124 1.137-.372a1.19 1.19 0 0 0 .47-.98v-.823c0-.065-.032-.098-.097-.098h-1.118c-.47 0-.842.105-1.117.314-.274.209-.411.51-.411.901 0 .34.104.601.313.784.21.183.484.275.823.275zm8.022 1.941c-.143 0-.235-.065-.274-.196l-2.724-9.624-.02-.078c0-.118.072-.176.216-.176h2.528c.144 0 .229.071.255.215l1.254 5.88c.013.052.033.079.059.079.026 0 .046-.027.059-.079l1.254-5.88c.026-.144.111-.215.255-.215l2.528.02c.17 0 .236.084.196.254l-2.724 9.604c-.04.13-.13.196-.274.196h-2.588zm8.16-11.035c-.484 0-.88-.153-1.186-.46-.307-.307-.46-.703-.46-1.186 0-.484.153-.876.46-1.176.307-.3.702-.451 1.186-.451.483 0 .878.15 1.185.45.307.301.461.693.461 1.177 0 .483-.15.879-.45 1.186-.301.307-.7.46-1.196.46zM89.69 219.2a.227.227 0 0 1-.166-.069.227.227 0 0 1-.069-.166v-9.604c0-.066.023-.121.069-.167a.227.227 0 0 1 .166-.068h2.293c.066 0 .121.022.167.068a.227.227 0 0 1 .069.167v9.604c0 .065-.023.12-.069.166a.227.227 0 0 1-.167.069H89.69zm9.198-10.231c.954 0 1.702.304 2.244.911.543.608.814 1.454.814 2.538v6.547c0 .065-.023.12-.069.166a.227.227 0 0 1-.166.069h-2.294a.227.227 0 0 1-.166-.069.227.227 0 0 1-.069-.166v-6.155c0-.457-.11-.816-.333-1.078-.222-.26-.523-.392-.902-.392-.392 0-.702.134-.93.402-.23.268-.344.63-.344 1.088v6.135c0 .065-.022.12-.068.166a.227.227 0 0 1-.167.069h-2.293a.227.227 0 0 1-.167-.069.227.227 0 0 1-.068-.166v-9.604a.23.23 0 0 1 .068-.167.227.227 0 0 1 .167-.068h2.293c.066 0 .121.022.167.068a.227.227 0 0 1 .068.167v.529c0 .04.013.062.04.069.026.006.058-.01.098-.05.483-.627 1.176-.94 2.077-.94zm8.655 10.231a.227.227 0 0 1-.167-.069.227.227 0 0 1-.068-.166v-13.25c0-.065.023-.12.068-.166a.227.227 0 0 1 .167-.069h2.293c.066 0 .121.023.167.069a.227.227 0 0 1 .068.166v11.015c0 .066.033.098.098.098h5.253c.066 0 .121.023.167.069a.227.227 0 0 1 .068.167v1.9a.224.224 0 0 1-.068.167.227.227 0 0 1-.167.069h-7.879zm13.196.157c-1.136 0-2.064-.288-2.783-.863-.718-.575-1.15-1.372-1.293-2.39a13.843 13.843 0 0 1-.138-1.96c0-.81.046-1.47.138-1.98.156-.98.594-1.758 1.313-2.333.718-.575 1.646-.862 2.783-.862 1.11 0 2.025.287 2.744.862.719.575 1.15 1.346 1.294 2.313.104.601.156 1.26.156 1.98 0 .653-.045 1.3-.137 1.94-.144 1.032-.575 1.84-1.293 2.42-.72.582-1.647.873-2.784.873zm0-2.372c.366 0 .667-.117.902-.353.235-.235.385-.548.45-.94a12.8 12.8 0 0 0 .08-1.549c0-.614-.027-1.124-.08-1.529-.065-.392-.215-.702-.45-.93-.235-.23-.536-.344-.902-.344-.365 0-.666.115-.901.343-.235.23-.386.54-.451.931a11.71 11.71 0 0 0-.098 1.53c0 .404.026.92.078 1.548.066.392.223.705.47.94.25.236.55.353.902.353zm10.63-6.017a.23.23 0 0 1-.07.167.227.227 0 0 1-.166.068h-1.51c-.065 0-.097.033-.097.098v4.371c0 .405.081.696.245.872.163.177.415.258.754.245h.392c.066 0 .121.023.167.069a.227.227 0 0 1 .069.166v1.902c0 .156-.079.235-.236.235-.222.013-.548.02-.98.02-1.032 0-1.8-.17-2.303-.51-.503-.34-.754-.98-.754-1.921v-5.449c0-.065-.033-.098-.098-.098h-.902a.227.227 0 0 1-.166-.068.227.227 0 0 1-.069-.167v-1.607c0-.066.023-.121.069-.167a.227.227 0 0 1 .166-.068h.902c.065 0 .098-.033.098-.098v-2.254a.23.23 0 0 1 .068-.167.227.227 0 0 1 .167-.069h2.176c.065 0 .12.023.166.069a.227.227 0 0 1 .069.167v2.254c0 .065.032.098.098.098h1.509c.065 0 .12.022.167.068a.227.227 0 0 1 .068.167v1.607zm4.866 8.37c-1.216 0-2.186-.269-2.911-.804-.725-.536-1.088-1.242-1.088-2.117v-.157a.23.23 0 0 1 .069-.167.227.227 0 0 1 .166-.068h2.176a.33.33 0 0 1 .167.039c.045.026.068.059.068.098v.137c0 .288.128.523.382.706.255.183.572.274.951.274.353 0 .637-.081.853-.245.215-.163.323-.369.323-.617s-.118-.441-.353-.578c-.235-.138-.607-.285-1.117-.441a7.872 7.872 0 0 1-.94-.314c-.785-.261-1.422-.614-1.912-1.058-.49-.445-.735-1.085-.735-1.921 0-.954.346-1.712 1.039-2.274s1.607-.843 2.744-.843c1.176 0 2.114.291 2.813.873.699.581 1.048 1.355 1.048 2.322 0 .144-.078.216-.235.216h-2.097a.28.28 0 0 1-.167-.05c-.046-.032-.068-.068-.068-.107v-.137a.845.845 0 0 0-.343-.686c-.23-.183-.533-.275-.912-.275-.353 0-.637.085-.852.255-.216.17-.324.38-.324.627 0 .275.13.487.392.637.262.15.66.304 1.196.461.117.04.232.075.343.108.11.032.212.068.304.108.888.3 1.6.663 2.136 1.087.536.425.804 1.056.804 1.892 0 .94-.356 1.679-1.069 2.215-.712.535-1.662.803-2.851.803zm9.06.019c-1.136 0-2.064-.288-2.783-.863-.718-.575-1.15-1.372-1.293-2.39a13.843 13.843 0 0 1-.138-1.96c0-.81.046-1.47.138-1.98.156-.98.594-1.758 1.313-2.333.718-.575 1.646-.862 2.783-.862 1.11 0 2.025.287 2.744.862.719.575 1.15 1.346 1.294 2.313.104.601.156 1.26.156 1.98 0 .653-.045 1.3-.137 1.94-.144 1.032-.575 1.84-1.293 2.42-.72.582-1.647.873-2.784.873zm0-2.372c.366 0 .667-.117.902-.353.235-.235.385-.548.45-.94a12.8 12.8 0 0 0 .08-1.549c0-.614-.027-1.124-.08-1.529-.065-.392-.215-.702-.45-.93-.235-.23-.536-.344-.902-.344-.365 0-.666.115-.901.343-.235.23-.386.54-.451.931a11.71 11.71 0 0 0-.098 1.53c0 .404.026.92.078 1.548.066.392.223.705.47.94.25.236.55.353.902.353zm10.55-8.016c.955 0 1.703.304 2.245.911.542.608.813 1.454.813 2.538v6.547c0 .065-.022.12-.068.166a.227.227 0 0 1-.167.069h-2.293a.227.227 0 0 1-.167-.069.227.227 0 0 1-.068-.166v-6.155c0-.457-.111-.816-.333-1.078-.223-.26-.523-.392-.902-.392-.392 0-.702.134-.931.402-.229.268-.343.63-.343 1.088v6.135c0 .065-.023.12-.069.166a.227.227 0 0 1-.166.069h-2.293a.227.227 0 0 1-.167-.069.227.227 0 0 1-.069-.166v-9.604c0-.066.023-.121.069-.167a.227.227 0 0 1 .167-.068h2.293c.065 0 .12.022.166.068a.227.227 0 0 1 .069.167v.529c0 .04.013.062.04.069.025.006.058-.01.097-.05.484-.627 1.176-.94 2.078-.94zm-86.28 21.511c.065 0 .12.023.166.069a.227.227 0 0 1 .069.166v1.921a.23.23 0 0 1-.069.167.227.227 0 0 1-.166.068h-2.98c-.065 0-.097.033-.097.098v10.996c0 .065-.023.12-.069.166a.227.227 0 0 1-.167.069H63.96a.227.227 0 0 1-.166-.069.227.227 0 0 1-.069-.166v-10.996c0-.065-.033-.098-.098-.098h-2.881a.227.227 0 0 1-.167-.068.227.227 0 0 1-.068-.167v-1.92c0-.066.022-.122.068-.167a.227.227 0 0 1 .167-.069h8.82zm5.337 3.508c.379 0 .699.079.96.236.105.065.144.163.118.294l-.373 2.273c-.013.157-.104.203-.274.137a2.43 2.43 0 0 0-.588-.078c-.157 0-.327.02-.51.059a1.446 1.446 0 0 0-.95.549c-.255.313-.383.692-.383 1.136v5.37a.224.224 0 0 1-.068.167.227.227 0 0 1-.167.069h-2.293a.227.227 0 0 1-.167-.069.227.227 0 0 1-.068-.166v-9.604a.23.23 0 0 1 .068-.167.227.227 0 0 1 .167-.068h2.293c.066 0 .121.022.167.068a.227.227 0 0 1 .068.167v.764c0 .052.01.082.03.088.02.007.042-.01.068-.049.458-.784 1.091-1.176 1.902-1.176zm3.474-.823c-.483 0-.878-.153-1.185-.46-.307-.307-.461-.703-.461-1.186 0-.484.154-.876.46-1.176.308-.3.703-.451 1.186-.451.484 0 .88.15 1.186.45.307.301.46.693.46 1.177 0 .483-.15.879-.45 1.186-.3.307-.7.46-1.196.46zM77.22 244.2a.227.227 0 0 1-.167-.069.227.227 0 0 1-.068-.166v-9.604a.23.23 0 0 1 .068-.167.227.227 0 0 1 .167-.068h2.293c.066 0 .121.022.167.068a.227.227 0 0 1 .068.167v9.604c0 .065-.022.12-.068.166a.227.227 0 0 1-.167.069H77.22zm7.924.137c-1.215 0-2.185-.268-2.91-.803-.726-.536-1.088-1.242-1.088-2.117v-.157c0-.065.022-.12.068-.167a.227.227 0 0 1 .167-.068h2.175a.33.33 0 0 1 .167.039c.046.026.069.059.069.098v.137c0 .288.127.523.382.706.255.183.571.274.95.274.353 0 .637-.081.853-.245.216-.163.323-.369.323-.617s-.117-.441-.352-.578c-.236-.138-.608-.285-1.118-.441a7.872 7.872 0 0 1-.94-.314c-.784-.261-1.421-.614-1.911-1.058-.49-.445-.735-1.085-.735-1.921 0-.954.346-1.712 1.038-2.274.693-.562 1.608-.843 2.744-.843 1.176 0 2.114.291 2.813.873.7.581 1.049 1.355 1.049 2.322 0 .144-.079.216-.236.216h-2.097a.28.28 0 0 1-.166-.05c-.046-.032-.069-.068-.069-.107v-.137a.845.845 0 0 0-.343-.686c-.229-.183-.532-.275-.911-.275-.353 0-.637.085-.853.255-.216.17-.323.38-.323.627 0 .275.13.487.392.637.26.15.66.304 1.195.461.118.04.232.075.343.108.111.032.213.068.304.108.889.3 1.6.663 2.136 1.087.536.425.804 1.056.804 1.892 0 .94-.356 1.679-1.068 2.215-.712.535-1.663.803-2.852.803zm10.217-8.369c0 .065-.023.12-.068.167a.227.227 0 0 1-.167.068h-1.51c-.065 0-.097.033-.097.098v4.371c0 .405.081.696.245.872.163.177.415.258.754.245h.392c.066 0 .121.023.167.069a.227.227 0 0 1 .069.166v1.902c0 .156-.079.235-.236.235a18.1 18.1 0 0 1-.98.02c-1.032 0-1.8-.17-2.303-.51-.503-.34-.754-.98-.754-1.921v-5.449c0-.065-.033-.098-.098-.098h-.902a.227.227 0 0 1-.166-.068.227.227 0 0 1-.069-.167v-1.607c0-.066.023-.121.069-.167a.227.227 0 0 1 .166-.068h.902c.065 0 .098-.033.098-.098v-2.254a.23.23 0 0 1 .068-.167.227.227 0 0 1 .167-.069h2.176c.065 0 .12.023.166.069a.227.227 0 0 1 .069.167v2.254c0 .065.032.098.098.098h1.509c.065 0 .12.022.167.068a.227.227 0 0 1 .068.167v1.607zm4.984-2c.797 0 1.503.141 2.117.422.614.281 1.094.673 1.44 1.176.347.503.52 1.075.52 1.715v6.684c0 .065-.023.12-.069.166a.227.227 0 0 1-.166.069h-2.293a.227.227 0 0 1-.167-.069.227.227 0 0 1-.069-.166v-.53c0-.039-.013-.065-.039-.078-.026-.013-.052 0-.078.04-.523.64-1.307.96-2.352.96-.876 0-1.607-.229-2.195-.686-.588-.458-.882-1.222-.882-2.293 0-2.13 1.332-3.195 3.998-3.195h1.45c.066 0 .098-.033.098-.098v-.451c0-.392-.114-.706-.343-.94-.228-.236-.545-.354-.95-.354-.3 0-.556.072-.765.216a.919.919 0 0 0-.392.588c-.039.13-.13.196-.274.196l-2.372-.137a.247.247 0 0 1-.166-.059c-.046-.04-.062-.091-.05-.157.066-.901.468-1.63 1.206-2.185.738-.556 1.67-.833 2.793-.833zm-.294 8.292c.444 0 .823-.125 1.137-.373a1.19 1.19 0 0 0 .47-.98v-.823c0-.065-.032-.098-.098-.098h-1.117c-.47 0-.843.105-1.117.314-.274.209-.412.51-.412.901 0 .34.105.601.314.784.21.183.483.275.823.275zm10.766-8.291c.954 0 1.702.304 2.244.911.543.608.814 1.454.814 2.538v6.547c0 .065-.023.12-.069.166a.227.227 0 0 1-.166.069h-2.294a.227.227 0 0 1-.166-.069.227.227 0 0 1-.069-.166v-6.155c0-.457-.11-.816-.333-1.078-.222-.26-.523-.392-.902-.392-.392 0-.702.134-.93.402-.23.268-.344.63-.344 1.088v6.135c0 .065-.022.12-.068.166a.227.227 0 0 1-.167.069h-2.293a.227.227 0 0 1-.167-.069.227.227 0 0 1-.068-.166v-9.604a.23.23 0 0 1 .068-.167.227.227 0 0 1 .167-.068h2.293c.066 0 .121.022.167.068a.227.227 0 0 1 .068.167v.529c0 .04.013.062.04.069.026.006.058-.01.098-.05.483-.627 1.176-.94 2.077-.94zm8.655 10.231a.227.227 0 0 1-.167-.069.227.227 0 0 1-.068-.166v-13.25c0-.065.023-.12.068-.166a.227.227 0 0 1 .167-.069h2.293c.066 0 .121.023.167.069a.227.227 0 0 1 .068.166v11.015c0 .066.033.098.098.098h5.253c.066 0 .121.023.167.069a.227.227 0 0 1 .068.167v1.9a.224.224 0 0 1-.068.167.227.227 0 0 1-.167.069h-7.879zm8.884 3.9c-.039 0-.071-.022-.098-.068a.33.33 0 0 1-.039-.167v-1.803a.33.33 0 0 1 .04-.167c.026-.045.052-.068.078-.068h.098c.732 0 1.257-.105 1.578-.314.32-.209.532-.627.637-1.254l-.02-.118-2.822-9.741-.02-.078c0-.131.072-.196.216-.196h2.45c.143 0 .228.071.254.215l1.294 5.9c.013.052.033.078.059.078.026 0 .046-.026.059-.078l1.215-5.9c.026-.144.11-.215.255-.215h2.47c.078 0 .136.026.176.078.039.052.045.118.02.196l-2.98 10.172c-.287.954-.591 1.67-.911 2.147-.32.477-.775.826-1.363 1.048-.588.222-1.43.333-2.528.333h-.118zm12.413-3.743c-1.137 0-2.065-.288-2.783-.863-.72-.575-1.15-1.372-1.294-2.39a13.843 13.843 0 0 1-.137-1.96c0-.81.046-1.47.137-1.98.157-.98.595-1.758 1.313-2.333.719-.575 1.647-.862 2.783-.862 1.111 0 2.026.287 2.744.862.72.575 1.15 1.346 1.294 2.313.105.601.157 1.26.157 1.98 0 .653-.046 1.3-.137 1.94-.144 1.032-.575 1.84-1.294 2.42-.719.582-1.646.873-2.783.873zm0-2.372c.366 0 .666-.117.901-.353.236-.235.386-.548.451-.94a12.8 12.8 0 0 0 .079-1.549c0-.614-.027-1.124-.079-1.529-.065-.392-.215-.702-.45-.93-.236-.23-.536-.344-.902-.344s-.667.115-.902.343c-.235.23-.385.54-.45.931a11.71 11.71 0 0 0-.099 1.53c0 .404.027.92.079 1.548.065.392.222.705.47.94.248.236.549.353.902.353zm10.55-8.016c.954 0 1.702.304 2.244.911.543.608.814 1.454.814 2.538v6.547c0 .065-.023.12-.069.166a.227.227 0 0 1-.166.069h-2.294a.227.227 0 0 1-.166-.069.227.227 0 0 1-.069-.166v-6.155c0-.457-.11-.816-.333-1.078-.222-.26-.523-.392-.902-.392-.392 0-.702.134-.93.402-.23.268-.344.63-.344 1.088v6.135c0 .065-.022.12-.068.166a.227.227 0 0 1-.167.069h-2.293a.227.227 0 0 1-.167-.069.227.227 0 0 1-.068-.166v-9.604a.23.23 0 0 1 .068-.167.227.227 0 0 1 .167-.068h2.293c.066 0 .121.022.167.068a.227.227 0 0 1 .068.167v.529c0 .04.013.062.04.069.026.006.058-.01.098-.05.483-.627 1.176-.94 2.077-.94zm8.747 8.036c.353-.013.647-.105.882-.275.236-.17.419-.392.55-.666.065-.144.163-.196.293-.157l1.862.392c.157.04.216.137.177.294-.262.863-.729 1.539-1.402 2.029-.673.49-1.506.735-2.499.735-1.032 0-1.894-.265-2.587-.794-.693-.53-1.143-1.232-1.352-2.107-.183-.653-.275-1.47-.275-2.45 0-.653.026-1.19.079-1.607.13-1.072.545-1.914 1.244-2.529.7-.614 1.637-.92 2.813-.92 1.254 0 2.218.33 2.89.989.674.66 1.069 1.597 1.187 2.813a21.5 21.5 0 0 1 .098 2.018c0 .157-.079.236-.236.236h-5.213c-.066 0-.098.032-.098.098 0 .274.02.51.059.705.065.366.235.657.51.872.274.216.613.324 1.018.324zm-.235-5.665c-.705 0-1.13.38-1.274 1.137-.026.13-.052.366-.078.706 0 .065.032.098.098.098h2.548c.065 0 .098-.033.098-.098 0-.157-.026-.38-.079-.667-.052-.365-.19-.653-.411-.862-.222-.21-.523-.314-.902-.314zm9.179 7.997c-1.216 0-2.186-.268-2.911-.803-.725-.536-1.088-1.242-1.088-2.117v-.157a.23.23 0 0 1 .069-.167.227.227 0 0 1 .166-.068h2.176a.33.33 0 0 1 .167.039c.045.026.068.059.068.098v.137c0 .288.128.523.382.706.255.183.572.274.951.274.353 0 .637-.081.853-.245.215-.163.323-.369.323-.617s-.118-.441-.353-.578c-.235-.138-.607-.285-1.117-.441a7.872 7.872 0 0 1-.94-.314c-.785-.261-1.422-.614-1.912-1.058-.49-.445-.735-1.085-.735-1.921 0-.954.346-1.712 1.039-2.274s1.607-.843 2.744-.843c1.176 0 2.114.291 2.813.873.699.581 1.048 1.355 1.048 2.322 0 .144-.078.216-.235.216h-2.097a.28.28 0 0 1-.167-.05c-.046-.032-.068-.068-.068-.107v-.137a.845.845 0 0 0-.343-.686c-.23-.183-.533-.275-.912-.275-.353 0-.637.085-.852.255-.216.17-.324.38-.324.627 0 .275.13.487.392.637.262.15.66.304 1.196.461.117.04.232.075.343.108.11.032.212.068.304.108.888.3 1.6.663 2.136 1.087.536.425.804 1.056.804 1.892 0 .94-.356 1.679-1.069 2.215-.712.535-1.662.803-2.851.803zM65.958 255.46c.784 0 1.48.177 2.088.53a3.61 3.61 0 0 1 1.411 1.49c.333.64.5 1.371.5 2.194 0 .81-.167 1.526-.5 2.147-.333.62-.804 1.1-1.411 1.44-.608.34-1.304.51-2.088.51h-2.116c-.066 0-.098.032-.098.098v5.096c0 .065-.023.12-.069.166a.227.227 0 0 1-.167.069h-2.293a.227.227 0 0 1-.166-.069.227.227 0 0 1-.069-.166v-13.27c0-.065.023-.12.069-.166a.227.227 0 0 1 .166-.069h4.743zm-.45 6.116c.51 0 .918-.167 1.225-.5.307-.333.46-.78.46-1.343 0-.575-.153-1.032-.46-1.372-.307-.34-.716-.51-1.225-.51h-1.666c-.066 0-.098.033-.098.099v3.528c0 .065.032.098.098.098h1.666zm9.472 5.429c.353-.013.647-.105.882-.275.235-.17.418-.392.549-.666.065-.144.163-.196.294-.157l1.862.392c.157.04.215.137.176.294-.261.863-.728 1.539-1.401 2.029s-1.506.735-2.5.735c-1.031 0-1.894-.265-2.586-.794-.693-.53-1.144-1.232-1.353-2.107-.183-.653-.274-1.47-.274-2.45 0-.653.026-1.19.078-1.607.13-1.072.546-1.914 1.245-2.529.699-.614 1.636-.92 2.812-.92 1.255 0 2.218.33 2.891.989.673.66 1.069 1.597 1.186 2.813a21.5 21.5 0 0 1 .098 2.018c0 .157-.078.236-.235.236H73.49c-.065 0-.098.032-.098.098 0 .274.02.51.06.705.065.366.234.657.509.872.274.216.614.324 1.019.324zm-.235-5.665c-.706 0-1.13.38-1.274 1.137-.026.13-.052.366-.079.706 0 .065.033.098.098.098h2.548c.066 0 .098-.033.098-.098 0-.157-.026-.38-.078-.667-.052-.365-.19-.653-.412-.862-.222-.21-.522-.314-.901-.314zm10.237-2.352c.379 0 .699.079.96.236.105.065.144.163.118.294l-.373 2.273c-.013.157-.104.203-.274.137a2.43 2.43 0 0 0-.588-.078c-.157 0-.327.02-.51.059a1.446 1.446 0 0 0-.95.549c-.255.313-.383.692-.383 1.136v5.37a.224.224 0 0 1-.068.167.227.227 0 0 1-.167.069h-2.293a.227.227 0 0 1-.167-.069.227.227 0 0 1-.068-.166v-9.604a.23.23 0 0 1 .068-.167.227.227 0 0 1 .167-.068h2.293c.066 0 .121.022.167.068a.227.227 0 0 1 .068.167v.764c0 .052.01.082.03.088.02.007.042-.01.068-.049.458-.784 1.091-1.176 1.902-1.176zm5.768 10.369c-1.098 0-2.003-.278-2.715-.833-.712-.556-1.153-1.317-1.323-2.284-.105-.535-.157-1.24-.157-2.116 0-.654.052-1.346.157-2.078.17-.94.614-1.689 1.333-2.244.718-.556 1.62-.833 2.705-.833 1.058 0 1.95.268 2.675.803a3.34 3.34 0 0 1 1.343 2.117c.026.118.052.307.078.569 0 .143-.078.228-.235.254l-2.254.216h-.04c-.117 0-.189-.072-.215-.216a.688.688 0 0 0-.02-.196 3.766 3.766 0 0 0-.078-.274 1.25 1.25 0 0 0-.45-.647c-.223-.17-.497-.255-.824-.255-.353 0-.64.105-.862.314-.223.21-.366.497-.432.862-.078.432-.117.974-.117 1.627 0 .719.046 1.28.137 1.686.065.353.206.634.421.843.216.209.5.313.853.313.379 0 .683-.104.911-.313.23-.21.363-.47.402-.784l.04-.236a.318.318 0 0 1 .088-.166.174.174 0 0 1 .166-.05l2.274.197c.144.026.215.11.215.255 0 .078-.013.209-.039.392-.13.953-.558 1.705-1.284 2.254-.725.548-1.643.823-2.753.823zm4.964 3.743c-.04 0-.072-.022-.098-.068a.33.33 0 0 1-.04-.167v-1.803a.33.33 0 0 1 .04-.167c.026-.045.052-.068.078-.068h.098c.732 0 1.258-.105 1.578-.314.32-.209.533-.627.637-1.254l-.02-.118-2.822-9.741-.02-.078c0-.131.072-.196.216-.196h2.45c.144 0 .229.071.255.215l1.294 5.9c.013.052.032.078.058.078.027 0 .046-.026.06-.078l1.214-5.9c.027-.144.111-.215.255-.215h2.47c.078 0 .137.026.176.078.04.052.046.118.02.196l-2.98 10.172c-.287.954-.59 1.67-.91 2.147-.32.477-.775.826-1.363 1.048-.588.222-1.43.333-2.528.333h-.118zm12.986-3.9a.227.227 0 0 1-.166-.069.227.227 0 0 1-.069-.166v-13.25c0-.065.023-.12.069-.166a.227.227 0 0 1 .166-.069h4.214c.876 0 1.65.163 2.323.49.673.327 1.192.79 1.558 1.392.366.6.549 1.3.549 2.097v5.762c0 .797-.183 1.496-.549 2.097a3.631 3.631 0 0 1-1.558 1.392c-.673.327-1.447.49-2.323.49H108.7zm2.529-2.47c0 .066.032.098.098.098l1.607-.02c.483 0 .875-.172 1.176-.519.3-.346.457-.806.47-1.381v-5.136c0-.588-.15-1.055-.45-1.401-.3-.346-.7-.52-1.196-.52h-1.607c-.066 0-.098.033-.098.099v8.78zm11.393-7.761c.797 0 1.503.14 2.117.421.614.281 1.094.673 1.44 1.176.347.503.52 1.075.52 1.715v6.684c0 .065-.023.12-.069.166a.227.227 0 0 1-.166.069h-2.294a.227.227 0 0 1-.166-.069.227.227 0 0 1-.069-.166v-.53c0-.039-.013-.065-.039-.078-.026-.013-.052 0-.078.04-.523.64-1.307.96-2.352.96-.876 0-1.608-.229-2.196-.686-.588-.458-.882-1.222-.882-2.293 0-2.13 1.333-3.195 3.999-3.195h1.45c.066 0 .098-.033.098-.098v-.451c0-.392-.114-.706-.343-.94-.228-.236-.545-.354-.95-.354-.3 0-.556.072-.765.216a.919.919 0 0 0-.392.588c-.039.13-.13.196-.274.196l-2.372-.137a.247.247 0 0 1-.166-.059c-.046-.04-.062-.091-.05-.157.066-.901.468-1.63 1.206-2.185.738-.556 1.67-.833 2.793-.833zm-.294 8.29c.444 0 .823-.124 1.137-.372a1.19 1.19 0 0 0 .47-.98v-.823c0-.065-.032-.098-.098-.098h-1.117c-.47 0-.843.105-1.117.314-.275.209-.412.51-.412.901 0 .34.105.601.314.784.209.183.483.275.823.275zm7.748 1.941c-.144 0-.236-.065-.275-.196l-2.47-9.624v-.078c0-.118.072-.176.216-.176h2.274c.157 0 .242.071.255.215l1.117 5.86c.013.04.032.06.059.06.026 0 .045-.02.058-.06l1.176-5.86c.027-.144.111-.215.255-.215h2.019c.144 0 .229.071.255.215l1.235 5.86c.013.053.032.079.058.079.027 0 .046-.026.06-.078l1.175-5.86c.026-.145.111-.216.255-.216l2.254.02c.183 0 .255.084.216.254l-2.47 9.604c-.04.13-.13.196-.274.196h-2.294c-.13 0-.215-.065-.254-.196l-1.196-5.135c-.013-.052-.033-.079-.059-.079-.026 0-.046.027-.059.079l-1.078 5.115c-.026.144-.11.216-.254.216h-2.254zm14.43.137c-1.214 0-2.185-.268-2.91-.803-.725-.536-1.088-1.242-1.088-2.117v-.157a.23.23 0 0 1 .069-.167.227.227 0 0 1 .167-.068h2.175a.33.33 0 0 1 .167.039c.046.026.068.059.068.098v.137c0 .288.128.523.383.706.254.183.571.274.95.274.353 0 .637-.081.853-.245.215-.163.323-.369.323-.617s-.117-.441-.353-.578c-.235-.138-.607-.285-1.117-.441a7.872 7.872 0 0 1-.94-.314c-.785-.261-1.422-.614-1.912-1.058-.49-.445-.735-1.085-.735-1.921 0-.954.347-1.712 1.04-2.274.692-.562 1.606-.843 2.743-.843 1.176 0 2.114.291 2.813.873.699.581 1.048 1.355 1.048 2.322 0 .144-.078.216-.235.216h-2.097a.28.28 0 0 1-.167-.05c-.045-.032-.068-.068-.068-.107v-.137a.845.845 0 0 0-.343-.686c-.229-.183-.533-.275-.912-.275-.352 0-.637.085-.852.255-.216.17-.324.38-.324.627 0 .275.131.487.392.637.262.15.66.304 1.196.461.118.04.232.075.343.108.111.032.212.068.304.108.888.3 1.6.663 2.136 1.087.536.425.804 1.056.804 1.892 0 .94-.356 1.679-1.068 2.215-.713.535-1.663.803-2.852.803zm9.062.02c-1.137 0-2.065-.288-2.784-.863-.718-.575-1.15-1.372-1.293-2.39a13.843 13.843 0 0 1-.137-1.96c0-.81.045-1.47.137-1.98.157-.98.594-1.758 1.313-2.333.719-.575 1.646-.862 2.783-.862 1.11 0 2.026.287 2.744.862.719.575 1.15 1.346 1.294 2.313.104.601.157 1.26.157 1.98 0 .653-.046 1.3-.138 1.94-.143 1.032-.575 1.84-1.293 2.42-.719.582-1.647.873-2.783.873zm0-2.372c.365 0 .666-.117.901-.353.235-.235.386-.548.451-.94a12.8 12.8 0 0 0 .078-1.549c0-.614-.026-1.124-.078-1.529-.065-.392-.216-.702-.45-.93-.236-.23-.537-.344-.902-.344-.366 0-.667.115-.902.343-.235.23-.385.54-.45.931a11.71 11.71 0 0 0-.099 1.53c0 .404.026.92.079 1.548.065.392.222.705.47.94.248.236.549.353.902.353zm10.55-8.016c.954 0 1.702.304 2.244.911.542.608.814 1.454.814 2.538v6.547c0 .065-.023.12-.069.166a.227.227 0 0 1-.167.069h-2.293a.227.227 0 0 1-.166-.069.227.227 0 0 1-.069-.166v-6.155c0-.457-.111-.816-.333-1.078-.222-.26-.523-.392-.902-.392-.392 0-.702.134-.93.402-.23.268-.344.63-.344 1.088v6.135c0 .065-.023.12-.068.166a.227.227 0 0 1-.167.069h-2.293a.227.227 0 0 1-.167-.069.227.227 0 0 1-.068-.166v-9.604c0-.066.022-.121.068-.167a.227.227 0 0 1 .167-.068h2.293c.065 0 .12.022.167.068a.227.227 0 0 1 .068.167v.529c0 .04.013.062.04.069.026.006.058-.01.097-.05.484-.627 1.176-.94 2.078-.94zm-96.16 22.491c.784 0 1.48.177 2.088.53a3.61 3.61 0 0 1 1.411 1.49c.333.64.5 1.371.5 2.194 0 .81-.167 1.526-.5 2.147-.333.62-.804 1.1-1.411 1.44-.608.34-1.304.51-2.088.51h-2.116c-.066 0-.098.032-.098.098v5.096c0 .065-.023.12-.069.166a.227.227 0 0 1-.167.069h-2.293a.227.227 0 0 1-.166-.069.227.227 0 0 1-.069-.166v-13.27c0-.065.023-.12.069-.166a.227.227 0 0 1 .166-.069h4.743zm-.45 6.116c.51 0 .918-.167 1.225-.5.307-.333.46-.78.46-1.343 0-.575-.153-1.032-.46-1.372-.307-.34-.716-.51-1.225-.51h-1.666c-.066 0-.098.033-.098.099v3.528c0 .065.032.098.098.098h1.666zm9.472 5.429c.353-.013.647-.105.882-.275.235-.17.418-.392.549-.666.065-.144.163-.196.294-.157l1.862.392c.157.04.215.137.176.294-.261.863-.728 1.539-1.401 2.029s-1.506.735-2.5.735c-1.031 0-1.894-.265-2.586-.794-.693-.53-1.144-1.232-1.353-2.107-.183-.653-.274-1.47-.274-2.45 0-.653.026-1.19.078-1.607.13-1.072.546-1.914 1.245-2.529.699-.614 1.636-.92 2.812-.92 1.255 0 2.218.33 2.891.989.673.66 1.069 1.597 1.186 2.813a21.5 21.5 0 0 1 .098 2.018c0 .157-.078.236-.235.236H75.49c-.065 0-.098.032-.098.098 0 .274.02.51.06.705.065.366.234.657.509.872.274.216.614.324 1.019.324zm-.235-5.665c-.706 0-1.13.38-1.274 1.137-.026.13-.052.366-.079.706 0 .065.033.098.098.098h2.548c.066 0 .098-.033.098-.098 0-.157-.026-.38-.078-.667-.052-.365-.19-.653-.412-.862-.222-.21-.522-.314-.901-.314zm10.53-.372c0 .065-.022.12-.068.167a.227.227 0 0 1-.167.068h-1.509c-.065 0-.098.033-.098.098v4.371c0 .405.082.696.245.872.164.177.415.258.755.245h.392c.065 0 .12.023.166.069a.227.227 0 0 1 .069.166v1.902c0 .156-.078.235-.235.235a18.1 18.1 0 0 1-.98.02c-1.032 0-1.8-.17-2.303-.51-.503-.34-.755-.98-.755-1.921v-5.449c0-.065-.032-.098-.098-.098h-.901a.227.227 0 0 1-.167-.068.227.227 0 0 1-.069-.167v-1.607c0-.066.023-.121.069-.167a.227.227 0 0 1 .167-.068h.901c.066 0 .098-.033.098-.098v-2.254c0-.066.023-.121.069-.167a.227.227 0 0 1 .166-.069h2.176a.23.23 0 0 1 .167.069.227.227 0 0 1 .068.167v2.254c0 .065.033.098.098.098h1.51c.065 0 .12.022.166.068a.227.227 0 0 1 .069.167v1.607zm5.279 6.037c.352-.013.646-.105.882-.275.235-.17.418-.392.548-.666.066-.144.164-.196.294-.157l1.862.392c.157.04.216.137.177.294-.262.863-.729 1.539-1.402 2.029-.673.49-1.506.735-2.499.735-1.032 0-1.894-.265-2.587-.794-.692-.53-1.143-1.232-1.352-2.107-.183-.653-.275-1.47-.275-2.45 0-.653.027-1.19.079-1.607.13-1.072.545-1.914 1.244-2.529.7-.614 1.637-.92 2.813-.92 1.254 0 2.218.33 2.891.989.673.66 1.068 1.597 1.186 2.813a21.5 21.5 0 0 1 .098 2.018c0 .157-.079.236-.235.236h-5.214c-.065 0-.098.032-.098.098 0 .274.02.51.059.705.065.366.235.657.51.872.274.216.614.324 1.019.324zm-.236-5.665c-.705 0-1.13.38-1.274 1.137-.026.13-.052.366-.078.706 0 .065.033.098.098.098h2.548c.065 0 .098-.033.098-.098 0-.157-.026-.38-.078-.667-.053-.365-.19-.653-.412-.862-.222-.21-.523-.314-.902-.314zm10.237-2.352c.38 0 .7.079.96.236.105.065.144.163.118.294l-.372 2.273c-.013.157-.105.203-.275.137a2.43 2.43 0 0 0-.588-.078c-.156 0-.326.02-.51.059a1.446 1.446 0 0 0-.95.549c-.255.313-.382.692-.382 1.136v5.37a.225.225 0 0 1-.069.167.227.227 0 0 1-.166.069h-2.293a.227.227 0 0 1-.167-.069.227.227 0 0 1-.069-.166v-9.604c0-.066.023-.121.069-.167a.227.227 0 0 1 .167-.068h2.293c.065 0 .12.022.166.068a.227.227 0 0 1 .069.167v.764c0 .052.01.082.03.088.019.007.042-.01.068-.049.457-.784 1.091-1.176 1.901-1.176zm6.068 10.212a.227.227 0 0 1-.167-.069.227.227 0 0 1-.068-.166v-13.25c0-.065.022-.12.068-.166a.227.227 0 0 1 .167-.069h2.293a.23.23 0 0 1 .167.069.227.227 0 0 1 .068.166v11.015c0 .066.033.098.098.098h5.253a.23.23 0 0 1 .167.069.227.227 0 0 1 .068.167v1.9a.228.228 0 0 1-.068.167.227.227 0 0 1-.167.069h-7.88zm13-10.231c.797 0 1.503.14 2.117.421.614.281 1.094.673 1.44 1.176.347.503.52 1.075.52 1.715v6.684c0 .065-.023.12-.069.166a.227.227 0 0 1-.166.069h-2.293a.227.227 0 0 1-.167-.069.227.227 0 0 1-.069-.166v-.53c0-.039-.013-.065-.039-.078-.026-.013-.052 0-.078.04-.523.64-1.307.96-2.352.96-.876 0-1.607-.229-2.195-.686-.588-.458-.882-1.222-.882-2.293 0-2.13 1.332-3.195 3.998-3.195h1.45c.066 0 .098-.033.098-.098v-.451c0-.392-.114-.706-.343-.94-.228-.236-.545-.354-.95-.354-.3 0-.556.072-.765.216a.919.919 0 0 0-.392.588c-.039.13-.13.196-.274.196l-2.372-.137a.247.247 0 0 1-.166-.059c-.046-.04-.062-.091-.05-.157.066-.901.468-1.63 1.206-2.185.738-.556 1.67-.833 2.793-.833zm-.294 8.29c.444 0 .823-.124 1.137-.372a1.19 1.19 0 0 0 .47-.98v-.823c0-.065-.032-.098-.098-.098h-1.117c-.47 0-.843.105-1.117.314-.274.209-.412.51-.412.901 0 .34.105.601.314.784.21.183.483.275.823.275zm7.748 1.941c-.144 0-.235-.065-.275-.196l-2.47-9.624v-.078c0-.118.073-.176.216-.176h2.274c.157 0 .242.071.255.215l1.117 5.86c.013.04.033.06.059.06.026 0 .046-.02.059-.06l1.176-5.86c.026-.144.11-.215.254-.215h2.02c.143 0 .228.071.254.215l1.235 5.86c.013.053.032.079.059.079.026 0 .045-.026.058-.078l1.176-5.86c.027-.145.111-.216.255-.216l2.254.02c.183 0 .255.084.216.254l-2.47 9.604c-.039.13-.13.196-.274.196h-2.293c-.131 0-.216-.065-.255-.196l-1.196-5.135c-.013-.052-.032-.079-.059-.079-.026 0-.045.027-.058.079l-1.078 5.115c-.027.144-.111.216-.255.216h-2.254zm15.999-10.212c.379 0 .7.079.96.236.105.065.144.163.118.294l-.372 2.273c-.013.157-.105.203-.275.137a2.43 2.43 0 0 0-.588-.078c-.157 0-.326.02-.51.059a1.446 1.446 0 0 0-.95.549c-.255.313-.382.692-.382 1.136v5.37a.225.225 0 0 1-.069.167.227.227 0 0 1-.166.069h-2.294a.227.227 0 0 1-.166-.069.227.227 0 0 1-.069-.166v-9.604c0-.066.023-.121.069-.167a.227.227 0 0 1 .166-.068h2.294c.065 0 .12.022.166.068a.227.227 0 0 1 .069.167v.764c0 .052.01.082.03.088.019.007.042-.01.068-.049.457-.784 1.09-1.176 1.901-1.176zm5.964 8.017c.353-.013.647-.105.882-.275.235-.17.418-.392.549-.666.065-.144.163-.196.294-.157l1.862.392c.157.04.215.137.176.294-.261.863-.728 1.539-1.401 2.029s-1.506.735-2.5.735c-1.031 0-1.894-.265-2.586-.794-.693-.53-1.144-1.232-1.353-2.107-.183-.653-.274-1.47-.274-2.45 0-.653.026-1.19.078-1.607.13-1.072.546-1.914 1.245-2.529.699-.614 1.636-.92 2.812-.92 1.255 0 2.218.33 2.891.989.673.66 1.069 1.597 1.186 2.813a21.5 21.5 0 0 1 .098 2.018c0 .157-.078.236-.235.236h-5.214c-.065 0-.098.032-.098.098 0 .274.02.51.06.705.065.366.234.657.509.872.274.216.614.324 1.019.324zm-.235-5.665c-.706 0-1.13.38-1.274 1.137-.026.13-.052.366-.079.706 0 .065.033.098.098.098h2.548c.066 0 .098-.033.098-.098 0-.157-.026-.38-.078-.667-.052-.365-.19-.653-.412-.862-.222-.21-.522-.314-.901-.314zm10.452-2.371c.954 0 1.702.304 2.244.911.543.608.814 1.454.814 2.538v6.547c0 .065-.023.12-.069.166a.227.227 0 0 1-.166.069h-2.294a.227.227 0 0 1-.166-.069.227.227 0 0 1-.069-.166v-6.155c0-.457-.11-.816-.333-1.078-.222-.26-.523-.392-.902-.392-.392 0-.702.134-.93.402-.23.268-.344.63-.344 1.088v6.135c0 .065-.022.12-.068.166a.227.227 0 0 1-.167.069h-2.293a.227.227 0 0 1-.167-.069.227.227 0 0 1-.068-.166v-9.604a.23.23 0 0 1 .068-.167.227.227 0 0 1 .167-.068h2.293c.066 0 .121.022.167.068a.227.227 0 0 1 .068.167v.529c0 .04.013.062.04.069.026.006.058-.01.098-.05.483-.627 1.176-.94 2.077-.94zm8.551 10.388c-1.097 0-2.002-.278-2.714-.833-.712-.556-1.153-1.317-1.323-2.284-.105-.535-.157-1.24-.157-2.116 0-.654.052-1.346.157-2.078.17-.94.614-1.689 1.333-2.244.718-.556 1.62-.833 2.704-.833 1.059 0 1.95.268 2.676.803a3.34 3.34 0 0 1 1.342 2.117c.027.118.053.307.079.569 0 .143-.079.228-.235.254l-2.254.216h-.04c-.117 0-.19-.072-.215-.216a.688.688 0 0 0-.02-.196 3.766 3.766 0 0 0-.078-.274 1.249 1.249 0 0 0-.451-.647c-.222-.17-.497-.255-.823-.255-.353 0-.64.105-.863.314-.222.21-.365.497-.43.862-.08.432-.118.974-.118 1.627 0 .719.045 1.28.137 1.686.065.353.206.634.421.843.216.209.5.313.853.313.379 0 .683-.104.911-.313.229-.21.363-.47.402-.784l.04-.236a.318.318 0 0 1 .087-.166.174.174 0 0 1 .167-.05l2.274.197c.143.026.215.11.215.255 0 .078-.013.209-.039.392-.13.953-.559 1.705-1.284 2.254-.725.548-1.643.823-2.754.823zm9.453-2.352c.353-.013.647-.105.882-.275.235-.17.418-.392.549-.666.065-.144.163-.196.294-.157l1.862.392c.157.04.216.137.176.294-.26.863-.728 1.539-1.401 2.029s-1.506.735-2.499.735c-1.032 0-1.895-.265-2.587-.794-.693-.53-1.144-1.232-1.353-2.107-.183-.653-.274-1.47-.274-2.45 0-.653.026-1.19.078-1.607.131-1.072.546-1.914 1.245-2.529.7-.614 1.637-.92 2.813-.92 1.254 0 2.218.33 2.89.989.674.66 1.069 1.597 1.186 2.813a21.5 21.5 0 0 1 .098 2.018c0 .157-.078.236-.235.236h-5.213c-.066 0-.098.032-.098.098 0 .274.02.51.058.705.066.366.236.657.51.872.274.216.614.324 1.02.324zm-.235-5.665c-.706 0-1.13.38-1.274 1.137-.026.13-.052.366-.078.706 0 .065.032.098.098.098h2.548c.065 0 .098-.033.098-.098 0-.157-.027-.38-.079-.667-.052-.365-.19-.653-.411-.862-.223-.21-.523-.314-.902-.314zM67.35 321.376c-.9 0-1.695-.183-2.38-.548a3.921 3.921 0 0 1-1.598-1.549c-.379-.666-.568-1.444-.568-2.332v-5.214c0-.875.19-1.646.568-2.313a3.921 3.921 0 0 1 1.597-1.548c.686-.366 1.48-.549 2.382-.549.901 0 1.698.183 2.391.549a3.907 3.907 0 0 1 1.607 1.548c.38.667.569 1.438.569 2.313v5.214c0 .888-.19 1.666-.569 2.332a3.907 3.907 0 0 1-1.607 1.549c-.693.365-1.49.548-2.391.548zm0-2.371c.55 0 .987-.18 1.314-.54.327-.359.49-.826.49-1.4v-5.41c0-.588-.163-1.062-.49-1.421-.327-.36-.764-.54-1.313-.54-.536 0-.967.18-1.294.54-.326.36-.49.833-.49 1.42v5.41c0 .575.164 1.042.49 1.402.327.36.758.539 1.294.539zm8.278 2.195c-.144 0-.236-.065-.275-.196l-2.47-9.624v-.078c0-.118.072-.176.216-.176h2.274c.157 0 .242.071.255.215l1.117 5.86c.013.04.032.06.059.06.026 0 .045-.02.058-.06l1.176-5.86c.027-.144.111-.215.255-.215h2.019c.144 0 .229.071.255.215l1.235 5.86c.013.053.032.079.058.079.027 0 .046-.026.06-.078l1.175-5.86c.026-.145.111-.216.255-.216l2.254.02c.183 0 .255.084.216.254l-2.47 9.604c-.04.13-.13.196-.274.196h-2.294c-.13 0-.215-.065-.254-.196l-1.196-5.135c-.013-.052-.033-.079-.059-.079-.026 0-.046.027-.059.079l-1.078 5.115c-.026.144-.11.216-.254.216h-2.254zm14.94-2.195c.353-.013.647-.105.882-.275.236-.17.419-.392.55-.666.065-.144.163-.196.293-.157l1.862.392c.157.04.216.137.177.294-.262.863-.729 1.539-1.402 2.029-.673.49-1.506.735-2.499.735-1.032 0-1.894-.265-2.587-.794-.693-.53-1.143-1.232-1.352-2.107-.183-.653-.275-1.47-.275-2.45 0-.653.026-1.19.079-1.607.13-1.072.545-1.914 1.244-2.529.7-.614 1.637-.92 2.813-.92 1.254 0 2.218.33 2.89.989.674.66 1.069 1.597 1.187 2.813a21.5 21.5 0 0 1 .098 2.018c0 .157-.079.236-.236.236H89.08c-.066 0-.098.032-.098.098 0 .274.02.51.059.705.065.366.235.657.51.872.274.216.613.324 1.018.324zm-.235-5.665c-.705 0-1.13.38-1.274 1.137-.026.13-.052.366-.078.706 0 .065.032.098.098.098h2.548c.065 0 .098-.033.098-.098 0-.157-.026-.38-.079-.667-.052-.365-.19-.653-.411-.862-.222-.21-.523-.314-.902-.314zm10.453-2.371c.953 0 1.702.304 2.244.911.542.608.813 1.454.813 2.538v6.547c0 .065-.023.12-.068.166a.227.227 0 0 1-.167.069h-2.293a.227.227 0 0 1-.167-.069.227.227 0 0 1-.068-.166v-6.155c0-.457-.111-.816-.334-1.078-.222-.26-.522-.392-.901-.392-.392 0-.703.134-.931.402-.229.268-.343.63-.343 1.088v6.135c0 .065-.023.12-.069.166a.227.227 0 0 1-.166.069h-2.294a.227.227 0 0 1-.166-.069.227.227 0 0 1-.069-.166v-9.604c0-.066.023-.121.069-.167a.227.227 0 0 1 .166-.068h2.294c.065 0 .12.022.166.068a.227.227 0 0 1 .069.167v.529c0 .04.013.062.039.069.026.006.059-.01.098-.05.483-.627 1.176-.94 2.078-.94zM111.87 321.2c-.13 0-.216-.065-.255-.196l-3.077-13.27v-.078c0-.117.072-.176.215-.176h2.411c.157 0 .242.072.255.216l1.49 7.526c.013.04.032.059.058.059.027 0 .046-.02.06-.059l1.43-7.526c.013-.144.098-.216.255-.216h2.175c.144 0 .23.072.255.216l1.568 7.526c.013.04.033.059.059.059.026 0 .046-.02.059-.059l1.391-7.526c.013-.144.098-.216.255-.216h2.333c.17 0 .235.085.196.255l-2.862 13.25c-.026.143-.111.215-.255.215h-2.215c-.143 0-.228-.072-.254-.216l-1.588-7.879c-.013-.039-.033-.059-.059-.059-.026 0-.046.02-.059.06l-1.45 7.878c-.013.144-.098.216-.255.216h-2.136zm13.686-11.035c-.483 0-.879-.153-1.186-.46-.307-.307-.46-.703-.46-1.186 0-.484.153-.876.46-1.176.307-.3.703-.451 1.186-.451.484 0 .879.15 1.186.45.307.301.46.693.46 1.177 0 .483-.15.879-.45 1.186-.3.307-.7.46-1.196.46zM124.4 321.2a.227.227 0 0 1-.167-.069.227.227 0 0 1-.068-.166v-9.604c0-.066.022-.121.068-.167a.227.227 0 0 1 .167-.068h2.293c.065 0 .12.022.167.068a.227.227 0 0 1 .068.167v9.604c0 .065-.023.12-.068.166a.227.227 0 0 1-.167.069H124.4zm4.435 0a.227.227 0 0 1-.167-.069.227.227 0 0 1-.068-.166v-13.25c0-.065.023-.12.068-.166a.227.227 0 0 1 .167-.069h2.293c.066 0 .121.023.167.069a.227.227 0 0 1 .068.166v13.25c0 .065-.022.12-.068.166a.227.227 0 0 1-.167.069h-2.293zm4.278 0a.227.227 0 0 1-.166-.069.227.227 0 0 1-.069-.166v-13.25c0-.065.023-.12.069-.166a.227.227 0 0 1 .166-.069h2.294c.065 0 .12.023.166.069a.227.227 0 0 1 .069.166v13.25c0 .065-.023.12-.069.166a.227.227 0 0 1-.166.069h-2.294zm5.572-11.035c-.483 0-.878-.153-1.185-.46-.307-.307-.461-.703-.461-1.186 0-.484.154-.876.46-1.176.308-.3.703-.451 1.186-.451.484 0 .88.15 1.186.45.307.301.46.693.46 1.177 0 .483-.15.879-.45 1.186-.3.307-.7.46-1.196.46zM137.53 321.2a.227.227 0 0 1-.167-.069.227.227 0 0 1-.068-.166v-9.604a.23.23 0 0 1 .068-.167.227.227 0 0 1 .167-.068h2.293c.066 0 .121.022.167.068a.227.227 0 0 1 .068.167v9.604c0 .065-.022.12-.068.166a.227.227 0 0 1-.167.069h-2.293zm8.042-10.231c.797 0 1.502.14 2.116.421.615.281 1.095.673 1.441 1.176.346.503.52 1.075.52 1.715v6.684c0 .065-.023.12-.07.166a.227.227 0 0 1-.166.069h-2.293a.227.227 0 0 1-.167-.069.227.227 0 0 1-.068-.166v-.53c0-.039-.013-.065-.04-.078-.026-.013-.052 0-.078.04-.522.64-1.306.96-2.352.96-.875 0-1.607-.229-2.195-.686-.588-.458-.882-1.222-.882-2.293 0-2.13 1.333-3.195 3.998-3.195h1.45c.066 0 .099-.033.099-.098v-.451c0-.392-.115-.706-.343-.94-.229-.236-.546-.354-.95-.354-.301 0-.556.072-.765.216a.919.919 0 0 0-.392.588c-.04.13-.13.196-.275.196l-2.371-.137a.247.247 0 0 1-.167-.059c-.046-.04-.062-.091-.049-.157.066-.901.467-1.63 1.206-2.185.738-.556 1.669-.833 2.793-.833zm-.294 8.29c.444 0 .823-.124 1.136-.372a1.19 1.19 0 0 0 .47-.98v-.823c0-.065-.032-.098-.097-.098h-1.117c-.47 0-.843.105-1.118.314-.274.209-.411.51-.411.901 0 .34.104.601.313.784.21.183.484.275.824.275zm15.96-8.29c.953 0 1.682.304 2.185.911.503.608.755 1.46.755 2.558v6.527c0 .065-.023.12-.069.166a.227.227 0 0 1-.167.069h-2.273a.227.227 0 0 1-.167-.069.227.227 0 0 1-.068-.166v-6.135c0-.457-.108-.82-.324-1.088-.215-.268-.506-.402-.872-.402-.379 0-.68.134-.902.402-.222.268-.333.624-.333 1.068v6.155c0 .065-.023.12-.068.166a.227.227 0 0 1-.167.069h-2.274a.227.227 0 0 1-.166-.069.227.227 0 0 1-.069-.166v-6.135c0-.457-.11-.82-.333-1.088a1.089 1.089 0 0 0-.882-.402c-.379 0-.68.134-.902.402-.222.268-.333.624-.333 1.068v6.155c0 .065-.023.12-.068.166a.227.227 0 0 1-.167.069H151.3a.227.227 0 0 1-.166-.069.227.227 0 0 1-.069-.166v-9.604c0-.066.023-.121.069-.167a.227.227 0 0 1 .166-.068h2.274c.065 0 .12.022.167.068a.227.227 0 0 1 .068.167v.51c0 .039.013.065.04.078.026.013.052 0 .078-.04.274-.326.594-.565.96-.715a3.07 3.07 0 0 1 1.176-.225c.588 0 1.095.12 1.52.362.424.242.754.592.989 1.049.013.026.033.036.059.03.026-.007.052-.03.078-.07.288-.483.654-.832 1.098-1.048a3.234 3.234 0 0 1 1.43-.323zm8.12 10.368c-1.216 0-2.186-.268-2.911-.803-.725-.536-1.088-1.242-1.088-2.117v-.157a.23.23 0 0 1 .069-.167.227.227 0 0 1 .166-.068h2.176a.33.33 0 0 1 .167.039c.045.026.068.059.068.098v.137c0 .288.128.523.382.706.255.183.572.274.951.274.353 0 .637-.081.853-.245.215-.163.323-.369.323-.617s-.118-.441-.353-.578c-.235-.138-.607-.285-1.117-.441a7.872 7.872 0 0 1-.94-.314c-.785-.261-1.422-.614-1.912-1.058-.49-.445-.735-1.085-.735-1.921 0-.954.346-1.712 1.039-2.274s1.607-.843 2.744-.843c1.176 0 2.114.291 2.813.873.699.581 1.048 1.355 1.048 2.322 0 .144-.078.216-.235.216h-2.097a.28.28 0 0 1-.167-.05c-.046-.032-.068-.068-.068-.107v-.137a.845.845 0 0 0-.343-.686c-.23-.183-.533-.275-.912-.275-.353 0-.637.085-.852.255-.216.17-.324.38-.324.627 0 .275.13.487.392.637.262.15.66.304 1.196.461.117.04.232.075.343.108.11.032.212.068.304.108.888.3 1.6.663 2.136 1.087.536.425.804 1.056.804 1.892 0 .94-.356 1.679-1.069 2.215-.712.535-1.662.803-2.851.803zM63.274 346.2a.227.227 0 0 1-.167-.069.227.227 0 0 1-.068-.166v-13.25c0-.065.023-.12.068-.166a.227.227 0 0 1 .167-.069h2.293c.066 0 .121.023.167.069a.227.227 0 0 1 .068.166v5.214c0 .039.017.065.05.078.032.013.055 0 .068-.039l3.508-5.331a.307.307 0 0 1 .275-.157h2.528c.092 0 .154.026.186.078.033.053.023.118-.029.196l-3.626 5.626a.244.244 0 0 0 0 .137l3.842 7.409a.3.3 0 0 1 .039.117c0 .105-.072.157-.216.157h-2.509c-.117 0-.209-.059-.274-.176l-2.783-5.37c-.013-.04-.033-.06-.059-.06-.026 0-.052.02-.078.06l-.882 1.273a.3.3 0 0 0-.04.118v3.92c0 .065-.022.12-.068.166a.227.227 0 0 1-.167.069h-2.293zm14.157-10.231c.797 0 1.502.14 2.117.421.614.281 1.094.673 1.44 1.176.346.503.52 1.075.52 1.715v6.684c0 .065-.023.12-.069.166a.227.227 0 0 1-.167.069H78.98a.227.227 0 0 1-.166-.069.227.227 0 0 1-.069-.166v-.53c0-.039-.013-.065-.04-.078-.025-.013-.051 0-.078.04-.522.64-1.306.96-2.352.96-.875 0-1.607-.229-2.195-.686-.588-.458-.882-1.222-.882-2.293 0-2.13 1.333-3.195 3.999-3.195h1.45c.065 0 .098-.033.098-.098v-.451c0-.392-.114-.706-.343-.94-.229-.236-.546-.354-.95-.354-.301 0-.556.072-.765.216a.919.919 0 0 0-.392.588c-.04.13-.13.196-.274.196l-2.372-.137a.247.247 0 0 1-.167-.059c-.045-.04-.062-.091-.049-.157.066-.901.468-1.63 1.206-2.185.738-.556 1.67-.833 2.793-.833zm-.294 8.29c.444 0 .823-.124 1.137-.372a1.19 1.19 0 0 0 .47-.98v-.823c0-.065-.033-.098-.098-.098h-1.117c-.47 0-.843.105-1.117.314-.275.209-.412.51-.412.901 0 .34.105.601.314.784.209.183.483.275.823.275zm5.493 5.841c-.039 0-.071-.022-.098-.068a.33.33 0 0 1-.039-.167v-1.803a.33.33 0 0 1 .04-.167c.026-.045.052-.068.078-.068h.098c.732 0 1.257-.105 1.578-.314.32-.209.532-.627.637-1.254l-.02-.118-2.822-9.741-.02-.078c0-.131.072-.196.216-.196h2.45c.143 0 .228.071.254.215l1.294 5.9c.013.052.033.078.059.078.026 0 .046-.026.059-.078l1.215-5.9c.026-.144.11-.215.255-.215h2.47c.078 0 .136.026.176.078.039.052.045.118.02.196l-2.98 10.172c-.287.954-.591 1.67-.911 2.147-.32.477-.775.826-1.363 1.048-.588.222-1.43.333-2.528.333h-.118zm17.064-3.724c-.902 0-1.696-.183-2.382-.548a3.921 3.921 0 0 1-1.597-1.549c-.38-.666-.569-1.444-.569-2.332v-5.214c0-.875.19-1.646.569-2.313a3.921 3.921 0 0 1 1.597-1.548c.686-.366 1.48-.549 2.382-.549.901 0 1.698.183 2.39.549a3.907 3.907 0 0 1 1.608 1.548c.379.667.568 1.438.568 2.313v5.214c0 .888-.19 1.666-.568 2.332a3.907 3.907 0 0 1-1.607 1.549c-.693.365-1.49.548-2.391.548zm0-2.371c.548 0 .986-.18 1.313-.54.326-.359.49-.826.49-1.4v-5.41c0-.588-.164-1.062-.49-1.421-.327-.36-.765-.54-1.313-.54-.536 0-.967.18-1.294.54-.327.36-.49.833-.49 1.42v5.41c0 .575.163 1.042.49 1.402.327.36.758.539 1.294.539zm5.964-7.076a.26.26 0 0 1-.177-.068.213.213 0 0 1-.078-.167l-.255-3.96c0-.156.072-.234.216-.234h2.312c.17 0 .242.078.216.235l-.255 3.959c0 .078-.023.137-.068.176a.277.277 0 0 1-.187.06h-1.724zm3.572 9.271a.227.227 0 0 1-.166-.069.227.227 0 0 1-.069-.166v-13.25c0-.065.023-.12.069-.166a.227.227 0 0 1 .166-.069h2.313a.28.28 0 0 1 .275.176l3.763 7.82c.026.04.052.056.078.05.026-.007.04-.036.04-.088l-.02-7.723c0-.065.023-.12.068-.166a.227.227 0 0 1 .167-.069h2.274c.065 0 .12.023.166.069a.227.227 0 0 1 .069.166v13.25c0 .065-.023.12-.069.166a.227.227 0 0 1-.166.069h-2.333c-.117 0-.209-.059-.274-.176l-3.763-7.88c-.027-.039-.053-.055-.079-.049-.026.007-.039.036-.039.089l.04 7.78a.226.226 0 0 1-.07.167.227.227 0 0 1-.166.069h-2.274zm15.078-2.195c.353-.013.647-.105.882-.275.236-.17.419-.392.55-.666.065-.144.163-.196.293-.157l1.862.392c.157.04.216.137.177.294-.262.863-.729 1.539-1.402 2.029-.673.49-1.506.735-2.499.735-1.032 0-1.894-.265-2.587-.794-.693-.53-1.143-1.232-1.352-2.107-.183-.653-.275-1.47-.275-2.45 0-.653.026-1.19.079-1.607.13-1.072.545-1.914 1.244-2.529.7-.614 1.637-.92 2.813-.92 1.254 0 2.218.33 2.89.989.674.66 1.069 1.597 1.187 2.813a21.5 21.5 0 0 1 .098 2.018c0 .157-.079.236-.236.236h-5.213c-.066 0-.098.032-.098.098 0 .274.02.51.059.705.065.366.235.657.51.872.274.216.613.324 1.018.324zm-.235-5.665c-.705 0-1.13.38-1.274 1.137-.026.13-.052.366-.078.706 0 .065.032.098.098.098h2.548c.065 0 .098-.033.098-.098 0-.157-.026-.38-.079-.667-.052-.365-.19-.653-.411-.862-.222-.21-.523-.314-.902-.314zm6.983-3.175c-.483 0-.878-.153-1.185-.46-.307-.307-.461-.703-.461-1.186 0-.484.154-.876.46-1.176.308-.3.703-.451 1.186-.451.484 0 .88.15 1.186.45.307.301.46.693.46 1.177 0 .483-.15.879-.45 1.186-.3.307-.7.46-1.196.46zM129.9 346.2a.227.227 0 0 1-.167-.069.227.227 0 0 1-.068-.166v-9.604a.23.23 0 0 1 .068-.167.227.227 0 0 1 .167-.068h2.293c.066 0 .121.022.167.068a.227.227 0 0 1 .068.167v9.604c0 .065-.022.12-.068.166a.227.227 0 0 1-.167.069H129.9zm4.435 0a.227.227 0 0 1-.166-.069.227.227 0 0 1-.069-.166v-13.25c0-.065.023-.12.069-.166a.227.227 0 0 1 .166-.069h2.293c.066 0 .121.023.167.069a.227.227 0 0 1 .069.166v13.25c0 .065-.023.12-.069.166a.227.227 0 0 1-.167.069h-2.293zM61 169h48v8H61z" fill="#979797"/><path d="M265.5 432c-17.369 0-31.5 14.131-31.5 31.5s14.131 31.5 31.5 31.5 31.5-14.131 31.5-31.5-14.131-31.5-31.5-31.5m0 67c-19.575 0-35.5-15.925-35.5-35.5s15.925-35.5 35.5-35.5 35.5 15.925 35.5 35.5-15.925 35.5-35.5 35.5" fill="#979797" opacity=".3"/><path d="M265.73 499a35.327 35.327 0 0 1-19.85-6.064 2.002 2.002 0 0 1-.537-2.778 2.002 2.002 0 0 1 2.777-.537A31.335 31.335 0 0 0 265.73 495c17.369 0 31.5-14.131 31.5-31.5s-14.131-31.5-31.5-31.5a2 2 0 0 1 0-4c19.575 0 35.5 15.925 35.5 35.5s-15.925 35.5-35.5 35.5" fill="#0EE0DC"/><path d="M251.002 472.198c-1.108 0-2.084-.215-2.927-.644a4.802 4.802 0 0 1-1.971-1.81c-.472-.778-.707-1.679-.707-2.704v-1.34c0-.082.029-.152.087-.21a.287.287 0 0 1 .21-.087h2.902c.083 0 .153.03.21.087a.287.287 0 0 1 .088.21v1.365c0 .628.194 1.14.582 1.537.389.397.897.596 1.526.596.628 0 1.14-.199 1.537-.596.397-.396.595-.909.595-1.537v-12.127a.29.29 0 0 1 .087-.211.287.287 0 0 1 .211-.087h2.877c.082 0 .153.029.21.087a.287.287 0 0 1 .087.21v12.103c0 1.025-.235 1.926-.706 2.703a4.802 4.802 0 0 1-1.972 1.81c-.843.43-1.819.645-2.926.645zm13.788 0c-1.124 0-2.116-.231-2.976-.694a4.922 4.922 0 0 1-1.996-1.947c-.471-.835-.707-1.798-.707-2.889v-11.73a.29.29 0 0 1 .087-.211.287.287 0 0 1 .21-.087h2.902c.083 0 .153.029.211.087a.287.287 0 0 1 .087.21v11.905c0 .71.198 1.28.595 1.71.397.43.926.646 1.587.646.662 0 1.19-.215 1.588-.645.396-.43.595-1 .595-1.711v-11.904c0-.083.029-.153.087-.211a.287.287 0 0 1 .21-.087h2.902c.083 0 .153.029.21.087a.287.287 0 0 1 .088.21v11.731c0 1.091-.236 2.054-.707 2.89a4.922 4.922 0 0 1-1.997 1.946c-.86.463-1.851.694-2.976.694zm8.482-.198a.287.287 0 0 1-.21-.087.287.287 0 0 1-.088-.21v-16.765a.29.29 0 0 1 .087-.211.287.287 0 0 1 .211-.087h2.926c.166 0 .281.074.348.223l4.761 9.895c.033.05.066.07.1.062.032-.008.049-.045.049-.111l-.025-9.771a.29.29 0 0 1 .087-.211.287.287 0 0 1 .21-.087h2.878c.082 0 .153.029.21.087a.287.287 0 0 1 .087.21v16.765a.287.287 0 0 1-.087.211.287.287 0 0 1-.21.087h-2.952c-.148 0-.264-.074-.347-.223l-4.761-9.97c-.033-.05-.067-.07-.1-.062-.033.008-.05.046-.05.112l.05 9.845a.287.287 0 0 1-.086.211.287.287 0 0 1-.211.087h-2.877z" fill="#0EE0DC"/><path d="M185.5 432c-17.369 0-31.5 14.131-31.5 31.5s14.131 31.5 31.5 31.5 31.5-14.131 31.5-31.5-14.131-31.5-31.5-31.5m0 67c-19.575 0-35.5-15.925-35.5-35.5s15.925-35.5 35.5-35.5 35.5 15.925 35.5 35.5-15.925 35.5-35.5 35.5" fill="#979797" opacity=".3"/><path d="M185.5 499c-19.575 0-35.5-15.925-35.5-35.5a2 2 0 0 1 4 0c0 17.369 14.131 31.5 31.5 31.5s31.5-14.131 31.5-31.5-14.131-31.5-31.5-31.5a2 2 0 0 1 0-4c19.575 0 35.5 15.925 35.5 35.5S205.075 499 185.5 499" fill="#0EE0DC"/><path d="M164.612 471a.287.287 0 0 1-.21-.087.287.287 0 0 1-.088-.21v-16.765a.29.29 0 0 1 .087-.211.287.287 0 0 1 .211-.087h2.852a.41.41 0 0 1 .372.198l2.827 5.184c.05.066.1.066.149 0l2.852-5.184a.41.41 0 0 1 .372-.198h2.852c.083 0 .153.029.21.087a.287.287 0 0 1 .088.21v16.765a.287.287 0 0 1-.087.211.287.287 0 0 1-.211.087h-2.902a.287.287 0 0 1-.21-.087.287.287 0 0 1-.087-.21v-10.764c0-.066-.017-.099-.05-.099s-.066.025-.099.074l-2.009 3.67a.41.41 0 0 1-.372.2h-.843c-.182 0-.306-.067-.372-.2l-1.984-3.694c-.033-.05-.066-.07-.1-.062-.032.008-.049.045-.049.111v10.763a.287.287 0 0 1-.087.211.287.287 0 0 1-.21.087h-2.902zm24.453 0c-.166 0-.273-.083-.323-.248l-.57-2.43c-.017-.067-.058-.1-.124-.1h-4.638c-.066 0-.107.033-.124.1l-.57 2.43c-.05.165-.165.248-.347.248h-3.001c-.215 0-.298-.107-.248-.322l4.464-16.79c.05-.165.165-.248.347-.248h3.596c.182 0 .298.083.347.248l4.49 16.79.024.099c0 .149-.09.223-.273.223h-3.05zm-5.084-5.63c-.017.05-.008.087.025.112a.165.165 0 0 0 .099.037h3.273a.165.165 0 0 0 .1-.037c.033-.025.04-.062.024-.112l-1.661-7.043c-.017-.066-.042-.095-.075-.087-.033.009-.057.038-.074.087l-1.711 7.043zm14.334 5.605a.287.287 0 0 1-.21-.087.287.287 0 0 1-.087-.21v-6.35l-.025-.148-4.29-10.193a.345.345 0 0 1-.025-.149c0-.132.082-.198.248-.198h3.124c.182 0 .298.083.348.248l2.306 6.274c.017.05.041.075.074.075.033 0 .058-.025.075-.075l2.306-6.274c.05-.165.166-.248.347-.248h3.125c.116 0 .19.033.223.1.033.065.033.148 0 .247l-4.315 10.193-.025.149v6.349a.287.287 0 0 1-.086.21.287.287 0 0 1-.211.087h-2.902z" fill="#0EE0DC"/><path d="M105.5 432C88.131 432 74 446.131 74 463.5S88.131 495 105.5 495s31.5-14.131 31.5-31.5-14.131-31.5-31.5-31.5m0 67C85.925 499 70 483.075 70 463.5S85.925 428 105.5 428s35.5 15.925 35.5 35.5-15.925 35.5-35.5 35.5" fill="#979797" opacity=".3"/><path d="M105.5 499C85.925 499 70 483.075 70 463.5a35.427 35.427 0 0 1 5.244-18.579 2 2 0 1 1 3.407 2.096A31.427 31.427 0 0 0 74 463.5c0 17.369 14.131 31.5 31.5 31.5s31.5-14.131 31.5-31.5-14.131-31.5-31.5-31.5a2 2 0 0 1 0-4c19.575 0 35.5 15.925 35.5 35.5S125.075 499 105.5 499" fill="#0EE0DC"/><path d="M94.59 472c-.166 0-.273-.083-.323-.248l-.57-2.43c-.017-.067-.058-.1-.124-.1h-4.638c-.066 0-.107.033-.124.1l-.57 2.43c-.05.165-.166.248-.347.248h-3.001c-.215 0-.298-.107-.248-.322l4.464-16.79c.05-.165.165-.248.347-.248h3.596c.182 0 .298.083.347.248l4.489 16.79.025.099c0 .149-.091.223-.273.223h-3.05zm-5.084-5.63c-.017.05-.009.087.024.112a.165.165 0 0 0 .1.037h3.273a.165.165 0 0 0 .1-.037c.032-.025.04-.062.024-.112l-1.661-7.043c-.017-.066-.042-.095-.075-.087-.033.009-.058.038-.074.087l-1.711 7.043zm16.566-11.755c.992 0 1.872.223 2.641.67a4.568 4.568 0 0 1 1.786 1.885c.421.81.632 1.736.632 2.777 0 1.025-.21 1.93-.632 2.716a4.462 4.462 0 0 1-1.786 1.823c-.769.43-1.649.644-2.641.644h-2.678c-.083 0-.124.042-.124.124v6.448a.287.287 0 0 1-.087.211.287.287 0 0 1-.211.087h-2.902a.287.287 0 0 1-.21-.087.287.287 0 0 1-.087-.21v-16.79c0-.083.029-.153.087-.211a.287.287 0 0 1 .21-.087h6.002zm-.57 7.738c.644 0 1.161-.211 1.55-.633.388-.421.582-.987.582-1.698 0-.728-.194-1.307-.582-1.736-.389-.43-.906-.645-1.55-.645h-2.108c-.083 0-.124.041-.124.124v4.464c0 .082.04.124.124.124h2.108zM121.175 472c-.182 0-.297-.083-.347-.248l-2.505-6.845c-.033-.066-.074-.099-.124-.099h-1.562c-.083 0-.124.041-.124.124v6.77a.287.287 0 0 1-.087.211.287.287 0 0 1-.21.087h-2.902a.287.287 0 0 1-.211-.087.287.287 0 0 1-.087-.21v-16.79c0-.083.029-.153.087-.211a.287.287 0 0 1 .21-.087h6.052c.975 0 1.843.22 2.604.657a4.466 4.466 0 0 1 1.76 1.848c.414.794.62 1.703.62 2.728 0 1.058-.235 1.98-.706 2.765a4.312 4.312 0 0 1-1.972 1.749c-.066.033-.082.09-.05.173l2.828 7.118a.276.276 0 0 1 .025.124c0 .149-.091.223-.273.223h-3.026zm-4.538-14.36c-.083 0-.124.042-.124.125v4.216c0 .082.041.124.124.124h2.157c.612 0 1.108-.203 1.488-.608.38-.405.57-.938.57-1.6 0-.694-.19-1.244-.57-1.649-.38-.405-.876-.607-1.488-.607h-2.157z" fill="#0EE0DC"/><path d="M163.256 580.186c.56 0 1.057.126 1.491.378.434.252.77.607 1.008 1.064.238.457.357.98.357 1.568 0 .579-.119 1.09-.357 1.533a2.519 2.519 0 0 1-1.008 1.029c-.434.243-.931.364-1.491.364h-1.512c-.047 0-.07.023-.07.07v3.64a.162.162 0 0 1-.049.119.162.162 0 0 1-.119.049h-1.638a.162.162 0 0 1-.119-.049.162.162 0 0 1-.049-.119v-9.478a.16.16 0 0 1 .049-.119.162.162 0 0 1 .119-.049h3.388zm-.322 4.368c.364 0 .656-.119.875-.357.22-.238.329-.558.329-.959 0-.41-.11-.737-.329-.98-.22-.243-.511-.364-.875-.364h-1.19c-.047 0-.07.023-.07.07v2.52c0 .047.023.07.07.07h1.19zm9.478 5.446c-.093 0-.154-.047-.182-.14l-.322-1.372c-.01-.037-.033-.056-.07-.056h-2.618c-.037 0-.06.019-.07.056l-.322 1.372c-.028.093-.093.14-.196.14h-1.694c-.121 0-.168-.06-.14-.182l2.52-9.478c.028-.093.093-.14.196-.14h2.03c.103 0 .168.047.196.14l2.534 9.478.014.056c0 .084-.051.126-.154.126h-1.722zm-2.87-3.178c-.01.028-.005.049.014.063a.093.093 0 0 0 .056.021h1.848a.093.093 0 0 0 .056-.021c.019-.014.023-.035.014-.063l-.938-3.976c-.01-.037-.023-.054-.042-.049-.019.005-.033.021-.042.049l-.966 3.976zm6.006 3.178a.162.162 0 0 1-.119-.049.162.162 0 0 1-.049-.119v-9.464a.16.16 0 0 1 .049-.119.162.162 0 0 1 .119-.049h1.638a.16.16 0 0 1 .119.049.162.162 0 0 1 .049.119v9.464a.162.162 0 0 1-.049.119.162.162 0 0 1-.119.049h-1.638zm3.444 0a.162.162 0 0 1-.119-.049.162.162 0 0 1-.049-.119v-9.464a.16.16 0 0 1 .049-.119.162.162 0 0 1 .119-.049h3.01c.625 0 1.178.117 1.659.35.48.233.852.565 1.113.994.261.43.392.929.392 1.498v4.116c0 .57-.13 1.069-.392 1.498a2.59 2.59 0 0 1-1.113.994c-.48.233-1.034.35-1.659.35h-3.01zm1.806-1.764c0 .047.023.07.07.07l1.148-.014c.345 0 .625-.124.84-.371.215-.247.327-.576.336-.987v-3.668c0-.42-.107-.754-.322-1.001-.215-.247-.5-.371-.854-.371h-1.148c-.047 0-.07.023-.07.07v6.272zm13.93-.644c0 .765-.266 1.377-.798 1.834-.532.457-1.237.686-2.114.686-.84 0-1.521-.229-2.044-.686-.523-.457-.784-1.064-.784-1.82v-.406a.16.16 0 0 1 .049-.119.162.162 0 0 1 .119-.049h1.638a.16.16 0 0 1 .119.049.162.162 0 0 1 .049.119v.21c0 .29.082.525.245.707a.785.785 0 0 0 .609.273c.27 0 .492-.093.665-.28.173-.187.259-.425.259-.714v-1.372c0-.028-.01-.044-.028-.049-.019-.005-.037.002-.056.021-.336.308-.76.462-1.274.462-.495 0-.924-.119-1.288-.357a2.231 2.231 0 0 1-.826-.987c-.317-.504-.476-1.11-.476-1.82 0-.644.13-1.2.392-1.666a2.31 2.31 0 0 1 .966-1.134c.439-.261.975-.392 1.61-.392.607 0 1.13.128 1.568.385.439.257.765.628.98 1.113l.028.07c.252.42.378.933.378 1.54l.014 4.382zm-2.128-3.318c.093-.233.14-.55.14-.952 0-.317-.033-.593-.098-.826-.13-.467-.42-.7-.868-.7-.439 0-.733.238-.882.714a3.286 3.286 0 0 0-.098.826c0 .373.047.686.14.938.15.392.43.588.84.588.401 0 .677-.196.826-.588zm8.638.644c.308.56.462 1.223.462 1.988 0 .681-.145 1.283-.434 1.806a2.421 2.421 0 0 1-1.001 1.029c-.434.238-.95.357-1.547.357-.728 0-1.34-.177-1.834-.532-.495-.355-.826-.863-.994-1.526a2.212 2.212 0 0 1-.112-.602v-.028c0-.093.051-.14.154-.14h1.666c.112 0 .173.056.182.168a.93.93 0 0 0 .056.224c.065.243.173.427.322.553a.84.84 0 0 0 .56.189.855.855 0 0 0 .574-.203.944.944 0 0 0 .308-.553c.065-.196.098-.439.098-.728 0-.299-.033-.56-.098-.784a.93.93 0 0 0-.322-.504.907.907 0 0 0-.56-.168c-.439 0-.737.182-.896.546-.028.093-.089.14-.182.14h-1.694a.162.162 0 0 1-.119-.049.162.162 0 0 1-.049-.119v-5.614a.16.16 0 0 1 .049-.119.162.162 0 0 1 .119-.049h5.348a.16.16 0 0 1 .119.049.162.162 0 0 1 .049.119v1.358a.162.162 0 0 1-.049.119.162.162 0 0 1-.119.049h-3.472c-.047 0-.07.023-.07.07l-.014 2.184c0 .037.01.058.028.063.019.005.037-.002.056-.021.373-.29.821-.434 1.344-.434.476 0 .889.098 1.239.294.35.196.628.485.833.868zm3.78-.42a2.166 2.166 0 0 1-1.904-1.099 2.193 2.193 0 0 1-.294-1.113c0-.401.098-.77.294-1.106.196-.336.462-.604.798-.805.336-.2.705-.301 1.106-.301.401 0 .77.1 1.106.301.336.2.602.469.798.805.196.336.294.705.294 1.106 0 .401-.098.772-.294 1.113a2.166 2.166 0 0 1-1.904 1.099zm-.56 5.502c-.065 0-.107-.019-.126-.056-.019-.037-.014-.084.014-.14l5.18-9.492a.231.231 0 0 1 .21-.112h1.05c.065 0 .107.019.126.056.019.037.014.084-.014.14l-5.18 9.492a.231.231 0 0 1-.21.112h-1.05zm.56-6.524c.317 0 .588-.117.812-.35a1.17 1.17 0 0 0 .336-.84c0-.327-.112-.604-.336-.833a1.095 1.095 0 0 0-.812-.343c-.317 0-.588.114-.812.343a1.146 1.146 0 0 0-.336.833c0 .336.11.618.329.847.22.229.492.343.819.343zm5.306 6.65c-.401 0-.77-.1-1.106-.301a2.22 2.22 0 0 1-.798-.812 2.193 2.193 0 0 1-.294-1.113 2.181 2.181 0 0 1 2.198-2.198 2.181 2.181 0 0 1 2.198 2.198c0 .401-.098.772-.294 1.113a2.22 2.22 0 0 1-.798.812c-.336.2-.705.301-1.106.301zm0-1.036c.317 0 .588-.117.812-.35a1.17 1.17 0 0 0 .336-.84c0-.327-.112-.604-.336-.833a1.095 1.095 0 0 0-.812-.343c-.317 0-.588.114-.812.343a1.146 1.146 0 0 0-.336.833c0 .336.11.618.329.847.22.229.492.343.819.343z" fill="#979797" opacity=".6"/><path fill="#454546" opacity=".15" d="M52 560h268v8H52z"/><path d="M55 560a3 3 0 0 1 3 3v2a3 3 0 1 1-6 0v-2a3 3 0 0 1 3-3zm8 0a3 3 0 0 1 3 3v2a3 3 0 0 1-6 0v-2a3 3 0 0 1 3-3zm8 0a3 3 0 0 1 3 3v2a3 3 0 0 1-6 0v-2a3 3 0 0 1 3-3zm7 0a3 3 0 0 1 3 3v2a3 3 0 0 1-6 0v-2a3 3 0 0 1 3-3zm8 0a3 3 0 0 1 3 3v2a3 3 0 0 1-6 0v-2a3 3 0 0 1 3-3zm8 0a3 3 0 0 1 3 3v2a3 3 0 0 1-6 0v-2a3 3 0 0 1 3-3zm8 0a3 3 0 0 1 3 3v2a3 3 0 0 1-6 0v-2a3 3 0 0 1 3-3zm7 0a3 3 0 0 1 3 3v2a3 3 0 0 1-6 0v-2a3 3 0 0 1 3-3zm8 0a3 3 0 0 1 3 3v2a3 3 0 0 1-6 0v-2a3 3 0 0 1 3-3zm8 0a3 3 0 0 1 3 3v2a3 3 0 0 1-6 0v-2a3 3 0 0 1 3-3zm8 0a3 3 0 0 1 3 3v2a3 3 0 0 1-6 0v-2a3 3 0 0 1 3-3zm7 0a3 3 0 0 1 3 3v2a3 3 0 0 1-6 0v-2a3 3 0 0 1 3-3zm8 0a3 3 0 0 1 3 3v2a3 3 0 0 1-6 0v-2a3 3 0 0 1 3-3zm8 0a3 3 0 0 1 3 3v2a3 3 0 0 1-6 0v-2a3 3 0 0 1 3-3zm8 0a3 3 0 0 1 3 3v2a3 3 0 0 1-6 0v-2a3 3 0 0 1 3-3zm8 0a3 3 0 0 1 3 3v2a3 3 0 0 1-6 0v-2a3 3 0 0 1 3-3zm7 0a3 3 0 0 1 3 3v2a3 3 0 0 1-6 0v-2a3 3 0 0 1 3-3zm8 0a3 3 0 0 1 3 3v2a3 3 0 0 1-6 0v-2a3 3 0 0 1 3-3zm8 0a3 3 0 0 1 3 3v2a3 3 0 0 1-6 0v-2a3 3 0 0 1 3-3zm8 0a3 3 0 0 1 3 3v2a3 3 0 0 1-6 0v-2a3 3 0 0 1 3-3zm7 0a3 3 0 0 1 3 3v2a3 3 0 0 1-6 0v-2a3 3 0 0 1 3-3zm8 0a3 3 0 0 1 3 3v2a3 3 0 0 1-6 0v-2a3 3 0 0 1 3-3zm8 0a3 3 0 0 1 3 3v2a3 3 0 0 1-6 0v-2a3 3 0 0 1 3-3zm8 0a3 3 0 0 1 3 3v2a3 3 0 0 1-6 0v-2a3 3 0 0 1 3-3zm7 0a3 3 0 0 1 3 3v2a3 3 0 0 1-6 0v-2a3 3 0 0 1 3-3zm8 0a3 3 0 0 1 3 3v2a3 3 0 0 1-6 0v-2a3 3 0 0 1 3-3zm8 0a3 3 0 0 1 3 3v2a3 3 0 0 1-6 0v-2a3 3 0 0 1 3-3zm8 0a3 3 0 0 1 3 3v2a3 3 0 0 1-6 0v-2a3 3 0 0 1 3-3zm7 0a3 3 0 0 1 3 3v2a3 3 0 0 1-6 0v-2a3 3 0 0 1 3-3zm8 0a3 3 0 0 1 3 3v2a3 3 0 0 1-6 0v-2a3 3 0 0 1 3-3zm8 0a3 3 0 0 1 3 3v2a3 3 0 0 1-6 0v-2a3 3 0 0 1 3-3zm8 0a3 3 0 0 1 3 3v2a3 3 0 0 1-6 0v-2a3 3 0 0 1 3-3z" fill="#0EE0DC"/><path fill="#0EE0DC" fill-rule="nonzero" d="M85 641.5v-32h200v32z"/><path d="M127.248 631.128c-.725 0-1.363-.13-1.912-.392a2.965 2.965 0 0 1-1.272-1.104c-.299-.475-.448-1.021-.448-1.64v-.432c0-.053.019-.099.056-.136a.185.185 0 0 1 .136-.056h1.84c.053 0 .099.019.136.056a.185.185 0 0 1 .056.136v.32c0 .373.139.685.416.936.277.25.64.376 1.088.376.416 0 .733-.107.952-.32.219-.213.328-.485.328-.816a.99.99 0 0 0-.208-.632 2.21 2.21 0 0 0-.584-.496c-.25-.155-.637-.365-1.16-.632a13.59 13.59 0 0 1-1.568-.896 3.837 3.837 0 0 1-1.04-1.072c-.288-.437-.432-.965-.432-1.584 0-.939.32-1.685.96-2.24.64-.555 1.483-.832 2.528-.832.715 0 1.35.136 1.904.408.555.272.987.653 1.296 1.144.31.49.464 1.056.464 1.696v.32a.185.185 0 0 1-.056.136.185.185 0 0 1-.136.056h-1.84a.185.185 0 0 1-.136-.056.185.185 0 0 1-.056-.136v-.288c0-.384-.133-.704-.4-.96s-.624-.384-1.072-.384c-.384 0-.685.099-.904.296-.219.197-.328.472-.328.824 0 .245.064.459.192.64s.325.355.592.52c.267.165.667.381 1.2.648l.352.192c.619.352 1.101.653 1.448.904.347.25.637.565.872.944s.352.84.352 1.384c0 .96-.33 1.728-.992 2.304-.661.576-1.536.864-2.624.864zm15.353-9.584a.185.185 0 0 1-.056.136.185.185 0 0 1-.136.056h-4.288c-.053 0-.08.027-.08.08v2.496c0 .053.027.08.08.08h2.672c.054 0 .099.019.136.056a.185.185 0 0 1 .056.136v1.552a.185.185 0 0 1-.056.136.185.185 0 0 1-.136.056h-2.672c-.053 0-.08.027-.08.08v2.576c0 .053.027.08.08.08h4.288c.054 0 .099.019.136.056a.185.185 0 0 1 .056.136v1.552a.185.185 0 0 1-.056.136.185.185 0 0 1-.136.056h-6.432a.185.185 0 0 1-.136-.056.185.185 0 0 1-.056-.136v-10.816c0-.053.019-.099.056-.136a.185.185 0 0 1 .136-.056h6.432c.054 0 .099.019.136.056a.185.185 0 0 1 .056.136v1.552zm5.146 9.456a.185.185 0 0 1-.136-.056.185.185 0 0 1-.056-.136v-10.816c0-.053.018-.099.056-.136a.185.185 0 0 1 .136-.056h1.888c.106 0 .181.048.224.144l3.072 6.384c.021.032.042.045.064.04.021-.005.032-.03.032-.072l-.016-6.304c0-.053.018-.099.056-.136a.185.185 0 0 1 .136-.056h1.856c.053 0 .098.019.136.056a.185.185 0 0 1 .056.136v10.816a.185.185 0 0 1-.056.136.185.185 0 0 1-.136.056h-1.904c-.096 0-.171-.048-.224-.144l-3.072-6.432c-.022-.032-.043-.045-.064-.04-.022.005-.032.03-.032.072l.032 6.352a.185.185 0 0 1-.056.136.185.185 0 0 1-.136.056h-1.856zm12.921 0a.185.185 0 0 1-.136-.056.185.185 0 0 1-.056-.136v-10.816c0-.053.019-.099.056-.136a.185.185 0 0 1 .136-.056h3.44c.715 0 1.347.133 1.896.4.55.267.973.645 1.272 1.136.299.49.448 1.061.448 1.712v4.704c0 .65-.15 1.221-.448 1.712-.299.49-.723.87-1.272 1.136-.55.267-1.181.4-1.896.4h-3.44zm2.064-2.016c0 .053.027.08.08.08l1.312-.016c.395 0 .715-.141.96-.424.245-.283.373-.659.384-1.128v-4.192c0-.48-.123-.861-.368-1.144-.245-.283-.57-.424-.976-.424h-1.312c-.053 0-.08.027-.08.08v7.168zM184.879 631c-.118 0-.192-.053-.224-.16l-1.616-4.416c-.022-.043-.048-.064-.08-.064h-1.008c-.054 0-.08.027-.08.08v4.368a.185.185 0 0 1-.056.136.185.185 0 0 1-.136.056h-1.872a.185.185 0 0 1-.136-.056.185.185 0 0 1-.056-.136v-10.832c0-.053.018-.099.056-.136a.185.185 0 0 1 .136-.056h3.904c.629 0 1.189.141 1.68.424.49.283.869.68 1.136 1.192.266.512.4 1.099.4 1.76 0 .683-.152 1.277-.456 1.784a2.782 2.782 0 0 1-1.272 1.128c-.043.021-.054.059-.032.112l1.824 4.592c.01.021.016.048.016.08 0 .096-.059.144-.176.144h-1.952zm-2.928-9.264c-.054 0-.08.027-.08.08v2.72c0 .053.026.08.08.08h1.392c.394 0 .714-.13.96-.392.245-.261.368-.605.368-1.032 0-.448-.123-.803-.368-1.064-.246-.261-.566-.392-.96-.392h-1.392zm16.761-.192a.185.185 0 0 1-.056.136.185.185 0 0 1-.136.056h-4.288c-.053 0-.08.027-.08.08v2.496c0 .053.027.08.08.08h2.672c.053 0 .099.019.136.056a.185.185 0 0 1 .056.136v1.552a.185.185 0 0 1-.056.136.185.185 0 0 1-.136.056h-2.672c-.053 0-.08.027-.08.08v2.576c0 .053.027.08.08.08h4.288c.053 0 .099.019.136.056a.185.185 0 0 1 .056.136v1.552a.185.185 0 0 1-.056.136.185.185 0 0 1-.136.056h-6.432a.185.185 0 0 1-.136-.056.185.185 0 0 1-.056-.136v-10.816c0-.053.019-.099.056-.136a.185.185 0 0 1 .136-.056h6.432c.053 0 .099.019.136.056a.185.185 0 0 1 .056.136v1.552zm8.97-1.76c.64 0 1.207.144 1.703.432.496.288.88.693 1.152 1.216.272.523.408 1.12.408 1.792 0 .661-.136 1.245-.408 1.752a2.879 2.879 0 0 1-1.152 1.176c-.496.277-1.064.416-1.704.416h-1.728c-.053 0-.08.027-.08.08v4.16a.185.185 0 0 1-.056.136.185.185 0 0 1-.136.056h-1.872a.185.185 0 0 1-.136-.056.185.185 0 0 1-.056-.136v-10.832c0-.053.019-.099.056-.136a.185.185 0 0 1 .136-.056h3.872zm-.369 4.992c.416 0 .75-.136 1-.408.251-.272.376-.637.376-1.096 0-.47-.125-.843-.376-1.12-.25-.277-.584-.416-1-.416h-1.36c-.053 0-.08.027-.08.08v2.88c0 .053.027.08.08.08h1.36zm11.962 6.368c-.736 0-1.384-.15-1.944-.448a3.201 3.201 0 0 1-1.304-1.264c-.31-.544-.464-1.179-.464-1.904v-4.256c0-.715.154-1.344.464-1.888a3.201 3.201 0 0 1 1.304-1.264c.56-.299 1.208-.448 1.944-.448s1.386.15 1.952.448c.565.299 1.002.72 1.312 1.264.309.544.464 1.173.464 1.888v4.256c0 .725-.155 1.36-.464 1.904-.31.544-.747.965-1.312 1.264-.566.299-1.216.448-1.952.448zm0-1.936c.448 0 .805-.147 1.072-.44.266-.293.4-.675.4-1.144v-4.416c0-.48-.134-.867-.4-1.16-.267-.293-.624-.44-1.072-.44-.438 0-.79.147-1.056.44-.267.293-.4.68-.4 1.16v4.416c0 .47.133.85.4 1.144.266.293.618.44 1.056.44zM233.364 631c-.117 0-.192-.053-.224-.16l-1.616-4.416c-.021-.043-.048-.064-.08-.064h-1.008c-.053 0-.08.027-.08.08v4.368a.185.185 0 0 1-.056.136.185.185 0 0 1-.136.056h-1.872a.185.185 0 0 1-.136-.056.185.185 0 0 1-.056-.136v-10.832c0-.053.019-.099.056-.136a.185.185 0 0 1 .136-.056h3.904c.63 0 1.19.141 1.68.424.49.283.87.68 1.136 1.192.267.512.4 1.099.4 1.76 0 .683-.152 1.277-.456 1.784a2.782 2.782 0 0 1-1.272 1.128c-.043.021-.053.059-.032.112l1.824 4.592c.01.021.016.048.016.08 0 .096-.059.144-.176.144h-1.952zm-2.928-9.264c-.053 0-.08.027-.08.08v2.72c0 .053.027.08.08.08h1.392c.395 0 .715-.13.96-.392.245-.261.368-.605.368-1.032 0-.448-.123-.803-.368-1.064s-.565-.392-.96-.392h-1.392zm16.89-1.936c.053 0 .098.019.135.056a.185.185 0 0 1 .056.136v1.568a.185.185 0 0 1-.056.136.185.185 0 0 1-.136.056h-2.432c-.053 0-.08.027-.08.08v8.976a.185.185 0 0 1-.056.136.185.185 0 0 1-.136.056h-1.872a.185.185 0 0 1-.136-.056.185.185 0 0 1-.056-.136v-8.976c0-.053-.026-.08-.08-.08h-2.352a.185.185 0 0 1-.136-.056.185.185 0 0 1-.056-.136v-1.568c0-.053.019-.099.056-.136a.185.185 0 0 1 .136-.056h7.2z" fill="#F4F4F5"/><path fill="#D6D6D6" d="M154 48h62v6h-62z"/><circle stroke="url(#b)" stroke-width="3" fill="url(#c)" cx="186.5" cy="732.5" r="28.5"/></g></svg>