<svg xmlns="http://www.w3.org/2000/svg" width="383" height="336" xmlns:xlink="http://www.w3.org/1999/xlink"><title>Group 2</title><desc>Created with Sketch.</desc><defs><pattern id="a" width="124.627%" height="100%" x="-24.627%"><use xlink:href="#image-2" transform="scale(.746)"/></pattern><pattern id="b" width="124.627%" height="100%" x="-24.627%"><use xlink:href="#image-4" transform="scale(.746)"/></pattern></defs><g fill="none"><g><g><g><g transform="translate(228 277)"><circle cx="129" cy="33" r="25" fill="url(#a)" stroke="#FBFAF9" stroke-width="2"/><path id="Combined-Shape" fill="#FBFAF9" d="M77.3 19.65L95 28.5l-17.7 8.85C74.85 48.6 64.85 57 52.88 57H25C11.2 57 0 45.8 0 32v-7C0 11.2 11.2 0 25 0h27.88C64.84 0 74.84 8.4 77.3 19.65z"/><path fill="#454546" d="M36.92 31v-4.07h4.2V31h-4.2zm-9.34 0v-4.07h4.2V31h-4.2zm18.67 0v-4.07h4.18V31h-4.18z"/></g><g transform="translate(0 118)"><circle cx="25" cy="107" r="25" fill="#0EE0DC"/><g fill="#fff" fill-rule="nonzero"><path d="M34.7 94.15L25.03 92H25l-9.7 2.15c-1.34.3-2.3 1.5-2.3 2.9v3.2c0 .32.14.6.37.8.24.2.54.26.84.2l.93-.24c.44-.1.75-.5.76-.96V97l9.1-1.98 9.1 2.02v16.87c0 .5-.25.97-.68 1.22L25 120.08l-8.43-4.96c-.42-.25-.68-.7-.68-1.2v-1.64l8.48-2.04c.45-.1.77-.52.77-1v-.92c0-.32-.14-.6-.38-.8-.24-.2-.56-.28-.86-.2l-10.07 2.43c-.48.12-.83.57-.83 1.08v3.08c0 1.56.8 3 2.13 3.77l8.4 4.94c.9.53 2.02.53 2.92 0l8.4-4.95c1.32-.77 2.14-2.2 2.15-3.74V97.05c0-1.4-.96-2.6-2.3-2.9zM13.38 105.8c.17.13.4.2.6.2.1 0 .17 0 .24-.03l10.02-2.25c.44-.1.76-.48.76-.92v-.85c0-.3-.14-.57-.38-.75-.24-.18-.55-.24-.85-.17l-10 2.25c-.46.1-.77.5-.77.93v.85c0 .3.14.56.38.74z"/></g><path id="Combined-Shape" fill="#FBFAF9" d="M74 113l-17-8.5L74 96V25C74 11.2 85.2 0 99 0h121.88c13.8 0 25 11.2 25 25v90c0 13.8-11.2 25-25 25H99c-13.8 0-25-11.2-25-25v-2z"/><path fill="#454546" d="M98.53 20.86h3.77c1.73 0 2.97.25 3.75.74.78.5 1.17 1.27 1.17 2.34 0 .72-.17 1.32-.5 1.78-.35.47-.8.74-1.37.84v.08c.77.17 1.32.5 1.66.96.36.47.53 1.1.53 1.88 0 1.1-.4 1.97-1.2 2.6-.8.6-1.9.92-3.26.92h-4.54V20.86zm2.57 4.8h1.5c.7 0 1.2-.1 1.5-.3.32-.23.48-.6.48-1.08 0-.47-.17-.8-.5-1-.35-.2-.9-.3-1.63-.3h-1.35v2.7zm0 2.05v3.18h1.68c.7 0 1.23-.14 1.57-.4.33-.28.5-.7.5-1.26 0-1-.72-1.5-2.16-1.5h-1.6zm19.86-.78c0 2-.5 3.55-1.5 4.63s-2.4 1.62-4.27 1.62c-1.87 0-3.3-.54-4.3-1.62s-1.5-2.63-1.5-4.65c0-2.02.5-3.56 1.5-4.63 1-1.06 2.44-1.6 4.3-1.6 1.87 0 3.3.54 4.28 1.6 1 1.1 1.48 2.63 1.48 4.65zm-8.85 0c0 1.35.26 2.37.78 3.06.5.68 1.28 1.03 2.3 1.03 2.06 0 3.1-1.36 3.1-4.08 0-2.74-1.03-4.1-3.08-4.1-1.02 0-1.8.34-2.3 1.03-.53.7-.8 1.7-.8 3.07zm22.4 0c0 2-.5 3.55-1.5 4.63s-2.42 1.62-4.28 1.62c-1.86 0-3.3-.54-4.3-1.62-.98-1.08-1.48-2.63-1.48-4.65 0-2.02.5-3.56 1.5-4.63 1-1.06 2.43-1.6 4.3-1.6 1.86 0 3.3.54 4.27 1.6 1 1.1 1.5 2.63 1.5 4.65zm-8.86 0c0 1.35.26 2.37.77 3.06.52.68 1.3 1.03 2.32 1.03 2.05 0 3.08-1.36 3.08-4.08 0-2.74-1.02-4.1-3.07-4.1-1.02 0-1.8.34-2.3 1.03-.53.7-.8 1.7-.8 3.07zm16.5 6.08l-2.9-9.52h-.1c.12 1.94.17 3.23.17 3.88V33H137V20.86h3.5l2.88 9.28h.05l3.05-9.28h3.5V33h-2.4v-5.74c0-.28 0-.6.02-.94 0-.36.04-1.3.1-2.82h-.07L144.5 33h-2.35zm13.18-1.78c-.3 1.1-.77 2.44-1.46 3.97h-1.83c.36-1.48.64-2.87.84-4.18h2.33l.12.2zm10.84-5.36l2.53-5h2.77l-4.03 7.42V33h-2.56v-4.64l-4.02-7.5h2.8l2.5 5zm8.65 2.48c0 .92.16 1.62.46 2.1.3.46.8.7 1.48.7.67 0 1.16-.24 1.45-.7.3-.48.44-1.17.44-2.1 0-.92-.15-1.6-.45-2.06-.3-.46-.8-.7-1.48-.7-.67 0-1.16.24-1.46.7-.3.45-.45 1.14-.45 2.06zm6.43 0c0 1.5-.4 2.7-1.2 3.55-.8.84-1.9 1.27-3.33 1.27-.9 0-1.67-.2-2.35-.6-.68-.38-1.2-.94-1.57-1.67-.37-.73-.55-1.58-.55-2.56 0-1.5.4-2.7 1.2-3.53.78-.83 1.9-1.25 3.32-1.25.9 0 1.68.2 2.36.58.7.38 1.2.94 1.58 1.66.37.72.55 1.57.55 2.54zM189.9 33l-.35-1.2h-.13c-.27.44-.65.78-1.15 1-.5.25-1.07.37-1.7.37-1.1 0-1.92-.3-2.47-.88-.55-.6-.83-1.43-.83-2.53v-6.05h2.53v5.42c0 .67.12 1.17.36 1.5.24.34.62.5 1.14.5.7 0 1.22-.23 1.53-.7.32-.47.47-1.26.47-2.35V23.7h2.54V33h-1.95zm9.77-9.45c.35 0 .63.02.86.07l-.2 2.37c-.2-.06-.45-.1-.74-.1-.82 0-1.45.22-1.9.63-.45.42-.68 1-.68 1.75V33h-2.53v-9.28h1.9l.38 1.56h.13c.3-.52.68-.94 1.17-1.26.5-.32 1.03-.47 1.6-.47zm-96.2 24.07h-2.2V55h-2.54v-7.38h-1.4V46.4l1.4-.68v-.68c0-1.06.26-1.83.8-2.32.5-.48 1.34-.73 2.48-.73.9 0 1.67.12 2.35.38l-.65 1.86c-.5-.16-.98-.24-1.4-.24-.37 0-.63.1-.8.32-.15.2-.23.5-.23.82v.58h2.2v1.9zm8 7.38l-.33-1.2H111c-.26.44-.64.78-1.14 1-.5.25-1.07.37-1.7.37-1.1 0-1.92-.3-2.47-.88-.56-.6-.84-1.43-.84-2.53v-6.05h2.53v5.42c0 .67.1 1.17.35 1.5.24.34.62.5 1.14.5.7 0 1.2-.23 1.52-.7.32-.47.48-1.26.48-2.35V45.7h2.53V55h-1.95zm13.18 0h-2.53v-5.42c0-.67-.12-1.17-.36-1.5-.24-.34-.62-.5-1.14-.5-.7 0-1.22.23-1.53.7-.33.47-.48 1.26-.48 2.35V55h-2.54v-9.28h1.94l.34 1.2h.14c.28-.46.67-.8 1.17-1.03.5-.24 1.05-.35 1.68-.35 1.08 0 1.9.3 2.46.87.57.58.85 1.43.85 2.53V55zm5.54.17c-1.1 0-1.95-.43-2.57-1.27-.63-.85-.94-2.02-.94-3.52 0-1.53.3-2.7.94-3.56.64-.85 1.5-1.27 2.62-1.27 1.17 0 2.06.45 2.67 1.36h.1c-.14-.68-.2-1.3-.2-1.84v-2.98h2.54V55h-1.95l-.5-1.2h-.1c-.57.9-1.45 1.37-2.63 1.37zm.88-2.02c.65 0 1.12-.2 1.43-.57.3-.37.47-1 .5-1.9v-.3c0-.98-.15-1.7-.46-2.13-.3-.43-.8-.65-1.5-.65-.56 0-1 .24-1.3.72-.33.48-.48 1.18-.48 2.1 0 .9.15 1.6.47 2.04.32.46.77.7 1.35.7zm13.4-.9c0 .95-.32 1.67-.98 2.17-.66.5-1.65.75-2.97.75-.68 0-1.25-.05-1.73-.14-.47-.1-.92-.23-1.33-.4v-2.1c.47.23 1 .4 1.6.56.58.14 1.1.2 1.54.2.93 0 1.4-.25 1.4-.78 0-.2-.07-.36-.2-.5-.1-.1-.32-.25-.62-.4-.3-.17-.7-.35-1.2-.56-.7-.3-1.24-.58-1.57-.83-.33-.26-.57-.55-.72-.88-.15-.33-.23-.73-.23-1.2 0-.84.32-1.48.96-1.93.65-.45 1.55-.67 2.73-.67 1.1 0 2.2.24 3.26.73l-.77 1.82c-.47-.2-.9-.36-1.3-.5-.4-.1-.82-.18-1.24-.18-.76 0-1.14.2-1.14.6 0 .23.13.43.37.6.24.16.76.4 1.58.74.73.3 1.26.56 1.6.82.34.25.6.55.75.88.16.33.24.72.24 1.18zM159.46 55h-2.53v-5.42c0-1.34-.5-2-1.5-2-.7 0-1.22.23-1.53.7-.33.5-.5 1.27-.5 2.35V55h-2.52V42.08h2.53v2.64c0 .2 0 .68-.05 1.44l-.05.75h.13c.56-.9 1.46-1.35 2.7-1.35 1.08 0 1.9.3 2.47.88.56.58.85 1.42.85 2.52V55zm8.5 0l-.5-1.26h-.06c-.44.54-.87.9-1.33 1.1-.45.22-1.03.33-1.76.33-.88 0-1.58-.26-2.1-.77-.5-.5-.76-1.23-.76-2.17 0-1 .34-1.7 1.03-2.18.7-.47 1.73-.73 3.12-.78l1.6-.05v-.4c0-.94-.48-1.42-1.44-1.42-.75 0-1.62.23-2.62.68l-.84-1.7c1.07-.57 2.25-.85 3.55-.85 1.25 0 2.2.27 2.87.8.66.55 1 1.38 1 2.5V55h-1.77zm-.75-4.3l-.98.03c-.74.03-1.28.16-1.64.4-.36.25-.54.62-.54 1.1 0 .73.4 1.08 1.23 1.08.58 0 1.05-.15 1.4-.5.35-.33.53-.78.53-1.34v-.76zm7.33 4.3L171 45.72h2.64l1.8 5.3c.2.66.32 1.3.37 1.9h.06c.03-.54.15-1.18.37-1.9l1.8-5.3h2.63L177.13 55h-2.6zm11.3-7.65c-.53 0-.95.17-1.26.5-.3.35-.48.83-.52 1.46h3.55c0-.62-.17-1.1-.5-1.44-.3-.34-.73-.5-1.27-.5zm.36 7.82c-1.5 0-2.67-.42-3.5-1.24-.85-.83-1.27-2-1.27-3.5 0-1.56.4-2.76 1.16-3.6.77-.86 1.85-1.28 3.22-1.28 1.3 0 2.33.37 3.06 1.12.73.74 1.1 1.78 1.1 3.1v1.22h-6c.04.7.25 1.27.65 1.68.4.4.96.6 1.68.6.57 0 1.1-.06 1.6-.17.5-.1 1-.3 1.55-.55v1.96c-.44.23-.9.4-1.42.5-.5.1-1.1.17-1.84.17zm-82.7 12.38c1.1 0 1.94.42 2.56 1.28.62.85.93 2.02.93 3.5 0 1.55-.33 2.73-.96 3.57-.64.85-1.5 1.27-2.62 1.27-1.1 0-1.94-.4-2.56-1.2h-.17l-.44 1.03h-1.93V64.08h2.53v3c0 .4-.03 1-.1 1.84h.1c.6-.92 1.47-1.37 2.63-1.37zm-.82 2.02c-.63 0-1.08.2-1.37.58-.28.38-.43 1.02-.44 1.9v.28c0 1 .15 1.7.44 2.14.3.43.77.65 1.4.65.53 0 .94-.24 1.25-.72.3-.48.46-1.18.46-2.1 0-.9-.14-1.6-.45-2.04-.3-.46-.74-.7-1.27-.7zm10.25-.22c-.54 0-.96.17-1.26.5-.3.35-.48.83-.53 1.46h3.56c0-.62-.18-1.1-.5-1.44-.3-.34-.73-.5-1.27-.5zm.36 7.82c-1.5 0-2.68-.42-3.52-1.24-.84-.83-1.26-2-1.26-3.5 0-1.56.4-2.76 1.17-3.6.77-.86 1.84-1.28 3.2-1.28 1.32 0 2.35.37 3.08 1.12.73.74 1.1 1.78 1.1 3.1v1.22h-6c.03.7.25 1.27.65 1.68.4.4.95.6 1.67.6.56 0 1.1-.06 1.6-.17.5-.1 1-.3 1.55-.55v1.96c-.44.23-.92.4-1.42.5-.5.1-1.12.17-1.84.17zm9.67-7.82c-.53 0-.95.17-1.26.5-.3.35-.47.83-.5 1.46h3.54c0-.62-.17-1.1-.5-1.44-.3-.34-.73-.5-1.27-.5zm.36 7.82c-1.5 0-2.66-.42-3.5-1.24-.84-.83-1.26-2-1.26-3.5 0-1.56.38-2.76 1.16-3.6.78-.86 1.85-1.28 3.23-1.28 1.3 0 2.33.37 3.06 1.12.73.74 1.1 1.78 1.1 3.1v1.22h-6c.04.7.25 1.27.65 1.68.4.4.96.6 1.68.6.56 0 1.08-.06 1.58-.17.5-.1 1.02-.3 1.56-.55v1.96c-.45.23-.92.4-1.43.5-.5.1-1.1.17-1.84.17zm14.4-.17h-2.52v-5.42c0-.67-.1-1.17-.35-1.5-.24-.34-.62-.5-1.14-.5-.7 0-1.2.23-1.52.7-.32.47-.47 1.26-.47 2.35V77h-2.53v-9.28h1.94l.35 1.2h.14c.27-.46.66-.8 1.16-1.03.5-.24 1.05-.35 1.68-.35 1.08 0 1.9.3 2.46.87.56.58.84 1.43.84 2.53V77zm9.97.17c-1.1 0-1.95-.43-2.57-1.27-.62-.85-.93-2.02-.93-3.52 0-1.53.32-2.7.95-3.56.63-.85 1.5-1.27 2.62-1.27 1.17 0 2.06.45 2.67 1.36h.08c-.12-.68-.2-1.3-.2-1.84v-2.98h2.55V77h-1.94l-.5-1.2h-.1c-.57.9-1.45 1.37-2.63 1.37zm.9-2.02c.64 0 1.1-.2 1.4-.57.3-.37.48-1 .5-1.9v-.3c0-.98-.15-1.7-.45-2.13-.3-.43-.8-.65-1.5-.65-.57 0-1 .24-1.32.72-.3.48-.47 1.18-.47 2.1 0 .9.16 1.6.48 2.04.3.46.76.7 1.35.7zm10.76-5.8c-.53 0-.95.17-1.26.5-.3.35-.48.83-.52 1.46h3.55c0-.62-.17-1.1-.5-1.44-.3-.34-.73-.5-1.27-.5zm.36 7.82c-1.5 0-2.66-.42-3.5-1.24-.84-.83-1.26-2-1.26-3.5 0-1.56.38-2.76 1.16-3.6.78-.86 1.85-1.28 3.23-1.28 1.3 0 2.33.37 3.06 1.12.74.74 1.1 1.78 1.1 3.1v1.22h-5.98c.03.7.24 1.27.64 1.68.4.4.96.6 1.68.6.56 0 1.08-.06 1.58-.17.5-.1 1.02-.3 1.56-.55v1.96c-.44.23-.9.4-1.42.5-.5.1-1.1.17-1.84.17zm10.94 0c-1.1 0-1.94-.4-2.56-1.2h-.14c.1.78.14 1.23.14 1.35v3.76h-2.54V67.72h2.06l.36 1.2h.12c.6-.92 1.47-1.37 2.63-1.37 1.1 0 1.95.42 2.57 1.27.62.84.93 2.02.93 3.52 0 1-.14 1.85-.44 2.58-.3.74-.7 1.3-1.25 1.67-.53.38-1.16.57-1.9.57zm-.75-7.6c-.6 0-1.07.2-1.36.58-.28.38-.43 1.02-.44 1.9v.28c0 1 .14 1.7.44 2.14.3.43.77.65 1.4.65 1.14 0 1.7-.94 1.7-2.8 0-.92-.13-1.6-.4-2.06-.3-.46-.73-.7-1.33-.7zm8.44 2.77c0 .92.15 1.62.45 2.1.3.46.78.7 1.47.7.67 0 1.16-.24 1.45-.7.3-.48.45-1.17.45-2.1 0-.92-.15-1.6-.45-2.06-.3-.46-.8-.7-1.47-.7-.68 0-1.16.24-1.46.7-.3.45-.46 1.14-.46 2.06zm6.42 0c0 1.5-.4 2.7-1.2 3.55-.8.84-1.9 1.27-3.33 1.27-.9 0-1.67-.2-2.36-.6-.68-.38-1.2-.94-1.56-1.67-.36-.73-.54-1.58-.54-2.56 0-1.5.4-2.7 1.18-3.53.8-.83 1.9-1.25 3.34-1.25.9 0 1.68.2 2.36.58.68.38 1.2.94 1.57 1.66.37.72.56 1.57.56 2.54zm8.56 1.9c0 .96-.33 1.68-1 2.18-.65.5-1.64.75-2.96.75-.67 0-1.25-.05-1.72-.14-.48-.1-.93-.23-1.34-.4v-2.1c.47.23 1 .4 1.6.56.58.14 1.1.2 1.55.2.9 0 1.37-.25 1.37-.78 0-.2-.06-.36-.18-.5-.12-.1-.33-.25-.63-.4-.3-.17-.7-.35-1.2-.56-.7-.3-1.22-.58-1.56-.83-.33-.26-.58-.55-.73-.88-.14-.33-.22-.73-.22-1.2 0-.84.32-1.48.96-1.93.64-.45 1.55-.67 2.72-.67 1.12 0 2.2.24 3.26.73l-.76 1.82c-.47-.2-.9-.36-1.3-.5-.4-.1-.82-.18-1.24-.18-.75 0-1.12.2-1.12.6 0 .23.12.43.36.6.24.16.77.4 1.58.74.73.3 1.26.56 1.6.82.33.25.58.55.74.88.16.33.24.72.24 1.18zm1.87-8.92c0-.82.45-1.24 1.37-1.24.92 0 1.38.42 1.38 1.24 0 .4-.12.7-.35.92-.23.22-.57.33-1.03.33-.92 0-1.38-.42-1.38-1.25zM197.82 77h-2.53v-9.28h2.53V77zm6.57-1.85c.44 0 .97-.1 1.6-.3v1.9c-.64.27-1.42.42-2.33.42-1.02 0-1.76-.26-2.22-.77-.46-.5-.7-1.28-.7-2.3V69.6h-1.2v-1.07l1.4-.85.72-1.96h1.62v1.98h2.6v1.9h-2.6v4.47c0 .35.1.62.3.8.2.16.46.25.8.25zm7.3-5.8c-.53 0-.95.17-1.25.5-.3.35-.48.83-.53 1.46h3.56c0-.62-.18-1.1-.5-1.44-.3-.34-.73-.5-1.27-.5zm.37 7.82c-1.5 0-2.67-.42-3.5-1.24-.85-.83-1.27-2-1.27-3.5 0-1.56.4-2.76 1.17-3.6.77-.86 1.85-1.28 3.22-1.28 1.3 0 2.32.37 3.05 1.12.74.74 1.1 1.78 1.1 3.1v1.22h-5.98c.02.7.24 1.27.63 1.68.4.4.96.6 1.68.6.56 0 1.1-.06 1.6-.17.5-.1 1-.3 1.55-.55v1.96c-.45.23-.92.4-1.42.5-.5.1-1.1.17-1.83.17zm8.78 0c-1.1 0-1.95-.43-2.57-1.27-.62-.85-.94-2.02-.94-3.52 0-1.53.32-2.7.96-3.56.63-.85 1.5-1.27 2.6-1.27 1.18 0 2.07.45 2.7 1.36h.07c-.13-.68-.2-1.3-.2-1.84v-2.98h2.55V77h-1.94l-.5-1.2h-.1c-.58.9-1.45 1.37-2.63 1.37zm.9-2.02c.63 0 1.1-.2 1.4-.57.3-.37.48-1 .5-1.9v-.3c0-.98-.15-1.7-.46-2.13-.3-.43-.8-.65-1.5-.65-.57 0-1 .24-1.32.72-.3.48-.47 1.18-.47 2.1 0 .9.17 1.6.48 2.04.32.46.77.7 1.36.7zM98.2 87.32c0-.82.46-1.24 1.38-1.24.92 0 1.38.42 1.38 1.24 0 .4-.12.7-.35.92-.23.22-.57.33-1.03.33-.92 0-1.38-.42-1.38-1.25zM100.86 99h-2.53v-9.28h2.53V99zm11.22 0h-2.53v-5.42c0-.67-.12-1.17-.36-1.5-.24-.34-.62-.5-1.14-.5-.7 0-1.22.23-1.54.7-.3.47-.47 1.26-.47 2.35V99h-2.53v-9.28h1.93l.34 1.2h.13c.28-.46.67-.8 1.17-1.03.5-.24 1.06-.35 1.7-.35 1.07 0 1.9.3 2.44.87.56.58.84 1.43.84 2.53V99zm6.52-1.85c.44 0 .97-.1 1.6-.3v1.9c-.64.27-1.4.42-2.33.42-1 0-1.75-.26-2.2-.77-.48-.5-.7-1.28-.7-2.3V91.6h-1.22v-1.07l1.4-.85.73-1.96h1.6v1.98h2.6v1.9h-2.6v4.47c0 .35.12.62.32.8.2.16.47.25.8.25zm5.5-2.8c0 .9.14 1.6.44 2.08.3.47.8.7 1.47.7.7 0 1.17-.23 1.47-.7.3-.47.44-1.16.44-2.1 0-.9-.14-1.6-.44-2.05-.3-.46-.78-.7-1.47-.7-.68 0-1.17.24-1.47.7-.3.45-.44 1.14-.44 2.06zm6.4 0c0 1.5-.4 2.7-1.2 3.54-.8.84-1.9 1.27-3.32 1.27-.9 0-1.68-.2-2.36-.6-.68-.38-1.2-.94-1.57-1.67-.36-.73-.55-1.58-.55-2.56 0-1.5.4-2.7 1.2-3.53.78-.83 1.9-1.25 3.33-1.25.9 0 1.67.2 2.36.58.67.38 1.2.94 1.55 1.66.37.72.55 1.57.55 2.54zm5.18-4.63h2.77l1.76 5.22c.15.45.26 1 .3 1.6h.06c.06-.56.18-1.1.36-1.6l1.72-5.22h2.7l-3.9 10.47c-.37.96-.9 1.68-1.55 2.16-.68.48-1.46.72-2.35.72-.44 0-.87-.04-1.3-.14v-2c.32.07.65.1 1 .1.46 0 .85-.13 1.18-.4.34-.28.6-.7.8-1.25l.14-.47-3.7-9.2zm13.02 4.62c0 .92.15 1.62.45 2.1.3.46.8.7 1.47.7.68 0 1.16-.24 1.46-.7.3-.48.44-1.17.44-2.1 0-.92-.15-1.6-.44-2.06-.3-.46-.8-.7-1.47-.7-.67 0-1.16.24-1.45.7-.3.45-.45 1.14-.45 2.06zm6.4 0c0 1.5-.38 2.7-1.18 3.55-.8.84-1.9 1.27-3.33 1.27-.9 0-1.7-.2-2.37-.6-.68-.38-1.2-.94-1.57-1.67-.36-.73-.54-1.58-.54-2.56 0-1.5.4-2.7 1.18-3.53.8-.83 1.9-1.25 3.34-1.25.9 0 1.68.2 2.36.58.68.38 1.2.94 1.57 1.66.36.72.54 1.57.54 2.54zM163.8 99l-.34-1.2h-.13c-.26.44-.65.78-1.15 1-.5.25-1.06.37-1.7.37-1.1 0-1.9-.3-2.46-.88-.57-.6-.84-1.43-.84-2.53v-6.05h2.53v5.42c0 .67.1 1.17.34 1.5.24.34.62.5 1.14.5.7 0 1.22-.23 1.54-.7.3-.47.47-1.26.47-2.35V89.7h2.52V99h-1.94zm9.78-9.45c.34 0 .63.02.85.07l-.18 2.37c-.2-.06-.45-.1-.74-.1-.8 0-1.44.22-1.9.63-.44.42-.67 1-.67 1.75V99h-2.52v-9.28h1.92l.37 1.56h.12c.28-.52.67-.94 1.16-1.26.5-.32 1.02-.47 1.6-.47zm5.88 13.02c-.58 0-1.08-.06-1.52-.18v-2.15c.45.1.85.16 1.22.16.56 0 .96-.16 1.2-.52.25-.35.37-.9.37-1.64V86.86h2.6v11.36c0 1.42-.34 2.5-.98 3.24-.65.74-1.6 1.1-2.88 1.1zm8.72-8.23c0 .92.15 1.62.45 2.1.3.46.8.7 1.48.7.68 0 1.17-.24 1.46-.7.3-.48.45-1.17.45-2.1 0-.92-.16-1.6-.46-2.06-.3-.46-.8-.7-1.47-.7-.68 0-1.16.24-1.46.7-.3.45-.44 1.14-.44 2.06zm6.42 0c0 1.5-.4 2.7-1.2 3.55-.8.84-1.9 1.27-3.33 1.27-.9 0-1.67-.2-2.36-.6-.7-.38-1.2-.94-1.57-1.67-.37-.73-.55-1.58-.55-2.56 0-1.5.4-2.7 1.18-3.53.8-.83 1.9-1.25 3.34-1.25.9 0 1.68.2 2.36.58.68.38 1.2.94 1.57 1.66.36.72.55 1.57.55 2.54zm8.66 4.66l-.34-1.2h-.13c-.27.44-.66.78-1.16 1-.48.25-1.05.37-1.7.37-1.08 0-1.9-.3-2.45-.88-.56-.6-.83-1.43-.83-2.53v-6.05h2.53v5.42c0 .67.12 1.17.36 1.5.24.34.62.5 1.14.5.7 0 1.22-.23 1.54-.7.3-.47.47-1.26.47-2.35V89.7h2.53V99h-1.94zm11.07-2.76c0 .96-.32 1.68-.98 2.18-.66.5-1.65.75-2.96.75-.68 0-1.26-.05-1.73-.14-.48-.1-.92-.23-1.34-.4v-2.1c.46.23 1 .4 1.58.56.6.14 1.1.2 1.56.2.92 0 1.38-.25 1.38-.78 0-.2-.06-.36-.2-.5-.1-.1-.32-.25-.62-.4-.3-.17-.7-.35-1.2-.56-.7-.3-1.23-.58-1.57-.83-.33-.26-.57-.55-.73-.88-.15-.33-.22-.73-.22-1.2 0-.84.32-1.48.95-1.93.64-.45 1.55-.67 2.72-.67 1.12 0 2.2.24 3.27.73l-.77 1.82c-.46-.2-.9-.36-1.3-.5-.4-.1-.82-.18-1.24-.18-.74 0-1.1.2-1.1.6 0 .23.1.43.35.6.24.16.77.4 1.58.74.73.3 1.26.56 1.6.82.33.25.58.55.74.88.16.33.24.72.24 1.18zm5.9.9c.44 0 .97-.1 1.6-.28v1.88c-.64.28-1.4.43-2.33.43-1 0-1.75-.26-2.2-.77-.47-.5-.7-1.28-.7-2.3V91.6h-1.22v-1.07l1.4-.85.73-1.96h1.62v1.98h2.6v1.9h-2.6v4.47c0 .35.1.62.3.8.2.16.47.25.8.25zM104.22 121l-.5-1.26h-.05c-.43.54-.87.9-1.32 1.1-.45.22-1.04.33-1.76.33-.9 0-1.6-.26-2.12-.77-.5-.5-.77-1.23-.77-2.17 0-1 .36-1.7 1.05-2.18.7-.47 1.73-.73 3.1-.78l1.62-.05v-.4c0-.94-.48-1.42-1.44-1.42-.74 0-1.6.23-2.6.68l-.85-1.7c1.07-.57 2.25-.85 3.55-.85 1.25 0 2.2.27 2.86.8.66.55 1 1.38 1 2.5V121h-1.78zm-.75-4.3l-.97.03c-.74.03-1.3.16-1.65.4-.36.25-.54.62-.54 1.1 0 .73.42 1.08 1.24 1.08.6 0 1.06-.15 1.4-.5.36-.33.53-.78.53-1.34v-.76zm8.9 4.47c-2.9 0-4.34-1.6-4.34-4.76 0-1.57.4-2.77 1.18-3.6.8-.84 1.92-1.25 3.4-1.25 1.06 0 2.03.2 2.88.63l-.75 1.96c-.4-.17-.77-.3-1.1-.4-.35-.1-.7-.15-1.04-.15-1.33 0-2 .92-2 2.8 0 1.8.67 2.72 2 2.72.48 0 .93-.07 1.34-.2.42-.13.83-.33 1.25-.6v2.16c-.42.26-.84.44-1.25.54-.42.1-.95.15-1.6.15zm8.74 0c-2.88 0-4.33-1.6-4.33-4.76 0-1.57.4-2.77 1.18-3.6.8-.84 1.9-1.25 3.38-1.25 1.07 0 2.04.2 2.9.63l-.76 1.96c-.4-.17-.77-.3-1.1-.4-.35-.1-.7-.15-1.04-.15-1.32 0-1.98.92-1.98 2.8 0 1.8.66 2.72 1.98 2.72.5 0 .94-.07 1.35-.2.42-.13.83-.33 1.25-.6v2.16c-.4.26-.83.44-1.24.54-.43.1-.96.15-1.6.15zm7-4.83c0 .92.15 1.62.45 2.1.3.46.8.7 1.47.7.68 0 1.16-.24 1.46-.7.3-.48.44-1.17.44-2.1 0-.92-.15-1.6-.45-2.06-.3-.46-.8-.7-1.47-.7-.67 0-1.16.24-1.46.7-.3.45-.45 1.14-.45 2.06zm6.4 0c0 1.5-.4 2.7-1.18 3.55-.8.84-1.9 1.27-3.33 1.27-.9 0-1.7-.2-2.37-.6-.68-.38-1.2-.94-1.57-1.67-.36-.73-.55-1.58-.55-2.56 0-1.5.4-2.7 1.2-3.53.8-.83 1.9-1.25 3.34-1.25.9 0 1.67.2 2.35.58.68.38 1.2.94 1.56 1.66.37.72.55 1.57.55 2.54zm8.68 4.66l-.34-1.2h-.14c-.27.44-.65.78-1.15 1-.5.25-1.06.37-1.7.37-1.1 0-1.9-.3-2.47-.88-.55-.6-.83-1.43-.83-2.53v-6.05h2.53v5.42c0 .67.12 1.17.36 1.5.24.34.62.5 1.14.5.7 0 1.22-.23 1.53-.7.33-.47.5-1.26.5-2.35v-4.38h2.52V121h-1.94zm13.16 0h-2.53v-5.42c0-.67-.1-1.17-.35-1.5-.23-.34-.6-.5-1.13-.5-.7 0-1.22.23-1.54.7-.3.47-.47 1.26-.47 2.35V121h-2.52v-9.28h1.93l.35 1.2h.14c.27-.46.66-.8 1.16-1.03.5-.24 1.06-.35 1.7-.35 1.07 0 1.88.3 2.44.87.56.58.84 1.43.84 2.53V121zm6.52-1.85c.44 0 .97-.1 1.6-.3v1.9c-.64.27-1.4.42-2.33.42-1 0-1.75-.26-2.2-.77-.48-.5-.7-1.28-.7-2.3v-4.48H158v-1.07l1.4-.85.74-1.96h1.6v1.98h2.6v1.9h-2.6v4.47c0 .35.12.62.32.8.2.16.47.25.8.25zm3.1.66c0-.45.14-.8.38-1.04.25-.24.62-.36 1.1-.36.45 0 .8.12 1.06.37.25.24.38.6.38 1.04 0 .45-.13.8-.4 1.05-.24.25-.6.37-1.05.37-.46 0-.82-.12-1.08-.37-.25-.24-.38-.6-.38-1.04z"/></g><g transform="translate(134 0)"><circle cx="223" cy="70" r="25" fill="url(#b)" stroke="#FBFAF9" stroke-width="2"/><path fill="#FBFAF9" d="M171.88 58.94L189 67.5l-17.13 8.56V77c0 13.8-11.2 25-25 25H25C11.2 102 0 90.8 0 77V25C0 11.2 11.2 0 25 0h121.88c13.8 0 25 11.2 25 25v33.94z"/><path fill="#454546" d="M34.47 33H31.9v-5.24h-4.8V33h-2.57V20.86h2.57v4.76h4.8v-4.76h2.57V33zm6.7-7.65c-.53 0-.95.17-1.25.5-.3.35-.48.83-.53 1.46h3.55c0-.62-.18-1.1-.5-1.44-.3-.34-.73-.5-1.27-.5zm.37 7.82c-1.5 0-2.67-.42-3.5-1.24-.85-.83-1.27-2-1.27-3.5 0-1.56.4-2.76 1.17-3.6.77-.86 1.85-1.28 3.22-1.28 1.3 0 2.33.37 3.07 1.12.73.74 1.1 1.78 1.1 3.1v1.22h-6c.03.7.25 1.27.65 1.68.4.4.95.6 1.67.6.56 0 1.1-.06 1.6-.17.5-.1 1-.3 1.55-.55v1.96c-.44.23-.92.4-1.42.5-.5.1-1.12.17-1.84.17zm4.5-9.45h2.78l1.76 5.22c.14.45.25 1 .3 1.6h.05c.06-.56.18-1.1.36-1.6l1.7-5.22h2.72L51.8 34.2c-.36.96-.88 1.68-1.54 2.16-.67.48-1.45.72-2.34.72-.44 0-.87-.04-1.3-.14v-2c.32.07.65.1 1 .1.46 0 .85-.13 1.18-.4.34-.28.6-.7.8-1.25l.14-.47-3.7-9.2zM60.4 36.57c-.6 0-1.1-.06-1.52-.18v-2.15c.44.1.84.16 1.2.16.57 0 .98-.16 1.22-.52.24-.35.37-.9.37-1.64V20.86h2.57v11.36c0 1.42-.33 2.5-.97 3.24-.65.74-1.6 1.1-2.87 1.1zm8.7-8.23c0 .92.16 1.62.46 2.1.3.46.8.7 1.48.7.67 0 1.16-.24 1.45-.7.3-.48.44-1.17.44-2.1 0-.92-.15-1.6-.45-2.06-.3-.46-.8-.7-1.48-.7-.68 0-1.16.24-1.46.7-.3.45-.45 1.14-.45 2.06zm6.43 0c0 1.5-.4 2.7-1.2 3.55-.8.84-1.9 1.27-3.33 1.27-.9 0-1.67-.2-2.35-.6-.68-.38-1.2-.94-1.57-1.67-.37-.73-.55-1.58-.55-2.56 0-1.5.4-2.7 1.2-3.53.78-.83 1.9-1.25 3.32-1.25.9 0 1.68.2 2.36.58.7.38 1.2.94 1.58 1.66.36.72.55 1.57.55 2.54zM84.2 33l-.35-1.2h-.13c-.27.44-.66.78-1.15 1-.5.25-1.07.37-1.7.37-1.1 0-1.92-.3-2.47-.88-.55-.6-.83-1.43-.83-2.53v-6.05h2.53v5.42c0 .67.12 1.17.36 1.5.24.34.62.5 1.14.5.7 0 1.22-.23 1.53-.7.32-.47.47-1.26.47-2.35V23.7h2.54V33H84.2zm11.07-2.76c0 .96-.33 1.68-1 2.18-.66.5-1.65.75-2.96.75-.67 0-1.24-.05-1.72-.14-.48-.1-.92-.23-1.34-.4v-2.1c.47.23 1 .4 1.6.56.58.14 1.1.2 1.55.2.9 0 1.37-.25 1.37-.78 0-.2-.06-.36-.18-.5-.14-.1-.35-.25-.65-.4-.3-.17-.7-.35-1.2-.56-.7-.3-1.23-.58-1.56-.83-.35-.26-.6-.55-.74-.88-.16-.33-.23-.73-.23-1.2 0-.84.32-1.48.96-1.93.63-.45 1.53-.67 2.7-.67 1.12 0 2.2.24 3.27.73l-.77 1.82c-.46-.2-.9-.36-1.3-.5-.4-.1-.82-.18-1.24-.18-.74 0-1.12.2-1.12.6 0 .23.12.43.36.6.24.16.77.4 1.6.74.7.3 1.24.56 1.58.82.34.25.6.55.75.88.16.33.24.72.24 1.18zm5.88.9c.44 0 .98-.1 1.6-.28v1.88c-.64.28-1.4.43-2.33.43-1 0-1.75-.26-2.2-.77-.47-.5-.7-1.28-.7-2.3V25.6H96.3v-1.07l1.4-.85.73-1.96h1.62v1.98h2.6v1.9h-2.6v4.47c0 .35.1.62.3.8.2.16.47.25.8.25zm5.95.08c-.28 1.1-.77 2.44-1.46 3.97h-1.82c.36-1.48.64-2.87.83-4.18h2.33l.12.2zM27.06 55h-2.53V42.86h6.95v2.1h-4.42v3.14h4.12v2.1h-4.12V55zm16.68-12.14v7.86c0 .9-.2 1.68-.6 2.35-.4.68-1 1.2-1.75 1.56-.76.36-1.66.54-2.7.54-1.56 0-2.77-.4-3.63-1.2-.86-.8-1.3-1.9-1.3-3.3v-7.8h2.57v7.42c0 .93.2 1.6.56 2.05.38.44 1 .66 1.87.66.84 0 1.45-.2 1.83-.65.38-.44.57-1.13.57-2.07v-7.42h2.57zM57.47 55H54.2l-5.28-9.18h-.07c.1 1.62.16 2.78.16 3.47V55h-2.3V42.86h3.25l5.27 9.1h.06c-.08-1.58-.12-2.7-.12-3.35v-5.74h2.3V55zm13.13-6.18c0 2-.57 3.52-1.7 4.6-1.15 1.05-2.8 1.58-4.94 1.58h-3.43V42.86h3.8c2 0 3.53.53 4.62 1.57 1.1 1.05 1.65 2.5 1.65 4.4zm-2.68.06c0-2.6-1.15-3.9-3.45-3.9H63.1v7.9h1.1c2.48 0 3.72-1.34 3.72-4zM82.67 55l-2.93-9.52h-.07c.1 1.94.16 3.23.16 3.88V55h-2.3V42.86h3.5l2.87 9.28h.05L87 42.86h3.5V55h-2.4v-5.74c0-.28 0-.6.02-.94 0-.36.04-1.3.1-2.82h-.07L85.02 55h-2.35zm14.66-7.14l2.54-5h2.77l-4.03 7.42V55h-2.54v-4.64l-4.03-7.5h2.8l2.5 5zM24.53 77V64.86h2.57V77h-2.57zm16.4 0h-3.28l-5.28-9.18h-.07c.1 1.62.15 2.78.15 3.47V77h-2.3V64.86h3.25l5.27 9.1h.06c-.08-1.58-.12-2.7-.12-3.35v-5.74h2.32V77zm9.97-12.14h2.6L49.37 77h-2.8l-4.12-12.14h2.6l2.28 7.23c.13.4.26.9.4 1.48.13.56.2.96.25 1.18.06-.5.27-1.4.62-2.67l2.3-7.24zm15.14 6.06c0 2-.5 3.55-1.5 4.63s-2.42 1.62-4.28 1.62c-1.86 0-3.28-.54-4.28-1.62-1-1.08-1.5-2.63-1.5-4.65 0-2.02.5-3.56 1.5-4.63 1-1.06 2.43-1.6 4.3-1.6 1.86 0 3.3.54 4.28 1.6 1 1.1 1.48 2.63 1.48 4.65zm-8.86 0c0 1.35.26 2.37.77 3.06.52.68 1.3 1.03 2.3 1.03 2.07 0 3.1-1.36 3.1-4.08 0-2.74-1.03-4.1-3.07-4.1-1.02 0-1.8.34-2.32 1.03-.52.7-.78 1.7-.78 3.07zM68.55 77V64.86h2.58V77h-2.58zm10.8-10.17c-.98 0-1.73.37-2.26 1.1-.54.72-.8 1.73-.8 3.04 0 2.7 1 4.05 3.04 4.05.85 0 1.88-.2 3.1-.63v2.14c-1 .42-2.1.63-3.34.63-1.77 0-3.12-.54-4.05-1.6-.94-1.08-1.4-2.62-1.4-4.62 0-1.26.22-2.37.68-3.32.46-.95 1.12-1.67 1.98-2.18.87-.5 1.88-.76 3.04-.76 1.18 0 2.36.27 3.55.84l-.84 2.1c-.45-.22-.9-.4-1.37-.57-.47-.16-.92-.24-1.36-.24zM92 77h-6.98V64.86H92v2.1h-4.4v2.68h4.1v2.1h-4.1v3.14H92V77zm17.72 0h-3.27l-5.28-9.18h-.08c.1 1.62.15 2.78.15 3.47V77h-2.3V64.86h3.25l5.27 9.1h.06c-.1-1.58-.13-2.7-.13-3.35v-5.74h2.32V77zm14.07-6.08c0 2-.5 3.55-1.5 4.63s-2.43 1.62-4.3 1.62c-1.85 0-3.28-.54-4.27-1.62-1-1.08-1.5-2.63-1.5-4.65 0-2.02.5-3.56 1.5-4.63 1-1.06 2.43-1.6 4.3-1.6 1.86 0 3.3.54 4.28 1.6 1 1.1 1.5 2.63 1.5 4.65zm-8.87 0c0 1.35.26 2.37.77 3.06.52.68 1.3 1.03 2.3 1.03 2.06 0 3.1-1.36 3.1-4.08 0-2.74-1.03-4.1-3.07-4.1-1.03 0-1.8.34-2.32 1.03-.5.7-.77 1.7-.77 3.07zm23.2 6.08h-2.94l-1.65-6.38c-.06-.22-.16-.7-.3-1.4-.16-.7-.24-1.2-.26-1.43-.05.28-.13.77-.26 1.43-.14.66-.24 1.13-.3 1.4L130.78 77h-2.93l-3.1-12.14h2.54l1.56 6.63c.27 1.2.47 2.27.6 3.17.02-.32.1-.8.22-1.47.12-.66.23-1.17.33-1.54l1.78-6.8h2.43l1.78 6.8c.08.3.18.77.3 1.4.1.62.2 1.16.26 1.6.05-.42.14-.96.26-1.6.13-.65.24-1.17.34-1.57l1.54-6.64h2.53L138.13 77zm6.53-4.03h-2.02l-.42-8.1h2.87l-.44 8.1zm-2.48 2.84c0-.45.13-.8.38-1.04s.6-.36 1.08-.36c.46 0 .82.12 1.07.37.26.24.4.6.4 1.04 0 .45-.14.8-.4 1.05-.25.25-.6.37-1.06.37-.46 0-.82-.12-1.08-.37-.25-.24-.38-.6-.38-1.04z"/></g></g></g></g></g></svg>