<svg xmlns="http://www.w3.org/2000/svg" width="372" height="786"><title>Group 2</title><desc>Created with Sketch.</desc><defs><linearGradient id="a" x1="81.819%" x2="15.351%" y1="3.653%" y2="97.463%"><stop stop-color="#FBFBFB" offset="0%"/><stop stop-color="#E3E3E3" offset="100%"/></linearGradient><linearGradient id="c" x1="50%" x2="50%" y1="0%" y2="100%"><stop stop-color="#ECECEC" offset="0%"/><stop stop-color="#FBFBFB" offset="100%"/></linearGradient><linearGradient id="b" x1="50%" x2="50%" y1="0%" y2="100%"><stop stop-color="#F2F2F2" offset="0%"/><stop stop-color="#fff" offset="100%"/></linearGradient></defs><g fill="none"><g><g><g transform="translate(-86 -1196) translate(86 1196)"><path fill="#F6F6F6" stroke="url(#a)" stroke-width="3" d="M1.5 1.5h369v783H1.5z"/><g><path id="Rectangle-2" fill="#F4F4F5" stroke="#DDDDE0" d="M32.5 88.5h306v591h-306z"/><g stroke="#0EE0DC" transform="translate(32 88) translate(128 566)"><circle id="Oval-8" cx="4.5" cy="4.5" r="4.5" fill="#0EE0DC"/><circle id="Oval-8" cx="24.5" cy="4.5" r="4.5" fill="#FBFAF9"/><circle cx="44.5" cy="4.5" r="4.5" fill="#FBFAF9"/></g><path id="Rectangle-2" fill="#fff" d="M47 118h276v269H47zM47 408.14h276V519H47z"/><g><path fill="#0EE0DC" d="M207 161h76v3h-76z"/><path fill="#0EE0DC" d="M207 195h76v3h-76z"/><path fill="#979797" d="M207.9 153c-.04 0-.08-.02-.1-.05-.04-.03-.06-.07-.06-.12v-9.46c0-.05.02-.1.05-.12.02-.03.06-.05.1-.05h3.02c.63 0 1.18.12 1.66.35.48.23.85.56 1.1 1 .27.42.4.92.4 1.5v4.1c0 .58-.13 1.08-.4 1.5-.25.44-.62.77-1.1 1-.48.23-1.03.35-1.66.35h-3zm1.82-1.76c0 .04.02.07.07.07h1.13c.35 0 .63-.13.84-.38.22-.25.33-.58.34-1v-3.65c0-.42-.1-.76-.3-1-.23-.25-.5-.38-.87-.38h-1.14c-.06 0-.08.02-.08.06v6.28zm8.3-5.55c.57 0 1.07.1 1.5.3.45.2.8.47 1.04.83.25.36.37.77.37 1.23v4.77c0 .05-.02.1-.05.12-.03.03-.07.05-.12.05h-1.64c-.04 0-.08-.02-.12-.05-.03-.03-.04-.07-.04-.12v-.38c0-.02 0-.04-.03-.05-.02 0-.04 0-.06.03-.37.45-.93.68-1.68.68-.63 0-1.16-.15-1.58-.48-.42-.32-.63-.87-.63-1.64 0-1.52.95-2.28 2.85-2.28h1.04c.03 0 .06-.02.06-.07v-.32c0-.27-.1-.5-.25-.66-.15-.17-.38-.25-.67-.25-.2 0-.4.04-.54.14-.16.1-.26.24-.3.42-.02.1-.1.14-.2.14l-1.68-.1c-.05 0-.1 0-.12-.04-.04-.03-.05-.07-.04-.1.05-.66.34-1.18.86-1.57.53-.4 1.2-.6 2-.6zm-.2 5.9c.3 0 .58-.07.8-.25.22-.18.34-.4.34-.7v-.6c0-.04-.03-.06-.07-.06h-.8c-.35 0-.6.06-.8.2-.2.16-.3.38-.3.66 0 .24.07.43.22.56.15.13.35.2.6.2zm4.26 4.2c-.03 0-.05-.03-.07-.06 0-.04-.02-.08-.02-.12v-1.3c0-.04 0-.08.03-.1.03-.04.05-.06.06-.06h.07c.53 0 .9-.07 1.13-.22.23-.15.38-.45.46-.9l-.02-.08-2-6.96-.03-.06c0-.1.05-.14.16-.14h1.75c.1 0 .16.06.18.16l.92 4.2c0 .05.03.07.04.07.02 0 .04-.02.05-.06l.86-4.2c.02-.1.08-.17.2-.17h1.75c.06 0 .1.02.13.06.03.04.04.08.02.14l-2.13 7.27c-.2.68-.43 1.2-.66 1.53-.23.34-.55.6-.97.75-.42.16-1.02.24-1.8.24h-.1zm9.1-2.8c-.06 0-.1-.02-.13-.05-.03-.03-.03-.08 0-.15l3.33-9.46c.03-.1.1-.14.2-.14h1.6c.05 0 .1.02.12.05.03.03.03.08.02.15l-3.34 9.46c-.02.1-.08.14-.18.14h-1.62zm9.84-9.76c.07-.03.14-.04.2-.04h1.7c.05 0 .1.02.12.05.04.03.05.07.05.12v9.46c0 .05-.02.1-.06.12-.03.03-.07.05-.12.05h-1.63c-.06 0-.1-.02-.13-.05-.04-.03-.05-.07-.05-.12v-7.7c0-.03 0-.05-.02-.07-.02-.02-.03-.02-.05 0l-1.15.2-.06.03c-.08 0-.12-.07-.12-.17v-1.2c0-.08.04-.15.12-.18l1.18-.5zm8.68 4.85c.32.5.48 1.1.48 1.8 0 .65-.13 1.2-.4 1.67-.2.5-.52.87-.96 1.14-.44.27-.98.4-1.6.4-.62 0-1.14-.13-1.58-.4-.44-.24-.77-.6-.98-1.1 0 0 0-.02 0-.04 0 0-.02-.03-.04-.04-.24-.4-.37-.92-.37-1.53v-4.4c0-.76.26-1.37.8-1.83.52-.45 1.22-.68 2.1-.68.84 0 1.52.22 2.05.67.52.46.78 1.07.78 1.82v.4c0 .05-.02.1-.05.12-.03.03-.07.05-.12.05h-1.63c-.04 0-.08-.02-.1-.05-.05-.03-.06-.07-.06-.12v-.2c0-.3-.08-.53-.24-.72-.16-.18-.37-.27-.6-.27-.28 0-.5.1-.67.3-.2.18-.27.4-.27.7v1.38c0 .02 0 .04.03.04 0 0 .03 0 .05-.02.35-.3.77-.46 1.3-.46.48 0 .9.12 1.27.36s.64.57.83 1zm-1.62 2.6c.06-.26.1-.54.1-.84 0-.37-.05-.68-.15-.93-.15-.4-.43-.6-.84-.6-.4 0-.68.2-.83.6-.1.23-.14.55-.14.95 0 .32.03.6.1.82.13.47.42.7.86.7.43 0 .73-.23.88-.7z" opacity=".6"/><path fill="#979797" d="M207.9 187c-.04 0-.08-.02-.1-.05-.04-.03-.06-.07-.06-.12v-9.46c0-.05.02-.1.05-.12.02-.03.06-.05.1-.05h1.62c.1 0 .16.04.2.1l1.6 2.94c.03.04.06.04.1 0l1.6-2.93c.05-.06.12-.1.2-.1h1.62c.05 0 .1.02.12.05.03.03.05.07.05.12v9.46c0 .05 0 .1-.04.12-.03.03-.07.05-.12.05h-1.64c-.04 0-.08-.02-.12-.05-.03-.03-.05-.07-.05-.12v-6.07c0-.04 0-.06-.02-.06 0 0-.03 0-.05.04l-1.13 2.07c-.05.1-.12.13-.2.13h-.5c-.1 0-.16-.04-.2-.12l-1.12-2.07c-.02-.03-.04-.04-.06-.04 0 0-.02.02-.02.06v6.07c0 .05-.02.1-.05.12-.04.03-.08.05-.12.05h-1.64zm11.34.1c-.82 0-1.48-.2-2-.6-.5-.4-.8-.98-.92-1.7-.06-.47-.1-.94-.1-1.4 0-.6.04-1.06.1-1.43.12-.7.43-1.25.94-1.66.52-.4 1.18-.6 2-.6.78 0 1.44.2 1.95.6.52.42.83.97.93 1.66.08.43.12.9.12 1.4 0 .48-.04.94-.1 1.4-.1.74-.4 1.3-.93 1.73-.5.4-1.17.6-1.98.6zm0-1.68c.26 0 .47-.1.64-.25.17-.17.28-.4.32-.68.04-.3.06-.67.06-1.1 0-.45-.02-.8-.06-1.1-.04-.28-.15-.5-.32-.67-.17-.16-.38-.24-.64-.24-.27 0-.48.07-.65.23-.18.16-.28.4-.33.67-.05.35-.07.7-.07 1.1 0 .28.02.65.06 1.1.04.27.15.5.33.67.17.16.38.25.64.25zm7.68-5.73c.68 0 1.22.2 1.6.64.4.44.6 1.04.6 1.82v4.67c0 .05-.03.1-.06.12-.04.03-.08.05-.12.05h-1.64c-.05 0-.1-.02-.12-.05-.03-.03-.05-.07-.05-.12v-4.4c0-.32-.08-.58-.24-.76-.16-.2-.38-.28-.65-.28-.28 0-.5.08-.66.27-.18.2-.26.45-.26.78v4.38c0 .05-.02.1-.05.12-.04.03-.08.05-.13.05h-1.64c-.04 0-.08-.02-.12-.05-.02-.03-.03-.07-.03-.12v-6.86c0-.04 0-.08.04-.12.05-.03.1-.05.13-.05h1.64c.05 0 .1.02.12.05.02.04.04.08.04.12v.38c0 .03 0 .04.03.05.02 0 .04 0 .07-.04.34-.44.84-.67 1.48-.67zm7.1 1.42c0 .05 0 .1-.03.12-.05.03-.1.05-.13.05h-1.08c-.06 0-.08 0-.08.06v3.12c0 .3.06.5.17.62.1.13.3.2.53.18h.28c.06 0 .1 0 .13.05.03.03.05.07.05.12v1.35c0 .12-.06.17-.17.17-.15 0-.38.02-.7.02-.73 0-1.27-.14-1.63-.38-.36-.24-.54-.7-.54-1.37v-3.9c0-.04-.03-.06-.07-.06h-.65c-.03 0-.07-.03-.1-.06-.04-.03-.05-.07-.05-.12v-1.15c0-.04 0-.08.05-.12.03-.03.07-.05.1-.05h.66c.04 0 .07-.02.07-.07v-1.6c0-.05 0-.1.05-.12.03-.03.07-.04.12-.04h1.55c.05 0 .1 0 .12.05.03.04.05.08.05.12v1.6c0 .06.02.08.07.08h1.07c.04 0 .08.02.12.05.02.04.03.08.03.12v1.15zm4.55-1.43c.68 0 1.22.2 1.6.64.4.44.58 1.04.58 1.82v4.67c0 .05 0 .1-.04.12-.03.03-.07.05-.1.05h-1.65c-.05 0-.1-.02-.12-.05-.03-.03-.05-.07-.05-.12v-4.4c0-.32-.08-.58-.24-.76-.16-.2-.37-.28-.64-.28-.28 0-.5.08-.67.27-.16.2-.24.45-.24.78v4.38c0 .05-.03.1-.06.12-.03.03-.07.05-.12.05h-1.64c-.04 0-.08-.02-.12-.05-.03-.03-.05-.07-.05-.12v-9.46c0-.05.03-.1.06-.12.04-.03.08-.05.12-.05h1.64c.05 0 .1.02.12.05.03.03.05.07.05.12v2.98c0 .03 0 .04.02.05 0 0 .04 0 .07-.04.33-.44.83-.67 1.47-.67zm6 7.3c-.05 0-.1-.02-.12-.05-.03-.03-.03-.08 0-.15l3.33-9.46c.03-.1.1-.14.18-.14h1.6c.07 0 .1.02.14.05.03.03.03.08 0 .15l-3.32 9.46c-.03.1-.1.14-.18.14h-1.62zm14.23 0c-.1 0-.15-.05-.18-.14l-.32-1.37c0-.05-.04-.07-.07-.07h-2.62c-.03 0-.05.02-.06.06l-.32 1.36c-.03.1-.1.14-.2.14h-1.7c-.12 0-.16-.06-.13-.18l2.5-9.48c.03-.1.1-.14.2-.14h2.03c.1 0 .17.05.2.14l2.53 9.48.02.05c0 .1-.06.13-.16.13h-1.72zm-2.87-3.18c0 .03 0 .05 0 .07.03 0 .05 0 .07 0h1.85c.02 0 .04 0 .05-.02.02 0 .03-.03.02-.06l-.94-3.97c0-.04-.02-.06-.04-.05-.02 0-.03.02-.04.05l-.97 3.97zm11.5-1.9c.1.45.16.96.16 1.55 0 .5-.05 1-.13 1.47-.3 1.45-1.04 2.17-2.24 2.17-.33 0-.6-.03-.84-.12-.25-.1-.45-.24-.63-.46-.02-.02-.04-.03-.06-.02 0 0 0 .02 0 .05v2.9c0 .03-.03.07-.06.1-.04.04-.08.05-.12.05h-1.64c-.05 0-.1 0-.12-.04-.03-.04-.05-.08-.05-.12v-9.47c0-.04.03-.08.06-.12.03-.03.07-.05.12-.05h1.64c.04 0 .08.02.12.05.03.04.05.08.05.12v.3c0 .02 0 .04 0 .05.03 0 .05 0 .07-.03.35-.4.84-.6 1.48-.6 1.15 0 1.88.73 2.2 2.22zm-1.95 2.74c.08-.27.12-.68.12-1.24 0-.48-.03-.88-.1-1.2-.13-.56-.42-.83-.86-.83s-.72.26-.84.8c-.07.27-.1.67-.1 1.22 0 .54.04.95.1 1.23.06.24.15.43.3.56.13.15.3.22.52.22.42 0 .7-.25.86-.76zm6.63-4.95c.28 0 .5.06.7.17.07.05.1.12.08.2l-.26 1.64c0 .12-.08.15-.2.1-.15-.03-.3-.05-.42-.05-.1 0-.23 0-.36.04-.27.03-.5.16-.68.38-.18.23-.27.5-.27.82v3.83c0 .05-.03.1-.06.12-.04.03-.08.05-.12.05h-1.64c-.05 0-.1-.02-.12-.05-.03-.03-.05-.07-.05-.12v-6.86c0-.04.03-.08.06-.12.03-.03.07-.05.12-.05h1.64c.04 0 .08.02.12.05.03.04.05.08.05.12v.55c0 .04 0 .06 0 .06.02 0 .04 0 .06-.03.32-.56.78-.84 1.35-.84zm2.65-.58c-.35 0-.63-.1-.85-.33-.22-.23-.33-.5-.33-.86 0-.34.1-.62.33-.84.22-.2.5-.32.85-.32.34 0 .62.1.84.32.2.22.32.5.32.84 0 .35-.1.63-.32.85-.2.2-.5.32-.85.32zm-.83 7.88c-.05 0-.1-.02-.12-.05-.03-.03-.05-.07-.05-.12v-6.86c0-.04.02-.08.05-.12.03-.03.07-.05.12-.05h1.64c.04 0 .08.02.12.05.03.04.05.08.05.12v6.86c0 .05-.02.1-.05.12-.04.03-.08.05-.12.05h-1.64zm3.32 0c-.05 0-.1-.02-.12-.05-.03-.03-.05-.07-.05-.12v-9.46c0-.05.02-.1.05-.12.03-.03.07-.05.12-.05h1.64c.04 0 .08.02.12.05.03.03.04.07.04.12v9.46c0 .05 0 .1-.04.12-.04.03-.08.05-.12.05h-1.64z" opacity=".6"/><path fill="#0EE0DC" d="M214.38 213.88c.06 0 .1.02.15.05.04.04.05.1.05.15v1.73c0 .06 0 .1-.05.15-.04.04-.1.06-.15.06h-.6c-.06 0-.1.04-.1.1v2.7c0 .05 0 .1-.04.14-.04.04-.1.06-.15.06h-1.97c-.06 0-.1-.02-.15-.06-.03-.04-.05-.1-.05-.14v-2.7c0-.06-.03-.1-.1-.1h-4.64c-.07 0-.12 0-.15-.05-.04-.04-.06-.1-.06-.14v-1.35c0-.07 0-.15.04-.25l2.63-6.8c.04-.1.12-.16.24-.16h2.1c.18 0 .23.08.18.24l-2.42 6.3c0 .06 0 .1.07.1h2c.07 0 .1-.03.1-.1v-1.9c0-.06.02-.1.05-.15.04-.04.1-.05.15-.05h1.96c.05 0 .1 0 .14.05.03.04.05.1.05.15v1.9c0 .07.02.1.08.1h.6zm8.15 2.23c0 .93-.32 1.66-.96 2.2-.63.56-1.48.83-2.53.83-1 0-1.83-.27-2.46-.82-.62-.54-.94-1.27-.94-2.17v-.5c0-.05.02-.1.06-.13.04-.04.1-.06.14-.06h1.97c.07 0 .1.02.15.06.04.04.06.08.06.14v.25c0 .34.1.62.3.84.2.22.45.33.74.33.32 0 .6-.1.8-.34.2-.22.3-.5.3-.85v-1.65c0-.03 0-.05-.03-.06 0 0-.03 0-.06.03-.4.36-.9.55-1.52.55-.6 0-1.1-.14-1.55-.43-.44-.28-.77-.68-1-1.18-.37-.6-.56-1.34-.56-2.2 0-.76.16-1.43.48-2 .24-.58.63-1.03 1.16-1.35.52-.32 1.17-.48 1.93-.48.73 0 1.35.16 1.88.46.53.3.92.76 1.18 1.34l.03.08c.3.5.45 1.12.45 1.85l.03 5.26zm-2.55-3.97c.1-.28.17-.66.17-1.14 0-.4-.04-.72-.12-1-.16-.56-.5-.84-1.04-.84s-.9.28-1.07.85c-.08.3-.12.64-.12 1 0 .45.07.83.18 1.13.18.47.5.7 1 .7s.82-.23 1-.7z"/><path fill="#0EE0DC" d="M206.8 244c-.05 0-.1-.02-.14-.06-.04-.04-.06-.1-.06-.14v-1.63c0-.1.04-.17.1-.24 1.36-1.55 2.5-2.9 3.38-4.05.8-1.04 1.2-1.86 1.2-2.46 0-.4-.1-.7-.3-.94-.22-.23-.5-.34-.86-.34-.35 0-.63.1-.85.34-.22.23-.33.53-.33.9v.56c0 .05-.02.1-.06.14-.04.04-.1.06-.14.06h-2c-.06 0-.1-.02-.14-.06-.04-.04-.06-.1-.06-.14v-.8c.05-.9.42-1.65 1.1-2.2.66-.56 1.5-.83 2.53-.83.7 0 1.32.15 1.85.43s.95.67 1.24 1.17c.3.5.43 1.07.43 1.7 0 .52-.1 1.04-.32 1.55-.22.5-.54 1.06-.98 1.64-.32.43-.7.9-1.16 1.44-.45.54-.9 1.05-1.34 1.56l-.24.27c-.02.02-.03.04 0 .06 0 .03.02.04.05.04h4c.05 0 .1.02.14.06.04.04.06.08.06.14v1.63c0 .05-.02.1-.06.14-.04.04-.1.06-.15.06h-6.9zm15.97-5.12c.05 0 .1.02.14.05.05.04.07.1.07.15v1.73c0 .06-.02.1-.06.15-.03.04-.08.06-.13.06h-.6c-.06 0-.1.04-.1.1v2.7c0 .05 0 .1-.05.14-.04.04-.1.06-.14.06h-1.97c-.05 0-.1-.02-.13-.06-.04-.04-.06-.1-.06-.14v-2.7c0-.06-.02-.1-.08-.1h-4.65c-.05 0-.1 0-.14-.05-.04-.04-.06-.1-.06-.14v-1.35c0-.07.02-.15.05-.25l2.64-6.8c.03-.1.1-.16.23-.16h2.1c.16 0 .22.08.16.24l-2.42 6.3c0 .06 0 .1.07.1h2.02c.06 0 .1-.03.1-.1v-1.9c0-.06 0-.1.05-.15.04-.04.08-.05.14-.05h1.98c.05 0 .1 0 .14.05.04.04.06.1.06.15v1.9c0 .07.03.1.08.1h.6z"/><path fill="#0EE0DC" d="M207.92 258.3c.08-.04.17-.06.25-.06h2.03c.06 0 .1.02.14.06.04.04.06.1.06.14v11.36c0 .05-.02.1-.06.14-.04.04-.08.06-.14.06h-1.97c-.05 0-.1-.02-.14-.06-.05-.04-.07-.1-.07-.14v-9.26c0-.02 0-.04-.02-.07 0-.02-.03-.02-.05 0l-1.38.26h-.07c-.1 0-.15-.05-.15-.17v-1.43c0-.1.05-.2.15-.23l1.42-.6zm10.4 5.8c.4.6.58 1.34.58 2.2 0 .76-.15 1.43-.47 2-.24.58-.63 1.03-1.16 1.35-.52.3-1.17.47-1.93.47-.73 0-1.35-.16-1.88-.46-.53-.3-.92-.76-1.18-1.34 0 0 0-.03 0-.04 0-.02-.02-.04-.05-.06-.3-.5-.43-1.1-.43-1.83l-.02-5.27c0-.92.32-1.65.96-2.2.64-.55 1.48-.82 2.53-.82 1 0 1.83.28 2.46.83.62.55.94 1.28.94 2.18v.5c0 .06-.02.1-.06.14-.03.04-.08.06-.13.06h-1.97c-.06 0-.1-.02-.14-.06-.04-.04-.06-.08-.06-.14v-.25c0-.35-.1-.63-.3-.85-.2-.22-.44-.33-.73-.33-.32 0-.6.1-.8.34-.2.23-.3.52-.3.86V263c0 .04 0 .06.03.07.02 0 .04 0 .07-.03.4-.36.9-.55 1.52-.55.6 0 1.1.13 1.54.42.44.28.77.68 1 1.18zm-1.94 3.13c.08-.3.12-.63.12-1 0-.44-.06-.82-.17-1.12-.18-.46-.5-.7-1-.7s-.82.24-1 .7c-.1.3-.17.67-.17 1.15 0 .38.04.7.12 1 .16.55.5.83 1.04.83.53 0 .88-.28 1.06-.85z"/><path fill="#0EE0DC" d="M209.92 284.3c.08-.04.17-.06.25-.06h2.03c.06 0 .1.02.14.06.04.04.06.1.06.14v11.36c0 .05-.02.1-.06.14-.04.04-.08.06-.14.06h-1.97c-.05 0-.1-.02-.14-.06-.05-.04-.07-.1-.07-.14v-9.26c0-.02 0-.04-.02-.07 0-.02-.03-.02-.05 0l-1.38.26h-.07c-.1 0-.15-.05-.15-.17v-1.43c0-.1.05-.2.15-.23l1.42-.6zm10.76 6.26c.16.5.24 1.04.24 1.66 0 .67-.1 1.28-.34 1.8-.23.68-.64 1.2-1.2 1.56-.6.37-1.28.55-2.1.55-.9 0-1.68-.23-2.32-.7-.63-.47-1.02-1.1-1.18-1.88-.08-.3-.13-.67-.15-1.15 0-.13.07-.2.2-.2h1.97c.13 0 .2.07.2.2.02.28.05.52.1.7.06.3.2.55.42.73.2.18.47.27.77.27.28 0 .53-.08.74-.25.2-.17.35-.4.43-.67.1-.34.13-.7.13-1.1 0-.44-.04-.8-.13-1.14-.1-.3-.24-.53-.45-.7-.2-.17-.45-.25-.73-.25-.22 0-.45.07-.68.24-.04.02-.07.03-.12.03-.07 0-.12-.02-.17-.07l-1-1.1c-.03-.05-.06-.1-.06-.16 0-.04.03-.1.07-.13l2.5-2.43c.03-.02.03-.04.02-.06 0-.02-.03-.03-.07-.03h-3.75c-.06 0-.1-.02-.14-.06-.03-.03-.05-.07-.05-.13v-1.63c0-.05.02-.1.06-.14.04-.04.1-.06.15-.06h6.57c.05 0 .1.02.14.06.04.04.06.1.06.14v1.68c0 .08-.04.16-.1.25l-2.1 2.2c-.03.05-.02.08.05.1.5.08.9.3 1.27.62.35.32.6.74.74 1.26z"/><path fill="#0EE0DC" d="M212.23 321.18c-1.1 0-2-.32-2.65-.98-.66-.65-1-1.54-1-2.64v-4.88c0-1.1.34-1.97 1-2.63.66-.65 1.54-.98 2.65-.98 1.1 0 2 .33 2.67.98.66.66 1 1.54 1 2.63v4.88c0 1.1-.34 2-1 2.64-.67.66-1.56.98-2.67.98zm0-2.03c.4 0 .7-.13.94-.4.24-.26.36-.6.36-1.06v-5.13c0-.45-.12-.8-.36-1.06-.23-.25-.54-.38-.94-.38-.4 0-.7.13-.93.4-.23.25-.34.6-.34 1.05v5.12c0 .44.1.8.34 1.06.23.26.54.4.93.4zm11.68-1.04c0 .93-.3 1.66-.95 2.2-.64.56-1.48.83-2.53.83-1 0-1.83-.27-2.46-.82-.62-.54-.94-1.27-.94-2.17v-.5c0-.05.02-.1.06-.13.04-.04.1-.06.14-.06h1.97c.04 0 .1.02.13.06.04.04.06.08.06.14v.25c0 .34.1.62.28.84.2.22.44.33.74.33.32 0 .6-.1.8-.34.2-.22.3-.5.3-.85v-1.65c0-.03 0-.05-.03-.06-.03 0-.05 0-.08.03-.4.36-.9.55-1.53.55-.6 0-1.1-.14-1.55-.43-.44-.28-.77-.68-1-1.18-.37-.6-.56-1.34-.56-2.2 0-.76.14-1.43.46-2 .24-.58.63-1.03 1.16-1.35.52-.32 1.17-.48 1.93-.48.73 0 1.35.16 1.88.46.53.3.92.76 1.18 1.34l.04.08c.3.5.45 1.12.45 1.85v5.26zm-2.54-3.97c.1-.28.16-.66.16-1.14 0-.4-.04-.72-.1-1-.17-.56-.52-.84-1.06-.84-.52 0-.87.28-1.05.85-.07.3-.1.64-.1 1 0 .45.04.83.16 1.13.18.47.5.7 1 .7s.82-.23 1-.7z"/><path fill="#0EE0DC" d="M212.23 346.18c-1.1 0-2-.32-2.65-.98-.66-.65-1-1.54-1-2.64v-4.88c0-1.1.34-1.97 1-2.63.66-.65 1.54-.98 2.65-.98 1.1 0 2 .33 2.67.98.66.66 1 1.54 1 2.63v4.88c0 1.1-.34 2-1 2.64-.67.66-1.56.98-2.67.98zm0-2.03c.4 0 .7-.13.94-.4.24-.26.36-.6.36-1.06v-5.13c0-.45-.12-.8-.36-1.06-.23-.25-.54-.38-.94-.38-.4 0-.7.13-.93.4-.23.25-.34.6-.34 1.05v5.12c0 .44.1.8.34 1.06.23.26.54.4.93.4zm11.44-4.25c.37.67.56 1.47.56 2.4 0 .8-.17 1.53-.52 2.15-.27.54-.67.95-1.2 1.24-.5.27-1.13.42-1.85.42-.87 0-1.6-.22-2.2-.64-.6-.43-1-1.04-1.2-1.83-.07-.24-.12-.48-.13-.72v-.04c0-.12.06-.18.2-.18h2c.12 0 .2.07.2.2.03.14.05.23.07.27.07.3.2.5.38.66.18.15.4.22.67.22s.5-.08.7-.24c.18-.16.3-.38.36-.66.1-.24.13-.53.13-.88s-.04-.67-.12-.94c-.07-.27-.2-.47-.38-.6-.18-.14-.4-.2-.67-.2-.53 0-.88.22-1.07.65-.04.12-.1.18-.22.18h-2.04c-.05 0-.1-.02-.14-.06-.04-.04-.06-.1-.06-.14v-6.74c0-.05.02-.1.06-.14.04-.04.1-.06.14-.06h6.42c.06 0 .1.02.14.06.04.04.06.1.06.14v1.63c0 .06-.02.1-.06.14-.03.05-.08.07-.14.07h-4.16c-.06 0-.1.03-.1.1v2.6c0 .05 0 .08.03.08s.05 0 .08-.02c.44-.35.98-.52 1.6-.52.58 0 1.07.12 1.5.36.4.24.75.58 1 1.04z"/><path fill="#979797" d="M73.98 139.58c.1 0 .16.03.23.1.07.06.1.13.1.22v2.6c0 .1-.03.17-.1.23-.06.06-.13.1-.22.1h-4.04c-.1 0-.14.04-.14.13v14.92c0 .1-.03.16-.1.23-.05.07-.13.1-.2.1h-3.13c-.1 0-.16-.03-.22-.1-.06-.06-.1-.13-.1-.22v-14.92c0-.1-.04-.13-.13-.13h-3.9c-.1 0-.17-.04-.24-.1-.06-.06-.1-.14-.1-.22v-2.6c0-.1.04-.16.1-.23.07-.06.14-.1.23-.1H74zm7.38 18.86c-1.23 0-2.3-.25-3.24-.75-.93-.5-1.65-1.2-2.16-2.1-.52-.9-.77-1.97-.77-3.17v-7.08c0-1.2.24-2.23.76-3.14.5-.9 1.23-1.6 2.16-2.1.94-.48 2-.73 3.24-.73 1.22 0 2.3.25 3.24.74.94.5 1.67 1.2 2.18 2.1.52.92.77 1.96.77 3.15v7.08c0 1.2-.25 2.26-.77 3.16-.5.9-1.24 1.6-2.18 2.1-.94.5-2.02.74-3.24.74zm0-3.22c.74 0 1.34-.24 1.78-.73.44-.5.66-1.13.66-1.9v-7.35c0-.8-.22-1.45-.66-1.93-.44-.5-1.04-.73-1.78-.73-.73 0-1.32.23-1.76.72-.44.48-.66 1.13-.66 1.93v7.34c0 .77.22 1.4.66 1.9.44.48 1.03.72 1.76.72zm15.1-15.67c1.05 0 2 .24 2.82.72.82.48 1.46 1.15 1.9 2.02.47.86.7 1.86.7 2.97 0 1.1-.23 2.07-.7 2.92-.44.83-1.08 1.48-1.9 1.94-.83.46-1.77.7-2.83.7h-2.88c-.1 0-.13.04-.13.12v6.92c0 .1-.03.16-.1.23-.05.07-.13.1-.22.1h-3.1c-.1 0-.17-.03-.24-.1-.06-.06-.1-.13-.1-.22v-18c0-.1.04-.17.1-.23.07-.07.14-.1.23-.1h6.45zm-.63 8.3c.7 0 1.25-.22 1.67-.68.4-.45.62-1.06.62-1.82 0-.78-.2-1.4-.62-1.86-.42-.47-.97-.7-1.67-.7h-2.26c-.1 0-.13.04-.13.13v4.8c0 .08.04.12.13.12h2.26zm19.5-8.3c1.06 0 2 .24 2.82.72.83.48 1.47 1.15 1.92 2.02.45.86.68 1.86.68 2.97 0 1.1-.23 2.07-.68 2.92-.45.83-1.1 1.48-1.92 1.94-.82.46-1.76.7-2.83.7h-2.87c-.1 0-.13.04-.13.12v6.92c0 .1-.04.16-.1.23-.06.07-.14.1-.22.1h-3.12c-.08 0-.16-.03-.22-.1-.06-.06-.1-.13-.1-.22v-18c0-.1.04-.17.1-.23.06-.07.14-.1.22-.1h6.44zm-.62 8.3c.7 0 1.25-.22 1.67-.68.42-.45.63-1.06.63-1.82 0-.78-.2-1.4-.63-1.86-.42-.47-.97-.7-1.66-.7h-2.25c-.1 0-.13.04-.13.13v4.8c0 .08.04.12.13.12h2.26zm16.54 10.35c-.18 0-.3-.1-.35-.27l-.62-2.6c-.02-.07-.06-.1-.14-.1h-4.97c-.07 0-.1.03-.13.1l-.6 2.6c-.07.18-.2.27-.4.27h-3.2c-.24 0-.32-.12-.27-.35l4.8-18c.04-.18.16-.27.36-.27h3.86c.18 0 .3.1.36.27l4.8 18 .04.1c0 .17-.1.25-.3.25h-3.26zm-5.46-6.04c-.02.05 0 .1.03.12.04.03.08.04.12.04h3.5c.04 0 .08 0 .1-.04.05-.03.06-.07.04-.12l-1.78-7.55c-.02-.06-.05-.1-.08-.1-.04.02-.06.05-.08.1l-1.84 7.56zm13.18 6c-.1 0-.17-.02-.23-.08s-.1-.14-.1-.23v-6.8l-.02-.17-4.6-10.93c0-.03-.02-.1-.02-.16 0-.15.1-.22.27-.22h3.35c.2 0 .32.1.37.27l2.48 6.73c0 .05.04.08.08.08.03 0 .06-.03.08-.08l2.48-6.73c.05-.18.18-.27.37-.27h3.35c.13 0 .2.04.24.1.04.08.04.17 0 .27l-4.62 10.93-.03.16v6.8c0 .1-.04.18-.1.24-.07.06-.14.1-.23.1h-3.1zm21.1-15.68c0 .1-.03.16-.1.23-.06.07-.13.1-.22.1h-7.13c-.08 0-.12.04-.12.13v4.15c0 .1.04.13.13.13h4.45c.1 0 .17.05.23.1.06.07.1.14.1.23v2.58c0 .1-.04.18-.1.24-.06.06-.14.1-.23.1h-4.44c-.08 0-.12.04-.12.13v4.28c0 .1.04.13.13.13h7.14c.1 0 .16.03.23.1.06.06.1.13.1.22v2.58c0 .1-.04.16-.1.23-.07.07-.14.1-.23.1h-10.7c-.08 0-.16-.03-.22-.1-.06-.06-.1-.13-.1-.22V139.9c0-.1.04-.16.1-.23.06-.06.14-.1.23-.1h10.7c.08 0 .15.04.22.1.06.07.1.14.1.23v2.58zm10.73 15.72c-.2 0-.33-.1-.4-.27l-2.67-7.34c-.04-.08-.08-.1-.14-.1h-1.68c-.1 0-.13.03-.13.12v7.26c0 .1-.05.16-.1.23-.07.07-.15.1-.23.1h-3.12c-.1 0-.16-.03-.22-.1-.06-.06-.1-.13-.1-.22v-18c0-.1.04-.17.1-.23.06-.07.13-.1.22-.1h6.5c1.04 0 1.97.24 2.8.7.8.48 1.43 1.14 1.88 2 .44.84.66 1.82.66 2.92 0 1.13-.26 2.12-.77 2.96-.5.84-1.2 1.47-2.1 1.88-.08.04-.1.1-.07.2l3.04 7.63c0 .03.02.08.02.13 0 .16-.1.24-.3.24h-3.23zm-4.88-15.4c-.1 0-.13.04-.13.13v4.52c0 .1.03.14.12.14h2.3c.67 0 1.2-.23 1.6-.67.42-.43.62-1 .62-1.7 0-.76-.2-1.35-.6-1.78-.42-.43-.95-.65-1.6-.65h-2.32z"/><path fill="#979797" d="M65.3 219.36c-.9 0-1.68-.18-2.36-.53-.68-.36-1.2-.85-1.58-1.5-.37-.65-.56-1.4-.56-2.25v-5.5c0-.85.2-1.6.56-2.24.37-.64.9-1.13 1.58-1.5.68-.34 1.46-.52 2.35-.52.87 0 1.65.18 2.33.52.7.35 1.22.83 1.6 1.45.36.6.55 1.32.55 2.1v.43c0 .07-.02.12-.07.17-.03.04-.1.07-.15.07h-2.3c-.06 0-.12-.03-.16-.07-.06-.05-.08-.1-.08-.17v-.4c0-.5-.16-.92-.47-1.25-.32-.32-.74-.5-1.26-.5-.53 0-.95.18-1.27.52-.32.34-.48.8-.48 1.34v5.6c0 .55.16 1 .5 1.34.33.34.77.5 1.3.5.5 0 .92-.15 1.23-.45.3-.3.46-.7.46-1.23v-1.22c0-.06-.04-.1-.1-.1H65.4c-.06 0-.1-.02-.16-.06-.04-.05-.07-.1-.07-.17v-1.78c0-.07.03-.12.07-.17.05-.04.1-.07.17-.07h4.15c.06 0 .12.03.16.07.06.05.08.1.08.17v3.1c0 1.32-.4 2.36-1.22 3.13s-1.9 1.16-3.27 1.16zm9.66-10.4c.8 0 1.5.15 2.12.43.6.27 1.1.66 1.44 1.17.34.5.52 1.07.52 1.7v6.7c0 .06-.03.12-.07.16-.05.05-.1.07-.17.07h-2.3c-.06 0-.1-.02-.16-.07-.04-.04-.07-.1-.07-.17v-.52c0-.04 0-.07-.04-.08-.02-.02-.05 0-.07.04-.53.64-1.3.96-2.36.96-.87 0-1.6-.23-2.2-.7-.58-.45-.87-1.2-.87-2.28 0-2.13 1.33-3.2 4-3.2h1.45c.06 0 .1-.03.1-.1v-.45c0-.4-.12-.7-.35-.94-.23-.24-.54-.36-.95-.36-.3 0-.56.07-.76.22-.2.14-.34.34-.4.58-.04.13-.13.2-.27.2l-2.37-.14c-.07 0-.12-.02-.17-.06-.03-.04-.05-.1-.04-.15.07-.9.47-1.64 1.2-2.2.75-.55 1.68-.83 2.8-.83zm-.3 8.3c.45 0 .83-.12 1.14-.37.32-.26.47-.6.47-1v-.82c0-.06-.03-.1-.1-.1h-1.1c-.48 0-.85.1-1.13.32-.27.2-.4.5-.4.9 0 .34.1.6.3.8.2.17.5.26.83.26zm8.03 1.94c-.16 0-.25-.07-.3-.2l-2.7-9.62-.03-.08c0-.12.07-.17.22-.17h2.5c.16 0 .24.07.27.2l1.25 5.9c.02.04.04.07.06.07.03 0 .05-.03.06-.08l1.26-5.88c.02-.14.1-.2.25-.2h2.53c.17 0 .23.1.2.26l-2.73 9.6c-.04.13-.13.2-.27.2h-2.6zm8.15-11.03c-.5 0-.88-.16-1.2-.47-.3-.3-.45-.7-.45-1.18s.15-.88.46-1.18c.3-.3.7-.45 1.2-.45.47 0 .87.14 1.17.44.3.3.46.7.46 1.18s-.16.88-.46 1.18c-.3.3-.7.47-1.2.47zM89.7 219.2c-.07 0-.13-.02-.18-.07-.04-.04-.06-.1-.06-.17v-9.6c0-.06.02-.12.06-.17.05-.05.1-.07.17-.07h2.28c.07 0 .13.02.17.06.05.04.07.1.07.16v9.6c0 .07-.02.13-.07.17-.04.05-.1.07-.17.07h-2.3zm9.2-10.23c.94 0 1.7.3 2.23.9.55.62.82 1.46.82 2.55v6.54c0 .07-.03.13-.07.17-.05.05-.1.07-.17.07h-2.28c-.07 0-.12-.02-.17-.07-.04-.04-.07-.1-.07-.17v-6.15c0-.45-.1-.8-.33-1.07-.22-.26-.52-.4-.9-.4-.4 0-.7.14-.93.4-.23.28-.35.64-.35 1.1v6.13c0 .07-.02.13-.06.17-.04.05-.1.07-.16.07h-2.3c-.06 0-.1-.02-.16-.07-.05-.04-.07-.1-.07-.17v-9.6c0-.06.03-.12.08-.17.05-.05.1-.07.17-.07h2.3c.05 0 .1.02.16.06.05.04.07.1.07.16v.53c0 .03.02.05.04.06.04 0 .07 0 .1-.05.5-.62 1.2-.93 2.1-.93zm8.64 10.23c-.06 0-.12-.02-.16-.07-.05-.04-.07-.1-.07-.17v-13.24c0-.07.03-.13.08-.17.04-.05.1-.07.16-.07h2.3c.06 0 .12.02.16.07.05.04.07.1.07.17v11c0 .08.04.1.1.1h5.25c.07 0 .12.03.17.08.04.04.06.1.06.16v1.9c0 .07-.02.13-.07.17-.06.05-.1.07-.18.07h-7.88zm13.2.16c-1.14 0-2.06-.3-2.78-.87-.72-.58-1.15-1.38-1.3-2.4-.1-.64-.13-1.3-.13-1.96 0-.8.04-1.47.13-1.98.16-.98.6-1.75 1.32-2.33.72-.57 1.64-.86 2.78-.86 1.1 0 2.03.3 2.74.86.72.58 1.15 1.35 1.3 2.3.1.62.15 1.27.15 2 0 .65-.04 1.3-.13 1.93-.15 1.04-.58 1.84-1.3 2.42-.72.6-1.64.88-2.78.88zm0-2.37c.37 0 .67-.13.9-.37.24-.23.4-.55.45-.94.05-.43.07-.94.07-1.56 0-.6-.02-1.12-.08-1.53-.07-.38-.22-.7-.46-.92-.23-.23-.53-.34-.9-.34s-.67.1-.9.34c-.24.23-.4.54-.45.93-.08.5-.1 1.02-.1 1.54 0 .4.02.92.07 1.55.06.38.22.7.47.93.25.24.55.36.9.36zm10.63-6.03c0 .06-.02.12-.07.16-.05.05-.1.07-.17.07h-1.5c-.07 0-.1.04-.1.1v4.37c0 .4.08.7.24.87.17.18.42.26.76.25h.4c.05 0 .1 0 .16.06.03.04.05.1.05.16v1.9c0 .16-.07.24-.23.24-.22 0-.55.02-.98.02-1.03 0-1.8-.17-2.3-.5-.5-.35-.76-1-.76-1.93v-5.45c0-.06-.03-.1-.1-.1h-.9c-.06 0-.12-.02-.17-.07-.03-.04-.05-.1-.05-.16v-1.6c0-.07.02-.13.06-.18.06-.05.12-.07.18-.07h.9c.07 0 .1-.04.1-.1v-2.26c0-.06.02-.12.07-.16.05-.04.1-.06.17-.06h2.17c.06 0 .1.02.16.07.04.05.07.1.07.17v2.26c0 .06.03.1.1.1h1.5c.07 0 .12.02.17.06.05.04.07.1.07.16v1.6zm4.87 8.37c-1.22 0-2.2-.27-2.9-.8-.74-.54-1.1-1.25-1.1-2.12v-.16c0-.07.02-.12.07-.17.05-.05.1-.08.17-.08h2.18c.06 0 .12.02.16.04.06.03.08.06.08.1v.14c0 .3.13.52.4.7.24.2.56.28.94.28.35 0 .63-.08.85-.25.2-.16.32-.36.32-.6 0-.26-.13-.45-.36-.6-.24-.13-.6-.28-1.12-.43-.38-.1-.7-.2-.94-.32-.78-.26-1.42-.6-1.9-1.05-.5-.45-.74-1.1-.74-1.93 0-.95.34-1.7 1.03-2.27.7-.56 1.6-.84 2.75-.84 1.17 0 2.1.28 2.8.86.7.58 1.06 1.36 1.06 2.32 0 .15-.08.22-.24.22h-2.1c-.06 0-.1-.02-.16-.05-.05-.03-.07-.07-.07-.1v-.15c0-.27-.1-.5-.33-.68-.23-.18-.53-.28-.9-.28s-.65.1-.87.26c-.2.17-.32.38-.32.63 0 .27.13.48.4.63.25.15.65.3 1.2.46.1.04.22.08.33.1.12.04.22.08.32.12.88.3 1.6.66 2.13 1.1.54.4.8 1.04.8 1.88 0 .94-.35 1.68-1.06 2.2-.72.55-1.68.82-2.86.82zm9.06.02c-1.14 0-2.07-.3-2.8-.87-.7-.58-1.14-1.38-1.28-2.4-.1-.64-.14-1.3-.14-1.96 0-.8.05-1.47.14-1.98.16-.98.6-1.75 1.3-2.33.73-.57 1.66-.86 2.8-.86 1.1 0 2.02.3 2.74.86.72.58 1.15 1.35 1.3 2.3.1.62.15 1.27.15 2 0 .65-.04 1.3-.13 1.93-.14 1.04-.57 1.84-1.3 2.42-.7.6-1.64.88-2.77.88zm0-2.37c.36 0 .66-.13.9-.37.23-.23.38-.55.45-.94.05-.43.08-.94.08-1.56 0-.6-.03-1.12-.08-1.53-.07-.38-.22-.7-.45-.92-.24-.23-.54-.34-.9-.34-.37 0-.67.1-.9.34-.24.23-.4.54-.46.93-.06.5-.1 1.02-.1 1.54 0 .4.03.92.08 1.55.07.38.23.7.47.93.24.24.54.36.9.36zm10.55-8.03c.95 0 1.7.3 2.24.9.53.62.8 1.46.8 2.55v6.54c0 .07-.02.13-.06.17-.05.05-.1.07-.17.07h-2.3c-.06 0-.1-.02-.16-.07-.04-.04-.06-.1-.06-.17v-6.15c0-.45-.1-.8-.33-1.07-.2-.26-.52-.4-.9-.4-.4 0-.7.14-.92.4-.23.28-.35.64-.35 1.1v6.13c0 .07-.02.13-.07.17-.04.05-.1.07-.16.07h-2.3c-.06 0-.12-.02-.16-.07-.05-.04-.07-.1-.07-.17v-9.6c0-.06.02-.12.07-.17.04-.05.1-.07.16-.07h2.3c.06 0 .12.02.16.06.05.04.07.1.07.16v.53c0 .03.02.05.04.06.03 0 .06 0 .1-.05.48-.62 1.18-.93 2.08-.93z"/><path fill="#979797" d="M69.56 230.48c.07 0 .13.02.17.07.05.04.07.1.07.17v1.92c0 .06-.02.12-.07.16-.04.05-.1.07-.17.07H66.6c-.08 0-.1.03-.1.1v11c0 .06-.04.12-.08.16-.05.05-.1.07-.17.07h-2.3c-.06 0-.1-.02-.16-.07-.05-.04-.08-.1-.08-.17v-11c0-.06-.03-.1-.1-.1h-2.88c-.06 0-.12 0-.16-.06-.05-.04-.07-.1-.07-.16v-1.92c0-.07.03-.13.08-.17.04-.05.1-.07.16-.07h8.82zm5.34 3.5c.38 0 .7.1.96.24.1.07.15.17.12.3l-.37 2.27c0 .15-.1.2-.27.13-.2-.05-.4-.08-.6-.08-.14 0-.3.02-.5.06-.37.06-.7.24-.95.56-.25.3-.38.7-.38 1.13v5.36c0 .07-.02.13-.07.17-.04.05-.1.07-.16.07h-2.3c-.06 0-.12-.02-.16-.07-.04-.04-.06-.1-.06-.17v-9.6c0-.06.02-.12.07-.17.05-.05.1-.07.17-.07h2.3c.06 0 .12.02.16.06.05.04.07.1.07.16v.77c0 .05 0 .08.03.08.02.02.04 0 .07-.04.46-.78 1.1-1.17 1.9-1.17zm3.48-.8c-.5 0-.88-.17-1.2-.48-.3-.3-.45-.7-.45-1.18s.15-.88.46-1.18c.3-.3.7-.45 1.18-.45s.88.14 1.18.44c.3.3.46.7.46 1.18s-.15.88-.45 1.18c-.3.3-.7.47-1.2.47zm-1.16 11.02c-.07 0-.12-.02-.17-.07-.04-.04-.07-.1-.07-.17v-9.6c0-.06.03-.12.07-.17.05-.05.1-.07.17-.07h2.3c.06 0 .1.02.16.06.05.04.07.1.07.16v9.6c0 .07-.02.13-.07.17-.05.05-.1.07-.17.07h-2.28zm7.92.14c-1.2 0-2.18-.27-2.9-.8-.73-.54-1.1-1.25-1.1-2.12v-.16c0-.07.03-.12.07-.17.06-.05.12-.08.18-.08h2.18c.06 0 .12.02.16.04.05.03.07.06.07.1v.14c0 .3.12.52.37.7.26.2.58.28.95.28.36 0 .64-.08.86-.25.2-.16.32-.36.32-.6 0-.26-.12-.45-.35-.6-.24-.13-.6-.28-1.12-.43-.38-.1-.7-.2-.94-.32-.8-.26-1.43-.6-1.92-1.05-.5-.45-.74-1.1-.74-1.93 0-.95.35-1.7 1.04-2.27.7-.56 1.6-.84 2.75-.84 1.17 0 2.1.28 2.8.86.7.58 1.06 1.36 1.06 2.32 0 .15-.1.22-.25.22h-2.1c-.06 0-.12-.02-.16-.05-.06-.03-.08-.07-.08-.1v-.15c0-.27-.1-.5-.34-.68-.23-.18-.54-.28-.9-.28-.37 0-.65.1-.87.26-.2.17-.3.38-.3.63 0 .27.12.48.38.63.26.15.66.3 1.2.46.1.04.23.08.34.1.1.04.2.08.3.12.9.3 1.6.66 2.14 1.1.54.4.8 1.04.8 1.88 0 .94-.35 1.68-1.06 2.2-.72.55-1.67.82-2.86.82zm10.22-8.37c0 .06-.02.12-.07.16-.05.05-.1.07-.17.07h-1.5c-.08 0-.1.04-.1.1v4.37c0 .4.07.7.23.87.17.18.42.26.76.25h.4c.06 0 .1 0 .16.06.04.04.07.1.07.16v1.9c0 .16-.08.24-.24.24-.2 0-.54.02-.97.02-1.03 0-1.8-.17-2.3-.5-.5-.35-.76-1-.76-1.93v-5.45c0-.06-.03-.1-.1-.1h-.9c-.06 0-.12-.02-.16-.07-.04-.04-.06-.1-.06-.16v-1.6c0-.07.02-.13.07-.18.05-.05.1-.07.17-.07h.9c.07 0 .1-.04.1-.1v-2.26c0-.06.03-.12.07-.16.05-.04.1-.06.17-.06h2.18c.07 0 .12.02.17.07.05.05.07.1.07.17v2.26c0 .06.03.1.1.1h1.5c.07 0 .13.02.17.06.04.04.06.1.06.16v1.6zm5-2c.78 0 1.5.14 2.1.42.62.27 1.1.66 1.44 1.17.35.5.52 1.07.52 1.7v6.7c0 .06-.02.12-.07.16-.04.05-.1.07-.16.07h-2.3c-.07 0-.13-.02-.17-.07-.05-.04-.07-.1-.07-.17v-.52c0-.04 0-.07-.04-.08-.03-.02-.05 0-.08.04-.52.64-1.3.96-2.35.96-.9 0-1.62-.23-2.2-.7-.6-.45-.9-1.2-.9-2.28 0-2.13 1.34-3.2 4-3.2h1.46c.07 0 .1-.03.1-.1v-.45c0-.4-.12-.7-.34-.94-.23-.24-.55-.36-.96-.36-.3 0-.55.07-.76.22-.2.14-.34.34-.4.58-.03.13-.12.2-.27.2l-2.37-.14c-.06 0-.12-.02-.16-.06-.05-.04-.07-.1-.05-.15.06-.9.46-1.64 1.2-2.2.74-.55 1.67-.83 2.8-.83zm-.3 8.3c.44 0 .8-.13 1.13-.38.3-.26.46-.6.46-1v-.82c0-.06-.03-.1-.1-.1h-1.12c-.47 0-.84.1-1.1.32-.3.2-.43.5-.43.9 0 .34.12.6.33.8.2.17.48.26.82.26zm10.76-8.3c.95 0 1.7.3 2.24.9.54.62.8 1.46.8 2.55v6.54c0 .07 0 .13-.05.17-.04.05-.1.07-.16.07h-2.3c-.06 0-.1-.02-.16-.07-.05-.04-.07-.1-.07-.17v-6.15c0-.45-.1-.8-.32-1.07-.22-.26-.52-.4-.9-.4-.4 0-.7.14-.93.4-.23.28-.35.64-.35 1.1v6.13c0 .07-.02.13-.07.17-.04.05-.1.07-.16.07h-2.3c-.06 0-.12-.02-.16-.07-.04-.04-.06-.1-.06-.17v-9.6c0-.06.02-.12.07-.17.05-.05.1-.07.17-.07h2.3c.06 0 .12.02.16.06.05.04.07.1.07.16v.53c0 .03.02.05.04.06.03 0 .06 0 .1-.05.48-.62 1.18-.93 2.08-.93zm8.65 10.23c-.06 0-.12-.02-.16-.07-.04-.04-.06-.1-.06-.17v-13.24c0-.07.02-.13.07-.17.05-.05.1-.07.17-.07h2.3c.06 0 .12.02.16.07.05.04.07.1.07.17v11c0 .08.03.1.1.1h5.25c.07 0 .12.03.17.08.04.04.07.1.07.16v1.9c0 .07-.04.13-.08.17-.05.05-.1.07-.17.07h-7.88zm8.9 3.9c-.05 0-.1-.02-.1-.07-.04-.04-.05-.1-.05-.16v-1.8c0-.07 0-.13.04-.17.02-.05.05-.07.08-.07h.1c.73 0 1.25-.1 1.57-.32.33-.2.55-.6.65-1.24l-.02-.12-2.82-9.74v-.08c0-.13.06-.2.2-.2h2.45c.15 0 .23.08.26.22l1.3 5.9c.02.05.03.08.06.08s.05-.03.06-.08l1.2-5.9c.04-.14.13-.2.27-.2h2.46c.08 0 .14 0 .18.06.03.06.04.12.02.2l-2.98 10.17c-.3.96-.6 1.67-.92 2.15-.32.48-.77.83-1.36 1.05-.6.22-1.43.33-2.53.33h-.1zm12.4-3.74c-1.14 0-2.07-.3-2.78-.87-.73-.58-1.16-1.38-1.3-2.4-.1-.64-.15-1.3-.15-1.96 0-.8.05-1.47.14-1.98.15-.98.6-1.75 1.3-2.33.72-.57 1.65-.86 2.8-.86 1.1 0 2 .3 2.73.86.72.58 1.15 1.35 1.3 2.3.1.62.15 1.27.15 2 0 .65-.04 1.3-.13 1.93-.15 1.04-.58 1.84-1.3 2.42-.72.6-1.64.88-2.78.88zm0-2.37c.36 0 .67-.13.9-.37.24-.23.4-.55.45-.94.05-.43.08-.94.08-1.56 0-.6-.03-1.12-.08-1.53-.06-.38-.2-.7-.45-.92-.23-.23-.54-.34-.9-.34-.37 0-.67.1-.9.34-.24.23-.4.54-.45.93-.07.5-.1 1.02-.1 1.54 0 .4.02.92.08 1.55.06.38.22.7.47.93.25.24.55.36.9.36zm10.55-8.03c.95 0 1.7.3 2.24.9.55.62.82 1.46.82 2.55v6.54c0 .07-.03.13-.07.17-.04.05-.1.07-.16.07h-2.3c-.06 0-.1-.02-.16-.07-.04-.04-.07-.1-.07-.17v-6.15c0-.45-.1-.8-.32-1.07-.22-.26-.52-.4-.9-.4-.4 0-.7.14-.93.4-.23.28-.35.64-.35 1.1v6.13c0 .07-.02.13-.06.17-.05.05-.1.07-.17.07h-2.3c-.06 0-.1-.02-.16-.07-.04-.04-.06-.1-.06-.17v-9.6c0-.06.02-.12.07-.17.06-.05.1-.07.18-.07h2.3c.05 0 .1.02.16.06.04.04.06.1.06.16v.53c0 .03.02.05.04.06.03 0 .06 0 .1-.05.5-.62 1.18-.93 2.08-.93zm8.75 8.03c.35 0 .64-.1.88-.27.23-.17.42-.4.55-.67.06-.14.16-.2.3-.15l1.85.4c.16.04.22.14.18.3-.26.86-.73 1.53-1.4 2.02-.67.5-1.5.74-2.5.74-1.03 0-1.9-.27-2.6-.8-.68-.53-1.13-1.23-1.34-2.1-.2-.66-.28-1.47-.28-2.45 0-.65.02-1.18.07-1.6.12-1.07.54-1.92 1.24-2.53.7-.6 1.63-.92 2.8-.92 1.27 0 2.23.33 2.9 1 .67.65 1.07 1.6 1.2 2.8.05.7.1 1.37.1 2.02 0 .16-.1.24-.25.24h-5.22c-.07 0-.1.04-.1.1 0 .28.02.5.06.7.06.38.23.67.5.88.28.22.62.32 1.03.32zm-.24-5.66c-.7 0-1.13.38-1.27 1.14-.03.13-.06.36-.08.7 0 .07.03.1.1.1h2.54c.07 0 .1-.03.1-.1 0-.15-.02-.38-.08-.66-.05-.37-.2-.66-.4-.87-.23-.2-.53-.3-.9-.3zm9.18 8c-1.2 0-2.18-.27-2.9-.8-.73-.54-1.1-1.25-1.1-2.12v-.16c0-.07.03-.12.08-.17.05-.05.1-.08.17-.08h2.17c.07 0 .12.02.17.04.03.03.06.06.06.1v.14c0 .3.12.52.38.7.25.2.57.28.95.28.34 0 .63-.08.84-.25.22-.16.33-.36.33-.6 0-.26-.12-.45-.36-.6-.22-.13-.6-.28-1.1-.43-.38-.1-.7-.2-.94-.32-.8-.26-1.43-.6-1.92-1.05-.5-.45-.73-1.1-.73-1.93 0-.95.36-1.7 1.05-2.27.7-.56 1.6-.84 2.74-.84 1.17 0 2.1.28 2.8.86.7.58 1.05 1.36 1.05 2.32 0 .15-.08.22-.23.22h-2.1c-.06 0-.12-.02-.17-.05-.04-.03-.06-.07-.06-.1v-.15c0-.27-.13-.5-.36-.68-.23-.18-.53-.28-.9-.28-.36 0-.65.1-.86.26-.22.17-.32.38-.32.63 0 .27.13.48.4.63.25.15.65.3 1.18.46.12.04.23.08.35.1.1.04.2.08.3.12.88.3 1.6.66 2.13 1.1.53.4.8 1.04.8 1.88 0 .94-.36 1.68-1.07 2.2-.7.55-1.66.82-2.85.82z"/><path fill="#979797" d="M65.96 255.46c.78 0 1.48.18 2.1.53.6.34 1.06.84 1.4 1.48.33.64.5 1.37.5 2.2 0 .8-.17 1.52-.5 2.14-.34.62-.8 1.1-1.4 1.44-.62.34-1.32.5-2.1.5h-2.12c-.06 0-.1.04-.1.1v5.1c0 .07-.02.13-.06.17-.05.05-.1.07-.17.07h-2.28c-.07 0-.13-.02-.17-.07-.05-.04-.07-.1-.07-.17V255.7c0-.07.02-.13.07-.17.04-.05.1-.07.17-.07h4.74zm-.45 6.12c.52 0 .93-.17 1.23-.5.3-.34.46-.78.46-1.35 0-.57-.16-1.03-.47-1.37-.3-.34-.7-.5-1.22-.5h-1.66c-.06 0-.1.02-.1.1v3.52c0 .06.04.1.1.1h1.67zM75 267c.35 0 .65-.1.88-.27.24-.17.42-.4.55-.67.08-.14.17-.2.3-.15l1.87.4c.15.04.2.14.17.3-.26.86-.73 1.53-1.4 2.02-.67.5-1.5.74-2.5.74-1.03 0-1.9-.27-2.58-.8-.7-.53-1.15-1.23-1.36-2.1-.18-.66-.27-1.47-.27-2.45 0-.65.02-1.18.08-1.6.14-1.07.55-1.92 1.25-2.53.7-.6 1.64-.92 2.8-.92 1.27 0 2.23.33 2.9 1 .68.65 1.07 1.6 1.2 2.8.06.7.1 1.37.1 2.02 0 .16-.1.24-.25.24h-5.2c-.07 0-.1.04-.1.1 0 .28 0 .5.05.7.07.38.24.67.5.88.3.22.62.32 1.03.32zm-.24-5.66c-.7 0-1.13.38-1.27 1.14-.03.13-.05.36-.08.7 0 .07.03.1.1.1h2.54c.06 0 .1-.03.1-.1 0-.15-.03-.38-.08-.66-.05-.37-.2-.66-.4-.87-.24-.2-.54-.3-.92-.3zM84.98 259c.38 0 .7.07.96.22.1.07.15.17.12.3l-.37 2.27c-.03.15-.12.2-.3.13-.2-.05-.4-.08-.58-.08-.15 0-.32.02-.5.06-.38.06-.7.24-.96.56-.25.3-.38.7-.38 1.13v5.36c0 .07-.02.13-.07.17-.03.05-.1.07-.15.07h-2.3c-.06 0-.12-.02-.16-.07-.06-.04-.08-.1-.08-.17v-9.6c0-.06.02-.12.07-.17.03-.05.1-.07.15-.07h2.3c.06 0 .12.02.16.06.06.04.08.1.08.16v.77c0 .05 0 .08.03.08.03.02.05 0 .08-.04.46-.78 1.1-1.17 1.9-1.17zm5.77 10.36c-1.1 0-2-.28-2.7-.84-.73-.55-1.17-1.3-1.34-2.28-.1-.54-.14-1.24-.14-2.12 0-.65.05-1.34.15-2.07.18-.94.63-1.7 1.34-2.25.72-.55 1.63-.83 2.7-.83 1.07 0 1.96.27 2.7.8.7.54 1.16 1.24 1.33 2.12.02.1.05.3.08.56 0 .14-.08.23-.24.25l-2.24.23h-.04c-.12 0-.2-.07-.22-.22 0-.08 0-.14-.02-.18-.02-.1-.05-.2-.08-.28-.07-.26-.22-.47-.45-.64-.22-.17-.5-.26-.82-.26-.35 0-.64.1-.86.3-.22.22-.37.5-.43.88-.08.43-.12.97-.12 1.62 0 .72.04 1.28.14 1.7.06.34.2.62.42.83.2.2.5.32.85.32.38 0 .68-.12.9-.33.24-.2.37-.47.4-.78l.05-.25c.02-.06.04-.12.1-.16.04-.06.1-.08.16-.06l2.27.2c.15.02.23.1.23.25 0 .07-.02.2-.04.38-.14.95-.57 1.7-1.3 2.25-.72.55-1.64.83-2.75.83zm4.96 3.74c-.03 0-.06-.02-.08-.07-.03-.04-.04-.1-.04-.16v-1.8c0-.07 0-.13.04-.17.02-.05.05-.07.07-.07h.1c.72 0 1.25-.1 1.57-.32.32-.2.53-.6.64-1.24v-.12l-2.83-9.74-.02-.08c0-.13.07-.2.2-.2h2.46c.15 0 .24.08.27.22l1.3 5.9c0 .05.02.08.05.08.02 0 .04-.03.06-.08l1.2-5.9c.04-.14.12-.2.27-.2h2.47c.08 0 .13 0 .17.06.03.06.04.12 0 .2l-2.97 10.17c-.28.96-.6 1.67-.9 2.15-.33.48-.78.83-1.37 1.05-.6.22-1.43.33-2.53.33h-.12zm13-3.9c-.06 0-.12-.02-.17-.07-.04-.04-.06-.1-.06-.17v-13.24c0-.07.02-.13.06-.17.05-.05.1-.07.17-.07h4.2c.9 0 1.66.16 2.34.5.67.32 1.2.78 1.56 1.38.36.6.54 1.3.54 2.1v5.76c0 .8-.18 1.5-.54 2.1-.37.6-.9 1.06-1.56 1.4-.68.32-1.45.48-2.33.48h-4.2zm2.53-2.47c0 .07.03.1.1.1l1.6-.02c.5 0 .88-.16 1.18-.5.3-.36.47-.82.48-1.4v-5.13c0-.6-.15-1.05-.45-1.4-.3-.35-.7-.52-1.2-.52h-1.6c-.07 0-.1.03-.1.1v8.78zm11.4-7.76c.8 0 1.5.14 2.1.42.62.27 1.1.66 1.45 1.17.35.5.52 1.07.52 1.7v6.7c0 .06-.02.12-.07.16-.05.05-.1.07-.17.07h-2.3c-.05 0-.1-.02-.16-.07-.04-.04-.06-.1-.06-.17v-.52c0-.04-.02-.07-.04-.08-.03-.02-.06 0-.08.04-.53.64-1.3.96-2.35.96-.88 0-1.6-.23-2.2-.7-.6-.45-.88-1.2-.88-2.28 0-2.13 1.32-3.2 4-3.2h1.44c.06 0 .1-.03.1-.1v-.45c0-.4-.12-.7-.35-.94-.24-.24-.55-.36-.96-.36-.3 0-.55.07-.76.22-.2.14-.34.34-.4.58-.03.13-.13.2-.27.2l-2.36-.14c-.07 0-.12-.02-.17-.06-.04-.04-.06-.1-.05-.15.07-.9.47-1.64 1.2-2.2.75-.55 1.68-.83 2.8-.83zm-.3 8.3c.44 0 .82-.13 1.13-.38.32-.26.48-.6.48-1v-.82c0-.06-.04-.1-.1-.1h-1.12c-.47 0-.84.1-1.12.32-.27.2-.4.5-.4.9 0 .34.1.6.3.8.2.17.5.26.83.26zm7.75 1.93c-.15 0-.24-.07-.28-.2l-2.47-9.62v-.08c0-.12.07-.17.22-.17h2.27c.16 0 .24.07.26.2l1.1 5.87c.03.04.05.06.07.06.03 0 .05-.02.06-.06l1.2-5.86c0-.14.1-.2.24-.2h2.02c.14 0 .23.06.25.2l1.25 5.86c0 .05.03.08.06.08s.05-.03.07-.08l1.17-5.86c.03-.14.1-.2.26-.2h2.25c.18 0 .26.1.22.26l-2.47 9.6c-.04.13-.13.2-.28.2h-2.3c-.12 0-.2-.07-.24-.2l-1.2-5.13c0-.05-.03-.08-.06-.08-.02 0-.04.02-.06.07l-1.08 5.1c-.02.16-.1.23-.25.23h-2.25zm14.43.14c-1.2 0-2.18-.27-2.9-.8-.73-.54-1.1-1.25-1.1-2.12v-.16c0-.07.03-.12.08-.17.04-.05.1-.08.16-.08h2.18c.06 0 .12.02.17.04.03.03.05.06.05.1v.14c0 .3.13.52.4.7.24.2.56.28.94.28.34 0 .62-.08.84-.25.22-.16.32-.36.32-.6 0-.26-.1-.45-.35-.6-.22-.13-.6-.28-1.1-.43-.4-.1-.7-.2-.95-.32-.78-.26-1.42-.6-1.9-1.05-.5-.45-.74-1.1-.74-1.93 0-.95.35-1.7 1.05-2.27.7-.56 1.6-.84 2.74-.84 1.17 0 2.1.28 2.8.86.7.58 1.05 1.36 1.05 2.32 0 .15-.08.22-.23.22h-2.1c-.07 0-.12-.02-.17-.05-.04-.03-.07-.07-.07-.1v-.15c0-.27-.1-.5-.34-.68-.23-.18-.53-.28-.9-.28-.36 0-.65.1-.86.26-.22.17-.33.38-.33.63 0 .27.13.48.4.63.26.15.65.3 1.2.46.1.04.22.08.33.1.1.04.22.08.3.12.9.3 1.6.66 2.14 1.1.54.4.8 1.04.8 1.88 0 .94-.35 1.68-1.06 2.2-.7.55-1.66.82-2.85.82zm9.07.02c-1.14 0-2.07-.3-2.8-.87-.7-.58-1.14-1.38-1.28-2.4-.1-.64-.15-1.3-.15-1.96 0-.8.05-1.47.14-1.98.15-.98.6-1.75 1.3-2.33.72-.57 1.65-.86 2.8-.86 1.1 0 2 .3 2.73.86.72.58 1.15 1.35 1.3 2.3.1.62.15 1.27.15 2 0 .65-.04 1.3-.14 1.93-.14 1.04-.57 1.84-1.3 2.42-.7.6-1.64.88-2.77.88zm0-2.37c.36 0 .66-.13.9-.37.23-.23.38-.55.45-.94.05-.43.08-.94.08-1.56 0-.6-.03-1.12-.08-1.53-.07-.38-.22-.7-.45-.92-.24-.23-.54-.34-.9-.34-.37 0-.67.1-.9.34-.24.23-.4.54-.45.93-.07.5-.1 1.02-.1 1.54 0 .4.02.92.08 1.55.06.38.22.7.47.93.24.24.54.36.9.36zm10.55-8.03c.95 0 1.7.3 2.24.9.54.62.82 1.46.82 2.55v6.54c0 .07-.03.13-.07.17-.04.05-.1.07-.16.07h-2.3c-.06 0-.1-.02-.16-.07-.05-.04-.07-.1-.07-.17v-6.15c0-.45-.1-.8-.32-1.07-.22-.26-.52-.4-.9-.4-.4 0-.7.14-.93.4-.23.28-.35.64-.35 1.1v6.13c0 .07-.02.13-.07.17-.04.05-.1.07-.16.07h-2.3c-.06 0-.12-.02-.16-.07-.04-.04-.06-.1-.06-.17v-9.6c0-.06.02-.12.07-.17.05-.05.1-.07.17-.07h2.3c.06 0 .12.02.16.06.05.04.07.1.07.16v.53c0 .03.02.05.04.06.03 0 .06 0 .1-.05.48-.62 1.18-.93 2.08-.93z"/><path fill="#979797" d="M67.96 281.46c.78 0 1.48.18 2.1.53.6.34 1.06.84 1.4 1.48.33.64.5 1.37.5 2.2 0 .8-.17 1.52-.5 2.14-.34.62-.8 1.1-1.4 1.44-.62.34-1.32.5-2.1.5h-2.12c-.06 0-.1.04-.1.1v5.1c0 .07-.02.13-.06.17-.05.05-.1.07-.17.07h-2.28c-.07 0-.13-.02-.17-.07-.05-.04-.07-.1-.07-.17V281.7c0-.07.02-.13.07-.17.04-.05.1-.07.17-.07h4.74zm-.45 6.12c.52 0 .93-.17 1.23-.5.3-.34.46-.78.46-1.35 0-.57-.16-1.03-.47-1.37-.3-.34-.7-.5-1.22-.5h-1.66c-.06 0-.1.02-.1.1v3.52c0 .06.04.1.1.1h1.67zM77 293c.35 0 .65-.1.88-.27.24-.17.42-.4.55-.67.08-.14.17-.2.3-.15l1.87.4c.15.04.2.14.17.3-.26.86-.73 1.53-1.4 2.02-.67.5-1.5.74-2.5.74-1.03 0-1.9-.27-2.58-.8-.7-.53-1.15-1.23-1.36-2.1-.18-.66-.27-1.47-.27-2.45 0-.65.02-1.18.08-1.6.14-1.07.55-1.92 1.25-2.53.7-.6 1.64-.92 2.8-.92 1.27 0 2.23.33 2.9 1 .68.65 1.07 1.6 1.2 2.8.06.7.1 1.37.1 2.02 0 .16-.1.24-.25.24h-5.2c-.07 0-.1.04-.1.1 0 .28 0 .5.05.7.07.38.24.67.5.88.3.22.62.32 1.03.32zm-.24-5.66c-.7 0-1.13.38-1.27 1.14-.03.13-.05.36-.08.7 0 .07.03.1.1.1h2.54c.06 0 .1-.03.1-.1 0-.15-.03-.38-.08-.66-.05-.37-.2-.66-.4-.87-.24-.2-.54-.3-.92-.3zm10.54-.37c0 .06-.03.12-.07.16-.04.05-.1.07-.16.07h-1.5c-.07 0-.1.04-.1.1v4.37c0 .4.07.7.24.87.16.18.4.26.75.25h.4c.06 0 .12 0 .16.06.04.04.06.1.06.16v1.9c0 .16-.08.24-.24.24-.22 0-.54.02-.98.02-1.03 0-1.8-.17-2.3-.5-.5-.35-.75-1-.75-1.93v-5.45c0-.06-.05-.1-.1-.1h-.9c-.08 0-.13-.02-.18-.07-.04-.04-.07-.1-.07-.16v-1.6c0-.07.03-.13.07-.18.05-.05.1-.07.17-.07h.9c.05 0 .1-.04.1-.1v-2.26c0-.06 0-.12.06-.16.04-.04.1-.06.16-.06h2.18c.06 0 .12.02.16.07.05.05.07.1.07.17v2.26c0 .06.04.1.1.1h1.5c.08 0 .13.02.18.06.05.04.08.1.08.16v1.6zm5.27 6.03c.36 0 .65-.1.9-.27.22-.17.4-.4.53-.67.07-.14.17-.2.3-.15l1.86.4c.16.04.22.14.18.3-.26.86-.73 1.53-1.4 2.02-.68.5-1.5.74-2.5.74-1.04 0-1.9-.27-2.6-.8-.68-.53-1.13-1.23-1.34-2.1-.2-.66-.28-1.47-.28-2.45 0-.65.03-1.18.08-1.6.13-1.07.55-1.92 1.25-2.53.7-.6 1.63-.92 2.8-.92 1.26 0 2.23.33 2.9 1 .67.65 1.07 1.6 1.18 2.8.08.7.1 1.37.1 2.02 0 .16-.07.24-.22.24h-5.22c-.06 0-.1.04-.1.1 0 .28.03.5.06.7.07.38.24.67.5.88.3.22.63.32 1.03.32zm-.23-5.66c-.7 0-1.13.38-1.28 1.14-.02.13-.05.36-.07.7 0 .07.03.1.1.1h2.54c.08 0 .1-.03.1-.1 0-.15-.02-.38-.07-.66-.05-.37-.2-.66-.4-.87-.23-.2-.53-.3-.9-.3zm10.24-2.35c.37 0 .7.07.96.22.1.07.14.17.1.3l-.36 2.27c0 .15-.1.2-.27.13-.22-.05-.42-.08-.6-.08-.16 0-.33.02-.5.06-.4.06-.7.24-.96.56-.26.3-.38.7-.38 1.13v5.36c0 .07-.03.13-.07.17-.06.05-.1.07-.18.07h-2.3c-.06 0-.1-.02-.16-.07-.04-.04-.07-.1-.07-.17v-9.6c0-.06.02-.12.06-.17.05-.05.1-.07.17-.07h2.3c.06 0 .1.02.16.06.03.04.06.1.06.16v.77c0 .05 0 .08.03.08 0 .02.03 0 .05-.04.46-.78 1.1-1.17 1.9-1.17zm6.06 10.2c-.06 0-.12-.02-.16-.07-.05-.04-.07-.1-.07-.17v-13.24c0-.07 0-.13.06-.17.04-.05.1-.07.16-.07h2.3c.06 0 .12.02.16.07.05.04.07.1.07.17v11c0 .08.03.1.1.1h5.25c.07 0 .12.03.17.08.04.04.07.1.07.16v1.9c0 .07-.03.13-.07.17-.05.05-.1.07-.17.07h-7.88zm13-10.23c.8 0 1.5.14 2.12.42.6.27 1.1.66 1.44 1.17.35.5.52 1.07.52 1.7v6.7c0 .06-.02.12-.07.16-.04.05-.1.07-.17.07h-2.3c-.05 0-.1-.02-.15-.07-.04-.04-.06-.1-.06-.17v-.52c0-.04-.02-.07-.04-.08-.03-.02-.06 0-.08.04-.52.64-1.3.96-2.35.96-.88 0-1.6-.23-2.2-.7-.6-.45-.88-1.2-.88-2.28 0-2.13 1.32-3.2 4-3.2h1.44c.06 0 .1-.03.1-.1v-.45c0-.4-.12-.7-.35-.94-.24-.24-.55-.36-.96-.36-.3 0-.55.07-.76.22-.2.14-.34.34-.4.58-.03.13-.12.2-.27.2l-2.36-.14c-.06 0-.12-.02-.17-.06-.04-.04-.06-.1-.05-.15.07-.9.47-1.64 1.2-2.2.75-.55 1.68-.83 2.8-.83zm-.3 8.3c.45 0 .83-.13 1.15-.38.3-.26.47-.6.47-1v-.82c0-.06-.04-.1-.1-.1h-1.12c-.47 0-.84.1-1.12.32-.27.2-.4.5-.4.9 0 .34.1.6.3.8.22.17.5.26.83.26zm7.76 1.93c-.15 0-.24-.07-.28-.2l-2.47-9.62v-.08c0-.12.07-.17.22-.17h2.27c.16 0 .24.07.26.2l1.1 5.87c.03.04.05.06.07.06.03 0 .05-.02.06-.06l1.2-5.86c0-.14.1-.2.24-.2h2.02c.14 0 .23.06.26.2l1.23 5.86c0 .05.03.08.06.08.04 0 .06-.03.07-.08l1.17-5.86c.03-.14.12-.2.26-.2h2.25c.2 0 .26.1.22.26l-2.47 9.6c-.04.13-.13.2-.28.2h-2.3c-.12 0-.2-.07-.24-.2l-1.2-5.13c0-.05-.03-.08-.06-.08-.02 0-.04.02-.06.07l-1.07 5.1c-.04.16-.13.23-.27.23h-2.25zm16-10.2c.37 0 .7.07.96.22.1.07.14.17.1.3l-.36 2.27c0 .15-.1.2-.27.13-.2-.05-.4-.08-.58-.08-.16 0-.33.02-.5.06-.4.06-.7.24-.96.56-.26.3-.38.7-.38 1.13v5.36c0 .07-.03.13-.07.17-.04.05-.1.07-.16.07h-2.3c-.06 0-.1-.02-.16-.07-.04-.04-.07-.1-.07-.17v-9.6c0-.06.04-.12.08-.17.05-.05.1-.07.17-.07h2.3c.06 0 .1.02.16.06.05.04.08.1.08.16v.77c0 .05 0 .08.03.08.03.02.05 0 .07-.04.46-.78 1.1-1.17 1.9-1.17zm5.96 8c.35 0 .65-.1.88-.27.24-.17.42-.4.55-.67.07-.14.16-.2.3-.15l1.86.4c.15.04.2.14.17.3-.26.86-.73 1.53-1.4 2.02-.67.5-1.5.74-2.5.74-1.03 0-1.9-.27-2.58-.8-.7-.53-1.15-1.23-1.36-2.1-.18-.66-.27-1.47-.27-2.45 0-.65 0-1.18.07-1.6.13-1.07.54-1.92 1.24-2.53.7-.6 1.65-.92 2.82-.92 1.26 0 2.22.33 2.9 1 .67.65 1.06 1.6 1.18 2.8.07.7.1 1.37.1 2.02 0 .16-.08.24-.24.24h-5.2c-.07 0-.1.04-.1.1 0 .28 0 .5.05.7.08.38.25.67.52.88.28.22.6.32 1.02.32zm-.24-5.66c-.7 0-1.13.38-1.27 1.14-.03.13-.05.36-.08.7 0 .07.04.1.1.1h2.55c.06 0 .1-.03.1-.1 0-.15-.03-.38-.08-.66-.05-.37-.2-.66-.4-.87-.24-.2-.54-.3-.92-.3zm10.46-2.37c.95 0 1.7.3 2.24.9.54.62.8 1.46.8 2.55v6.54c0 .07 0 .13-.05.17-.05.05-.1.07-.17.07h-2.3c-.06 0-.1-.02-.16-.07-.05-.04-.07-.1-.07-.17v-6.15c0-.45-.1-.8-.33-1.07-.22-.26-.52-.4-.9-.4-.4 0-.7.14-.93.4-.24.28-.36.64-.36 1.1v6.13c0 .07-.02.13-.07.17-.04.05-.1.07-.16.07h-2.3c-.05 0-.1-.02-.15-.07-.05-.04-.07-.1-.07-.17v-9.6c0-.06.02-.12.07-.17.04-.05.1-.07.16-.07h2.3c.07 0 .13.02.17.06.05.04.07.1.07.16v.53c0 .03.02.05.04.06.03 0 .06 0 .1-.05.48-.62 1.18-.93 2.08-.93zm8.55 10.4c-1.1 0-2-.3-2.7-.85-.72-.55-1.16-1.3-1.33-2.28-.1-.54-.16-1.24-.16-2.12 0-.65.07-1.34.17-2.07.17-.94.6-1.7 1.33-2.25.72-.55 1.62-.83 2.7-.83 1.07 0 1.96.27 2.68.8.73.54 1.18 1.24 1.35 2.12.02.1.05.3.07.56 0 .14-.07.23-.23.25l-2.25.23h-.04c-.12 0-.2-.07-.22-.22 0-.08 0-.14-.02-.18-.02-.1-.05-.2-.08-.28-.08-.26-.23-.47-.45-.64-.2-.17-.48-.26-.8-.26-.36 0-.65.1-.87.3-.23.22-.37.5-.43.88-.08.43-.12.97-.12 1.62 0 .72.04 1.28.13 1.7.08.34.22.62.44.83.2.2.5.32.85.32.37 0 .67-.12.9-.33.23-.2.36-.47.4-.78l.04-.25c0-.06.04-.12.1-.16.04-.06.1-.08.16-.06l2.27.2c.14.02.22.1.22.25 0 .07-.03.2-.05.38-.13.95-.56 1.7-1.3 2.25-.7.55-1.63.83-2.74.83zm9.46-2.37c.35 0 .65-.1.88-.27.24-.17.42-.4.55-.67.06-.14.16-.2.3-.15l1.85.4c.15.04.2.14.17.3-.26.86-.72 1.53-1.4 2.02-.67.5-1.5.74-2.5.74-1.03 0-1.9-.27-2.58-.8-.7-.53-1.15-1.23-1.36-2.1-.18-.66-.27-1.47-.27-2.45 0-.65.04-1.18.1-1.6.12-1.07.53-1.92 1.23-2.53.7-.6 1.64-.92 2.82-.92 1.25 0 2.2.33 2.9 1 .66.65 1.05 1.6 1.17 2.8.07.7.1 1.37.1 2.02 0 .16-.08.24-.23.24h-5.23c-.06 0-.1.04-.1.1 0 .28.02.5.06.7.07.38.24.67.5.88.3.22.63.32 1.03.32zm-.23-5.66c-.7 0-1.13.38-1.28 1.14-.02.13-.05.36-.08.7 0 .07.04.1.1.1h2.55c.06 0 .1-.03.1-.1 0-.15-.03-.38-.08-.66-.05-.37-.2-.66-.4-.87-.23-.2-.54-.3-.9-.3z"/><path fill="#979797" d="M67.35 321.38c-.9 0-1.7-.2-2.38-.55-.7-.37-1.22-.88-1.6-1.55-.38-.67-.57-1.44-.57-2.33v-5.22c0-.87.2-1.64.57-2.3.38-.68.9-1.2 1.6-1.56.7-.36 1.48-.55 2.38-.55.9 0 1.7.2 2.4.55.68.37 1.22.88 1.6 1.55.38.67.57 1.44.57 2.3v5.23c0 .9-.2 1.66-.57 2.33-.38.67-.92 1.18-1.6 1.55-.7.36-1.5.55-2.4.55zm0-2.38c.55 0 1-.17 1.3-.53.34-.36.5-.83.5-1.4v-5.42c0-.58-.16-1.06-.5-1.42-.3-.36-.75-.54-1.3-.54-.53 0-.97.17-1.3.53-.32.36-.48.84-.48 1.42v5.4c0 .6.16 1.06.5 1.42.3.36.75.53 1.28.53zm8.28 2.2c-.15 0-.24-.07-.28-.2l-2.47-9.62v-.08c0-.12.08-.17.22-.17h2.27c.16 0 .24.07.26.2l1.1 5.87c.03.04.05.06.07.06.03 0 .05-.02.06-.06l1.18-5.86c.02-.14.1-.2.25-.2h2c.16 0 .24.06.27.2l1.23 5.86c0 .05.03.08.06.08s.05-.03.06-.08l1.18-5.86c.02-.14.1-.2.25-.2h2.25c.2 0 .26.1.22.26l-2.47 9.6c-.04.13-.13.2-.27.2h-2.3c-.13 0-.2-.07-.25-.2l-1.2-5.13c0-.05-.03-.08-.06-.08-.02 0-.04.02-.06.07l-1.06 5.1c-.03.16-.1.23-.26.23h-2.25zm14.94-2.2c.35 0 .65-.1.88-.27.24-.17.42-.4.55-.67.06-.14.16-.2.3-.15l1.86.4c.15.04.2.14.17.3-.26.86-.73 1.53-1.4 2.02-.67.5-1.5.74-2.5.74-1.03 0-1.9-.27-2.6-.8-.68-.53-1.13-1.23-1.34-2.1-.2-.66-.28-1.47-.28-2.45 0-.65.02-1.18.08-1.6.13-1.07.54-1.92 1.24-2.53.7-.6 1.64-.92 2.8-.92 1.27 0 2.23.33 2.9 1 .68.65 1.07 1.6 1.2 2.8.05.7.1 1.37.1 2.02 0 .16-.1.24-.25.24h-5.22c-.07 0-.1.04-.1.1 0 .28.02.5.06.7.06.38.23.67.5.88.28.22.62.32 1.03.32zm-.24-5.66c-.7 0-1.13.38-1.27 1.14-.03.13-.05.36-.08.7 0 .07.03.1.1.1h2.55c.06 0 .1-.03.1-.1 0-.15-.03-.38-.08-.66-.06-.37-.2-.66-.42-.87-.22-.2-.52-.3-.9-.3zm10.46-2.37c.94 0 1.7.3 2.23.9.54.62.8 1.46.8 2.55v6.54c0 .07 0 .13-.06.17-.04.05-.1.07-.16.07h-2.3c-.05 0-.1-.02-.15-.07-.05-.04-.07-.1-.07-.17v-6.15c0-.45-.1-.8-.33-1.07-.23-.26-.53-.4-.9-.4-.4 0-.7.14-.94.4-.2.28-.33.64-.33 1.1v6.13c0 .07-.02.13-.07.17-.04.05-.1.07-.16.07h-2.3c-.06 0-.12-.02-.16-.07-.05-.04-.07-.1-.07-.17v-9.6c0-.06.03-.12.08-.17.04-.05.1-.07.16-.07h2.3c.06 0 .12.02.16.06.05.04.07.1.07.16v.53c0 .03 0 .05.04.06.04 0 .07 0 .1-.05.5-.62 1.18-.93 2.1-.93zm11.07 10.23c-.13 0-.2-.07-.25-.2l-3.08-13.27v-.07c0-.12.07-.18.2-.18h2.43c.15 0 .24.07.25.22l1.5 7.52c0 .04.02.06.05.06.02 0 .04-.02.06-.06l1.43-7.52c0-.15.1-.22.25-.22h2.2c.13 0 .22.07.24.22l1.57 7.52c.02.04.04.06.07.06.03 0 .05-.02.06-.06l1.4-7.52c0-.15.1-.22.25-.22h2.33c.18 0 .24.08.2.25l-2.86 13.25c-.02.15-.1.22-.25.22h-2.23c-.14 0-.23-.07-.25-.22l-1.6-7.87c0-.03-.02-.05-.05-.05-.02 0-.04.02-.06.06l-1.44 7.88c0 .15-.1.22-.25.22h-2.13zm13.7-11.03c-.5 0-.9-.16-1.2-.47-.3-.3-.46-.7-.46-1.18s.16-.88.47-1.18c.3-.3.7-.45 1.2-.45.47 0 .87.14 1.17.44.3.3.46.7.46 1.18s-.15.88-.45 1.18c-.3.3-.7.47-1.2.47zm-1.17 11.03c-.06 0-.12-.02-.17-.07-.04-.04-.06-.1-.06-.17v-9.6c0-.06.02-.12.06-.17.05-.05.1-.07.17-.07h2.3c.06 0 .1.02.16.06.05.04.07.1.07.16v9.6c0 .07-.02.13-.07.17-.05.05-.1.07-.17.07h-2.3zm4.44 0c-.07 0-.12-.02-.17-.07-.05-.04-.07-.1-.07-.17v-13.24c0-.07.02-.13.07-.17.05-.05.1-.07.17-.07h2.3c.05 0 .1.02.16.07.04.04.06.1.06.17v13.24c0 .07-.02.13-.06.17-.05.05-.1.07-.17.07h-2.3zm4.27 0c-.05 0-.1-.02-.15-.07-.05-.04-.07-.1-.07-.17v-13.24c0-.07.02-.13.07-.17.04-.05.1-.07.16-.07h2.3c.07 0 .13.02.17.07.05.04.07.1.07.17v13.24c0 .07-.02.13-.07.17-.04.05-.1.07-.16.07h-2.3zm5.6-11.03c-.5 0-.9-.16-1.2-.47-.3-.3-.46-.7-.46-1.18s.15-.88.46-1.18c.3-.3.7-.45 1.2-.45.47 0 .87.14 1.17.44.3.3.46.7.46 1.18s-.15.88-.45 1.18c-.3.3-.7.47-1.2.47zm-1.17 11.03c-.07 0-.12-.02-.17-.07-.04-.04-.07-.1-.07-.17v-9.6c0-.06.02-.12.06-.17.05-.05.1-.07.17-.07h2.3c.06 0 .1.02.16.06.04.04.06.1.06.16v9.6c0 .07-.02.13-.07.17-.06.05-.1.07-.18.07h-2.3zm8.04-10.23c.8 0 1.5.14 2.12.42.6.27 1.08.66 1.43 1.17.35.5.52 1.07.52 1.7v6.7c0 .06-.02.12-.07.16-.05.05-.1.07-.17.07h-2.28c-.07 0-.12-.02-.17-.07-.04-.04-.07-.1-.07-.17v-.52c0-.04 0-.07-.03-.08-.03-.02-.06 0-.08.04-.53.64-1.3.96-2.35.96-.88 0-1.6-.23-2.2-.7-.6-.45-.88-1.2-.88-2.28 0-2.13 1.33-3.2 4-3.2h1.45c.05 0 .08-.03.08-.1v-.45c0-.4-.1-.7-.34-.94-.23-.24-.54-.36-.95-.36-.3 0-.56.07-.77.22-.2.14-.34.34-.4.58-.03.13-.13.2-.27.2l-2.37-.14c-.08 0-.13-.02-.18-.06-.04-.04-.06-.1-.05-.15.07-.9.47-1.64 1.2-2.2.75-.55 1.68-.83 2.8-.83zm-.3 8.3c.45 0 .83-.13 1.14-.38.33-.26.48-.6.48-1v-.82c0-.06-.03-.1-.1-.1h-1.1c-.48 0-.85.1-1.13.32-.27.2-.4.5-.4.9 0 .34.1.6.3.8.2.17.5.26.83.26zm15.97-8.3c.95 0 1.68.3 2.18.9.5.62.76 1.47.76 2.57v6.52c0 .07-.03.13-.07.17-.04.05-.1.07-.16.07h-2.27c-.07 0-.12-.02-.17-.07-.04-.04-.07-.1-.07-.17v-6.13c0-.46-.1-.82-.32-1.1-.2-.26-.5-.4-.86-.4-.38 0-.68.14-.9.4-.23.28-.34.64-.34 1.08v6.16c0 .07-.02.13-.07.17-.04.05-.1.07-.16.07h-2.28c-.07 0-.13-.02-.17-.07-.05-.04-.07-.1-.07-.17v-6.13c0-.46-.1-.82-.33-1.1-.23-.26-.52-.4-.9-.4-.36 0-.67.14-.9.4-.2.28-.32.64-.32 1.08v6.16c0 .07 0 .13-.06.17-.05.05-.1.07-.17.07h-2.27c-.06 0-.12-.02-.17-.07-.04-.04-.06-.1-.06-.17v-9.6c0-.06.02-.12.06-.17.05-.05.1-.07.17-.07h2.27c.07 0 .12.02.17.06.05.04.07.1.07.16v.5c0 .05.02.08.05.1.02 0 .05 0 .08-.05.27-.32.6-.56.96-.7.35-.16.75-.23 1.16-.23.6 0 1.1.12 1.52.36.43.24.76.6 1 1.05 0 .03.02.04.05.03.03 0 .05-.02.08-.06.3-.48.66-.83 1.1-1.05.45-.22.93-.33 1.44-.33zm8.12 10.37c-1.22 0-2.2-.27-2.9-.8-.74-.54-1.1-1.25-1.1-2.12v-.16c0-.07.02-.12.07-.17.04-.05.1-.08.16-.08h2.17c.07 0 .12.02.17.04.04.03.07.06.07.1v.14c0 .3.13.52.4.7.24.2.56.28.94.28.35 0 .64-.08.85-.25.2-.16.3-.36.3-.6 0-.26-.1-.45-.34-.6-.23-.13-.6-.28-1.12-.43-.37-.1-.7-.2-.94-.32-.78-.26-1.42-.6-1.9-1.05-.5-.45-.74-1.1-.74-1.93 0-.95.34-1.7 1.04-2.27.7-.56 1.6-.84 2.74-.84 1.18 0 2.1.28 2.8.86.7.58 1.06 1.36 1.06 2.32 0 .15-.08.22-.23.22h-2.1c-.07 0-.12-.02-.17-.05-.04-.03-.07-.07-.07-.1v-.15c0-.27-.1-.5-.34-.68-.24-.18-.54-.28-.92-.28-.35 0-.64.1-.85.26-.22.17-.33.38-.33.63 0 .27.13.48.4.63.26.15.66.3 1.2.46.1.04.22.08.33.1.1.04.22.08.3.12.9.3 1.6.66 2.14 1.1.54.4.8 1.04.8 1.88 0 .94-.35 1.68-1.06 2.2-.7.55-1.65.82-2.84.82z"/><path fill="#979797" d="M63.27 346.2c-.06 0-.12-.02-.16-.07-.04-.04-.06-.1-.06-.17v-13.24c0-.07.02-.13.07-.17.05-.05.1-.07.17-.07h2.3c.06 0 .12.02.16.07.05.04.07.1.07.17v5.2c0 .05.02.07.05.1.03 0 .06 0 .07-.05l3.5-5.33c.07-.1.17-.16.28-.16h2.53c.1 0 .15.03.2.08.02.05 0 .12-.04.2l-3.64 5.62c0 .04 0 .08 0 .14l3.84 7.4c.03.06.04.1.04.12 0 .1-.07.16-.2.16H69.9c-.12 0-.2-.06-.28-.18l-2.78-5.37c0-.04-.03-.06-.06-.06-.02 0-.05 0-.08.05l-.88 1.28c-.02.05-.04.1-.04.1v3.93c0 .07-.02.13-.07.17-.04.05-.1.07-.16.07h-2.3zm14.16-10.23c.8 0 1.5.14 2.12.42.6.27 1.1.66 1.44 1.17.33.5.5 1.07.5 1.7v6.7c0 .06-.02.12-.06.16-.05.05-.1.07-.17.07h-2.3c-.06 0-.1-.02-.16-.07-.03-.04-.06-.1-.06-.17v-.52c0-.04 0-.07-.04-.08-.02-.02-.05 0-.07.04-.53.64-1.3.96-2.36.96-.87 0-1.6-.23-2.2-.7-.58-.45-.87-1.2-.87-2.28 0-2.13 1.33-3.2 4-3.2h1.45c.06 0 .1-.03.1-.1v-.45c0-.4-.12-.7-.35-.94-.23-.24-.54-.36-.95-.36-.3 0-.55.07-.76.22-.22.14-.35.34-.4.58-.05.13-.14.2-.28.2l-2.37-.14c-.07 0-.12-.02-.17-.06-.04-.04-.06-.1-.05-.15.07-.9.47-1.64 1.2-2.2.75-.55 1.68-.83 2.8-.83zm-.3 8.3c.45 0 .83-.13 1.14-.38.32-.26.47-.6.47-1v-.82c0-.06-.03-.1-.1-.1h-1.1c-.48 0-.85.1-1.13.32-.26.2-.4.5-.4.9 0 .34.1.6.3.8.22.17.5.26.84.26zm5.5 5.83c-.04 0-.07-.02-.1-.07-.02-.04-.04-.1-.04-.16v-1.8c0-.07 0-.13.03-.17.03-.05.05-.07.08-.07h.1c.74 0 1.27-.1 1.6-.32.3-.2.52-.6.62-1.24l-.02-.12-2.82-9.74-.02-.08c0-.13.07-.2.22-.2h2.45c.14 0 .23.08.25.22l1.3 5.9c0 .05.03.08.05.08.03 0 .05-.03.06-.08l1.2-5.9c.03-.14.12-.2.26-.2h2.47c.08 0 .14 0 .18.06.05.06.06.12.03.2l-2.98 10.17c-.3.96-.6 1.67-.9 2.15-.33.48-.8.83-1.37 1.05-.6.22-1.43.33-2.53.33h-.12zm17.06-3.72c-.9 0-1.7-.2-2.4-.55-.67-.37-1.2-.88-1.6-1.55-.36-.67-.55-1.44-.55-2.33v-5.22c0-.87.2-1.64.56-2.3.4-.68.93-1.2 1.6-1.56.7-.36 1.5-.55 2.4-.55.9 0 1.7.2 2.38.55.7.37 1.23.88 1.6 1.55.4.67.58 1.44.58 2.3v5.23c0 .9-.2 1.66-.57 2.33-.4.67-.92 1.18-1.62 1.55-.7.36-1.48.55-2.4.55zm0-2.38c.54 0 .98-.17 1.3-.53.33-.36.5-.83.5-1.4v-5.42c0-.58-.17-1.06-.5-1.42-.32-.36-.76-.54-1.3-.54s-.97.17-1.3.53c-.33.36-.5.84-.5 1.42v5.4c0 .6.17 1.06.5 1.42.33.36.76.53 1.3.53zm5.96-7.07c-.07 0-.13-.02-.18-.07-.05-.05-.08-.1-.08-.17l-.25-3.97c0-.15.07-.23.2-.23h2.33c.17 0 .24.08.2.23l-.24 3.96c0 .07-.03.13-.07.17-.05.04-.1.06-.2.06h-1.7zm3.57 9.27c-.06 0-.12-.02-.17-.07-.04-.04-.06-.1-.06-.17v-13.24c0-.07.02-.13.06-.17.05-.05.1-.07.17-.07h2.3c.14 0 .24.06.3.18l3.75 7.82c.03.04.05.05.08.05s.04-.04.04-.1l-.02-7.7c0-.08.02-.14.07-.18.04-.05.1-.07.16-.07h2.3c.05 0 .1.02.15.07.05.04.07.1.07.17v13.24c0 .07-.02.13-.07.17-.04.05-.1.07-.16.07h-2.34c-.12 0-.2-.06-.28-.18l-3.76-7.88c-.03-.03-.05-.05-.08-.04-.03 0-.04.03-.04.08l.04 7.78c0 .07-.02.13-.07.17-.05.05-.1.07-.17.07h-2.27zm15.08-2.2c.36 0 .66-.1.9-.27.23-.17.4-.4.54-.67.06-.14.16-.2.3-.15l1.86.4c.15.04.2.14.17.3-.26.86-.73 1.53-1.4 2.02-.67.5-1.5.74-2.5.74-1.03 0-1.9-.27-2.6-.8-.68-.53-1.13-1.23-1.34-2.1-.18-.66-.27-1.47-.27-2.45 0-.65.02-1.18.08-1.6.13-1.07.54-1.92 1.24-2.53.7-.6 1.64-.92 2.8-.92 1.27 0 2.23.33 2.9 1 .68.65 1.07 1.6 1.2 2.8.05.7.1 1.37.1 2.02 0 .16-.1.24-.25.24h-5.2c-.08 0-.1.04-.1.1 0 .28 0 .5.05.7.06.38.23.67.5.88.28.22.62.32 1.03.32zm-.23-5.66c-.7 0-1.13.38-1.27 1.14-.03.13-.05.36-.08.7 0 .07.03.1.1.1h2.55c.06 0 .1-.03.1-.1 0-.15-.03-.38-.08-.66-.07-.37-.2-.66-.43-.87-.22-.2-.52-.3-.9-.3zm7-3.17c-.5 0-.9-.16-1.2-.47-.3-.3-.46-.7-.46-1.18s.16-.88.47-1.18c.3-.3.7-.45 1.2-.45.47 0 .87.14 1.17.44.3.3.46.7.46 1.18s-.15.88-.45 1.18c-.3.3-.7.47-1.2.47zm-1.17 11.03c-.07 0-.12-.02-.17-.07-.04-.04-.07-.1-.07-.17v-9.6c0-.06.03-.12.07-.17.05-.05.1-.07.17-.07h2.3c.06 0 .1.02.16.06.05.04.07.1.07.16v9.6c0 .07-.02.13-.07.17-.05.05-.1.07-.17.07h-2.3zm4.44 0c-.07 0-.13-.02-.17-.07-.05-.04-.07-.1-.07-.17v-13.24c0-.07.02-.13.07-.17.04-.05.1-.07.17-.07h2.3c.05 0 .1.02.16.07.04.04.06.1.06.17v13.24c0 .07-.02.13-.06.17-.05.05-.1.07-.17.07h-2.3z"/><path fill="#979797" d="M61 169h48v8H61z"/></g><g id="Chart-"><path id="Shape" fill="#979797" d="M265.5 432c-17.37 0-31.5 14.13-31.5 31.5 0 17.37 14.13 31.5 31.5 31.5 17.37 0 31.5-14.13 31.5-31.5 0-17.37-14.13-31.5-31.5-31.5m0 67c-19.57 0-35.5-15.93-35.5-35.5s15.93-35.5 35.5-35.5 35.5 15.93 35.5 35.5-15.93 35.5-35.5 35.5" opacity=".3"/><path id="Shape" fill="#0EE0DC" d="M265.73 499c-7.1 0-13.98-2.1-19.85-6.06-.92-.62-1.16-1.87-.54-2.78.62-.92 1.86-1.16 2.78-.54 5.2 3.52 11.3 5.38 17.6 5.38 17.38 0 31.5-14.13 31.5-31.5 0-17.37-14.12-31.5-31.5-31.5-1.1 0-2-.9-2-2s.9-2 2-2c19.58 0 35.5 15.93 35.5 35.5S285.3 499 265.73 499"/><path fill="#0EE0DC" d="M251 472.2c-1.1 0-2.08-.22-2.92-.65-.85-.43-1.5-1.03-1.98-1.8-.47-.78-.7-1.68-.7-2.7v-1.35c0-.08.03-.15.08-.2.06-.07.13-.1.2-.1h2.92c.08 0 .15.03.2.1.06.05.1.12.1.2v1.36c0 .63.2 1.15.58 1.54.38.4.9.6 1.52.6.63 0 1.14-.2 1.54-.6.4-.4.6-.9.6-1.54v-12.12c0-.1.02-.16.08-.2.06-.07.13-.1.2-.1h2.9c.07 0 .14.03.2.1.06.04.1.1.1.2v12.1c0 1.03-.25 1.93-.72 2.7-.47.78-1.13 1.38-1.97 1.8-.85.44-1.82.66-2.93.66zm13.8 0c-1.13 0-2.13-.23-3-.7-.85-.46-1.5-1.1-1.98-1.94-.47-.84-.7-1.8-.7-2.9v-11.72c0-.1.02-.16.08-.2.06-.07.13-.1.2-.1h2.9c.1 0 .16.03.22.1.06.04.1.1.1.2v11.9c0 .7.2 1.28.58 1.7.4.44.93.66 1.6.66.65 0 1.18-.22 1.58-.65.4-.43.6-1 .6-1.7v-11.9c0-.1.02-.17.08-.22.06-.06.13-.1.2-.1h2.9c.1 0 .16.04.22.1.06.05.1.12.1.2v11.74c0 1.1-.25 2.05-.72 2.9-.47.82-1.13 1.47-2 1.93-.85.47-1.85.7-2.97.7zm8.47-.2c-.08 0-.15-.03-.2-.1-.07-.04-.1-.1-.1-.2v-16.76c0-.1.03-.16.1-.2.05-.07.12-.1.2-.1h2.93c.16 0 .28.07.35.22l4.76 9.9c.04.05.07.07.1.06.04 0 .06-.05.06-.1l-.03-9.78c0-.1.03-.16.1-.2.05-.07.12-.1.2-.1h2.88c.1 0 .16.03.22.1.05.04.08.1.08.2v16.76c0 .1-.03.16-.08.2-.06.07-.13.1-.2.1h-2.97c-.14 0-.26-.07-.34-.22l-4.75-9.97c-.04-.04-.07-.06-.1-.05-.04 0-.05.04-.05.1l.05 9.85c0 .1-.03.16-.1.2-.05.07-.12.1-.2.1h-2.88z"/></g><g id="Chart-"><path id="Shape" fill="#979797" d="M185.5 432c-17.37 0-31.5 14.13-31.5 31.5 0 17.37 14.13 31.5 31.5 31.5 17.37 0 31.5-14.13 31.5-31.5 0-17.37-14.13-31.5-31.5-31.5m0 67c-19.57 0-35.5-15.93-35.5-35.5s15.93-35.5 35.5-35.5 35.5 15.93 35.5 35.5-15.93 35.5-35.5 35.5" opacity=".3"/><path id="Shape" fill="#0EE0DC" d="M185.5 499c-19.57 0-35.5-15.93-35.5-35.5 0-1.1.9-2 2-2s2 .9 2 2c0 17.37 14.13 31.5 31.5 31.5 17.37 0 31.5-14.13 31.5-31.5 0-17.37-14.13-31.5-31.5-31.5-1.1 0-2-.9-2-2s.9-2 2-2c19.57 0 35.5 15.93 35.5 35.5S205.07 499 185.5 499"/><path fill="#0EE0DC" d="M164.6 471c-.07 0-.14-.03-.2-.1-.06-.04-.1-.1-.1-.2v-16.76c0-.1.04-.16.1-.2.06-.07.13-.1.2-.1h2.86c.17 0 .3.07.38.2l2.82 5.18c.05.07.1.07.15 0l2.86-5.18c.1-.13.2-.2.38-.2h2.85c.07 0 .14.03.2.1.06.04.1.1.1.2v16.76c0 .1-.04.16-.1.2-.06.07-.13.1-.2.1H174c-.1 0-.17-.03-.22-.1-.06-.04-.1-.1-.1-.2v-10.76c0-.07 0-.1-.04-.1-.03 0-.07.02-.1.07l-2 3.68c-.1.14-.22.2-.38.2h-.84c-.2 0-.3-.06-.38-.2l-1.98-3.7c-.03-.04-.07-.06-.1-.05-.03 0-.05.04-.05.1v10.77c0 .1-.02.16-.08.2-.05.07-.12.1-.2.1h-2.9zm24.46 0c-.16 0-.27-.08-.32-.25l-.57-2.43c0-.06-.06-.1-.12-.1h-4.64c-.06 0-.1.04-.1.1l-.58 2.43c-.05.17-.17.25-.35.25h-3c-.22 0-.3-.1-.25-.32l4.46-16.8c.05-.16.17-.24.35-.24h3.6c.18 0 .3.08.34.25l4.5 16.78.02.1c0 .15-.1.22-.28.22h-3.06zm-5.08-5.63c-.02.05 0 .1.03.1.04.04.07.05.1.05h3.28c.03 0 .06 0 .1-.04.03-.02.04-.06.02-.1l-1.66-7.05c-.02-.07-.04-.1-.07-.1-.04.02-.06.05-.08.1l-1.72 7.04zm14.34 5.6c-.1 0-.16-.02-.22-.08-.05-.07-.08-.14-.08-.22v-6.35l-.03-.15-4.3-10.2c0-.03-.02-.08-.02-.14 0-.13.08-.2.25-.2h3.12c.18 0 .3.08.35.25l2.3 6.26c.02.05.05.08.08.08s.06-.03.07-.08l2.3-6.27c.06-.18.17-.26.36-.26h3.13c.12 0 .2.03.22.1.04.07.04.15 0 .25l-4.3 10.18-.04.15v6.35c0 .08 0 .15-.07.2-.06.07-.13.1-.2.1h-2.9z"/></g><g><path id="Shape" fill="#979797" d="M105.5 432C88.13 432 74 446.13 74 463.5c0 17.37 14.13 31.5 31.5 31.5 17.37 0 31.5-14.13 31.5-31.5 0-17.37-14.13-31.5-31.5-31.5m0 67C85.93 499 70 483.07 70 463.5S85.93 428 105.5 428s35.5 15.93 35.5 35.5-15.93 35.5-35.5 35.5" opacity=".3"/><path fill="#0EE0DC" d="M105.5 499C85.93 499 70 483.07 70 463.5c0-6.58 1.8-13 5.24-18.58.58-.94 1.8-1.23 2.76-.65.94.57 1.23 1.8.65 2.75C75.6 451.96 74 457.66 74 463.5c0 17.37 14.13 31.5 31.5 31.5 17.37 0 31.5-14.13 31.5-31.5 0-17.37-14.13-31.5-31.5-31.5-1.1 0-2-.9-2-2s.9-2 2-2c19.57 0 35.5 15.93 35.5 35.5S125.07 499 105.5 499"/><path fill="#0EE0DC" d="M94.6 472c-.18 0-.28-.08-.33-.25l-.57-2.43c-.02-.06-.06-.1-.13-.1h-4.63c-.07 0-.1.04-.13.1l-.56 2.43c-.05.17-.16.25-.35.25h-3c-.22 0-.3-.1-.26-.32l4.47-16.8c.06-.16.17-.24.36-.24h3.6c.17 0 .3.08.34.25l4.5 16.78v.1c0 .15-.08.22-.26.22H94.6zm-5.1-5.63c0 .05 0 .1.03.1.03.04.07.05.1.05h3.27c.04 0 .07 0 .1-.04.04-.02.04-.06.03-.1l-1.66-7.05c-.02-.07-.05-.1-.08-.1-.04.02-.07.05-.08.1l-1.7 7.04zm16.57-11.75c1 0 1.87.22 2.64.66.78.45 1.38 1.08 1.8 1.9.42.8.63 1.73.63 2.77 0 1.02-.2 1.93-.63 2.7-.42.8-1.02 1.4-1.8 1.84-.76.42-1.64.63-2.63.63h-2.68c-.1 0-.13.04-.13.12v6.45c0 .1-.03.16-.1.2-.05.07-.12.1-.2.1h-2.9c-.08 0-.15-.03-.2-.1-.07-.04-.1-.1-.1-.2v-16.8c0-.07.03-.14.1-.2.05-.06.12-.08.2-.08h6zm-.57 7.73c.65 0 1.16-.2 1.55-.63.4-.42.58-1 .58-1.7 0-.73-.2-1.3-.58-1.73-.4-.44-.9-.66-1.55-.66h-2.1c-.1 0-.13.04-.13.12v4.47c0 .08.04.12.12.12h2.1zm15.68 9.65c-.2 0-.3-.08-.35-.25l-2.5-6.84c-.04-.06-.08-.1-.13-.1h-1.56c-.1 0-.13.05-.13.13v6.77c0 .1-.02.16-.07.2-.06.07-.13.1-.2.1h-2.92c-.07 0-.14-.03-.2-.1-.06-.04-.08-.1-.08-.2v-16.8c0-.07.02-.14.08-.2s.13-.08.2-.08h6.06c.98 0 1.85.2 2.6.65.77.44 1.36 1.06 1.77 1.85.4.8.62 1.7.62 2.73 0 1.06-.24 1.98-.7 2.76-.48.8-1.14 1.38-1.98 1.76-.06.03-.08.1-.05.18l2.83 7.1c.02.05.02.1.02.14 0 .15-.1.22-.27.22h-3.02zm-4.54-14.36c-.1 0-.13.04-.13.12v4.22c0 .08.05.12.14.12h2.15c.6 0 1.1-.2 1.48-.6.38-.4.57-.94.57-1.6 0-.7-.2-1.25-.57-1.65-.38-.4-.87-.6-1.5-.6h-2.14z"/></g><g><path fill="#979797" d="M163.26 580.2c.56 0 1.05.1 1.5.36.42.26.76.6 1 1.07.23.46.35.98.35 1.57 0 .57-.1 1.1-.34 1.53-.24.44-.58.8-1 1.03-.45.24-.94.36-1.5.36h-1.52c-.04 0-.07.03-.07.07v3.63c0 .05 0 .1-.04.12-.04.03-.08.05-.12.05h-1.63c-.05 0-.1-.02-.12-.05-.03-.03-.05-.07-.05-.12v-9.48c0-.04.02-.08.05-.1.03-.05.07-.06.12-.06h3.4zm-.33 4.35c.37 0 .66-.1.88-.35.23-.24.34-.56.34-.96 0-.4-.1-.74-.33-.98-.2-.24-.5-.37-.87-.37h-1.2c-.03 0-.06.02-.06.06v2.52c0 .05.03.07.07.07h1.2zm9.48 5.45c-.08 0-.14-.05-.17-.14l-.32-1.37c0-.05-.02-.07-.06-.07h-2.62c-.04 0-.06.02-.07.06l-.32 1.36c-.03.1-.1.14-.2.14h-1.7c-.1 0-.16-.06-.13-.18l2.52-9.48c.03-.1.1-.14.2-.14h2.02c.1 0 .17.05.2.14l2.53 9.48.02.05c0 .1-.06.13-.17.13h-1.72zm-2.86-3.18c0 .03 0 .05.02.07 0 0 .03 0 .05 0h1.86c.02 0 .04 0 .06 0 0-.03.02-.05 0-.08l-.93-3.97c-.02-.04-.03-.06-.05-.05-.02 0-.03.02-.04.05l-.96 3.97zm6 3.18c-.04 0-.08-.02-.1-.05-.04-.03-.06-.07-.06-.12v-9.46c0-.05.02-.1.05-.12.03-.03.07-.05.12-.05h1.64c.03 0 .07.02.1.05.04.03.05.07.05.12v9.46c0 .05 0 .1-.05.12-.03.03-.07.05-.1.05h-1.65zm3.45 0c-.05 0-.1-.02-.13-.05-.03-.03-.05-.07-.05-.12v-9.46c0-.05.02-.1.05-.12.04-.03.08-.05.12-.05h3c.63 0 1.18.12 1.66.35.48.23.85.56 1.1 1 .28.42.4.92.4 1.5v4.1c0 .58-.12 1.08-.4 1.5-.25.44-.62.77-1.1 1-.48.23-1.03.35-1.66.35h-3zm1.8-1.76c0 .04.02.07.07.07h1.15c.34 0 .62-.13.84-.38.2-.25.32-.58.33-1v-3.65c0-.42-.12-.76-.33-1-.2-.25-.5-.38-.85-.38h-1.15c-.05 0-.07.02-.07.06v6.28zm13.93-.65c0 .76-.27 1.37-.8 1.83-.53.45-1.24.68-2.1.68-.85 0-1.54-.22-2.06-.67-.52-.46-.78-1.07-.78-1.82v-.4c0-.05 0-.1.04-.12.03-.03.07-.05.12-.05h1.63c.04 0 .08.02.1.05.05.03.06.07.06.12v.2c0 .3.08.53.25.72.17.18.37.27.62.27.27 0 .5-.1.66-.3.17-.18.26-.4.26-.7v-1.38c0-.02 0-.04-.03-.04 0 0-.03 0-.04.02-.34.3-.76.46-1.28.46-.5 0-.92-.12-1.3-.36-.35-.24-.63-.57-.8-1-.33-.5-.5-1.1-.5-1.8 0-.65.14-1.2.4-1.67.2-.5.53-.87.97-1.14.44-.27.98-.4 1.6-.4.62 0 1.14.13 1.58.4.44.24.76.6.98 1.1l.04.07c.25.42.37.93.37 1.54l.03 4.4zm-2.13-3.33c.1-.23.14-.55.14-.95 0-.32-.03-.6-.1-.82-.13-.47-.42-.7-.87-.7-.43 0-.73.23-.88.7-.07.26-.1.54-.1.84 0 .37.04.68.13.93.15.4.43.6.84.6.4 0 .68-.2.83-.6zm8.64.65c.3.56.46 1.22.46 2 0 .67-.14 1.27-.43 1.8-.24.44-.57.78-1 1.02-.44.24-.95.36-1.55.36-.73 0-1.34-.18-1.84-.53-.5-.36-.82-.87-1-1.53-.06-.2-.1-.4-.1-.6v-.03c0-.08.05-.13.15-.13h1.67c.1 0 .17.06.18.17.02.1.04.18.06.22.06.24.17.43.32.56.15.12.33.18.56.18.22 0 .4-.06.57-.2.15-.13.25-.32.3-.55.07-.2.1-.44.1-.73 0-.3-.03-.56-.1-.78-.07-.23-.17-.4-.32-.5-.15-.12-.34-.18-.56-.18-.44 0-.74.2-.9.55-.03.1-.1.15-.18.15h-1.7c-.04 0-.08-.02-.1-.05-.05-.03-.06-.07-.06-.12v-5.6c0-.06 0-.1.05-.13.03-.03.07-.05.12-.05h5.34c.04 0 .08.02.1.05.05.03.06.07.06.12v1.36c0 .04 0 .08-.05.12-.02.03-.06.04-.1.04h-3.48c-.04 0-.07.02-.07.06v2.2c0 .03 0 .05.02.05 0 .02.03 0 .05 0 .38-.3.82-.44 1.35-.44.47 0 .88.1 1.24.3.36.2.63.48.84.86zm3.78-.42c-.4 0-.77-.1-1.1-.3-.34-.2-.6-.46-.8-.8-.2-.34-.3-.7-.3-1.1 0-.42.1-.78.3-1.12.2-.34.46-.6.8-.8.33-.2.7-.3 1.1-.3.4 0 .77.1 1.1.3.34.2.6.46.8.8.2.34.3.7.3 1.1 0 .4-.1.78-.3 1.12-.2.34-.46.6-.8.8-.33.2-.7.3-1.1.3zm-.56 5.5c-.07 0-.1-.02-.13-.06-.02-.03 0-.08.02-.14l5.18-9.5c.04-.06.1-.1.2-.1h1.06c.05 0 .1.02.1.06.03.03.03.08 0 .14l-5.18 9.5c-.05.06-.12.1-.2.1h-1.06zm.56-6.52c.32 0 .6-.12.8-.35.23-.24.35-.52.35-.84 0-.34-.12-.62-.34-.85-.22-.23-.5-.34-.8-.34-.33 0-.6.12-.82.35-.22.23-.33.5-.33.84 0 .32.1.6.33.83.22.23.5.35.82.35zm5.3 6.65c-.4 0-.77-.1-1.1-.3-.34-.2-.6-.48-.8-.82-.2-.33-.3-.7-.3-1.1 0-.4.1-.77.3-1.1.2-.34.46-.6.8-.8.33-.2.7-.3 1.1-.3.4 0 .77.1 1.1.3.35.2.6.46.8.8.2.33.3.7.3 1.1 0 .4-.1.77-.3 1.1-.2.35-.45.62-.8.83-.33.2-.7.3-1.1.3zm0-1.04c.32 0 .6-.13.82-.36.22-.23.33-.5.33-.84 0-.33-.1-.6-.33-.83-.23-.23-.5-.35-.82-.35-.3 0-.58.12-.8.35-.23.23-.34.5-.34.83 0 .34.1.62.32.85.22.23.5.34.82.34z" opacity=".6"/><path fill="#454546" d="M52 560h268v8H52z" opacity=".15"/><path fill="#0EE0DC" d="M55 560c1.66 0 3 1.34 3 3v2c0 1.66-1.34 3-3 3s-3-1.34-3-3v-2c0-1.66 1.34-3 3-3zm8 0c1.66 0 3 1.34 3 3v2c0 1.66-1.34 3-3 3s-3-1.34-3-3v-2c0-1.66 1.34-3 3-3zm8 0c1.66 0 3 1.34 3 3v2c0 1.66-1.34 3-3 3s-3-1.34-3-3v-2c0-1.66 1.34-3 3-3zm7 0c1.66 0 3 1.34 3 3v2c0 1.66-1.34 3-3 3s-3-1.34-3-3v-2c0-1.66 1.34-3 3-3zm8 0c1.66 0 3 1.34 3 3v2c0 1.66-1.34 3-3 3s-3-1.34-3-3v-2c0-1.66 1.34-3 3-3zm8 0c1.66 0 3 1.34 3 3v2c0 1.66-1.34 3-3 3s-3-1.34-3-3v-2c0-1.66 1.34-3 3-3zm8 0c1.66 0 3 1.34 3 3v2c0 1.66-1.34 3-3 3s-3-1.34-3-3v-2c0-1.66 1.34-3 3-3zm7 0c1.66 0 3 1.34 3 3v2c0 1.66-1.34 3-3 3s-3-1.34-3-3v-2c0-1.66 1.34-3 3-3zm8 0c1.66 0 3 1.34 3 3v2c0 1.66-1.34 3-3 3s-3-1.34-3-3v-2c0-1.66 1.34-3 3-3zm8 0c1.66 0 3 1.34 3 3v2c0 1.66-1.34 3-3 3s-3-1.34-3-3v-2c0-1.66 1.34-3 3-3zm8 0c1.66 0 3 1.34 3 3v2c0 1.66-1.34 3-3 3s-3-1.34-3-3v-2c0-1.66 1.34-3 3-3zm7 0c1.66 0 3 1.34 3 3v2c0 1.66-1.34 3-3 3s-3-1.34-3-3v-2c0-1.66 1.34-3 3-3zm8 0c1.66 0 3 1.34 3 3v2c0 1.66-1.34 3-3 3s-3-1.34-3-3v-2c0-1.66 1.34-3 3-3zm8 0c1.66 0 3 1.34 3 3v2c0 1.66-1.34 3-3 3s-3-1.34-3-3v-2c0-1.66 1.34-3 3-3zm8 0c1.66 0 3 1.34 3 3v2c0 1.66-1.34 3-3 3s-3-1.34-3-3v-2c0-1.66 1.34-3 3-3zm8 0c1.66 0 3 1.34 3 3v2c0 1.66-1.34 3-3 3s-3-1.34-3-3v-2c0-1.66 1.34-3 3-3zm7 0c1.66 0 3 1.34 3 3v2c0 1.66-1.34 3-3 3s-3-1.34-3-3v-2c0-1.66 1.34-3 3-3zm8 0c1.66 0 3 1.34 3 3v2c0 1.66-1.34 3-3 3s-3-1.34-3-3v-2c0-1.66 1.34-3 3-3zm8 0c1.66 0 3 1.34 3 3v2c0 1.66-1.34 3-3 3s-3-1.34-3-3v-2c0-1.66 1.34-3 3-3zm8 0c1.66 0 3 1.34 3 3v2c0 1.66-1.34 3-3 3s-3-1.34-3-3v-2c0-1.66 1.34-3 3-3zm7 0c1.66 0 3 1.34 3 3v2c0 1.66-1.34 3-3 3s-3-1.34-3-3v-2c0-1.66 1.34-3 3-3zm8 0c1.66 0 3 1.34 3 3v2c0 1.66-1.34 3-3 3s-3-1.34-3-3v-2c0-1.66 1.34-3 3-3zm8 0c1.66 0 3 1.34 3 3v2c0 1.66-1.34 3-3 3s-3-1.34-3-3v-2c0-1.66 1.34-3 3-3zm8 0c1.66 0 3 1.34 3 3v2c0 1.66-1.34 3-3 3s-3-1.34-3-3v-2c0-1.66 1.34-3 3-3zm7 0c1.66 0 3 1.34 3 3v2c0 1.66-1.34 3-3 3s-3-1.34-3-3v-2c0-1.66 1.34-3 3-3zm8 0c1.66 0 3 1.34 3 3v2c0 1.66-1.34 3-3 3s-3-1.34-3-3v-2c0-1.66 1.34-3 3-3zm8 0c1.66 0 3 1.34 3 3v2c0 1.66-1.34 3-3 3s-3-1.34-3-3v-2c0-1.66 1.34-3 3-3zm8 0c1.66 0 3 1.34 3 3v2c0 1.66-1.34 3-3 3s-3-1.34-3-3v-2c0-1.66 1.34-3 3-3zm7 0c1.66 0 3 1.34 3 3v2c0 1.66-1.34 3-3 3s-3-1.34-3-3v-2c0-1.66 1.34-3 3-3zm8 0c1.66 0 3 1.34 3 3v2c0 1.66-1.34 3-3 3s-3-1.34-3-3v-2c0-1.66 1.34-3 3-3zm8 0c1.66 0 3 1.34 3 3v2c0 1.66-1.34 3-3 3s-3-1.34-3-3v-2c0-1.66 1.34-3 3-3zm8 0c1.66 0 3 1.34 3 3v2c0 1.66-1.34 3-3 3s-3-1.34-3-3v-2c0-1.66 1.34-3 3-3z"/></g><path fill="#0EE0DC" fill-rule="nonzero" d="M85 641.5v-32h200v32z"/><path fill="#F4F4F5" d="M127.25 631.13c-.73 0-1.36-.13-1.9-.4-.56-.26-1-.62-1.3-1.1-.28-.47-.43-1.02-.43-1.64v-.44c0-.05 0-.1.05-.14.04-.03.08-.05.14-.05h1.85c.05 0 .1.02.13.05.04.04.06.1.06.14v.32c0 .37.14.7.42.94.27.25.64.37 1.08.37.42 0 .74-.1.96-.33.2-.2.32-.48.32-.8 0-.26-.07-.47-.2-.65-.14-.17-.34-.34-.6-.5-.24-.15-.63-.36-1.15-.62-.64-.32-1.16-.62-1.57-.9-.4-.28-.75-.63-1.04-1.07-.28-.44-.43-.97-.43-1.6 0-.92.32-1.67.96-2.23.63-.55 1.47-.83 2.52-.83.7 0 1.35.14 1.9.4.56.28 1 .66 1.3 1.15.3.5.46 1.06.46 1.7v.32c0 .05 0 .1-.05.14-.04.03-.08.05-.14.05h-1.85c-.05 0-.1-.02-.13-.05-.04-.04-.06-.1-.06-.14v-.3c0-.37-.13-.7-.4-.95-.27-.26-.62-.4-1.07-.4-.4 0-.7.1-.92.3-.2.2-.32.48-.32.83 0 .24.06.46.2.64.12.18.3.35.58.52.27.15.67.37 1.2.64l.35.2c.6.34 1.1.64 1.44.9.35.24.64.56.87.94.25.37.36.84.36 1.38 0 .96-.33 1.73-1 2.3-.65.58-1.52.87-2.6.87zm15.35-9.6c0 .07-.02.1-.05.15-.04.04-.1.06-.14.06h-4.28c-.05 0-.08.02-.08.08v2.5c0 .05.03.07.08.07h2.67c.05 0 .1 0 .13.05.04.04.06.08.06.13v1.56c0 .05-.03.1-.07.13-.04.04-.08.06-.14.06h-2.68c-.05 0-.08.02-.08.08V629c0 .06.03.08.08.08h4.3c.04 0 .1.02.13.06.03.04.05.08.05.14v1.55c0 .06-.02.1-.05.14-.04.04-.1.06-.14.06H136c-.06 0-.1-.02-.14-.06-.04-.03-.05-.08-.05-.13V620c0-.06 0-.1.04-.14.04-.04.08-.06.14-.06h6.43c.06 0 .1.02.15.06.03.03.05.08.05.13v1.54zm5.15 9.47c-.06 0-.1-.02-.14-.06-.03-.03-.05-.08-.05-.13V620c0-.06.02-.1.06-.14.05-.04.1-.06.15-.06h1.88c.1 0 .2.05.23.14l3.07 6.4c.02.02.04.03.06.03.02 0 .03-.03.03-.07L153 620c0-.06.03-.1.07-.14.03-.04.08-.06.13-.06h1.86c.05 0 .1.02.13.06.03.03.05.08.05.13v10.8c0 .06-.02.1-.06.14-.04.04-.1.06-.14.06h-1.9c-.1 0-.18-.05-.23-.14l-3.07-6.44c-.02-.03-.04-.04-.07-.04-.03 0-.04.03-.04.08l.03 6.35c0 .06-.02.1-.06.14-.04.04-.08.06-.14.06h-1.85zm12.92 0c-.06 0-.1-.02-.14-.06-.04-.03-.05-.08-.05-.13V620c0-.06 0-.1.05-.14.04-.04.08-.06.14-.06h3.44c.72 0 1.35.13 1.9.4.55.27.98.65 1.28 1.14.3.5.44 1.06.44 1.7v4.7c0 .66-.15 1.23-.44 1.72-.3.5-.73.87-1.28 1.14-.55.27-1.18.4-1.9.4h-3.43zm2.06-2.02c0 .06.03.08.08.08h1.32c.4 0 .72-.15.96-.44.25-.28.38-.65.4-1.12v-4.2c0-.48-.13-.86-.38-1.14-.25-.28-.57-.42-.98-.42h-1.3c-.06 0-.1.02-.1.08v7.16zm22.15 2.02c-.12 0-.2-.05-.23-.16l-1.6-4.42c-.03-.04-.06-.06-.1-.06h-1c-.05 0-.08.03-.08.08v4.37c0 .06-.02.1-.06.14-.02.04-.07.06-.12.06h-1.87c-.05 0-.1-.02-.13-.06-.04-.03-.06-.08-.06-.13V620c0-.06.03-.1.07-.14.04-.04.08-.06.14-.06h3.9c.64 0 1.2.15 1.7.43.48.3.86.7 1.13 1.2.26.5.4 1.1.4 1.76 0 .68-.16 1.28-.46 1.78-.3.5-.73.9-1.27 1.13-.04.02-.05.06-.03.1l1.82 4.6c0 .03 0 .05 0 .1 0 .08-.05.13-.17.13h-1.95zm-2.93-9.26c-.05 0-.08.02-.08.08v2.72c0 .05.03.08.08.08h1.4c.4 0 .7-.13.95-.4.25-.26.37-.6.37-1.03 0-.46-.12-.8-.37-1.07-.24-.26-.56-.4-.96-.4h-1.4zm16.76-.2c0 .06 0 .1-.04.14-.04.04-.1.06-.14.06h-4.3c-.04 0-.07.02-.07.08v2.5c0 .05.03.07.08.07h2.67c.06 0 .1 0 .14.05.04.04.06.08.06.13v1.56c0 .05-.02.1-.06.13-.04.04-.08.06-.14.06h-2.67c-.05 0-.08.02-.08.08V629c0 .06.03.08.08.08h4.3c.04 0 .1.02.13.06.03.04.05.08.05.14v1.55c0 .06 0 .1-.04.14-.04.04-.1.06-.14.06h-6.43c-.07 0-.1-.02-.15-.06-.04-.03-.05-.08-.05-.13V620c0-.06 0-.1.05-.14.04-.04.08-.06.14-.06h6.42c.05 0 .1.02.14.06.03.03.05.08.05.13v1.54zm8.98-1.76c.64 0 1.2.15 1.7.44.5.28.9.7 1.16 1.2.27.53.4 1.13.4 1.8 0 .67-.13 1.25-.4 1.76-.27.5-.66.9-1.15 1.17-.5.28-1.08.42-1.72.42h-1.73c-.05 0-.08.02-.08.08v4.16c0 .06-.02.1-.05.14-.04.04-.1.06-.14.06h-1.87c-.04 0-.1-.02-.13-.06-.03-.03-.05-.08-.05-.13V620c0-.06.02-.1.05-.14.04-.04.1-.06.14-.06h3.88zm-.37 5c.43 0 .76-.14 1-.4.26-.28.4-.65.4-1.1 0-.48-.14-.85-.4-1.13-.24-.28-.57-.4-1-.4h-1.35c-.05 0-.08 0-.08.07v2.88c0 .05.03.08.08.08h1.36zm11.97 6.36c-.73 0-1.38-.15-1.94-.44-.56-.3-1-.72-1.3-1.27-.3-.54-.47-1.18-.47-1.9v-4.26c0-.7.16-1.34.47-1.9.3-.53.74-.95 1.3-1.25.56-.3 1.2-.45 1.94-.45s1.4.15 1.96.45c.56.3 1 .72 1.3 1.26.32.55.47 1.18.47 1.9v4.25c0 .72-.15 1.36-.46 1.9-.3.55-.75.97-1.3 1.27-.58.3-1.23.44-1.97.44zm0-1.93c.45 0 .8-.14 1.08-.43.26-.3.4-.68.4-1.15v-4.4c0-.5-.14-.88-.4-1.17-.27-.3-.63-.44-1.08-.44-.43 0-.78.15-1.05.45-.27.3-.4.68-.4 1.16v4.42c0 .47.13.85.4 1.15.27.3.62.44 1.05.44zm14.1 1.8c-.12 0-.2-.05-.23-.16l-1.62-4.42c-.02-.04-.04-.06-.08-.06h-1c-.06 0-.08.03-.08.08v4.37c0 .06-.02.1-.06.14-.04.04-.08.06-.14.06h-1.87c-.06 0-.1-.02-.14-.06-.04-.03-.06-.08-.06-.13V620c0-.06.02-.1.06-.14.03-.04.08-.06.13-.06h3.9c.63 0 1.2.15 1.68.43.5.3.87.7 1.13 1.2.28.5.4 1.1.4 1.76 0 .68-.14 1.28-.44 1.78s-.73.9-1.28 1.13c-.04.02-.05.06-.03.1l1.83 4.6c0 .03 0 .05 0 .1 0 .08-.05.13-.16.13h-1.96zm-2.93-9.26c-.06 0-.08.02-.08.08v2.72c0 .05.02.08.08.08h1.4c.38 0 .7-.13.95-.4.23-.26.36-.6.36-1.03 0-.46-.13-.8-.37-1.07-.26-.26-.58-.4-.97-.4h-1.4zm16.9-1.94c.04 0 .08.02.12.06.04.03.06.08.06.13v1.56c0 .05-.02.1-.06.14-.04.03-.08.05-.13.05h-2.44c-.06 0-.1.03-.1.08v8.98c0 .06 0 .1-.04.14-.04.04-.1.06-.14.06h-1.87c-.05 0-.1-.02-.14-.06-.02-.03-.04-.08-.04-.13v-8.97c0-.05-.03-.08-.08-.08h-2.35c-.06 0-.1-.02-.14-.05-.05-.04-.07-.1-.07-.14V620c0-.06.02-.1.06-.14.03-.04.07-.06.13-.06h7.2z"/></g><path fill="#D6D6D6" d="M154 48h62v6h-62z"/><circle cx="186.5" cy="732.5" r="28.5" fill="url(#c)" stroke="url(#b)" stroke-width="3"/></g></g></g></g></svg>