<svg xmlns="http://www.w3.org/2000/svg" width="1200" height="648"><title>Fill 1</title><desc>Created with Sketch.</desc><g fill="none" opacity=".15"><g fill="#F9FFFE"><g><path d="M912.25 425.54c.57.47.92.44 1.6.38.38-.04.62.9 1 1.3.47.54.2.93.82 1.46.62.5 1.2.85 1.92.84-.57-.66-.46-1.3.3-1.92-2.85.1-1.4-4.14-3.7-3.93.04.33.1.64.15.95-.98-1.5-1.4 0-2.1.92zm28.4 20.85c-1.63.37-3.94-.9-3.47-3.12-1.16.54-4.16.26-4.95-.75-.96-1.2-1.5-.57-1.88.74-.24.76-1.14.3-1.78.24-2.5-.24-4.3.28-5.68-2.08-.2-.37-3.62-1.14-4.35-1.62-.4 1.2-1.4.46-2.38.2-1-.2-1.04.2-1.75 1.03-2.08 2.42.7 2.62 2.44 3.02-.06.34-.14.68-.2 1 2.1.4 4.03 1.6 5.98 2 1 .2 2.2-.57 3.24-.48 1 .1 2.16.8 3.12 1.13.86.32 1.76.78 2.65.9.73.07 1.44.18 2.15.26.45.06.63-.58.97-.56 2.12.2 2.97.9 5.14.48 1.3.56 2.62 1.14 3.9 1.72-1.54-2 .46-4.92-3.15-4.1zM921.6 427.3c-1.8-1.4-1.12 2.24-1 2.84 2.37.77 2.48-1.67 1-2.84zm-7.38 12.48c.54-2.76-.04-6.4.82-8.88 1-2.92-2.53-5.16-4.5-2.77 1.55-1.56.04-1.5-.2-2.8-.14-.7-.24-3.04-.84-3.3-.7-.3-2.5-.58-2.62-1.46-.22-1.38 1-1.8.8-2.84-.3-1.52-2.33-1.36-2.33-2.3 0-1.74-.65-.94-1.78-1.82-1.12-.87.2-1.15-1.75-1.52-1.2-.2-2.02-.1-2.76-1.1-1.37-1.9-3.45-2.5-5.13-4.12-1.4-1.33-3.67-2.82-4.85-4.4-1.55-2.23-1.1-3.34-4-3.68-.92-.1-5.3-1.77-5.74-1.12-.7 1.04 2.77 5.4 3.38 5.93 1.35 1.2 4.27 1.76 4.36 4.27.1 2.8 3.35 2.24 4.03 4.8.4 1.5.82 3 1.22 4.52.3 1.05 1.28.68 1.93 1.36 1.57 1.64 2.53 5.56 3.5 7.68.88 1.93 2.4 3.26 3.78 4.8 2.82 3.1 5.66 6.12 8.86 9.07-.04-.62.22-1.28.2-1.9 1.5 1.85 2.42-.86 3.62 1.57zm13.48-90.23c.82-.37 2.37-.4 2.54-1.65.2-1.13.45-2.78 1.65-2.7.23-1.14-.1-2.02-1.17-2.2-.05.26-.12.54-.17.8-3.05-1.7-4.54 1.1-6.66 2.46-.02 2.14-.38 2.58 1.34 3.56.7.44 1 .5 1.85.55.9.07.05-.6.6-.83zm-439.5-249.5c-.4-1.57-2-5.2-1.46-6.76 1.38-3.95 2.2-8.96 4.96-12 1.82-2.04 3.67-4.07 5.53-6.12.5-.55-.78-5.24-.9-6.02-.3-1.78-.1-4.6-1.6-5.6-1.84-1.27-3.7-2.54-5.54-3.8 2.68-2.64 5.38-5.28 8.08-7.92-2.84-1.92-4.68-2.7-6.06-6-1.06-2.53 2.22-5.82 3.52-7.96 1.44-2.38 4.14-3.36 6.3-4.87 2.43-1.67 4.35-3.3 6.3-5.6-.7-.6-1.4-1.22-2.1-1.8 2.48-.52 5.33-.6 7.58-1.9 2.8-1.64 5.64-3.26 8.46-4.9-3.1-1.2-6.52-3.23-9.75-3.8-2.35-.42-7.2-.93-8.8 1.08-1.03 1.3-1.75 3.17-3.38 2.9-1.95-.32-3.9-.66-5.85-.98-2.22-.37-6.66 2.7-8.8 3.62.33-.65 4.48-7.2 1.5-7.28-2.58-.1-5.05.42-7.2-1.32 3.5-1.26 7-2.53 10.5-3.8-6.83-3-12.9-6.08-20.15-7.1C461.25 1 453.55-.52 445.43.2c-2.9.25-5.8.52-8.7.77-1 .08-3.02-.18-3.92.35-1.38.8-1.57 4-3.4 3.68-2.32-.4-4.62-.82-6.96-1.22-2.82-.5-6.2-1.95-8.88-.74-3.93 1.8-7.86 3.6-11.8 5.4 3.72 2.37 7.8 4.1 10.2 8.08-6.63-2.44-12.8-4.38-19.7-5.77-2.1-.42-5.16.66-7.26.93-4.77.63-9.52 1.27-14.28 1.9-2.08.27-5.36 0-7.3 1-2.7 1.4-5.4 2.8-8.1 4.2-6.65 3.42-13.32 6.86-19.95 10.28 2.44 2.7 5.42 2.27 8.83 2.65-.73 1.86-1.47 3.73-2.2 5.6-.82 2.1-1.12 1.7-3.24 1.8-3.1.16-5.58.82-8.6 1.66-3.88 1.13-7.77 2.25-11.66 3.36-.92.27-.9 2.6-1.1 3.56-.16.72 1.63 2.5 2.03 3.02 1.16 1.6 2.63 4.74 4.28 5.72 2.3 1.34 4.55 2.68 6.83 4.02 1.14.68 4.33 3.45 5.64 3.27 2.57-.3 5.15-.65 7.7-.97 4.63-.6 8.68.34 13.3 1.12 2.36.4 4.72.8 7.07 1.2 1.15.18 3.57 4.5 4.32 5.48 3.18 4.08 4.9 8.94 7.05 13.78 1.18 2.62 1.55 2.87.64 5.56-.85 2.5-2.26 4.05-.46 5.98 1.88 2 4.23 3.1 3.53 6-.68 2.83-1.85 4.4.05 6.48 2.38 2.64 2.22 2.6 5.44 1.65 2.33-.7 4.67-1.38 7-2.07-.2 1.77-.43 3.5-.65 5.27-.06.58-2.25 1.13-2.72 1.3-1.62.7-3.23 1.4-4.85 2.08-.36.15-.4 2.47-.44 2.85-.3 2.35-1.6 6.4-.82 8.64 1.2 3.32 2.38 6.63 3.57 9.96 1.9 5.38 5.28 9.77 8.3 14.5 1.8 2.8 3.56 5.6 5.36 8.4.88 1.38 3.4 1.64 4.8 2.15 2.86 1.06 5.7 2.1 8.55 3.14.7.25 4.65.34 4.78-.13 1.77-5.52 3.54-11.05 5.32-16.6 1.4-4.43 2.97-8.75 4.57-13.1.86-2.36.76-2.4 2.93-3.12 2.87-.93 5.73-1.87 8.6-2.8 1.77-.6 4.4-.9 6.02-1.98 1.8-1.23 3.4-4.25 4.82-6 1.26-1.57 1.74-2.56 3.5-3.02 2.7-.73 5.38-1.45 8.06-2.16 3.86-1.03 8.6-1.44 12.1-3.6 4.38-2.67 8.74-5.33 13.1-8 2.08-2.54 2.24-2.44 1.5-5.64zm21.74 41.38c1.83.52 2.98-.95 2.9-3 1.5.83 2.3-.66 3.34-1.68-1.23-.83-.3-2.57-.92-2.96-1.25-.72-2.25-1.65-3.73-1.1 1.8-3.05-7-6.63-5.45-2.65-2.64-.27-3.33 1.05-5.87-.1.16.97.28 1.9.43 2.86-1-1.43-1.3-2.62-2.96-2.66-1.34-.04-1.85 1.47-1.42 2.7-.95-1-1.78-2.66-3.2-2.34 1.12 2.65-.33 1.32-1.05 2.5-.55.92-.88 2.08-1.32 3.08-.7-1.04-1.38-2.06-1.97-3.2.64.17 1.5-.27 1.43-1.2-.06-.7-1.54-1-1.9-1.3-1.94-1.67-1.82-2.07-4.33-2.03.33 1.25 1.22 1 2.33 1.2.35 3.26-2.97-.38-4.02.9-1.25 1.55 1.04 1.5.66 2.25-.4.74-1.47.16-2.1-.22 0 .35-.02.72-.03 1.07-.95-.15-.77.14-1.52.54 2.16.92 2.77.48 4.98-.4 1.04-.4 3.2.63 4.3.88-.9.44-1.8.9-2.7 1.33.84.47 1.74.64 2.58.22.02.24.05.48.07.74-2.62-.07-5.24 1-7.6.96.4 1.94 4.67.98 6.12.98-.77.85-.32 1.56.75 1.4-.06.28-.1.55-.16.82.28.03.55.06.82.1-.65 1.88-3.82 1.3-3.02 3.45 2.08-.26 4.15-.54 6.22-.8.55-.07 1.04 1.43 1.5 1.7.68.45 2.04.47 2.8.64 1.7.4 3.1.54 4.77-.3.8-.4.6-1.1 1.6-1.23.96-.13 1.94-.27 2.88-.4 1.12-.7 3.6-3.06 4.84-2.72zM318.17 350.6c.77.1 2-.34 2.7 0 .52.27.3 2.66 1.7 2.17.63-.22.63-2.4 1.2-2.8 1-.72 1.26.28 1.6.27 1.8-.06 3.04-.65 5.07-.65 1.5 0 1.2 1.3 2.24-.44.42-.72-1.12-1.64-1.82-1.8-1.67-.34-1.76-.34-2.6-2-.63-1.2-.72-.38-1.8-.75-.8-.25-2.14-1.12-2.95-.68-.32.2-1.86.6-2.18.58-2.46-.05-3.14-.8-5.5.3 2.46 1.15 2.18 1.94 3.7 4.2-1.47 1.1-7.66-1.4-6.93.8 2.1 1.5 2.96.38 5.57.8zm659.1 104.45c.78-1.06 1.15-1.75 2.24-2.26 1.7-.8 5.88-1.87 6.48-4-1.58.14-3.12.23-4.66.54-.65.15-1.55.16-2.14.45-.4.18-.4 1-.83 1.2-1.35.65-2.82 1.1-3.97 2.13-1.24 1.15.74 1.78-.82 3.18 1.27-.25 2.87-.1 3.72-1.25zm-52.32-39.25c-.1.8.9 1.45 1.06 2.2.1.42-.68.62-.52 1.2.2.6.4 1.2.58 1.85.25.88.74.1.45 1.56 1.05-.5.9-.04 1.2-1.05 1.74 1.53 1.44 4.78 1.67 7 .2 1.96 4 .4 4.94-.06.15.86.3 1.76.44 2.63 2.95-1.66 3.25-2.33 6.1-.53.46.27 1.5-.18 2.2.07.72.3.8 1.93 1.02 2.7 1.54-.77 3.1-1.56 4.65-2.3-.3 1.02-.28 1.94.8 1.8.06-2.22.1-4.4.13-6.62.04-2.06.58-2.1 2.1-3.46 2.08-1.83 2.06-1.8 1.85-4.74-.08-1.32.85-3.7 2.05-3.43 2.43.53 3.53.16 1.3-1.88-.53-.52-1.75-1.23-2.1-1.94-.2-.4.48-1.3.3-1.8-.92-2.64-1.87-2.45-1.8-5.54.05-1.5 3.1-1.47 4-1.65-.5-.64-.97-1.3-1.45-1.96 1.2-.32 2.35-.68 3.52-.98-.4-1.07-1-.93-2-1.18-.76-.18-1.37-1.45-1.86-2.08-.68-.88-3.2-3.32-4.15-3.2-1.06.15-3.35 3.8-4.1 4.63-1.34 1.54-.18 2.72-2.1 3.22-2.42.63-2.8.63-4.24 2.8-1 1.53-1.62 3.2-3.3 3.73-1.83.6-3.47.62-4.5 2.4-1.33 2.27-1.82 2.2.02 4.04-1.73-.45-5.16-.34-5.56-2.73-.72.4-1.44.87-2.18 1.3-.14 1.33-.32 2.66-.5 4zm44.48 21.9c.63.6 1.3 1.18 1.93 1.8.76-1.16 1.57-1.53.74-2.67-.6-.83.08-1.45.82-1.27-.54-1.8-1.82-1.13-1.64.52-.8-2.37-1.68.76-1.85 1.63zm-2.08 13.43c.6-.06.77-.8 1.43-.68 1.5.27 2.2-1.2 3.14-1.22 2.03-.04 5.6.96 7.32-.6-2.45-.92-3.9-.1-6.38-.27-1.48-.1-1.6.03-2.8 1.07-.63.57-1.45-.66-2.2-.23-1.52.9-4.74-1.87-6.25-.17-1.73 1.92 2.87 1.4 3.57 2.2 1.2-1.03 1.4 0 2.18-.1zm-14.1-1.45c-.5-.72-2.4-1.32-3.1-1.34-1.6-.04-1.5.7-2.17 2.24 3.3 1.07 5.48.8 8.8.25 4.88-.82-.34-3.5-2.38-2.73.53 1.1-.12 1.55-1.16 1.58zm10.78 4.77c-.62-1.46-5.64-3.3-5.5-.7 1.68.66 6.93 4.04 5.5.7zM982 383.98c-.35-1.04-1-1.9-2-2.06.16.98.32 1.93.47 2.9-1.12-.2-.9-.35-1.42.4-1.1-.7-1.46.12-1.32 1.43-1.5-1.1-2.17 1.4-3.54 1.95.8-1 .67-2.63-.76-2.72-1.63-.1-1.05 2.1-1.9 2.35-1.58.47-4.4 2.3-2.78 4.6.75-.6 2.2-5.46 2.8-1.93.3-.84.44-.6.9-1.15.1 1.06.1.74.9 1.27-.15-.47.04-1.07-.1-1.54 3.66-.5 1.24 2.96 1.95 4.8.45 1.16 3.4 3.33 3.92 1.46l.3.02c-.78 2.52 1.77 1.54 1.3-.64-.33-1.63-1.35-2.72.55-4.1.94 1.28.36 2.6 1.18 3.92.05-.77.1-1.54.12-2.3.2.1.37.2.57.33.24-1.04 1.53-4.92.02-5 .1-.36.1-.9.05-1.24-.44 0-.63-.28-.9-.3.24-.27.48-.52.72-.76.14-.9-.13-2.08-1.03-1.7zm-22.28-8.44c-.6 2.76-.87 4.23-2.84 6.1-2 1.87-3.07 3.26-4.42 5.73 2.6-1.6 5.1-2.16 5.64-5.45.13-.88 2.17-1.9 2.86-2.42.2-.13-.45-2.32-.24-3.03-.24-.37-.68-.64-1-.93zm7.7-46.72c.42-1.86 2.26-6.66-1.22-5.02-1.95.92-3.6 3.46-4.07 5.84-.5 2.64 1.24 4.38 2.54 6.32 1.28-2.5 2.14-4.36 2.76-7.14zm-5.86 28.45c-.77 1.44.12 3.63.4 5.22.22 1.24 1.9 1.37 2.92 1.76-2.14 1.1-.65 3.14 1.02 3.35 1.5.2.96-1.04 2.86.04.63.34 1.2 1.2 1.58 1.83.15-.9.3-1.78.44-2.66 1.84.7 2.15.45 2.2 2.6 0 .78 2.06 1.7 2.7 2.1 1.08-2.3-1.3-1.67-1.18-3.77 1.6.8 2.73-.06 1.33-1.52-.65-.68-.72.82-1.27.66-.68-.2-1.43-.85-2.04-1.23-.67-.4-1.14-.53-1.92-.7-.85-.2-1 1.16-1.6 1.12-1.75-.07-1.1-1.77-1.72-3.03-1.25-2.48.37-1.64.26-3.9-.04-.86 1.22.04 1.5-.43.34-.52.46-1.5.6-2.1.83-2.66-.1-1.52-.6-3.86-.26-1.23 1.2-1.82.4-3.52-2.5 1.24-1.4-.06-3.6-.5-.7-.15-2.15.37-2.27 1.15-.34 2.04-.7 4.1-1.02 6.13-.18 1.12.95 1.45.6 2.7-.53-.5-1.05-.95-1.6-1.43zM727.94 466.4c-.86-1.2-3.65-5.54-3.84-1.37-.12 3.3-1.04 3.33-3.1 5.66-1.63 1.88-2.4 3.68-4.54 4.77-2.36 1.2-4.15 1.98-6.7 2.45-.96.16-2.02 4.54-1.75 5.7.48 2.04 1.92 5.4 1.68 7.48-.25 2.26-2.8 4.5-3.5 6.67-.87 2.63-.28 4.54.42 7.05.66 2.35.97 4.76 1.33 7.17.15.9 4.2 2.4 5.07 2 .58-.28 4.87-1.55 4.94-1.8.54-1.82 1.1-3.66 1.65-5.48 1.98-6.68 3.97-13.36 5.97-20 1.36-4.53 1.66-6.6 1.3-11.4.55.58 1.14 1.16 1.7 1.72 1.5-3.6.26-6.6-.5-10.47l-.13-.17zm-580.3-245.03c-.4-.74-1.73-.94-2.43-1.18-1.05-.34-1.2-1.07-1.78-2.13-1.73-3.16-2.25-2.46-5.4-3.5-2.46-.83-3.27-2-5.82-1.17 4.12 5.06 8.5 7.93 14 10.9 3.55 1.27 3.16.02 1.45-2.93zM47.05 178.8c-3-1.8-3.43 4.5-.3 4.26.9-.07 1.6-1.58 2.72-1.72 1.04-.1 1.88-.64 1.82-1.92.8.38 1.34.13 1.68-.73-.3-.08-.6-.15-.9-.2.7-2-5.32-2.37-5.02.3zm74.1 18.97c.2-1.92-4.5-1.22-4.55-.8-.23 2.42 5.04 11.4 6.83 9.24-.52-.48-1.05-.95-1.58-1.42-.53-2.54-.97-4.42-.7-7zm-71.66-21.5c1.08.78 2.58-.4 3.05-1.1.17.17.34.35.52.5.2-.25.38-.5.55-.74-.72-.3-1.45-.6-2.16-.9-.88.48-1.72 1.17-1.96 2.25zM181.73 49.66c-2.24-1.98-2.27-2.22-4.98-1.16.97.67 1.95 1.34 2.93 2.02.7-.3 1.36-.6 2.05-.87zm-26 14.97c1.7.24.8-1.14 1.3-1.63.96-.92 2.26.34 2 2.1.88-.3 2.24-.44 2.9-1.2.7-.8-1.23-2.28-.02-2.86.7-.34 1.3 2.33 2.6.87.74-.83.2-1.74-.65-2 1.1-.68 2.14.27 2.14-1.67 0-.92 1.48-.77 1.93-.32-2.52 1.64-.05 4.17 2.17 3.55 1.5-.4 5.38-3.27 2.64-4.66.4-.27 1.2-.43 1.8-.38-3.58-.65-.38-2.27 1.13-2.83-2.3-1.26-3.16-2.17-5.58-1.24.4.23.48.55 1.06.74-1.07 1-2.08.27-3.24-.17-.84-.3-2.13.17-3 .28-2.33.32-3.17 1.28-5.07 2.9-1.25 1.08-3.64 4.1-5.26 4.3-2.62.27-4.6 1.05-2.44 3.72 1.2.17 2.4.34 3.57.5zM142.76 92.5c2.07 1 3.73 1.67 5.28 3.45 2.5 2.88 2.18 2.85 5.37 1.02.5-.3 1-.6 1.5-.88.45-.26.3.74.63.66 1.05-.27 2.12-.95 3.13-1.4l.92-4.55c1.47.97 3.04-.25 3.46-1.84.35-1.4 1.05-1.34 2.3-1.88 2.66-1.18 6.9-2.03 9.14-4 1.45-1.28 1.32-1.94-.3-3.1-1.17-.82-2.3-1.8-3.58-2.34-2.6-1.06-5.4-2.15-7.65.36.18-.4.13-.9.28-1.3-3.03.86-5.7-2.7-8.5-2.3-3.36.5-6.7.96-10.06 1.43.57 1.04 3.06 4.36 2.5 4.87-1.1 1.06-3.84 3.65-2.15 5.1-2.95.3-.77 1.38-1.87 2.82-.94 1.2-2.48 2.4-2.07 4.18.53-.1 1.2-.1 1.68-.3zM7.7 164.2c-2.25-.95-3.35.7-5.75.45 1 1.54 2.52 1.8 4.06 2.35.28-.84 1.2-.6 2.1-.68-.02-.2-.05-.38-.08-.57-.1-.67-.75-.6-.32-1.55zm226.83 43.74c.2-1.38.06-.74.9-1.22-.05.37-.14.7-.2 1.07.22-.28.26-.26.36-.64 1.07.4.75 1.8.62 2.85.3-.6.87-1.27 1.58-.9.5.23-.42 1.64-.58 2.2.5-.42.9-.42 1.24-.63-1.25.83-1.5 2.55-1.06 4.06.44 1.44 1.33-.24 1.25-1.04.27.15.6.15.85.3-.6-1.28.5-2.72-.38-3.46-.9-.78-1.5-2.8-1.84-3.76-.67-1.73-4-9-2.53-9.85l-.36-.15c-.5.6-.6.5-1.3.62.2-.8.67-1.3 1.4-1.55-.1-.1-.62-.54-.76-.62-1.06 1.92-1.04 2.5.5 3.6-1.2-.53-3.43-1.67-3.93.22-.86 3.2-.35 2.58 2 3.2-2.72.58.6 3.8 1.3 5.16.3.2.62.36.93.54zm-37.2-57.82c-2.24-.96-5.8-1.66-7.93.07-.82.67-1.37 1.84-2 2.5-1.18 1.23-1.76 1.5-3.25 1.68-1.43.17-3.8.06-4.5-1.78-.2-.5-2.67.1-3.36-1.18-.2-.35-2.5-1.33-2.8-1.06-.5.45 2.3 1.72 2.77 1.65-.82 1.93 3.5 3.42.85 4.06-.82.22-1.55-.47-2.14.44-.62.94-.27 1.33-1.4 1.57.18.14.37.3.54.45-.87.73-1.9 0-2.96-.02.04.2.08.4.1.57-1.1.05-1.96-.58-3.02-.5 1.4 1.92 4.97 2.34 7.18 2.7 1.38.2 6.75-.58 5.85-2.36 1.7-1.46 2.7-.98 4.53-1.82 1.04-.48 2.15-1.92 3.05-2.73-.26.03-.52.05-.8.06 1.16-1.03 1.83-1.7 3.17-2.06 1.17-.3 1.93.2 2.93-.9-.9.4-1 .25-1.83.03.8-.2 1.6-.42 2.44-.6-.78.07-1.56.03-2.2-.45.6.05 1.22-.04 1.82.05-2.2-.76-4.12.77-6.18 2.05.72-2.55 7.57-4.1 7.92-1.16.45-.3.82-.86 1.2-1.24zm-28.7-21.53c-.44-.05-.9-.44-1.34-.44.37-.28.64-.8 1.06-1.04-1.56-.2-2.6 1.7-4.17 1.96-2.1.3-2.95.44-4.9-.42.54-1.64 3.04-2.15 4.4-2.78-2.86-1.05-3.54-1.3-6.35-.22-1.73.68-3.5 1.28-5.23 1.87-1.9.64-3.87.9-5.75 1.54-.98.3-5.17.5-2.15 2.5.2-.16.75-.55.84-.6-.12-.25-.2-.4-.3-.6 1.23-.5 4.4-.5 5.7-.1-.14-.33-.1-.33-.32-.67 2.15-.38 4.14-.07 6.05 1.14-.98 1.58-3.6.2-5.1.63.64.45 1.3.98 1.7 1.7-.82.22-1.62.72-2.2 1.15 1.3 1.56-.9 1.74-1.93 1.92 1.4 1.08 2.98.3 4.4.96 1.02.47 2.36-2.1 3.27-2.7 1.5-.98 4.16-.2 2.03 1.18-.84.54-.98 1.3-1.38 1.62-.36.32-1.26.32-1.63.63 2.08 1.9 4.16-3.47 6.8-2.67-.33-.9-1.04-1.5-1.92-1.67 2.13-2.25 6.36 1.06 7.32-1.37-.38.14-.86.1-1.24.13.1-1.48 1.1-.7 1.44-1.54.3-.72.6-1.4.86-2.13zm85.12 103.55c1.4.72 2.77-.2 4.15-.65-.12.3-.24.6-.37.9 3.3 1.78 8.06-4.97 10.56-3.02-1.13.36-2.17 1.5-2.55 2.77 1.16-.64 2.27-.72 3.06.4.82 1.1 1.56.56 2.66 1.2.45.23 5.25-1.42 6.06-1.56-.46 1.48.94 1.1 1.86 1.54.7.32 1.02 1.55 1.66 2.18-1.15-.16-2.36-.86-2.85.52-1.66-1.93-5.04-.87-6.16 1.1l-.33-.26c.18-.28.36-.53.54-.8-.46.33-.85.33-1.3.76-.07-.32-.1-.62-.15-.92-1.17 1.2-3.16 4.25-3.45 5.86 1.35.28 2-2.3 3.1-3.03.2 1.24-1.07 3.13-1.4 4.44-.46 1.68-1.32 3.63-1.2 5.42.17 2.8 1.58 10.03 4.36 4.4 1.47-2.96.96-5 .42-7.98-.63-3.35 1.8-3.86 2.76-5.93-.07.6.05 1.3-.05 1.9.92-1 .54-2.72 2.34-2.88-1.54-2.03 1.62-1.66 2.52-.72 1.05 1.12 2.55.6 2.97 2.5-.3-.04-.27-.1-.57-.08.62 1.05.9 2.86-.2 3.6-.22.14-1.64 1.65-1.48 2.22.28 1.03 2.83-1.3 3.43-1.27 1.37.06 1.42 3.64 1.63 4.73.77-.88 1.55-1.73 2.3-2.58.5-.54.07-2.08.32-2.85.55-1.63 2.27-3.5-.18-4.66 1.75-.88.96 1.37 2.43 1.18-.22.45-.1.58-.5.98.4.28.4.2.55.62.82-.78 2.32.33 3.2.08.14-.02-.36-1.56 1.1-.73-1.64-1.47-1.5-4.92-4.1-5.5-2.16-.47-4.84-.55-7.08-1-.8-.16-5.4-1.5-5.05-2.13.36-.63-.08-1.06-.43-1.56-.42-.58.43-.97.26-1.54-.5-1.6-1.83-.72-1-3.05-3.34.57-3.32-.88-5-3.47-.9-1.38-2 .2-2.9-.2-1.13-.52-2.2-1.22-3.43-1.12 1.23 1.03.15 1.78-.92 2.43.36-.55.55-1.03.62-1.74-1.02.54-.84 1.82-1.88 2.26.2-.36.3-.8.44-1.2-1.76.32-1 1.96-2.25 2.5-1.5.67-3.02 1.34-4.5 2-1.37 1.3-2.7 2.63-4.05 3.93zm47.34 15.63c2.34 2.24 7.34-2.1 4.8-3.1.7-.63 1.4-1.25 2.12-1.87-1.45.6-4.5 2.9-5.54 2.46-1.84-.82-4.2.3-6.1.7-4.04 5.27 3.06.25 4.7 1.82zm-4 .97c0 1.42-4.62 2.55-6 2.5-2.03-.1-2.23 0-3.84 1.4-1.03.93-1.73 1.96-3.2 1.24.18-1.1 1.1-1.65 1.98-1.92-.52-.78-.62-.2-.9-1.24-1.12 1.43-1.98 2.7-2.82 4.33.77.2 1.5.4 2.24.62-.16.2-.32.44-.5.68 3.06.3 4.35-1.2 6.97-2.17 2.58-.94 4.32-2.13 6.6-3.84 0-.74.1-1.13-.52-1.6zm146.53 194.37c1 4.4 1.1 4.33-1.3 7.83-2.97 4.3-5.94 8.58-8.92 12.86-1.37 2.04-3.07 3.6-3.24 6.12-.46 6.32-.92 12.65-1.36 18.96-.3 4.18-4.64 8.48-6.8 11.8-.94 1.42-1.73 3.83-3.43 3.93-1.64.12-5.42-.46-6.8.5-4.17 2.85-8.33 5.73-12.5 8.57-.82.6-.8 6.8-.93 7.92-.14 1.3.07 3.57-.76 4.63-3.45 4.44-6.92 8.9-10.37 13.32-3.15 4.1-6.32 8.16-9.5 12.22-.72.92-10.68-3.38-12.2-3.86-.92 3.42 4.78 3.8 5.37 6.75.3 1.45 1.4 4.2 1.15 5.65-.26 1.3-2.16 3.17-2.87 4.24-2.1 3.06-4.9 3-8.26 3.9-3.25.88-4.8.8-8.12.15.64 2.08 1.16 2.96.4 4.94-.47 1.24.1 3.25-.6 3.76-3.3 2.3-5.23 1.3-8.7-.42-.02 1.73-.47 4.04-.1 5.7.27 1.22 2.3 3.27 1.76 4.45-1.06 2.27-2.1 4.52-3.14 6.8-1.02 2.23-1.4 2-3.7 2.56-2 .48-2.36 2.2-3.4 4.1-.64 1.2 1.82 3.47 2.53 4.5.93 1.3 3.96.16 3.33 2.28-.6 2.08-.98 2.85-2.3 4.44-1.18 1.4-2.87 2.83-3.44 4.65-.85 2.73-1.55 2.85-3.9 4.22-2.37 1.36.26 8.5.7 11.1.2.95.15 3.22.9 3.84 1.77 1.53 3.53 3.03 5.28 4.53 3.07 2.62 5.16 2.16 9.1 2.24-3.57 1.62-7.15 3.26-10.73 4.88-2.86 1.3-3.4.55-6.33-.87-4.23-2-8.43-4.07-12.66-6.08-2.17-1.06-2.53-3.5-3.52-5.83-2.37-5.6-6.23-11.07-5.53-17.28 1.05-9.27 2.1-18.5 3.15-27.77 1-8.9 1.4-18.2 3.08-27 2.1-11.08 4.2-22.18 6.3-33.28 1.28-6.75 2.56-13.5 3.84-20.2.54-2.9 1.58-6.1 1.7-9.03.1-2.47-.64-5.3-.95-7.75-.2-1.62 0-5.5-.85-6.88-.9-1.44-3.9-2.72-5.24-3.65-2.6-1.8-5.2-3.6-7.8-5.43-2.63-1.84-3.37-3.66-4.98-6.68-3.2-6-6.4-11.97-9.6-17.97-2.64-4.96-5.28-9.88-7.92-14.82-1.63-3.04 1.13-8.66 1.88-11.82.37-1.57.55-5.1 1.54-6.3 1.52-1.96 3-3.9 4.52-5.82 3.36-4.3 6.25-6.8 5.37-12.87-.2-1.37-1.03-2.1-.02-3.13.14-.13-.35-2.1-.18-2.8.42-1.84-3.67-3.53-3.24-5.32.56-2.2.43-1.95-1.38-2.98-1.3-.77-1.3-.67-2.64.06-1.02.56-1.77 1.37-2.65 2.17-.47.44.86 2 1.16 2.52-2.6 1.1-2.48 1.4-3.66-1.42-.53 1.54-3.13-1.08-4.57-1.36-.76-.14-1.26.72-1.73.38-.78-.6-1.57-1.22-2.37-1.8-1.62-1.23-4.83-2.75-5.95-4.53-.95-1.5-.47-3.8-1.68-5.2-3.08-3.53-4.95-6.68-9.23-7.9-3.32-.9-8.86-1.15-11.48-3.72-2.3-2.27-4.62-4.54-6.92-6.83-1.5-1.47-3.63.08-5.44.65-4.1 1.27-8.28-1.7-12.18-3.28-3.15-1.3-6.3-2.56-9.45-3.83-.97-.4-2.86-.7-3.65-1.5-2.05-2.08-4.1-4.16-6.14-6.25-1.9-1.9-.78-3.07.02-5.75.5-1.75-2.76-5.18-3.66-6.57-1.06-1.6-1.88-2.65-3.25-3.93-2.2-2.06-4.42-4.08-6.63-6.15-.5-.47.13-1.9.24-2.53.15-.68-1.07-1.75-1.44-2.22-1.57-2.04-2.9-3.83-4.84-5.36-1.67-1.3-3.43-2.07-4.06-4.22-.36-1.2-1.3-6.96-2.3-7.42-2.04-.92-4.08-1.88-6.13-2.8.67 2.3 1.14 6.82 2.6 8.6 2.23 2.64 4.14 4.72 5.46 8 .75 1.9 1.24 2.4 2.73 3.7 1.1.95 1.4 2.48 1.93 3.93.6 1.53 1.25 2.86 1.32 4.5.12 2.52 1.2.73 1.96 1.3.83.62 2.5 2.14 2.33 3.43-.24 1.7-1.73 2.1-2.45.8-1.48-2.72-4.1-4.33-6.47-6.05-.66-.5-.42-3.6-.48-4.48-.1-1.35-2.06-2.26-2.98-3.03-.94-.75-1.8-.4-2.78-1.27-1.13-1-2.27-2-3.4-3.03 1.35-.15 4.54-.43 2.76-3.05-1.55-2.3-2.24-3.44-4.6-4.6-1.55-.76-1.95-3.34-2.6-5-1.08-2.78-2.17-5.57-3.25-8.37-1.18-3.05-5.15-5.7-8.06-6.52-2.38-.65-3.2-.44-4.26-2.77-1.17-2.54-2.33-5.08-3.5-7.6-1.7-3.76-5.1-6.05-6.3-10.14-1.56-5.32-1.45-8.76-1.2-14.4.23-4.68.48-9.34.72-14.02.24-4.53-.83-7.37-2.26-11.7 2.66.6 5.1 1.37 7.66 2.33.1-3.8.26-4.27-2.2-6.92-1.86-2-3.56-3.34-5.77-4.9-1.93-1.35-3.98-1.35-6.06-2.26-3.4-1.5-3.9-1.6-5.44-5.2-1.75-4.16-7.93-6.33-7.52-10.97.36-4.23.06-3.9-3.34-6.04-.47-.3-2.52 4.2-3.95 2-1.08-1.65-2.8-5.86-4.47-6.66-2.37-1.13-2.87-1.7-4.38-4-1.48-2.2-2.85-5.24-4.7-7.08-1.5-1.55-3.77-2.62-5.5-3.82-4.26-2.93-7.98-4.47-12.77-6.2-1.87-.7-4.16.88-6.06.44-1.98-.46-4.33-2.65-6.08-3.73-2.44-1.5-3.12-2.05-5.86-1.8-2.42.25-3.63.9-2.7 3.97.75 2.6-9.16 5.28-11.35 6.02-.48-1.14.05-1.93 1.14-2.25-1.68-.5-.4-5.35.66-5.94 2.47-1.32 3.7-1.4 6.48-1.36-.63-.57-1.27-1.16-1.9-1.73.73-.52 1.45-1.08 2.18-1.6-4.4.84-6.22 1.78-9.92 4.6-3.2 2.4-4.48 5.1-6.55 8.77 1.02.26 2.04.5 3.06.75-3.05 4.06-6.1 6.37-10.1 9.3-2 1.46-8.3 3.07-8.55 6.04-.22 2.68-8.43 4.2-10.77 4.87-.95.3-1.92.32-2.9.44-1.23.14-.62.8-1.54 1.4-2 1.3-3.37 1.7-5.5 1.17 1.95-1.9 3.98-2.4 6.2-3.77 1.7-1.04 6.63-5.78 8.13-3.17 1.06-1.9 5-6.26 7.14-4.75-.72-2.03 2.97-3.33 3.38-5.6.35-1.87.38-2.33 1.62-3.57.8-.8 1.6-1.23.78-2.48-2.67 1.47-5.56 3.85-8.3 1.84-.94-.7-2.75-2.74-3.88-2.25-1.4.6-2.8 1.2-4.17 1.82-.5-2.83-1-5.66-1.46-8.5-.7.4-4.33 3.05-4.84 2.65-1.36-1.1-3.98-2.44-4.9-4-1-1.7-1.1-4.98-1.53-6.94-.36-1.63.95-2.9 1.76-4.26 1.58-2.7 1.4-3.4 4.3-3.13 2.4.24 2.75-1.7 4.86-2.57 2.12-.88 3.8.8 4.83-1.8.82-2.08-.4-2.46-1.8-4.04.64-.37 1.28-.73 1.9-1.1-.9-2.72-3.07-.3-4.62.6-1.98 1.13-2.28-.23-4.26.02-3.94.52-8.38 1.33-10.55-2.98.48-.14.94-.65 1.45-.75-1.95-.66-4.5-.96-5.85-2.85 2.84-1.5 4.85-2.84 7.98-2.84-.2-.28-.44-.58-.67-.87 2.43-1.38 3.8-1.68 6.53-1.85-.12 3.15 2.28 2.67 4.7 3.3 2.1.55 2.78-.4 4.63-1.7-.86-.37-1.72-.73-2.57-1.1.3-.1.65-.25 1-.38-.94-.76-1.25-1.62-.23-2.35-2.28-.23-4.15-.5-6.32-1.26-1.75-.58-1.74-3.37-3.45-4.17-1.16-.55-6.15-1.92-6.64-3.1-.24-.53.87-2.9 1.05-3.5.15-.46 1.26-.3 1.63-.33 1.86-.13 4.7.47 5.92-1.26 1.38-1.95 2.62-4.05 4.36-5.63 2.96-2.68 7.05-4.38 10.87-5.02 2.5-.43 4.55-.43 6.58-2.04 2.8-2.24 2.64-2.3 5.72-.66 2.73 1.45 10.5-.54 11.7 2.8.88 2.48 8.97 2.25 11.65 2.6 4.04.52 8.1 1 12.12 1.72 5.94 1.04 11.88 2.1 17.83 3.14 3.9.7 7.6 2.96 11.26 4.6.64.3 4.8-4.76 5.47-5.4 1.1-1.15 3.24 2.2 4.52 1.62 2.1-.93 11.57-6.7 12.97-4.45-3.47 1.84-6.9 3.64-10.36 5.47 2.67 1.84 11.45-5.84 12.2-2.57 1.05-1.2 2.07-2.4 3.1-3.62.83-.97-1.24-1.25.3-2.48 2.62 3.06 5.26 5.9 8.15 8.67.92-2.94 1.27-3.94 3.43-5.86 1.3 1.38-.98 2 .8 3.03.67.4-.4 1.8-.72 2.44 1.15-.3 3.3-.34 4.22-1.08.35-.3-.42-1.7.23-1.77.62-.1 1.28-.2 1.93-.3 2.3-.3 5.36 1.88 7.48 2.8 4.38 1.9 9.4 2.58 13.98 3.8-.1-.33-.2-.66-.3-1 2.93.12 4.46 1.5 7 3.2 1.9 1.3-3.88 3.3-4.3 3.5 1.93.6 4 1.64 6 1.5 3.35-.28 6.68-.54 10.02-.8 1.55-.12 4.26-.6 5.34 1.06 1.53 2.26 3.06 4.53 4.58 6.8-.24-.98-.47-1.98-.7-2.97-.15-.6.48-1.16.4-1.72-.37-2.37-1.4-1.77-.1-4.07.9-1.55 7.7-1.74 6.16-4.1-3.3 1.33-5.72 2.4-9.2 2.32.78-3 2-2.7 4.7-3.6 2.83-.93 3.2-1.2 5.8.26.74.42 1.2 2.15 1.6 2.9.5 1.04 1.28.9 2.33 1.14 2.16.47 4.08 1.12 6.15 1.9 1.73.66 11.22 1.75 11.62.43.8-2.72.94-4.02 3.93-4 1.85 0 4.02 1 5.85 1.48-.25.9-1.43 3.62-1.14 4.44.3.84 2.94 1.97 3.68 2.47-.97-3.1-2.1-5.78 1.67-6.37 1.56-.26 2.47-1.66 3.6-2.8.82-.8.25-1.84.06-2.97-1 .47-1.97.94-2.93 1.4-.36-3.04 1.84-3.5 3.97-3.7-.1-2.38-2.35-.7-3.8-1.24-1.15-.47-5.12-1.22-5.62-2.45-1.06-2.58-1-4.24-.96-7.1.05-2.75 1.32-3.12 3.4-2.28.37-1.32-.53-1.8-1.64-1.65 2.05-1.32 2.33-1.15 2.26-3.72-.08-2.3-.12-3.2-1.15-5.16-.77-1.48-.2-3.64-.1-5.32.07-1.3 2.24-.6 3.25-.6-3.72-4.08 2.82-2.92 5.36-2.9 3.55.02 6 .26 9.4 1.34-1.4 2.07-3.35 6.55-5.4 7.78-1.8 1.08-6.23.2-8.15.15 6.1.9-.93 4.88-.55 6.85 3.12-.56 4.9 2.2 5.46 5.13.37 1.9 3.44 4.2 4.68 5.7-1.54 1-3.05 2.04-4.56 3.05 1.5.6 2.72 1.6 4.1.62 1.45-1 2.65.22 4.13.95-.72.5-1.45 1-2.17 1.5 1.45 1.23 2.23 1.27 1.75 3.24-.48 1.93-.8 2.4.94 3.5 1.03-1.5 1.64-2.25 1.8-4.1.07-.72.68-3.6 1.95-2.82.8.5 3.6 1.57 3.8 2.57.38 1.67 1.44 3.6-.64 4.28 0-.4-.23-.85-.2-1.25-4.26 2.36 5.2 10.86 5.62 6.25.1-1.3-.06-2.07.86-2.88.45-.42 1.88-1.27 1.88-1.97 0-3.43.05-3.25 2.94-4.53-1.16-1.8-2.24-2.7-1.8-4.83.43-2.2 1.62-1.62 3.5-1.3 1.26.22 4.7.1 5.56 1.1 1.64 1.86 2.17 2.2 4.5 2.72-1 1.78.6 2.94-.46 4.2-.67.8-2.92.5-3.9.58.88 1.87 1.46 3.54 2.9 4.86 1.53 1.44 2.24 2.58.57 4.7-1.1 1.4-3.8 2.33-5.27 3.23-1.44.9-2.45-1-3.62-2.1.6 1.33 1.17 2.66 1.77 4-.93-.48-1.83-.97-2.75-1.44.1.38.23.74.35 1.12-.95-.2-1.86-.45-2.8-.66-.6-.16-.12-1.77-.75-1.74-1.42.04-3.38-.54-4.1 1.1.86.52 1.74 1.02 2.6 1.53-.93 1.4-1.7 3.12-3.14 3.92-2.08 1.17-2.83.2-4.95-.94-3.34-1.73-6.27-1.6-9.98-1.75 2.55 1.3 5.12 2.58 7.68 3.88 1.87.94 4.98.62 7.02.9-.8 1.38-2.18 5.2-3.54 5.82-.8.38-1.87 1.2-2.74 1.14-1.07-.1-2.1-.5-3.03.17-2.83 2-3.04 2.13-6.26 1.14-2.02-.6-4.07-1.1-6.1-1.66 1.35.63 2.7 1.24 4.05 1.86-.3.26-.5.63-.8.88 2.14-.5 2.5-.47 4.43.6 1.02.57 2.6 2.07.9 2.87-1.8.85-2.66.87-4.66.76-.65-.05-1.7 2.27-2.04 2.78-1.62 2.56-4.2 5.3-4.85 8.4-.73 3.5-1.45 7.03-2.2 10.54 1.4.33 4.5.36 5.54 1.32 1.17 1.06 1.86 5.18 2.44 6.73 1.02 2.84 1.66 1.8 4.4 1.2 1.42-.32 3.04.68 4.4 1.16 4.17 1.47 7 2.83 10.67 5.42 1.14.83 3.34 3.2 4.72 3.32 2.04.23 4.1.45 6.12.66.72.08 4.62.02 4.6.86-.13 2.83-.26 5.66-.37 8.48-.16 3.94 3.78 6.93 6.05 9.78 2.22 2.77 7-2.38 6.6-4.77-.4-2.5-.83-5.03-1.24-7.56-.22-1.35-1.98-3.13-2.72-4.27 2.48-1.62 7.28-3.4 9-5.88 1.57-2.22 1.96-8.27-.02-10.2-1.34-1.3-2.72-2.5-3.83-4.07-1.56-2.2-2.07-2-.1-3.82 2.16-1.95 2.33-1.68 1.52-4.56-.42-1.56-1.4-3.43-.9-5.02.9-2.88.96-3.4.1-6.25-.56-1.8.57-2.4 2.4-2.63 3.37-.42 6.47 2.5 9.76.96 2.1-.97 2.65.12 4.58 1.5.9.67 3.53 1.8 3.84 3.03.47 1.83 1.5 3.26 3.56 2.96 1.66-.24 2.77.55 4.3 1.3-.88 1.5-1.4 1.9-1.12 3.6.28 1.6.77 3.1.14 4.65.44-.08.92.13 1.35 0-.8 1.03-3.12 2.68-1.87 3.82 2.15-6.4 9.87 7.57 11.46-1.07.35.4 1 .43 1.36.82.87-1.84 2.26-3.62 1.88-5.7-.26-1.43 1.84-4.28 3.3-3.96-.2.78-.36 1.55-.52 2.32 3.34.16 5.57 7 7.17 9.76.88 1.53 3.58 4.6 3.7 6.35.05.95-1.63 2.3-1.44 3.22.08.43 1.75 1.4 2.05 1.67.75.6 2.22 1.35 2.74 2.2.6 1-.4 2.1.97 2.2 2.57.14 3.64.18 5.8 1.62 1.45 1 4.34 2.4 1.16 2.88-1.8.27-3.54.98-5.3 1.54 1.08.4 2.5-.38 3.64-.73-.78 1.42-3.3 1.55-4.72 2-1.38.42-.93 3.16-.2 2.2.63-.85 1.1-.96 2.07-1.32.84-.3.5-.78 1-1.05 1.25-.7 2.73-1.05 4.12-1.15-.84-.1-1.04-.37-1.5-.83 1-.04 3 .1 3.42 1.3.58 1.55-1.18 1.44-.2 2.64 1.14-2.12 2.52-1 4.33-.4 1.44.47.3 3.22.03 4.05-.6 1.6 1.24 2.15.03 4-.53.78-3.1 2.22-3.97 2.43-1.4.37-2.77.07-4.36.57-1.55.52-2.23 1.5-3.4 2.8-2.42 2.64-4.4 3.03-7.97 2.66-3.64-.36-6.9-.43-10.53-.22-3.17.2-6.44-.9-7.3 3.35-.22 1.1-3.3 1.43-4.13 2.03-1.37.96-2.57 2.75-3.73 4-2.1 2.27-3.26 5-5.75 6.82 4.26-2.07 6.54-6.57 10.8-8.64 2.93-1.4 10.88-5.88 12.96-.65-.35-.2-.73-.25-1.1-.43 2.16 1.47-.76 2.54-1.84 3.48-1.38 1.2-2.5-.9-4.1.2.65.18 2.2 1.9 2.3 1.87 1-.27 1.84-.5 2.9-.17-.24 1.22-.96 2.26-1.9 2.98.48-.18 1.1.04 1.6-.06-.8 2.24 1.57 4.04 3.28 4.45-.2.15-.38.3-.57.43 2.46 1.2 4.88 2.2 7.03.65.08.4.15.78.23 1.17.42 0 1.13-.2 1.47-.43-1.47-1.9 1.5-4.63 2.5-6.2 1.94.72.83 2.42.4 3.94 1.4-1.1 3.42 1.07 2.2 1.6-1.6.7-3.07 1.64-4.86 1.34.4.3.6.9.98 1.24-2.02.82-4.04 1.64-6.05 2.45-.78.33-1.58.54-2.24 1.1-.87.78-1.1-1-1.84-.4-1.37 1.1-2.6 3.24-4.08 4.65-1 .95-1.97-.4-2.58-.63-2.12-3.03 3-5.66 4.72-6.9 1.23-.9.63.15 1.2.66 1.15.98 1.84-.38 2.9-1.32-1.35-.06-3.07-.55-4.24.28 0-.73.64-1.46 1.12-2.17-1.6-.4-3.58 1.65-4.88 2.5-.85.56-.84-.68-1.82.47-.5.6-1.65.24-2.35.24 1.03 3.28-4.52 2.1-5.26 3.57-.23-.23-.46-.46-.68-.7-.86 1.77-1.67 1.96-3.3 2.58-1.1.42-1.15 1.2-1.6 2.4-.68 1.74-3.82 7.53.5 7.07-.13-.27-.24-.56-.35-.8.33.23.64.68.9 1.04-1.28.9-2.8.12-4.15-.2-.68-.16-.45 1.83-1.44 1.9-3.17.24-4.6.4-7.33 2.23 1.95-.24 3.53-1.2 5.43-1.48-.2.14-.4.32-.6.47.52-.03 1.06.13 1.6.06-1.33.73-2.26 1.36-3.73 1.46-1.2.08-3.33-.36-4.04.92 2.97.33-1.3 5.95-2.38 6.88.7-1.23-1.42-2.04-1.9-3.47.1 1.73 2.28 4.07 1.5 5.65-.8 1.63-2.24 3.53-2.66 5.16l-.32-.1c.02-1.2.57-2.18 1.02-3.27-.77-.5-.4-2.05-1.94-1.62.2-1.2.3-2.35.76-3.44.1-.18 1.08-2.4.03-1.66-2.5 1.83-1.76 3.03-1.07 6.1-.74-.56-1.54-1.03-2.4-1.24.62.93 2.16 1.22 2.66 2.14.36.7-.54 2.76-.34 3.43.36 1.24 2.08.6 1.62 2.65-.36 1.66-1.4 1.5-2.84 1.97 1.25 0 3.43-.42 3.1 1.45-.1.77-2.7.8-3.4.92.38.22.68.6 1.06.8-.57.2-.86.58-1.57.57.6 1.5 1.5.14 2.54.75-.7.37-1.42.77-2.12 1.15-.56.28-1.33-.6-1.77-.36-.85.5-1.72 2.5-2.32 3.37-.43.64-1.96.36-2.76 1.37-.72.94-1.37 2.1-2.35 2.67-3.37 2-3.96 2.9-5.8 6.62-.85 1.76-.3 4.87.52 6.63 1.4 3.05 2.42 5.84 3.38 9.1.5 1.7.94 6.1-.3 7.32-.92.94-1.7 2.18-2.8.65-.34-.48-2.34-2.27-2.38-2.43-.38-1.5-.97-2.48-1.5-3.66-.58-1.32-1.25-2.1-.84-3.66-.25.2-.5.42-.72.62-.57-2 1.28-4.9-.74-6.3-1.76-1.2-2.73-3.62-4.82-2.95-1.13.37-2.32 1.2-3.36.5-.94-.62-2.16-1.8-3.22-2.1-1.84-.5-4.93 1.96-5.47-1.17-.35 2.72-6.37.77-8.15 2.18 1.24.12 5.86.7 2.4 2.34.37.2 2.25.84 2.3 1.18.23.96-.6 1.37-1.26 1.23.48-1.24-1.38-1.7-2.27-2.27.2.88-.2 1.18-.22 1.86-.83-1.76-1.57.06-2.7-.8-1.45-1.1-2.08-2.1-3.74-1.52-.95.32-2.28-.56-3.17-.9-1.72-.65-4.4 1.3-6.05 2-2.68 1.08-9.08 5.84-9.12 9.68-.03 1.2 1.57 2.4 1.64 3.58.05.8-.6 2.14-.8 2.9-.6 2.1-1.53 4.26-1.52 6.47.03 5.57.76 9.55 3.82 14.2 1.8 2.7 2.5 4.6 5.45 5.47.6.2 1.57 1.73 2.1 1.54 1.22-.47 2.43-.93 3.65-1.37 1.18-.45 2.02-.64 3.27-.75.88-.07 1.57 1.07 2.02.88.45-.23 1.16-.4 1.54-.74.3-.25-.43-1 0-1.37 1.05-.95 1.57-1.3 1.98-2.7.7-2.34.5-5.1 2.98-6.08 1.03-.42 4.43-1.24 5.5-1.1 1.4.17 5.4-.66 4.14 2.37-.5 1.2-2.14 4.75-3 4.83.44.24.2.7 1.2.66-.4.32-.67.77-1.06 1.04l.2.25c.17-.13.36-.25.55-.37-.6 1.4-.87 2.87-1.2 4.36-.6-.64-.9-1.58-.7-2.53-.37.42-.73 1.15-.98 1.66 1.87.1-.28 3.7.35 5.04.57 1.2-1.46 3.44-2.27 4.2 2.66.93 5.24.22 8.17.66 1.14.16 1.96-.85 3.1-.66 1.24.16 2.95.08 4.1.6 2.5 1.08 4.1 2.83 3.65 5.7-.3 1.86-.6 3.7-.87 5.54-.18 1.1-1.05 2.02-1.2 3.05-.6 5.03 5.46 13.2 10.02 11.33 2.82-1.15 4.27-2.3 7.22-1.4 2.86.84 3.96 2.4 6.1 4.75-.17-3.56 4.25-8.38 5.95-11.25.52-.9 3.8-1.42 4.7-1.75 2.38-.85 4.77-1.72 7.18-2.58 2.2-.8 6.17 1.12 8.33 1.62 5.7 1.33 11.34 2.63 17.03 3.96 3.07.7 6.18.76 8.55 3.03 4.43 4.26 8.86 8.5 13.3 12.75 2.8 2.7 8.9 2.75 12.46 3.63 3.34.82 5.96 6.36 8.06 9.1 2.12 2.8 4.26 5.58 6.4 8.37.5.7 1.65 2.9 2.45 3.2 4.57 1.65 9.13 3.28 13.7 4.93 4.56 1.65 9.13 3.3 13.7 4.95 3.76 1.38 7.7 5.54 11.05 7.94.62.07 4.85.12 4.96.6.47 2.04.96 4.07 1.43 6.1zm-97.8-225.37c2.1 1.67 6.84 5.65 9.47 3.54-2.47-2.8-6.15-3.65-9.46-3.55zm1.28 13.28c-1.6 3 1.2 3.5 3.23 4.44 2.02.93 2.57-.24 3.98-1.8-2.08-.15-4.18-.3-6.27-.5-.3-.7-.6-1.4-.92-2.14zm-37.84 113c1.37-.37 2.72-.8 4.08-1.2-1.1-.9-1.87-1.7-3.22-1.93-.96-.17-1.48-1.64-1.93-1.6-1.9.16-4.2-1-5.5-2.67-.08.16-.17.33-.24.5-3.97-2.63-8.32-5.06-12.9-5.5-2.74-.28-4.84.32-7.54 1-2.15.52-2.73 2.62-4.48 3.7 3.45 1.82 7.4-5.94 10.8-2.5-.55.27-.95.54-1.76.35.6.75 1.62 1.2 2.5.9 1.07-.32 1.17.52 2.32.55 1.88.06 3.64 1.4 5.65 1.7 1.88.24 1.93 2.45 4 3.4.53.26 2.56-.27 2.54 1.14 0 .46-1.73 1.76-2.06 2.1 2.54.46 5.12-.18 7.72.05zm27.7 6.84c.8 1.95 4.15.4 4.93-.82-.18-.2-.37-.4-.55-.57-1.5-.13-5.5-1.4-4.38 1.4zm37.8-138.6c.43-1 .9-1.94 1.33-2.9-2.77-1.13-5.77 2.63-6.8 5.1-1.7 4.13-3.2 6.02-6.22 9.15-.54.56-.8 3.6-.4 4.25.68 1.1 3.1.78 4.05.66 3.17-.37 6.42-.32 9.36 1.27-1.05.38-1.8 1.07-1.65 2.28 2.8-.57 3.37-2.5 6.27-2.7-.4 2.15-.7 2.18 1.2 2.9 1.56.62 1.8.65 2.75-.76 1.05-1.57-.14-5.23-.53-6.92-.26-1.1-2.2-1.58-2.1-2.22.27-1.87 0-1.92-1.2-3.33-.93-1.08-4.86.35-6 .68-.1-.74.1-2.28-.55-2.57-.52-.25-1.68-.45-1.7-1.12-.03-2.2.62-2.38 2.15-3.78zm-91.92 24.14c-.02-.14-.04-.28-.05-.44-.32-.18-.6-.3-1-.54-.23.2-.45.4-.67.6.52.3 1.2.38 1.7.4zm-1.6-1.58c-.7-.5-.82-.2-1-.04.2.24.45.47.68.72.1-.23.2-.44.32-.68zm6.67 2.64c-.13.16-.3.32-.45.47l.32.22c.57-.7.83-1 .57-1.75-.12.17-.26.33-.38.5-.35-1.06-1.27-1.18-2.13-.8-1.14.5-1.57-.6-2.73.25.3.07.63.15.93.22 1.1.48 2.8 1.58 3.88.9zm11.74 112.7c1.34.93 2.3 1.56 3.8 2 .76.22 1.72-1.06 3.13-.6-.26-.4-.48-.87-.8-1.22-1.72-.58-4.73-2.27-6.13-.2zM177.57 57.7c1.46.27 3.2 1.12 4.58.08-.35-.3-.68-.7-1.07-.9-1.23.04-2.6-.27-3.5.82zm564.37 198.34c-.6-.55-.6-2.23-1.22-2.63-2.75-1.67-3.2 2.64-3.22 4.22-1.57-2.67-1.9-3.8-.6-6.68-1.14-.52-3.68-1.05-4.5-2.06-.65-.8-.62-3.7-.8-4.8 0-.07-3.84-1.57-2.14-1.98 1.64-.4 2.08 1.58 3.77.34-1.12-1.05-2.2-1.25-1.27-2.64.5-.74 1.82-1.22 2.65-1.08 1.96.32 5 .22 6.65 1-1.28.5-2.45 2.04-2.33 3.54 1.2-1.73 1.68-2.8 3.76-3.06-1.04-3.26-1.77-1.1-4.5-1.98.42-1.42 1.36-3.04.63-4.38-.3-.6-1.5-3.46-2.5-2.3-1.05 1.28-2.63-.04-4-.58-1-.4-2.75 1.3-3.8 1.5-2.7.47-2.5-.95-3.3 2.4-.23.94-3.27 1.64-4.06 2-1.88.78-1.74.87-2.18 3.07-.2 1-1.78 2.1-2.45 2.83 1.68.1 3.55 1.43 3.5 3.4-.05 2.93.36 4.05 1.53 6.68.73 1.62 2.56 2.15 3.42 3.66 1.44 2.47 1.9 3.27 4.3 4.43-2 .6-2.38.38-2.9 2.57-.34 1.37-.87 2.62-1.38 3.92-.62 1.6-.4 2.6-.26 4.34.18 1.9.7 1.53 2.4 1.95 1.5.37 1.55 1.48 2.74 1.84 1.46.47 2.93.93 4.36 1.37 1.87.6 5.1-.6 7.05-.84-.25-2.38-.76-4.64-.3-6.95.7-3.55-.9-1.9-2.32-4.46.42.14.9.03 1.34.1-.16-.56-.3-1.76-.68-2.15-.38-.4-1.6.1-1.96-.34-.95-1.2-.36-2.37.17-3.5-.1.23 5.43.83 6.44.36.37-1.57-1.02-2.17-2-3.08zm445.84-122.5c-.08 2.2.35 2.9-1.5 3.74-1.36.65-.2 2.68.14 4.08-2.46-.3-3.34-.6-5.37-2.16-1.22-.92-3.96.7-4.34-.82-.54-2.2-.23-4.27-2.4-4.44-2.37-.16-4.75-.33-7.12-.5-1.43-.12 1-4.37-2.1-3.86-1.6.27-1 4.3-1.08 5.87-.13 2.5-8.04 3.22-10.18 3.8 1.84 1.3 4 1.9 4.13 4.4.17 2.95 1.3 4.12 2.96 6.5.18.2-1.15 1.98-1.47 2.1-.6.25-2.32-.46-2.96-.58-1.14-.23-3.8-1.38-4.84-.74-4.37 2.64-8.72 5.3-13.08 7.94-3.4 2.07-7.06 3.2-8.7 7.13-3.02-3-3.2-3.37-7.18-2.84-3.78.5-4 .72-6.3 4.1-.04-1.2-.08-2.42-.12-3.6-1.16.56-3.33 2.25-4.6 2.08-1.6-.24-3.1-1.1-4.06.44-2.2 3.5-4.35 7-6.52 10.48 1.16.37 5.24.87 4.87 2.3-.87 3.38-1.04 3.5.98 6.25-3.4 1.5-6.43 2.98-4.6 7.43.3.73-2.63 1.87-3.37 2.13-1.65.56-3.1.37-3.27 2.34-.2 2.3.44 4.25-1.72 4.8-2.72.73-2.86.4-3.33 3.43-.47 2.95-4.2 6.02-6 8.24-2.23-10.43-9.8-30.32 2.72-36.43 3.6-1.75 5.67-2.3 7.75-5.87 1.94-3.36 4.23-4.82 7.27-7.1 2.08-1.56 4.9-2.4 5.58-5.18.5-2.1 1-4.18 1.5-6.26.12-.5 2.98-.74 3.52-.86-2-.48-3.3-.7-5.3-.45-1.55.2-2.4 2.62-3.24 3.98-1.73 2.77-5.35 4.75-7.78 6.76-1.17-3.1-.86-4.32-.2-7.68-2.3 1.37-3.23 1.87-5.8 1.8-2.63-.05-3.28-.2-5.34 1.5-3.3 2.65-5.95 5.7-8.8 8.96.88.77 3.04 1.8 2.38 3-.26.46-3.2.67-3.8.75-3.05.34-6.1.72-9.12 1.08 1.07-.8 2.16-1.57 3.24-2.35-2.9-.58-5.78-1.15-8.67-1.7-.8-.2-2.8 1.6-3.53 2.02-.92.55-2.07.03-3.08-.13-2.7-.45-5-.5-7.73-.4-1.67.1-6.5-.68-7.8.54-4.48 4.2-8.9 8.35-13.18 12.8-3.98 4.12-8.43 7.1-13.02 10.4.62 1.58 1.66 1.43 2.98 1.55 1.7.18 1.87-.1 2.52 1.6.2.53.78 3.03 1.33 3.1 3.46.27 3.73.8 5.42-2.54 1.46-2.87 9.66 3.85 9.25 6.13-.95 5.4-2.17 10.74-3.4 16.1-1.13 5.07-2.94 7.83-5.7 12.2-2.56 4.08-4.72 8.02-8.07 11.3-2.27 2.25-4.54 4.5-6.82 6.76-1.25 1.24-3.83 1.23-5.45 1.6-.8.2-1.53-2.15-2.3-2.3-.57-.1-2.46 1.45-2.98 1.76-2.55 1.5-2.58 2.2-3.6 5.27-1.6 4.78-5.36 7.32-8.8 10.67 3.8 3.3 7.18 6.9 6.4 12.52-.5 3.78-.06 4.62-3.15 6.25-2.54 1.33-4 1.25-6.87 1.16.3-2.12.6-4.26.9-6.4.33-2.47-1.9-2.3 0-4.53 1.18-1.4.55-3.34-1.16-3.18-1.6.16-4.14 1.23-4.67-1.25-.27-1.27 1.36-4.4 1.75-5.68.06-.2-3.5-2.52-4-2.5-1.3.05-3.7 2.24-4.84 2.92-1.62.96-3.23 1.93-4.85 2.9-1.27-3.22 1.75-5.58 3.62-7.55-2-1.58-2.05-2.02-4.26-.96-1.5.7-2.6 1.72-3.9 2.8-1.64 1.4-2.65 2.25-4.6 2.9-.35.13-3.84 1.36-2.86 2.44 1.3 1.44 2.6 2.75 3.66 4.4 1.48 2.34 1.3 2.03 3.64.85 3.36-1.68 6-.24 9.56.68-3.9 3.3-7.8 6.6-11.7 9.92 1.68 1.44 3.73 2.63 4.7 4.75 1.26 2.72 2.5 5.42 3.72 8.12-2-.38-4.02-.75-6.06-1.1 2.14 1.56 4.28 3.12 6.4 4.7-1.55 1.1-3.14 2.2-4.72 3.35 1.95.56 3.9 1.14 5.86 1.72-2.42 4.48-4.5 10.15-7.58 14.06-3.32 4.2-5.86 8.87-10.62 10.86-5.13 2.13-10.22 4.27-15.43 6.16-1.6.57-3.2 1.17-4.8 1.75-1.32.47-1 .48-.7 2.04.2 1.02.2 3.1-1.58 2.17-.48-.24-1-2.62-1.24-3.22.6-.13 1.1-.6 1.7-.73-1.8-1.4-5.06-2.46-7.06-.85-1.7 1.37-5.82 3.4-6.52 5.65-.2.7-1.56 3.64-1.2 4.23 1.02 1.63 2.05 3.26 3.06 4.9 1.45 2.33 3.26 4.4 4.93 6.57 2.1 2.7 3.3 3.6 3.43 7.07.1 2.1 1.27 7.1-.3 8.56-4.45 4.1-8.85 7.98-13.65 11.55-1.58-1.62.63-4.05-.52-5.25-1.52-1.67-3.07-3.32-4.6-4.97-2.74-2.95-4.87-4.6-8.6-4.77.1-.9.23-1.8.34-2.7-3.64.15-2.97.64-3.27 4.6-.18 2.35-1.35 4.55-2.17 6.76-.35.94-.06 2 .02 3 .17 1.92.17 1.6 1.93 1.5.9-.04 2.04 5.78 2.34 6.83.53 1.75 3.96 3.37 5.32 4.4 1.17.92 3.4 3.04 3.94 4.47.8 2.06-.05 5 .44 7.2.5 2.08 1.7 4.2 2.48 6.2-3.07-.52-4.93-2.48-7.47-4.45-2.35-1.84-2.5-2.9-3.5-5.96-.7-2.1-1.33-6.92-2.8-8.5-2.2-2.34-4.4-4.65-6.58-7-1-1.07.4-6.8.56-8.42.27-2.95-.4-6.34-.6-9.28-.4-5.9-2.25-10.9-4.02-16.47-1.15 1.4-2.32 2.84-3.5 4.3-1.48 1.8-1.34 1.76-3.58 1.25-2.35-.55-2.16-.32-1.8-2.9.15-1.1 1.08-4 .64-5-1.57-3.64-2.42-6.83-5.37-9.2-2.6-2.07-3.47-5.65-4.83-8.77-1.3.9-3.15 2.9-4.7 3.12-2.7.37-5.42.76-8.15 1.13-.35.04-2.07 0-2.33.32-.46.53.33 2.37-.15 2.9-1.32 1.35-2.66 2.73-4 4.1-3.78 3.9-7.58 7.8-11.37 11.7-1.27 1.3-3.88 1.93-5.44 2.7-2.02 1-1.27 2.5-1.24 4.9.05 2.05.65 5.08.1 7.05-.5 1.84-1.97 4.77-1.47 6.65.76 3 1.12 4.3 3.03 6.53 1.65 1.94 2.4 4 3.42 6.42 1.86 4.32-5.5 8.1-6.02 2.26-.26-2.6-.33-4.94-.23-7.54.1-2.53-.8-2.9-2.5-4.7-.2 1.77.1 3.6-1.32 4.55-1.53 1-3.07 2.02-4.62 3.02-4.28-8.1-7.9-16.44-11.62-24.86-.97-2.2-2.6-4.74-3.1-7.1-.4-1.72-.15-3.92-.2-5.67-.16-5.38-.32-10.76-.5-16.13-1.14 1.55-2.26 3.12-3.4 4.68-1.13 1.57-1.27 1.36-3.16 1.28-2.1-.08-4.55-4.12-6.03-5.7 1.5-.35 4.7-.15 4.95-2.24-.8.07-1.93.4-2.7.24-2.2-.53-4.64-2.64-6.64-3.8-1.36-.77-2.25-4.32-2.94-5.78-.75-1.62-12.18.9-14.08 1.14-4.23.5-8.5-1.18-12.65-2.12-1.8-.4-3.9-.22-4.85-2.06-1.67-3.32-1.27-4.27-4.56-3.06-2.76 1.02-4.44.63-7.36.16-1.8-.3-2.95-2.5-4.6-3.28-2.96-1.42-3.27-1.75-4.7-4.9-1-2.08-1.38-4.8-3.58-5.12-3.8-.55-3.8-.4-6.42 2.7-.9 1.08 2.27 4.9 2.95 6.02 2.37 3.97 4.4 8.18 6.55 12.3.3-1.87.6-3.73.9-5.6 1.57 2.8 1.24 5.56 1.34 8.8 2.72-.16 7.28.3 9.78-1.22 2.5-1.54 4.76-5.42 6.75-7.7.18 2.35-.4 6.18 1.53 7.48 1.12.77 2.3 1.9 3.54 2.43 1.1.47 2.4.05 3.02 1.25.48.86 1.23 3.24 2.18 3.4 1.68.28 1 1.45.87 3.16-.1 1.72-3.65 4.66-4.74 5.94-.07-.55-.48-1.05-.55-1.6-.95 2.1-1.47 3.17-1.47 5.48 0 2.03-.74 1.82-2.43 2.63-1.76.84-3.5 1.68-5.23 2.5-1.03.48-1 3.4-2 3.88-.8.4-2.1-.67-2.95-.3-1.3.56-2.57 1.12-3.83 1.66-1.74.78-1.5 3.13-3.12 3.7-2.9 1.04-5.77 2.07-8.66 3.12-.87.3-1.02.75-1.56 1.6-.7 1.1-1.6.96-2.8 1.18-2.48.48-4.95 1.3-7.4 1.95-1.84.47-2.2 2.56-4.2 2.56-3.1 0-3.38.7-3.97-2.5-.62-3.26-1.22-6.52-1.82-9.76-.96-5.07-3.4-8.4-6-12.76-1.54-2.6-1.78-3.07-4.45-4.07-1.55-.57-1.53-5.24-1.82-6.88-.42-2.47-2-4.7-3.1-6.9-.65-1.3-2.17-1.95-2.98-3.4-1.72-3.1-3.44-6.15-5.16-9.26-.87-1.52-1.52-4.18-3.55-3.65.23-1.88.5-3.78.76-5.7-.74 2.28-1.5 4.55-2.24 6.82-2.57-2.72-3.9-5.08-5.63-8.54-1.84 2.32 1.4 6.2 2.44 8.3 2.1 4.3 4.2 8.6 6.33 12.9 1.25 2.6.8 5.47 2.68 7.5.8.85 2.8 2.27 3 3.52.33 2.2.67 4.35 1.02 6.55.18 1.27.07 3.7 1.03 4.62 1.18 1.14 2.98 2.33 3.87 3.74 1.78 2.78 2.57 7.05 3.74 10.18.4 1.1 3.46.9 4.22 1.8 1.17 1.37 2.35 2.74 3.52 4.12 1.96 2.27 5.93 4.78 2.87 7.73 2.07.63 4.3 4.87 5.97 4.45 5.64-1.5 11.28-3.03 16.93-4.53 1.04-.27 4.05-1.54 4.92-.02.54.94-1.44 6.35-1.7 7.52-1.03 4.5-4.3 8.78-6.43 12.73-1.84 3.38-3.34 7.04-5.94 9.76-6.82 7.17-14.8 13.8-19.9 22.57-1.15 1.93-8.44 11.9-7.26 13.65 2.04 3.06 2.06 3.63 1.83 7.42-.2 3.43 0 3.68 1.98 6.36 3.07 4.15 2.03 10.58 2.27 15.8.18 3.85-2.92 8.34-6.04 9.84-1.72.83-5.22 1.64-6.54 3.16-1.7 1.98-3.4 3.95-5.1 5.94-1.5 1.74-3.32 2.56-2.37 4.82.65 1.5 2.96 5 2.78 6.65-.2 1.97.13 6.46-.9 8.04-.86 1.4-5.14 2.46-6.58 3.15-2.4 1.14-1.87 2.24-2.15 5.18-.14 1.55.15 5.82-.73 7.1-2.83 4-5.46 8.76-8.74 12.32-1.73 1.87-3.92 3.38-5.82 5.02-1.08.94-3.17 3.63-4.57 3.9-5.03 1.07-10.08 2.13-15.13 3.18-2.3.5-4.66.98-6.98 1.47-1.13.22-3.4-2.72-4.2-3.48-2.74-2.47-2.65-2.43-2.24-6.38.17-1.5-1.55-4.2-2.08-5.54-1.17-2.94-2.36-5.88-3.53-8.8-.7-1.76-2.87-3.1-4.15-4.37-.87-.86-.85-4.93-1.03-6.14-.52-3.36-1.02-6.7-1.54-10.05-.7-4.5-2.95-8.05-4.93-12.06-1.3-2.64-2.6-5.26-3.87-7.87-.57-1.16.2-3.32.4-4.5.84-5.77.98-11.18 3.75-16.14 2.7-4.78 1.06-8.58-.1-13.53-1.26-5.36-2.5-10.7-3.74-16.05-.4-1.63-2.54-3.55-3.5-4.8-1.83-2.46-3.62-4.9-5.45-7.34-1-1.3-.3-3-.1-4.65.38-3.33.78-6.67 1.18-10 .34-2.87.48-3.03-1.17-5.3-1.9-2.64-1.8-2.85-4.75-2.67-1.7.08-5.16 1.18-6.38-.33-1.75-2.15-3.5-4.3-5.25-6.44-.75-.93-11.4.75-12.74 1.44-2.5 1.27-5.04 2.56-7.56 3.84-1.97 1.02-2.84.5-5.02-.07-2.26-.6-3.7-1.27-5.85-.5-2.77.95-5.53 1.94-8.28 2.9-1.3.48-2.8-1.3-3.85-2.07-2.65-1.9-5.3-3.82-7.94-5.72-3.36-2.4-5-3.53-7.08-7.13-3.36-5.9-6.73-11.73-10.1-17.6-1.08-1.87-2.16-3.75-3.25-5.63-.5-.88 1.3-4.16 1.62-5.06.57-1.55 2.32-4.4 1.95-6.12-.62-2.82-1.25-5.6-1.9-8.4-.4-1.87-1.83-5.24-1.58-7.18.16-1.17 1.6-2.88 2.15-3.88 3.24-5.85 6.47-11.72 9.72-17.6 2.3-4.13 5.02-5.32 8.93-7.8 2.02-1.3 2.93-1.3 3.3-3.8.47-3.1.95-6.2 1.42-9.3.56-3.66 7.85-4.34 9.27-7.9 1-2.5 1.44-5.95 3.94-6.66.65-.18 2.46 3.2 4.48 2.76.9-.2 2.96-1.1 3.83-.65.46.26 2.3 1.64 2.74 1.38 1.97-1.16 3.92-2.6 5.98-3.54 3.77-1.72 8.45-3.38 12.5-3.9 1.1-.1 2.82-.7 3.87-.4.87.3 2.16 1.06 3.07 1.02 1.04-.05 2.02-1.25 3.04-1.43.87-.17 1.97.1 2.84.14 2.74.16 4.63.63 7.02-.8 1.93-1.18 3.73.37 5.73 1.2-1.5 3.26-1.8 3.38-.12 6.5.78 1.4-2.23 3.57-3.22 4.66 1.6 1.43 3.56 4.07 5.58 4.6 3.45.9 6.9 1.83 10.35 2.74 2.66.7 1.9 3.64 4.55 4.78 2.3 1 4.5.6 6.62 2.12 3.02 2.12 4.6 2.65 6.55-1.16.45-.9-1-2.28-.55-3.1.38-.67 1.17-2.83 1.86-3.02 3.35-.95 5-1.47 8.36-.57.73.2.06 1.73 1.03 1.92 1.56.33 3.12.63 4.68.96 1.26.26 1.32.86 1.96 2.13.34.67 1.54-.78 2.1-.6 2.5.72 5 1.46 7.5 2.2 2.74.8 3.1.8 5.7-.47 2.9-1.4 3.17-1.85 6-.47 3.4 1.65 8.65 1.12 10.2-3.18.96-2.68 5.7-11 3.84-13.7-1.18-1.73 1.4-5.44.8-6.1-.7-.76-1.67.45-2.22.9-.7.6-1.64-.9-2.37-.73-.95.18-1.74 2.2-2.65 2.63-.85.4-2.52.1-3.46.16-2.17.08-3.1-2.24-5.08-2.6-1.3-.23-2.4-1-2.92.46-.57 1.74-.56 1.65-2.27 1.97-1.64.3-4.37-1.97-5.7-2.76-2.46-1.4-6.73-8.56-4.07-11.53-.87.1-1.77.2-2.65.3-.37-2.93 3.45-3.74 5.05-3.78 3.07-.1 4.63-.15 7.34-1.67-.84-.42-1.7-.84-2.53-1.28.52-1.45 3.6-.82 5-.63 2.56.37 2.7-.35 4.74-1.7 1.3-.86 3.2-2.23 4.8-2.1 2.07.15 3.98.5 5.97-.2-.48.84.35 1.6 1.26 2.03 1.4.7.88-1.2 2.3.83.54.73 4.44 1.32 5.7 1.84 2.1.84 3.43-.42 5.57-.15 2.4.28 4.1-.62 6.14-1.93 1.72-1.07.75-4.07-.32-5.28-1.52-1.7-3.4-2.03-5.03-3.6-1.75-1.64-3.18-3.74-5.52-4.04-.24-.03-2.05-1.2-2.37-1.42-.94-.64-1.82-1.4-2.74-2.07.1-.2.76-1.06.76-1.07.88.18 1.74.35 2.62.52-.8-2.8 1-3.65 3.04-3.6-.97-.8-2.3-1.55-2.82-2.7.87-.03 1.76-.06 2.63-.08-.64-2 1.96-.54 2.35-1.76.45-1.45-1.67-.8-2.27-.7-2.16.35-4.52.4-6.05 2.43v-.72c-2.42.58-3.36.98-5.23 2.75.14-.3.28-.63.44-.93-2.48-.3-1.36 2.8-.35 3.98 1.25 1.5 3.22.74 5.26.74-1.44 2.6-3.12.66-4.7 1.5-1.68.9-4.9 3.83-6.73 2.36 1.1-3.05-.32-2.67-2.86-3.88 1.25-.66 6.1-2.42 2.8-3.53-1-.35-2.2-.08-3.27-.04-.76.06-1.8-1.12-2.46-1.58 1.34.1 3.03.8 3.74-.7-1.46.72-5.15-.95-6 .03-.97 1.1-3.77 3.24-4 4.72-.13.9-.1 2.82-.55 3.55-.47.67-2.36.6-2.53 1.44-.55 2.64-.4 4.6-2.56 6-2.1 1.36-1.6 3.8-.6 5.76.63 1.25 4 2.82 3.83 3.4-.56 1.7-3.64-.46-4.75.6-1.67 1.54-3.3 3.08-4.97 4.62-.18-1.8.85-2.14 2.07-2.9-.95-.4-2.07-.4-3.17-.84-1.74-.66-2.73-.24-4.27-.66-.77-.2-1.75.43-2.47.72-.68.25.28 1.52-.1 1.82-1.36 1.13-2.3.1-3.5-.72-1.26 1.42.15 2.77.88 4.07 1.13 2.02 1.2 1.8-.4 3.43 2.08 1.46 4.37 1.97 3.92 5-1.25-.97-2.12-2.14-3.43-.5 1.63.3 1.77 1.32.6 2.24-1.23.95-.6 1.5-.1 3.02-1.4-.27-2.47-.03-3.08-1.45-.57-1.22-1.17-.86-2.2 0-1.1-3.7-1.84-4.03 1-6.33-2.63 0-2.63-.33-4.23-2.72-.9-1.34-1.55-3.62-2.73-4.6-2.1-1.7-1.33-3-1.07-5.84.23-2.62-.63-2.62-2.6-4.18-2.6-2.06-5.58-4.93-8.8-5.35-.8-.12-2.68-2.6-2.97-3.48-.76-2.55-.97-3.22-2.94-4.75-.9 2.68-1.96 1.34-2.3-.6-.36-1.88.02-1.4-2.04-.86-2.06.58-3.25.76-1.97 3.1.44.8-1.15 2.72.3 3.83 1.2.88 3.16 1.8 4.05 3.03.92 1.3.78 3.3 1.97 4.36 1.46 1.24 2.2 2.26 4.03 2.35 1.18.07 3.27 0 1.4 1.5 1.7 1.4 10.2 4.92 8.04 7.8-.86-.44-3.32-3.8-4.3-2.85-1.04.96-1.17 1.2-1.5 2.6-.28 1.24.5 1.16 1.37 1.83 2.48 1.92-1.67 2.46-1.52 3.62.2 1.66-3.1 4.57-3.04 1.87-1.67.96-2 3.04-1.17 4.66.83 1.66-2.55 2.2-2.94.88-.73-2.43-8.85-2.14-5.67-5.66.45.52 4.85.9 5.86.68 1.17-.27 3.2-.3 4.22-.98 1.04-.7.1-1.44 1.25-2.04.77-.4-1.14-5.44-1.7-5.52-.66-.07-2.3-.12-2.12-1.16.2-1.32-1.07-1.8-2-1.3.18-1.12-2.24-2.93-3.2-2.8-1.75.24-2.73-1.5-3.98-2.74-2.24-2.17-5.27-3.26-5.96-6.26-.66-2.8-.66-3-3.03-4.22-1.22-.66-2.74-1.14-3.64-.03-.63.78-7.04 5.5-7.86 5.22-2.1-.68-4.22-1.4-6.35-2.1-1.08-.33-2.77 1.97-3.58 2.72-.43.38.84 3.62.04 4.76-.8 1.1-3.66 1.87-4.83 2.46-3.45 1.8-4.5 4.56-6.57 8.12-.62 1.04 2.06 2 .77 3.72-.78 1.1-2.88 2.8-2.25 4.1-.75.2-2.52.25-2.94.96-.4.6-1.2 2.58-1.9 2.65-2.23.2-4.37.1-6.6 0-1.95-.1-3.1 2.32-4.64 2.8-1.4.47-3.9-2.63-2.18-3.86-1.7.8-2.5-2.08-4.66-.85-1.7.98-2.98-.5-4.52.67.24-1.27.6-2.5.5-3.8-.07-.7-.12-1.43-.18-2.14-.07-.77-.8.18-1.08-.26-1.3-2-.34-2.46.18-4.7.53-2.16 2.1-5.52 1.23-7.6-.83-1.95-.43-4.16-.05-6.15-1.2.96-2-.87-1.5-2.02.44-1.05 2.7-1.07 3.47-1.2-.1-.23-.23-.48-.38-.7 2.08-1.86 3.05.68 4.86.22 2.57-.64 3.5-.78 6 .02 1.94.62 3.57-.38 5.33.27 1.23.45 3.56.78 4.82.52 3.43-.74 2.98-7.43 2.96-10.17-.03-2.6.43-3.42-2-4.2-1.42-.42-1.6-2.96-1.3-3.73-1.32.3-.8-.5-1.35-.73-.6-.3-2.1-.36-2.35-.54-1.05-.82-1.44-1.35-2.73-1.28-.93.08-1.54-.04-2.13-1.04.36-.03.7-.3 1.08-.33-.85-.4-1.44-1.05-1.42-2.07 1.48-.1 3.04.13 4.3-.76 2.63-1.84 1.14 1.47 2.83 1.03.6-.13 3.85-.66 3.7-1.57-.23-1.53-.7-2.64-1.32-4.05.7.07 1.97-.17 2.23.6.35 1.06.22 1.13 1.2 1.25 1.95.25 2.74.13 4.6-.62-.46-.02-.88-.36-1.3-.4.94-1.37 2.76-1.82 4.17-2.5 2-.98-.1-2.3.88-3.9.44-.7 3.56-1.42 4.45-1.84 1.6-.76 2.53-.66 4.27-.53-.6-.2-2.27-.4-2.3-1.1-.02-.15 1.56-.3 1.7-.46.27-.3 0-1.05.32-1.45 1.06-1.4 1.28-2.26 1.7-4.06.17-.85 1.6-.67 2.14-1.3 1.8-2.2 3.6-.93 5.73-1.6.3-.1 0-1.13.54-1.23.6-.06 1.2-.16 1.78-.25.87-.14 1.9.2 2.78.3-.32-1.7 1.1-1.25 2.3-1.4-.65-.24-2.44-1.75-1.56-2.44 1.46-1.13.18-1.04-.3-2.54-.48-1.6.46-2.44-.87-3.53-1.05-.9-.8-1.47-.88-2.96-.1-2.45.38-5.2 2.94-5.3 1.96-.07 3.6-2.16 5.47-3.14-1.32 1.93-2 6.02.85 6.72-1.67 2.66-4.8 3.53-4.24 7.08.43 2.6 2.85 4.8 5.26 3.66-.33.7-.65 1.4-.98 2.1 2.37 1.37 4.4-2 6.42-2.24.74-.1 2.68 1.14 2.94 1.93.4 1.37 1.63 1.66 2.8 2.32.13-.32.2-.93.2-1.3-.65-.05-1.3-.13-1.97-.2 1.45-.9 6.56-1 7.57-2.34 1.62-2.16 6.4-3.5 8.57-1.62-.2-.14-1.02-.4-1.44-.63.05 2.23 3.07 2.54 4.2 1.18.46-.5.63-1.8.93-2.1.25-.25.87-.04 1.15-.3.77-.67 1.77-1.03 2.32-1.92-.25.87-.88 1.42-1.46 2.1 3.74 1.83 1.5-5.07 1.4-6.76-.07-1.38.3-2.47 1.14-3.48.8-.95.15-2.47 1.46-3.45 3.34-2.5 4.14 3 6.6 3.18 1.37.1 2.35-1.87 2.15-3.07-.14-.78.52-3.9.32-4.07-.37-.3-1.08.6-1.34.38-.53-.4-1-1.07-1.48-1.57-.37-.42-1.06-3.22-.7-3.37 2.33-1.03 5.2-2.5 7.8-2.18 1.9.24 3.8.47 5.72.72 2.63.32.4-.63 1.96-1.64 1-.63 2.48-.24 3.66-.97.8-.53 2.68.22 3.6.35-.54-1.77-4.07-2.4-5.6-3.04.27-.4.27-1.08.56-1.45-5.34 1.03-10.82 2.33-16.28 3.38-.56.12-2.82.94-3.16.36-1.08-1.72-1.37-2.02-3.12-2.74-2.14-.86-1.94-.68-1.57-3.15.27-1.72.36-2.46-.07-4.1-.28-1.12-1.48-3.74-1.23-4.9.2-1.06 2.4-2.73 3.08-3.54 1.75-1.98 4.1-3.23 5.75-5.32.86-1.04 2.16-3.52 3.3-4.1 1.07-.5 2.75.56 2.12-1.6-.73-2.7-2.8-3.98-5.44-4.06-3.7-.14-4.03-.28-6.62 2.62-1.64 1.84-2.5 3.32-1.16 5.66 1.18 2.13-8.88 7.32-9.73 8.4-2.52 3.2-6.77 8.26-4.05 12.96 1.17 2.02 4.52 1.95 5.57 4.27.75 1.64-2.05 3.05-3.25 4.1-2.1 1.8-3.7 2.5-4.13 5.38-.34 2.3-.25 5.68-1.17 7.8-1.24 2.88-3.4 2.88-5.9 3.42-.97.18-.92 1.4-1.2 2.4-.32 1.23-1.05.85-2.2.92-1.76.12-1.93.56-2.2-1.38-.16-1.02-.7-2.63-.34-3.6.74-2.03-2.18-4.47-3.36-6.04-.5-.67-.2-1.94-.57-2.73-.48-.98-1.3-2.14-1.54-3.2-.25-1.05.68-2.86-.48-3.1-1-.25-1.16-1.98-1.5-3-.7 2.76-1.24 3.03-3.4 4.6-1.52 1.1-2.74 2.76-4.3 3.7-2.4 1.48-8.57.72-8.7-3.03-.15-4.6-1.93-9.07-1.7-13.66.18-3.95.46-3.97 3.3-6.38 1.62-1.35 3.32-2.1 5.16-3.03 2.22-1.1 4.15-1.8 5.84-3.7 1.53-1.73 3.07-3.34 4.75-4.92 3.55-3.38 5.16-7.58 7.78-11.8 2.56-4.14 5.9-7.17 9.08-10.75 3.1-3.48 5.9-7.3 10.03-9.17 4.64-2.12 9.14-3.63 13.97-5.1 1.83-.55 2.78-3.52 4.45-4.5 1.6-.96 4-1.2 5.78-1-2.26 2.48-3.25 3.6-4.1 6.93 2.08-.4 3.88-3.9 5.2-5.57.24 1.05.44 2.1.63 3.15.96-1.25 1.9-2.5 2.83-3.76.4-.54 2.82 0 3.48.05-.6.97-1.16 1.92-1.74 2.9 2.5 1.9 1.05-2.72 3.08-1.92 2.12.83 4.27 1.68 6.4 2.5 1.8.74-1.54 2.44-2.23 2.6-1.53.32-3.66-.37-5.23-.52.8 1.48 2.47.95 3.17 2.65.18.42 2.33-.25 3.1-.2 1.84.17 3.57.97 4.78-.66.55-.8 2.83.9 3.62 1.3-.45 1.7-2.05.6-3.26.32-.52 3.52 5.57 2.16 7.22 2.2 3.45.14 5 1 8.1 2.76 2.88 1.63 5.4 3.04 8.5 4.03 2.33.74 5.36 2.25 6.27 4.95.88 2.67.75 2.6-.74 4.9-.94 1.42-1.24 2.3-2.72 2.8-3.38 1.1-4.48 1.26-7.82.48-6.26-1.48-11.35-2.9-17.14-5.83 1.68 1.72 6.52 4.92 6.52 7.47 0 2.57-.43 7.75 1.9 8.75 2.64 1.14 6.03 4.18 8.62 3.1 1.52-.64.72-3.08-.8-3.08-1.6 0-2.15-1.4-3.2-2.73 2.4-2.17 2.55-1.67 5.5-.64 2.4.85 4.82 1.66 7.2 2.5-.2-.63-2.1-5.3-1.84-5.47 1.82-1.24 3.63-2.45 5.43-3.65.94-.64 2.72-2.5 3.85-2.13 1.9.57 3.83 1.14 5.74 1.7.25-1.08 1.16-3.1.76-4.15-.1-.3-1.98-3.32-2.08-2.93.43-1.77.86-3.5 1.26-5.26.17-.62-1.9-2.5-2.3-3 2.3.3 4.63.58 6.94.9 1.74.2 2.9 2.87 3.96 4.3-1.14.1-4.53-.23-5.14.84-1 1.73.86 2.88 1.96 4.32 1.2 1.55 3 .57 4.77.3 2.17-.3.6-1.94 1.8-3.5.52-.7 2.5-1.13 3.27-1.48 2.08-.94 4.18-1.9 6.27-2.85 3.2-1.43 6.4-2.87 9.57-4.32.92 3 .9 2.97 3.7 3.68 1.83.45 2.78-2.96 4.35-2.8 2.37.3 3.78.64 5.92-.4 2.47-1.17 3.15-1.08 5.82-.48-.4.7-.82 1.4-1.23 2.1 2.94.9 2.82 1.03 4.77-1.57 1.8-2.42.63-2.62-1.17-4.97 4.13-1.8 10.08-1.16 14.3.52 2.85 1.14 5.7 2.27 8.56 3.4 2.04.83 4.1 3.12 5.92 4.5.13-1.1 1.2-4.7.35-5.32-2.1-1.57-4.2-3.13-6.3-4.7-1.4-1.03.83-3.98 1.42-5.4.5-1.18-2.75-2.43-3.7-3.05 2.07-1.63 4.14-3.28 6.2-4.93 1.42-1.13 2-5.16 2.6-6.92.78-2.22 10.6.1 12.9.34-.87 2.4-1.76 4.85-2.64 7.25-.47 1.27 1.68 4.2 2.24 5.37 1.04 2.12-2.38 11.6-.7 12.75 2.03 1.35 4.34 1.6 3.26 4.18-.62 1.43-1.32 4.78-2.6 5.58-2.22 1.37-4.44 2.73-6.67 4.1-.98.6-4-.45-5.16-.6 2.84 2.34 6.07 4.38 9.9 3.1 3.03-.97 6.43-5.2 8.7-7.48 2.5-2.55-3.98-6.4 1.34-8.02 1-.3 3.9-1.88 4.7-.95 1.33 1.57 2.7 3.14 4.04 4.7-.3-2.06-.06-4.03-1.7-5.2-2.17-1.56-2.4-1.58-4.98-1.2-.6.12-5.83 1.26-5.96.77-.4-1.4-1.7-3.95-1.06-5.33.82-1.73 2.77-4 1.63-5.68-.9-1.34-3.7-4.03-2.74-5.54 1.28-2 3.16-2.3 5.22-3.17 1.53-.62.22-4.2-.18-5.12 1.13-.28 3.34 2.77 2.68 4.03-1.54 2.98-1.37 2.9.26 5.83 1.1 1.98 9.27 2 11.35 2.15-3-1.06-5.85-2.23-8.72-3.6-3.3-1.56 2.44-4.03 3.76-4.45 4-1.26 5.64-.3 9.62 1.2 1.22.48 2.33 1.43 3.46 2.15 1.07.72 2.6.06 3.8-.13-.38-1.06-.8-3.58-1.57-4.32-.76-.73-3.6-.6-4.63-.78-1.35-.23-1.62-6.13-1.88-7.65 4.46-.46 8.93-.9 13.4-1.36 2.53-.25 5.05-.53 7.57-.77 1.68-.18 1.02-1.94 1.06-3.63.1-3.3-.17-3.35 2.38-4.87 1.82-1.1 3.75-2.63 5.7-3.38 4.16-1.56 9.22-1.7 13.53-2.5 8.2-1.5 16.07-2.48 23.88-5.47 1.82-.7 1-3.68 2.48-4.44 2.3-1.2 4.64-2.36 6.92-3.55 2.76-1.4 7.74-1.4 9.8 1.58-2.2.67-4.38 1.32-6.55 2 3.45.47 6.9 1 10.34 1.47-1.42 1.25-2.84 2.5-4.25 3.72 1.9.13 3.8.24 5.73.37 0-.75-.3-3.62.4-3.6 1.5.06 3 .12 4.46.18 2.25.06 4.74-.4 6.68.9 1.95 1.35 5.2 2.7 6.7 4.66.37.5 2.3 2.44 2.03 3-.32.7-.9 2.9-1.5 3.3-9.26 5.68-18.5 11.38-27.76 17.06 6.4-1.8 12.82-3.63 19.24-5.44-1.66-.26-3.3-.5-4.95-.75 1.98-1.68 5-3.25 7.35-1.53 3.5 2.58 4.3 2.45 8.54 2.06 5.52-.53 11.1.63 16.6 1.22-1.04.62-2.1 1.23-3.14 1.85 1.35.66 3.8 2.56 5.22 2.47 2.2-.1 4.4-.23 6.6-.34 1.3-.07 4.92.6 5.16-1.08.47-3.38.14-3.27 3.13-3.3 2.06-.03 4.26.2 6.3-.16 1.5-.32 4.72-1.68 6.18-1.2 1.45.5 3.45 3.9 4.53 5.12.66.72-.77 4.8-.8 5.92 0 .9.18 5.9.78 6.24 2.02 1.17 4.03 2.3 6.05 3.46.9.5 3.58-4.04 4.22-4.87 1.73-2.3 1.4-2.58 3.76-1.06 2.46 1.63 2.87 2.33 5.54 1.5 1.7-.55 3.7-1.8 5.4-.98 1.2.62 3.88 2.76 5.18 2.24 2.05-.86 4.1-1.7 6.2-2.56-.58-1.05-2.56-3.3-1.78-4.32.58-.8 2.48-4.3 3.4-4.2 3.97.52 7.94 1.04 11.94 1.56 3 .4 6.08 1.53 9.02 2.3 3.13.8 7.5 1.07 10.35 2.68 1.75.98 5.74 7.5 7.5 7.17 3.95-.68 7.93-1.35 11.9-2.03 3.25-.56 6.38 1 9.55 1.92 1.92.54 2.82.27 3.45 2.3.65 2.2.55 2.67-.1 4.87 3.34 1.1 5.93 2.36 9.37 1.76 4-.7 6.53-.9 10.5-.2 1.47.23 3.45 1.12 4.7.18 1.96-1.45 1.73-1.48 3.44.22 1.26 1.2 3.03 3.85 4.58 4.5 1.13.44 3.52-.37 4.73-.5-.37-2.65-.74-5.3-1.12-7.93 5.68.44 11.35.88 17.03 1.33 4.45.33 8.72 3.43 12.75 5.4 4.66 2.27 9.15 4.66 13.67 7.25 2.78 1.6 3.18 1.75 4.37 4.93 1.33 3.6.94 4.73 4.47 4.73-.42-1.44-.8-2.87-1.24-4.33 3.3 0 5.55.2 8.7 1.3 2.3.8 4.45 3.45 6.37 5.02-1.17.96-2.9 3.08-4.28 3.47-1.23.34-3.45-.55-4.72-.75zM569.26 264.13c.67.52 1.35 1.1 2.03 1.6.6-.5 1.2-.97 1.8-1.48-1.25-2.3-2.04-1.16-3.84-.12zM1156 563.1c-2.67 1.7-3.17 1.5-6.23.73-1.86-.48-.62-3.97-2.55-4.9.2 1.95-1.08 3.5-2.3 1.08-.33-.68.3-1.8-.17-2.5-.4-.5-1.12-1.23-1.32-1.88-.8-2.57.64-2.25-2.18-3.33-1.4-.55-2.12-1.95-3.44-2.3.73 1.46 1.44 2.93 2.14 4.43.27-.2.53-.42.8-.62.74 1.6 2.34 7.4 4.1 6.83-.63 1.84.62 3.64-.03 5.4-.9 2.45-1.25 3.07-3.25 4.6.76.66 1.52 1.58 2.37 2.1.52.32 2.26.4 2.56.95.96 1.8-1.3 4.22-2.23 5.25 1.74 1.1 3.66 2 4.94-.6 1.05-2.17 3.1-4.8 3-7.3-.05-1.53 1.78-1.67 2.66-1.25 1.04.5.2-.9.55-1.26 1.18-1.14 3.27-5.08.6-5.43zm-34.17 40.17c-1.05.37-.37 1.73-1.22 2.8 1.13-1.05 4.2-.5 1.23-2.8zm17.66-23.74c.06-1.45-.5-2.52-1.06-3.8-1.57.86-2.17.87-2.58 2.73-.44 1.97-.98 1.08-2 2.5-.72.98-.6 2.72-1.26 3.78-.67 1.03-2.16 1.9-3.04 2.68-1 .84-1.9 1.87-3.06 2.38-.84.4-2.82.85-3.4 1.62-1.9 2.53-3.77 5.05-5.63 7.57-1.94 2.57 3.72 1.88 4.5 2.77 1.12 1.3 5.2 2.7 6.34.78 1.3-2.1 3.64-4.7 4.3-7.14.88-3.38 2.1-3.9 4.8-5.88.2.84.72 1.3 1.5 1.4-1.03-2.1-1.18-2.3.2-4.1 1.38-1.8 2.76-3.58 4.15-5.38-.4-1.32-.8-2.64-1.2-3.98-.85.7-1.7 1.4-2.56 2.07zm-151.36-149.8c-1.57 2.05 1.52 2.05 2.38 1.93.63-.08.37-1.48.96-1.24.67.23 1.58.82 2.28.63 2-.54 2.6.26 4.35 1.47.8-3.53-3.07-3.87-5.2-4.43-1.75.3-3.6.13-4.76 1.63zm19.7-139.54c.44-.2 1.17 1.37 1.6.8.34-.46 1.63-1.67 1.65-2.23.2-4.06-5.22-.53-6.07-1.18-1.24 2.65-2.2 2.04-1.23 5.25 2.13 1.4 2.47-1.97 4.04-2.66zm71.86 149.72c-.92-.47-.75-1.87-2.15-2.3-.08 1.14.06 1.87.72 2.66.54.64.27 1.6.63 2 .75.9 3.8 1.78 2.8-.47-.47-.74-1.3-1.53-2-1.88zm-490.02-187c-1.22 1.04 1 3.2 2.08 3.13.86-2.65 1.08-3.88.77-6.68-.96.2-.12 1-.68 1.74-.5.73-1.5 1.28-2.17 1.83zm38.82-87.1c-.06-.37-.1-.75-.17-1.1h.53c-.27-2.23-3.2-.6-.36 1.1zm-6.92 16.5c.77-1 1.66-1.8 2.8-2.23-1.1-1.25-.1-1.95.66-2.98-3.32-.82-3.64 2.55-3.46 5.2zm571.97-37.6c-.7-.04-3.7-.7-4.2-.22-.75.7 0 2.25.53 2.68 1.85 1.48 4.38-.7 5.57.82 1.4 1.77 3.55 2.47 4.55-.45-1.94-.94-4.32-2.72-6.45-2.84zm-603.7 116.42c.1.5-.8 1.46-.9 2-.06.25.82.7.78.98-.24 1.56-1.56 1.7-.28 2.9 1 .94 2.03 1.07 2.16-.52.08-.92 1.44-.05 1.64-1.7.2-1.7.43-3.4.64-5.12.42-3.5-3.54-1.4-4.48-.76-.35-.14-.68-.25-1.03-.38-.63 1.87 1.2 1.32 1.48 2.6zM639.3 174c-2.3-.73-3.2-.54-5.48.15.78.85 1.38 1.7.83 3.04 1-1.75 3.06-2.2 4.64-3.2zm-40.95 15.1c-.3.93-.02 2.6 1.14 2.54 1.38-.1 1.12 1.1 1.4 2.48.26-1.6.08-3.28 1.93-3.46-.4-.25-.63-.82-1.03-1.08 4.6-.94-2.88-5.1-.68-.73-.98-.08-1.32-.53-.83-1.5-.3-.06-.8-.08-1.14 0 .23.78-.1 1.35-.8 1.74zm50.63 94.6c.07-1.27-2.43-1.7-3.53-1.56-2.26.33-2.86-.1-4.9-1.3-.27.34-.7 1.28-.77 1.73 3.3 1.04 5.74 1.2 9.2 1.13zm27.68-2.73c-1.08.48-2.7 1.67-3.86 1.58-.68-.07-3.26-.62-3.78.4-1.72 3.4 5.27 1.44 5.95 1.24-.9-1.63.7-2.34 1.7-3.23zm-82.8-91.22c.12.85 1.53 2.76 2.4 2.55 1.27-.28.98-1.98-.08-2.2-.3-1.23-1.32-.92-2.32-.35zm436.33 57.6c-.14.68-.13 2.3-.7 2.6-1.16.62-1.35.62-1.7 1.96-.1.37 1.14 4.3 1.5 4.4.43.17 1.08-1.54 1.8-1.35.5.14 1.67.24 1.1-.74-.68-1.2-2.86-.4-2.54-2.52 1.07-.36 2.2.75 2.77.45.6-.3 2.07-1.22 2.63-.66.86.8 3.52 3.1 4.62 2.57-.07.02.7-2.58.9-2.84.43-.55 1.86-1.43 2.5-1.4 1.96.08 3.52-.26 4.9-1.9-3.66.1-.9-3-1.45-4.56-2.53 2.64-2.63 1.93-5.82.32-2.24-1.15-3.34-3.2-4.9-5.34-1.97-2.67-1.14 3.28-.88 4.16.33.97-1.4 1.96-1.3 3.04.1 1.04.22 1.7-.35 2.66-1.03-.28-2.06-.55-3.08-.84zm-85.92 200.68c0 1.9 1.33 3.5 2.7 1.7 1.38-1.8-1.5-2.2-2.7-1.7zm18.75-79.74c.96 1.64 1.92 3.28 2.87 4.94 1.94-2.3 1.66-3.5-.57-5-.76 0-1.53.03-2.3.05zm-3.55 54.5c-.45 1.4-.12 2.32-.82 3.86-.97 2.08-1.53 2.3-.26 4.17.72 1.03 2.5-.36 2.13 2.1-.14 1-1.28 4.9-.8 5.66.43.73 3.1 1.12 3.57.23.23-.4-.5-1.7-.5-2.22.03-.6.67-1.18.73-1.8.16-1.23-.14-2.85.04-4.26.16-1.43-1.75-2.35.97-2.7 1.5-.15.33 2.67.52 3.32.52 1.6 2.4 1.32 1.94 2.97-.47 1.67.67 2.02 1.94 1.72-.6.16 2.74-2.62 2.34-1.72.98-2.25-1.32-1.12-2-2.8-.2-.4.97-1.24.68-1.77-.4-.8-.83-1.56-1.24-2.35-.68-1.28-1.37-1.2-2.25-2.16 3.04 1.13 4.15-4.97 6.84-3.23.75-2.66-1.58-1.05-2.55-1.02-1.28 0-1.33.57-2.32.84-1.18.3-.58-1.1-1.74.2-2.92 3.17-5.98-2.42-3.73-5.15 1.07-1.32 2.46.2 3.93.06 1.66-.12 3.86-.83 5.4.03 3.72 2.2 5.84-1.96 7-5.23-1.58.02-2.84 2.46-4.2 3.37-.76.48-2.07-.42-2.9-.46-1.02-.07-.84.67-2.05.26-1.54-.53-4.34-2.2-5.84-1.2-1.96 1.27-2.4 2.37-3.52 4.58 1.4 2.04-.7 2.95-1.3 4.7zm8.6-48.24c.3 3.75-.18 6.44 3.72 4.57-1 1.3-3.26 3.52-1.12 4.5.83.37.53 1.52 1.55 1.34.95-.15.5-1.6.48-2.54 0-1.34 1.66-3.95 1.15-4.85-1.23-2.1-1.85-2.32-4.02-3.16-.5-.12-1.22.1-1.75.14zm8.02-2.84c.04 1.3 1.05 1.73 1.96 2.5 1 .87-.1.96.55 1.8 2.26 3 2-1 1.65-2.88-.58-2.18-2.55-1.5-4.15-1.42zm-2.5 1.22c.4.83 1.06 1.5 1.8 1.94.14-.52.15-1.52.1-2.06-1.36.1-1.05-1.5-2.87-1.37.5.94.3 1.92-.43 2.65.35-.45.94-.8 1.4-1.16zm4.94 3.05c-.84.46-1.66.15-2.3-.6.1 1 0 1.87.57 2.57 1.42-1.23.43 2.38 1.85 3.2-.08-.55 0-1.13-.1-1.65.2.46.46.92.66 1.42.87-1.3-.78-3.17-.66-4.95zm-5.5 7.38c.25-1.58 1.07-2.68 2.14-3.68.63-.6.26-2.53.5-3.5-.17.1-.34.2-.53.28-.66 2.1-2.45 4.68-2.1 6.9zm2.37-.53c1.55.3 2.58-2.08.58-2.3-.58.53-2.47 1.9-.57 2.3zm60.5-170.14c-.04 2.36.24 4.53-.77 6.6-1.3 2.7-.28 2.75.27 5.48.32 1.7.27 1.8-.62 3.25-.45.73.2 1.92.2 2.76.02 2.65-.43 3.2.6 5.77.34-1.42.33-3.68 2.02-3.95 1.76-.3 2.56 1.84 2.48 3.3 1.64-1.7-.36-4.4-1.3-5.97-1.18-2.03-1.93-2.44-1.2-4.74 1-3.15.67-4.03 3.66-4.6 1.96-.36 1.76 2.97 3.64 3.02-1.56-2.83-2.23-5.22-3.03-8.43-.4-1.48-.76-2.96-1.14-4.46-.24-1-1.4-1.8-1.6-2.82-.53-3.24 2-4.84.36-8.07-.88-1.7.18-6.43-2.9-4.07 1.17 1.16 1.9 3.03.65 4.2-.5.48-.67-.55-1.65.23-1.02.8-.7.96-.34 2.3.4 1.54-.53 4.17-.8 5.76-.26 1.7 3.14 2.63 1.5 4.45zm12.05 225.38c-1.08-1.2-.38-3.06-1.9-4-1.47-.94-2.97-1.88-4.43-2.8-2.2-1.37-5.14-1.98-7.5-2.88-3.85-1.44-7.67-2.92-11.5-4.38-1.85-.7-4.85.7-6.1 2.38-.45.6-2.47 3.9-3.03 3.67-1.62-.78-2.43-.86-3.1-2.6-.73-1.93-1.2-3.36-1.45-5.45-.28-2.18-.86-1.76-2.83-2.25-3.02-.7-6.13-.05-7.8 3.17 1.07.2 2.13.33 3.2.48.56.1-.02 1.84.7 2.22 1.8 1 4.07.4 6.07.3.06.4-.02 1.17-.16 1.56-2.43-.82-3.85-.34-6.37.25 1.05 1.8 2.1 3.58 3.15 5.37.9-1.14 1.84-2.25 2.78-3.4.47 2.68.44 2.58 2.7 3.53 2.63 1.13 5.24 2.25 7.9 3.36 1.07.47 3.82 1 4.34 2.23.9 2.12 1.78 4.24 2.66 6.35-3.1.88-3.4.55-3.8 4.03 2.36-.22 4.72-.45 7.1-.7 1.2-.13 2.12 3.56 3.6 3.64 2.5.12 4.8.78 6.96-.62 1.22-.77 1.75-4.55 2.85-4.37 1.36.18 5.36-.04 6.33.98 1.88 2 3.77 3.98 5.67 5.98 1.5 1.58 3.47 1.4 5.5 1.76 1.4.24 3.6 1.93 4.72 1.54-.84-.92-3.57-2.78-2.25-3.88-1.28-.3-3.12-.1-2.25-2.06-3.1-.12-2.93-.9-4.4-3.87-.36-.75-1.73-1.3-2.38-1.73-.63-.42-.9-2.02-1.16-2.76 1-.1 2-.2 3-.34.4-4.26-5.18-2.9-6.83-4.68zm12.34.37c-1.35.04-2.7-.35-4 .12.87 2.1 5 3.2 6.95 2.73 1.48-.35 3.37-1.02 4.04-2.52.23-.5 3.17-.3 1.34-2.16 2.48-.54 1.34-2.52-.03-3.45-1.8-1.18-1.4 2.16-1.37 3.05-.2-.03-6.13 4.3-4.65.74-.23-.5-1.05 1.43-2.3 1.5zm-5.37 138.12c-1.03.4-4.1 2.36-5.08 1.9-1.8-.8-3.62-1.6-5.4-2.4-.37 2.75-.04 6.2 1.02 8.76 1.4 3.3 3 4 5.97 4.57 3.6.7 7.14-11.65 3.5-12.83zm16.9-140.64c.8-1.8 1.08-1.88.08-3.53-.15-.24-.77.2-1.06-.22-.23-.38-.5-1.06-.84-1.33-1.6-1.32-3.58-2.3-5.28-3.42-.64 2.08 7.17 3.1 6.33 6.9.16.57.53 1.1.8 1.6zm-72.7 23.72c-1.66 1.13-3.6-1.2-3.77 1.95 1.4 0 2.87.7 3.98-.03 1.08-.7 1.52-2.38-.2-1.92zm-17.38-29.63c-1.04 3 3.87 1.68 4.5 1.42.13-1.8-3.8-3.4-4.5-1.42zm83.5 76.86c-1.97-1.78.7-4.17-2.37-5.2-.33-.13-1.93 2-2.28.8-.44-1.48-.9-2.92-1.33-4.36-.8-2.65-.76-4.14-2.96-5.4-.86-.5-6.9-3.23-6.9-4.18 0-2.5.65-5.35-.97-7.23-2.27-2.64-2.1-3.7-2.3-7.37-.14-2.32-3-3.56-4.56-2.25-.82-5.3-2.3-9.28-4.34-14.2-2.5.6-2.7 5.15-3.32 7.4-.64 2.44-.1 5.35 0 7.88.1 3.04-1.64 12.67-5.8 11.15-1.47-.52-2.75-3.12-4.3-4.06-2.77-1.65-5.55-3.3-8.33-4.96-2.57-1.52-1.47-2.4-.73-5.56.58-2.52 1.98-3.8 3.62-5.73-2.62-2.56-3.27-2.7-6.73-3.04-2.68-.26-5.42-.72-8.13-.6.1 1.25.2 2.52.3 3.8-3-.46-5.7-2.07-7.63.73-1.9 2.74-2.36 5.3-3.17 8.67-2.6-1.38-5.18-2.77-7.78-4.13-.95-.5-4.15 3.12-4.9 3.75-4.2 3.6-9.88 6.7-11.98 12.2-1.06 2.82-1.08 5.12-3.8 5.77-3.56.83-7.17 1.67-10.75 2.5-2.47.57-3.8 1.63-5.96 3.18-2.68 1.94-3.2 2.66-4.48 5.97-.44-1.12-.9-2.2-1.33-3.32-1.8 4.4-2.92 8.13-1.13 12.6 1.05 2.66.77 3.06-.14 5.85-.63 1.96.62 3.4 1.46 5.2 2.03 4.4 3.46 8.68 4.17 13.62.26 1.86 1.82 6.67 1.17 8.3-.23.6-4.23 2.87-2.3 4.38 1.63 1.28 3.47 3.56 5.52 3.56 2.02 0 4.46.7 6.04-.84 2.3-2.26 2.9-3.08 5.83-3.37 2.1-.22 4.22-.54 6.32-.6 1.6-.06 3.2-.1 4.8-.15.5 0 1.24-2.28 1.5-2.78.82-1.76 4.02-2.48 5.62-3.26 1.8-.85 4.3.5 5.9-.44 1.24-.75 3.73-3.06 5.14-2.88 5 .66 9.46 1.18 14.2 2.98 3 1.15 3.2 1.7 4.9 4.75 1.1 2 2.17 3.82 3.53 5.62 2.66-3.04 4.9-5.65 6.9-9.25 1.2 3.78-1.23 6.76-3.14 9.92 3.14.7 3-1.1 4.48-4.14.18 1.9-.35 6.6 1.6 6.6 1.74 0 3 3.63 3.33 5.2 1.14 5.4 5 6.85 9.57 7.57 2.94.48 3.36.85 5.68-1.14 2.63-2.26 2.42-1.23 4.63 1.44 1.05 1.27 3.85.27 4.87-.77 2.35-2.36 2.7-2.58 5.85-2.67 5.3-.18 4.82-7.4 5.65-11.93.72-3.92 5-6.8 5.97-10.7 1.12-4.6 3.52-10.16 3.66-14.9.15-4.54-1.42-9.75-2.1-14.22-2.1-1.92-4.2-3.84-6.32-5.77zm-74.7-98.6c-.96.87-2.53 1.93-3.23 3.1-1.06 1.78-.35 2.12-.07 3.58.2 1.16.38 2.62.2 4-.1.83 1.9 1.96 2.48 2.48-.24-1.64-.9-5.25 1.87-4.12-.42-.35-3.2-2.22-1.8-2.6 1.58-.4 1.8-2.34-.02-2.8.3-.47.57-1.12.94-1.5-.02-.7-.26-1.45-.36-2.15zm3.35-117.22c.12.87.24 1.72.35 2.62 2.12.22.5-2.2 2-2.02 1.86.23.87 2.62.4 3.37-.98 1.54-1.2 6.57 1.5 4.64 2.13-1.56 2.9-4.42 4.06-6.9.3-.63-.88-2.25-1.14-2.7-.73-1.26-1.42.2-2.44-1.3 1.68-1.55 3.58.84 4.43-2.23.88 1.46 1.54.86 2.64.2.53-.34 2.4-.73 2.64-1.04 1.13-1.4 3.6-.5 5.2-.36-2.47 2.13-.95 3.6.9 5.24 1-1.4 1.92-3.93 3.88-3.55-1.15-1-1.52-2.13-.13-3.06 1.57 2.55 4.76 1.4 6.3-.8.36.72.7 1.42 1.06 2.13.86-1.26 1.62-2.58 2.75-3.53-.16.78-.32 1.57-.5 2.35 1.66-.57 1.94-1.97 3.34-2.74.18-.1-.3-3.42-.1-4.35.4-1.85 1.1-1.9 1.08-4.14-.03-1.42-.33-3.76 1.72-2.72 0-1.43-.4-2.47.73-3.22 1.27-.82.83-2.34.87-3.88.04-1.1-1.18-2.62-1.65-3.57-.5-.97 0-1.98.24-3.07-1.75-.92-2.78.43-2.3 2.3-1.05-4-3.46 1.23-3.86 2.75-.33 1.22 1.15 1.78.95 2.4-.53 1.63-1.06 3.27-1.57 4.92-.7 2.12-2.15 4.4-4.1 5.37-1.24.6-2.26 1.25-3.6 1.34-1.24.04.2-2.2.6-2.53-1.76.67-2.4.45-2.46 2.5-.04 1.06-1.7 2.5-2.3 3.27-.78 1 .36 1.9-1 2.5-1.9.83-1.07-.76-2.28-.64-2.2.24-6.34-.3-7.72 1.7-1.56 2.32-3.6 3.8-6.1 3.74 1 2.73-2.72 3.88-4.4 5.02zM796.43 81.96c-2.1.26-1.6 1.17-1.8 3.4 1.87-.3 3.75-.66 5.63-1-.68-1.95-2.12-2.57-3.83-2.4zM630.7 104.4c-.4-.08-1.14-.04-1.53.07.1.34.2.7.33 1 .9.66 1.33.17 1.2-1.07zm-1.32 1.9c-1.45-.92-3.92.73-4.93 2.02.67-.22 1.36-.45 2.05-.65.97-.45 1.93-.93 2.88-1.37zm-15.4 10.95c-.35-.16-.82-.1-1.2-.18-.03.5.03 1.3.2 1.73 1.04-1.07 2.1-2.16 3.15-3.25-1.04-.08-1.73.62-2.15 1.7zm-1.5.52c.02 1.6-.87 1.93-2.1 2.1.5.35.3.52.92.78-.22.38-.4.9-.7 1.2 1.35-1.38 2.15-1.9 1.87-4.08zm3-4.82c-.7.47-.26 1.57-1.46 2.15.15-.84.3-1.65.45-2.48-1.1.03-1.6.92-1.24 2.05-.3 0-.6.04-.9.05-.15 1.12.04.75-.77 1.6 1.35.25 1.83.7 2.72-.48.6-.84 1.18-1.2 2.26-.87.28-.9.06-2.7-1.05-2.02zm11.45-7.18c-1.02-.64-2.34-.76-2.77.63.38.17.75.42 1.14.5.75.03 1.3-.37 1.63-1.13zm-7.65 3.06c-1.57.5-1.55.34-1.66 2.1-.18 2.64 3.36-.9 4.14-1.53-.66-1.38-1.4-.92-2.48-.57zm4.47-2.34c-.63.85-1.3 1.14-2.18 2.03.77.03 1.53.08 2.3.1.6-1.03 1.54-1.55-.12-2.14zm-6.66 8.02c1.26-1.36 2.53-2.72 3.82-4.1-.9.75-1.8 1.5-2.66 2.24-1.13 0-1.54.7-1.17 1.86zm-70.58 80.74c-.76.34-1.17.93-1.3 1.8.22 0 .43 0 .64 0 .7-.45 1-1.05.66-1.8zm-4.02-15.32c-.2.08-.36.2-.54.26.26.1.5.17.76.26-.66.64-.97 1.38-1.18 2.3-.1.44-1.18.8-1.6 1.42 1.42.3 1.45.88.05 1.18.85.85 3.13-.06 1.2-1.23 1.2.73 1.77-.38 2.68-1.22.12.17.22.32.33.5-1.34.7-1.57 2.26-1.92 3.73-.22 1 .35 1-.15 2.26-.25.63-.76.95-.24 1.45 1.1.98.85-1.32.96-2.08.16-1.15.1-2.4 1.5-2.94-1.6 1.32-.26 2.64.82.3.18.32.3.84.4 1.22-.94.07-.76.4-.56 1.35.3 1.28.52.8 0 2.35-.48 1.5-1.96 1.72-.2 3.07-.03-.37-.05-.74-.07-1.1.82.3 2.12 1.35 1.64-.1 1.27.87 2.84-.82 4.65-.56-3.1.74-1.44 5.53.44 4.1-.86 1.17-.77 3.67.28 4.38l-.37.1c-.5-.7-.33-.26-.92-.6.07.28.13.54.2.82-1.14-.22-2.12-.7-3.12.12-.27-.85-.98-1.14-1.83-.85 1.3 1.06.66 2.06-.5 2.86.75-.16 1.5-.3 2.26-.44-.23 1.52.65 1.9-.37 3.35-.55.76-2.8 1.18-3.66 1.55.14.37.2 1 .15.83 1 1.72 2.3-.52 3.77.32-.2.15-.4.3-.57.43.6 0 2.18.94 2.4.86 1.1-.4 2.2-.76 3.3-1.14-.66.8-1.35 1.38-1.5 2.42-2.1-.3-4.3-1.2-5 1.48-.35 1.44-2.7 2.6-3.7 3.76 1.83 1.3 3.83-2.5 6.4-.6 1.47-3.66 2.03-.7 4.67-1.97.78-.4 2.4-1.68 3.26-1.64 1.13.08 1.4 1.3 2.66 1.02 2.17-.56 3.64-.48 5.93-1.42 2.92-1.2-1.57-2.14-2.45-2.25 2.2-1.66 3.73-2.5 4.06-5.5.35-3.08-4.86-1-5.36-1.56 2-1.45-1-4.03-2.53-4.03.92-.4 1.82-.14 2.35.74-.64-3.92-3.93-4.24-4.92-7.46-1.26-4.1-3-4.45-6.7-4.98.65-.8 1.47-1.25 2.4-1-1.12-2.35 4.17-5.2 2.77-7.35-.9-1.35-7-.65-7.68.74l-.34-.26c.45-.4.7-1.1 1.2-1.44-.5-.1-1.06-.46-1.6-.48.38.05.77 0 1.13.03.3-1.48 3.07-1.84 3.46-4.07-1.4-.3-3.5.13-4.77.9-.7-.38.07-.5-1 .02-.28-1.53-1.55-.26-1.03.98-.33.07-.67.12-1 .2-.16.38-.23.64-.3.85.43.4.78.98 1.23 1.34-.7-.5-1.55-.53-2.34-.2.3.54.34 1.3.67 1.83-.3-.07-.64-.14-.93-.2-.15.83.27.76.9 1zm.78 8.7c0 .56.22 1.08.6 1.5.43-.76.2-1.34-.6-1.5zm68.5-73c-1.45.06-2.82-.36-2.76 1.8.9-.58 1.83-1.18 2.75-1.8zm-70.6 72.53c.27-.5.63-1 .83-1.52-.68-.2-1.37.38-.83 1.52zm96.6-85.63c.76-.7 1.55-1.1 1.63-2.18-1.08.6-.88 1.26-2.23.87-.96-.27-1.76-.34-2.76-.13.45 2.1 1.9 1.52 3.38 1.44zm-87.33 69.3c.8.24.94.1 1.67-.32-.56-.05-.88-.3-1.5-.17.2-.12.37-.22.56-.34-1.15-.88-1.35.34-1.4.8.16.24.32.48.5.7.05-.2.1-.43.17-.65zm60.94-59.65c-.74.78-1.47 1.6-2.16 2.4.7.15 1.42.3 2.15.43 1.42-.9 1.15-1.86 0-2.84zm-4.85 5.86c.85.24 1.5-.22 1.9-1.04-.55-.6-1.16-.5-1.8.13-.04.3-.06.62-.1.9zm8.7-7.42c-1.13.5-2.73.6-2.26 2.34.64-.5 1.3-1.02 1.92-1.54.12-.27.23-.54.33-.8zm546.83-10.48c.9-.27 1.65.38 2.5.2 2.9-.57 5.17-.5 7.23-2.77-1.18-1.08-2.1-2.38-3.66-2.46-2.05-.1-4.07-.18-6.1-.27-1.42-.06-3.54 1.44-4.87 2-.35.15.7 3.83.83 4.44 1.37-.38 2.72-.76 4.08-1.14zM867.65 34.82c1.93-.13 5.72-1.36 7.02.36 1.7 2.2 2.7 5.04 5.38 4.77 3.23-.36 4.8-.42 7.8.72 2.76 1.05 4 .46 6.86-.4-.27-.9-1.27-2.8-.95-3.7.45-1.2 1.66-2.76.45-3.43-2.58-1.43-4.04-.2-6.74.85.88-.96 1.78-1.93 2.68-2.88-1.28-.3-4.35-.2-4.63-1.7-.6-3.27-.58-2.92 2.3-3.76-1.85-1.32-5.3-5.05-7.47-5.14-2.53-.1-.9 1.4-2.37 1.87-1.7.5-3.36 1.04-5.06 1.54-1.93.6-1.7 1.2-2.26 3.4-.2.75-3.16 1.05-3.87 1.25-.73.2-1.55 3.13-1.9 3.9-.17.43 2.34 2 2.78 2.32zm25.27 12.73c1.83 2.5 6.44-.65 8.65-1.46.7-.24 1.88 1.14 2.9.97 1.95-.35 3.9-.67 5.84-1.02 1.45-.24 2.02-.7 3.26-1.65.74-.6-.83-2.9-1.7-2.97-1.9-.2-2.24-1-3.56-2.54-.56-.66-3.1 0-3.9.06.53-.5 1.08-1 1.63-1.48-2.67-1-4.58-.9-6.55 1.2-1.96 2.12-3.35 4.53-4.84 7.04-.58.6-1.16 1.2-1.72 1.83zm-132.7-19.68c1.2-.02 1.87-.35 2.65.64 1.35 1.7 4.74-.74 5.95-2.1 1.45-1.57-1.7-3.88-3.28-3.5-2.56.64-4.6 1.42-6.97 2.6.43 1.15.43 2.4 1.64 2.37zm18.14-3.2c2.04-.47 1.38-1.32 1.27-3.55-.78.08-2.58-.2-3.23.24-.6.44-.64 2.04-1.27 2.4-1.72.97-3.5-1.58-4.8 1 .45.44.9 1.05 1.43 1.4 2.2-.5 4.4-1 6.6-1.5zm255.8 58.08c2.2 1.85 3.73 1.4 6.52 1.3-.62-2.54-.82-2.62-2.9-3.9-.5-.27-4.1-1.9-4.12-2-.2-1.77-1.6-3.48-3.62-2.1-2.37 1.57.48 3.17 1.5 3.95-1.35.93-2.7 1.87-4.05 2.8 1.83-.18 5.17-1.33 6.66-.05zM540.1 189.35c.86-.3 1-.97.53-1.85-.35.13-.88.5-1.13.78.88.2.3.6.6 1.06zm480.87-117.52c1.17.77 2.37 2.02 3.75 1.92 2.32-.2 2.23-.33 3.22-2.67 1.77 2.8 4.37.45 6.93-.53.7-.28 1.6 2.22 2.38 2.07 1.28-.28 2.54-.53 3.8-.8-.44-.74-.9-1.48-1.33-2.22 1.62.7 2.18 1.28 3.68.35 1.18-.72 2.2-1.3 3.07-2.5-3.4-1.32-6.82-2.6-10.23-3.9-.9-.35-2.43-1.4-3.38-.97-1.68.76-.87 1.93-.58 3.8-2.4-1.05-7.28-5.65-9.65-3.73-2.17 1.76-3.34 2.32-4.08 5.13-.4 1.55 1.5 2.9 2.42 4.05zm-264.44-44.2c-.83.07-9.48.38-8.63 2.78.86 2.44 6.7.6 8.8.2-.35-.28-.5-.84-.84-1.14 1.07-.17 2.1-.34 3.15-.5-.8-.45-1.64-.87-2.47-1.32zM187.2 45.52c1.6.9 1.4-.35 2.7-.53 1-.1 6.97 2.12 6.22-.95-.44-1.86-5.15-1.76-6.36-1.37-2 .63-5.74.9-7.1 2.86.27.2.53.37.8.55 1.08-.26 2.7-1.14 3.73-.54zm446 59.45c3.27-.5 5.3-1.4 7.5-4.02-1.48.03-1.52 1.33-2.7 1.93-.95.53-2.78.28-3.84.4.6.92 0 1.47-.96 1.7zm90.5 8.76c1.08 1.07 4.36-1.8 5.18-2.4-1.47-1.4-2.3-1.66-4.2-2.16-2.48 1-3.2 2.4-.98 4.57zm-1.72-87.37c-1.6 1.06-3.2 2.15-4.8 3.2 2.84 1 4.88 1.24 7.87 1.24-.24-.87-.5-1.75-.75-2.63 3.15-.75 6.3-1.5 9.45-2.23-1.72-1.15-2.86-2.16-4.95-1.6-1.98.5-3.87 1.38-5.87.9-4.25-1.04-7.08.24-11.3 1.54 1.46.38 2.9.77 4.35 1.15 2-.53 4-1.06 6-1.57zm32.83-2c-2.27-.7-4.34-1.58-6.7-1.5-3.32.13-4.48-.3-6.7 2.34 2.18.57 4.35 1.16 6.5 1.73 2.77-.55 4.67-.75 6.9-2.56zm6.46 7.44c-.72-1.54-2.26-.54-3.45-.25.52.4 1.05.92 1.6 1.24.62-.32 1.24-.66 1.86-1zm-4.73 72.26c.53 1.35 4.75 4.85 6.25 3.56 1.53-1.37-3.67-4.2-4.36-4.74-.63.4-1.26.77-1.9 1.17zm.1-83.75c-.9-.76-1.77-1.53-2.64-2.3 1.77-.44 3.54-.88 5.33-1.32-2.96-.53-4.12-1.17-6.6.6-1.95 1.4-3.9 2.75-5.93 4.02 1.8.24 3.64.5 5.47.75 1.45-.58 2.9-1.15 4.35-1.75zm-14.04 8.76c-3.72-1.35-3.83-1.14-6.98 1.4 1.5.2 3 .38 4.5.6.83-.67 1.65-1.34 2.47-2zm-7.13 68.15c2.08 2.22 4.65 3.73 7.47 3.92 2.57.18 7.96 1.82 10.22-.07-3.57-2.48-6.53-4.6-6.65-9.63-.08-3.95 3.7-7.3 5.9-9.92 1.35-1.58 2.56-3.3 3.82-4.94 1.14-1.46 3.8-2.43 5.3-3.4 2.94-1.86 4.9-4.23 8.2-5.25 3.95-1.2 7.95-2.33 11.87-3.7 1.96-.65 9.86-2.06 10.2-5.6.36-4.26-7.75-2.42-9.22-1.24-3.24 2.64-6.9 3.2-10.82 4.3-3.62.06-5.98.3-9.38 1.64-2.58 1.07-6.8 1.83-8.92 3.73-2.44 2.16-4.88 4.23-7.07 6.67-1.55 1.7-3.1 3.43-4.64 5.14-1.2 1.34-.52 2.2-.12 4.04.16.72-3.2 2.6-3.78 3-2.13 1.54-.16 1.67-1.2 3.68-.73 1.5-3 .8-3.12 2.8-.18 2.8.1 2.86 1.93 4.83zm318.8-23.73c3.93.17 6.55-.03 10.34-1.2.25-.06.52-2.15.37-2.43-.2-.4-2.27-.7-2.67-.8-2-.63-2.8-.34-4.82.3.12-.44-.05-.97.06-1.4-1.76-.08-3.53-.58-5 .74-.13-3.54-4.2-1.3-3.76.83.23 1.13 4.5 3.27 5.48 3.97zM258.94 57.55c-1.2.93 1.63 2.76 2.64 2.34-.26-.36-.32-.98-.52-1.24 1.46-1.02-1.26-1.78-2.13-1.1zm-2.26-5.8c-1.26 1.15 1.27 2.12 1.87 2.43 1.13.6 2.2-.1 3.4-.45-.17-2.57-3.76-3.37-5.28-1.97zm36.6 34.2c.43.6 1.66 1 2.28 1.37 1.14.68 4.75-.9 6.06-1.2 1.63-.35 3.7.16 5.37.24-2.2-2.9-3.8-3.9-6.9-5.55-1-.52-2.47.28-3.55-.13-1.28-.47-2.57-.94-3.86-1.4-2.16.37-2.5 3.3-.56 4.23 1.56.77.27 1.25 1.15 2.45zm-44.9-33.3c.5-.73 1.02-1.47 1.56-2.22-3.52-1.03-7.25-1.28-10.42.57.7 2.58 6.86 1.57 8.85 1.65zm-36.9 6.45c.54 1.1.8 1.02.95 2.04 1.54.12 3.46.55 4.7-.74-.75-.48-1.5-.94-2.23-1.4-1.15-.56-2.28-.38-3.42.1zm3.67 10.87c-.85-2.37-2-2.06-3.86-1.4-2.2 3.1 2.75 1.9 3.87 1.4zM203.72 82.2c1.73.53 1.9.86 3.2 2 1.13 1.04 1.76 2.23 3.18 1.6.98-.45 1.92-2.22 1.9-3.3-.06-1.6-1.04-1.75-2.32-2.6-2.25.47-5-.37-5.96 2.3zm336.34 99.42c-.14.1-.3.2-.44.27l.38.42c-.03-.24.3-.33.06-.7zM168.36 62.78c-1 .27-6.35 2.37-5.77 3.88.4 1.1 3 .64 3.56-.1.74-.97 2.55-2.43 2.2-3.78zm43.9-.34c1.17 1.37 6.58 1.8 6.08-1.04-1.48-.26-5.02-.16-6.08 1.04zm25.76-31.2c.48 3.9 4.74 3.9 7.3 2.84-.87 1.36-2.1 1.25-3.47 1.45-1.1.16-.72 1.54.28 1.4 1-.13.9 1.8 2.1.86.84-.67 1.36-1.33 2.44-.92-.05.27-.1.58-.16.85 1.2.63 1.6-.36 2.6-.85.3-.16 1.46 1.27 1.1-.63 1.9.78 5.1-.2 6.43 1-1.57.2-3.15.4-4.72.6 2.34.96 4.7.45 7.15.33-4.48.84-8.56.5-12.83 2.22 1.2.9 2.66 1.14 4.07 1.54-.78.07-1.53.13-2.27.18 1.24 1.88 4.68 1.22 6.8 1.7-1.43.15-2.86.33-4.28.48 1.88 3 6.1 2.45 8.95 2.6-.2-.76-.7-1.3-1.47-1.55 1.9-.08 2.7.74 4.22 1.93-.7-1.4-1.38-2.8-2.07-4.24 1.4 1.4 2.8 2.75 4.2 4.12.63-1.63 1.12-2.42.06-3.97 5.92 3.16-.53-2.5 3.44-3.66-.4 1.27.22 2.3.67 3.46 1.07-.93 2.74-1.52 1.97-3.22 1.03.9 5.2-1.35 6.9-1.87-.67-1.25-1.78-2.08-2.8-3.02-.16.55-.66 1-.78 1.55-.23-2.93-3.4-1.16-4.78-.62 1.54-2.94 2.3-4.26-1.36-4.68 2.28-1.96-.92-4.42-2.97-2.67.44.78.9 1.56 1.35 2.35-1.2.07-2.3-.3-3-1.42-.38-.65.68-2.66-1.04-2.14-1.87.56-3.5-.28-4.78-1.75-2.04-2.32-3.16-4.2-5.98-4.92-1.7-.45-4.46-1.4-5.73.43 1.57.58 3.3.03 4.66.82-1.44 2.52-6.5-1.12-8.07 2.9 1.26.43 3.15.2 4.14 1.06-1.2.26-7 .47-5.2 2.36-.9.32-1.82.65-2.7.98 1.55.74 2.46.4 3.97.76-.24.13-.5.27-.72.42 1.46.7 3.02-.9 4.33 0-.5.1-.93.62-1.4.74.33.27.6.7.94.94-.55-.14-1.1-.24-1.63-.44-1.96-.1-3.9-.2-5.85-.3zm-45.47 30c1.22.75 2.42 1.5 3.63 2.23-.83.34-1.63.66-2.46 1 .77.33 3.95 1.12 3.8 2.04-.27 1.95-2.12 1.03-3.74.94-.83-.05-4.24.3-4.46-.66-.5-2.17-.76-1.96-2.78-1.77.32-.16.66-.34.98-.54-1.3-1.04-2.95-3.2-4.62-2.92-3.06.54-1.94-.66-4.43-1.64-.47-.17-4.3.16-4.34 1.08-.02.92 3.1 1.3 3.84 1.5-2.52-.2-4.33-.5-6.66.52l.03 1.24c1.6.93 4.4.2 6.18.15-.8.54-8.04.12-7.86 1.9.17 1.7 6.27-.17 7.06-.37-2.34 1.95-7.18.52-8.66 3.33 2 .64 2.9.88 4.92.38-.07.33-.16.66-.25.97.84.28 1.66.5 2.5.68-.6-1.75 1.35-1.46 1.65.24 2.12-1.3 2.5-1.48 3.17-4.03 1.58.52.93 1.68.66 3.03 1.2-.1 4.04.47 4.2-1.25.75 1.77 3.7.88 4.98-.02-2.46 2.6-7.5 3.05-10.97 4.24 4.17 2.7 5.9 1.83 10.38.2 2.5-.88 4.98-1.8 7.5-2.7 1.45-.52 2.24.84 3.62.75.7-.05.78-1.3 1.92-1.3h3.57c1.54 0 2.24-1.86 2.6-3.52.5-2.07.3-4-2.45-3.64-3.3.46-.55 1.4-1.85 3.1-.5-1.73-1.07-2-2.52-2.44-.93-.3-1.13-2.04-1.92-2.68-1.65-1.3-.37-5.16-3.7-3.8-1.12 1.6-2 2.6-3.5 3.76zm-5.65-12.88c-3.07.5-4.45-.1-3.8 3.6 1.37 0 2.56 1.98 3.73 1.66 1.86-.47 3.74-.95 5.6-1.42 1.3-.34.64-.83.96-1.78.24-.8-2.1-.14-2.56-1.02 1.58-.35 3.1-.4 4.2-1.8-2.32-1.03-5.82.38-8.14.76zm50.7-1.1c-.96.45-2 .26-2.98.7.83.36 2.34 1.95 2.66 1.96 1 .03 2.05-.42 3-.65 1.07-.3 3.04-.32 3.66-1.37.56-.96-.9-1.44.47-2.8-1.2-.43-2.86-.42-3.84-.82-.86-.34-1.84-1.47-2.93-1.9-1.54-.66-7.12-1.67-4 1.57-.37.05-.72.1-1.07.17.75 3 3.37 1.5 5.03 3.13zm-6.43-15.57c-.8-2-5.7-1.47-4.22 1.3 2.16.85 5.92 2.98 4.22-1.3zM211.07 55c.82.93 1.82-.52.97-1.54-.62-.74-1.3-1.4-1.9-1.85-1.05-.78-1.9-1.9-3.25-1.3.23.96.5 1.9.73 2.86.94.8 2.88 1.15 3.45 1.84zm-.78-13.3c1.72.18 2.26-2.4 3.82-.85-.33.22-.56.63-.9.84.88.14 1.74.32 2.62.47.28 2.94-3.76.66-5.55 1.83.55 5.05 6.25.12 7.25 1.32 1.14 1.35 3.24 1.06 4.85 1.27 1.6.17 1.7 1.1 2.56 2.63.73 1.32 7.74 1.16 4.26-2.78-.52-.56-1.72-1.38-1.5-2.2.34-1.13.47-1.06-.37-1.75-1.5-1.22-1.92-.97-3.78-.66.62-3.7-4-1.83-5.26-1.14-.94-2.2-2.08-3.93-4.65-3.57-2.87.4-4.4-.2-5.45 2.82.98-.03 1.95-.06 2.92-.1-.34.53-.55 1.24-.83 1.84zm38.5 28.7c-.34-1.84-2.42-4.66-4.4-4-1.17.35-6.96 1.36-6 4.27.4 1.16 4.92 2.77 6 3.37 2.6-.36 5.06.03 4.4-3.65zm31.9 81.94c.15.38.36 1.67.8 1.63 2.78-.25 5.96-1.45 6.4-4.94-.7-.03-1.4-.04-2.1-.07-1.74.27-2.82.34-4.2 1.5-.96.77-1.3.66-.9 1.88zm247.9 55.96c-.37.2-.63.72-1 .93 3.05 2.6 7.23-2.22 10.17-3.02 1-.27 1.74.64 2.13-.6.33-1.1.68-2.24 1.03-3.36.44-1.46-.4-3.33-1.3-4.34 2.06-1.44 2.7-1.48 2.93-4.15-1.06.35-1.34-1.6-2.17-2.54-.5-.6-2.4.28-3.14.45.2-.3.35-.58.5-.86-2.33-1.4-4.65 1.22-5.8 3.13.76.3 1.54.55 2.28.8-.96.76-1.44 1.53-2.6 1.24-.74-.2-1.82-.82-2.54-.4-1.3.7-.92.86-.48 2.36.2.72-.96 1.48-1.42 1.95 1.32.62 2.42 1.1 3.88 1.2-1 .85-2.05 1.88-3.16 3.32 1.32-.3 2.7-.9 4.02-.42-.9.2-2.75.16-3.3.96-.6.86-1.23 1.24-2.22 1.45.55.07 1.06.4 1.63.48-.57.3-1.12.66-1.7.87.76.2 1.5.37 2.25.55zm-234.12-51.08c.96-.92 3.95-3.94 1.06-4.88-1.2-.38-2.4 1.07-2.52 2.1-.14 1.5.5 1.73 1.46 2.78zM224.06 50.25c-1.16-1.5-2.64-1.25-4.2-.95-1.8.37-.68 1.63.6 1.6 1.3-.2 2.28-1.03 3.6-.65zm40.44-32.02c-1.6 1.36-3.22 2.73-4.83 4.08 2.72 1.96 5.6.4 8.8.27 2.93-.1 6.04-1.26 8.85-2-2.64 1.4-4.6 2.35-7.54 2.6-2.8.27-4.5.15-7.08 1.37 2.78.77 5.6 2.56 8.12.86 3.17-2.15 4.67-2.44 8.4-2.7-3.3 1-4.9 1.7-7.53 4.08 2.34.3 4.68.74 7.04.74 1.92 0 2.13.43 2.37-1.68.1-.74 2.2-.98 2.85-1.17-.37.36-.64.88-1 1.24 1.5-.46 3-.9 4.5-1.36-1.13.95-2.26 1.9-3.4 2.85 1.87-.37 3.74-.72 5.6-1.07 1.15-.23 3.98-.16 4.9-1.04 2.82-2.75 5.35-3.9 8.86-5.47-1.48 1.38-2.98 2.74-4.5 4.1.96.4 1.88.82 2.82 1.24-6 1.58-11.92 2.84-17.98 3.95 2 1.85 4.04 3.72 6.06 5.57-2.57-1.56-5.72-4.46-8.55-5.2-.48-.12-8.67-.12-8.57-.35-2.5 4.8 2.35 4.47 4.98 6.3 2.4 1.67 4.56 4.5 5.97 7.18-3.83-2.02-10.02-2.64-13.44.82-3.16 3.18-.27 3.37 2.7 4 2.1.48 3.7-2.18 5.24-3.63-1.1 3.38-4.08 5.33-.5 7.9 2.85 2.04 6.2-2.15 7.86-3.92-2.73 3.86-4.5 6.56-9.3 5.3-1.95-.5-2.1-3.2-3.82-3.42-2.35-.33-3.56-.47-5.77.36 1.43 2.6 1.44 2.86 4.2 3.12-1.9 1.98-3.06 1.4-5.37 2.38-.8.36-2.7.72-3.25 1.42-.53.67.92 1.36-.22 2.08 1.5 1.96 2 .55 3.3-.93.07 2.3 3.13 3.9 3.97 1.33.38 2.23 1.77 1.04 3.25 1.18 1.48.16 3 .4 4.47.4 1.74 0 2.2-1.63 3.46-1.2 1.1.38 2.96 1.18 2.54-.94.72 1.63 3.9 3.13 4.06.4 1.4 1.53 2.16-.4 3.1.38 1.4 1.1.8 1.67.38 3.43 1.98-.6 3.96-1.22 5.96-1.8.6-.23.9-1.33 1.46-1.54.2-.08.8.86 1.52.6.48-.16 2.12-.4 2.04-1.04-.08-.76.05-2.34-.6-2.72-1.08-.65-1.34-1.1-2.4-.47-1.25.77-1.27 1.18-2.13-.1-.72-1.13 2.9-3.74 3.56-4.34 1.98-1.73-1.18-2.65-.2-3.45.73-.58 3.43 1.17 4.63.75 2.37-.84 2.94-1.2 4.5-3.35-1.14-.63-2.26-1.25-3.4-1.84 2-.27 3.98-.5 5.96-.76.23-2.47-5-2.65-6.65-3.08h6.87c.55-2.75-6.04-1.98-7.75-2.13 4.16-.5 8.34-.9 12.48-1.73-.23-.75-.45-1.5-.68-2.22 1.48.38 3.44 1.48 4.86.73 2-1.08 3.06-1.82 4.6-3.6-1.53-.07-3-.16-4.5-.25 2.4-.47 4.78-.96 7.2-1.47 2.06-.42 4.6-2.8 6.42-3.93 2.47-1.54 10.6-3.63 10.77-6.62-6.14 1.25-12.3 2.5-18.44 3.73 3.74-1.1 7.5-2.23 11.24-3.34-2.18-.4-4.34-.74-6.53-1.12 4.8-.36 9.63-.73 14.44-1.08 3.46-.25 7.77-3.88 10.9-5.53-4.25-1.52-8.12-2.53-12.52-3.33-3.8-.7-7.25.53-11.02 1.35 2.05-1.18 4.1-2.33 6.14-3.47-3.8-.55-7.86-1.67-11.7-1.67-3.6 0-7.6 1.2-11.23 1.67.5.98 1 1.97 1.5 2.97-1.73-1.2-4.05-3.6-6.1-3.66-3.03-.05-6.04-.1-9.04-.14 1.8 1.5 3.6 2.97 5.4 4.46-2.12-.87-4.22-1.74-6.35-2.6-1.13-.47-4.67-1.45-5.78-1.03-.87.3-1.06 1.44-2.06 1.52-1.38.08-2.75.17-4.15.25-1.53.1-3.23 2.3-4.44 3.35 3.56 1.92 7.1 3.84 10.66 5.76-3.92-.96-7.86-1.95-11.8-2.92-1.7-.45-3.68-2.4-5.18-3.4-1.17-.76-3.13-.38-4.45-.43.28.8.6 1.57.9 2.35-1.5.03-2.98.08-4.5.13 1.05.5 2.1 1 3.16 1.5-3.97.24-9.26-2-11.36 2.6-2.73-2.38-6.13-.54-9 1.1 1.85.88 3.7 1.73 5.52 2.6 1.75-.7 3.52-1.4 5.28-2.1zm47.3 100.58c-1.26 1.43 3.9 1.4 4.36 1.43-.56-2.48-3-2.9-4.36-1.42zm-58.06-46.35c.77 1.72 3 .15 4.02-.55.8 1.7.74 1.95 2.45 2.1 1.43.16 2.7.7 3.02-1.35.25.45.76.77 1 1.23-.03-.7.33-1.43.35-2.13 1.84.75-.12 3 1.95 3.1 2.05.08 4.1.2 6.16.27-.1-.46.06-1.03-.08-1.48 1.1 1.48 3.9 2.08 4.5-.17.56 2.25 3.7.8 5.25.57-.16-.85-.3-1.7-.45-2.54 2.13-.02.98 2.33 2.52 2.87 1.37.48 2.34.97 3.73.74.83-.13 4.68-.2 4.9-1.1.58-1.92 1.2-1.76 3-2.34-.8-.85-1.85-.9-2.92-1.15.84-.6 1.66-1.22 2.48-1.82-3.2-2.72-7.2-4.84-11.33-3.5-1.75.6-3.24-.3-5.12.36-1.83.64-3.53 1.12-5.43 1.5.4.25.72.68 1.12.9-1.88-.42-4.55-1.63-6.45-1.4-.58.06-1.7 1.16-2.23.83-.9-.58-1.8-1.17-2.74-1.75-.5-.3-4.3-2.45-4.33-2.55-.34-1.22 3.43.25 3.82-1.5-1.08-.3-2.13-.6-3.2-.92-1.48-.4-.8-1.17-1.9-1.9-1.9-1.2-3.93.5-5.93.1-2.04-.4-3.03-2.17-4.88-2.45-2.04-.32-4.57-1.3-6.6-.7-3.3.92-2.3 2.27-.15 4.4 2.1 2.1 3.32 1.7 5.93 1.33 2.24-.3 3.3-1.14 4.9.76.97 1.12 3.6 3.3 1.94 4.9-1 2.5-.43 2.93.7 5.35zm39.48 71.96c-2.24-1.64-2.67-1.77-5.33-1.4 2.37-2.36-3.8-5.4-4.96-6.22-.9-.62-2.35-.33-3.1-1.14-1.14-1.25-1.5-1.75-2.74-.06-.26-.3-.6-1-.68-1.4 2.46-.44 1.67-3.8-.4-2.9-2.15.95-2.05 2.8-2.7 5.2-.27 1-.4 2-.6 3-.13.7.6 1.84.33 2.46-.3.74-2.77 2.53-3.38 3.45.64-.07 4.63-1.1 4.95-.9.48.3.78 4.38 1.68 3.76 1.3-.94 2.37-2.84 3.54-3.26 1.95-.72 1.73-2.3 3.7-3.06-.44 3.16 4.9 3.78 6.82 4.37.95-.63 1.9-1.26 2.86-1.9zm244.8 32.62c-.2.1-.42.2-.64.3.12.2.24.43.35.66.83-.75 1.18-1.22 2.14-1.45-.17-.22-.33-.42-.5-.64 1.42-.16 1.25-2.1.6-1.8-1.03.52-3.95 1.42-1.95 2.92zM228.6 112.28c.3.4.96.97 1.37 1.2.26-.63.5-.44.77-.8.12.8.64 1.25 1.43 1.36.1-.25.18-.5.28-.77.7 2.03 3.87 2.23 5.57 2.55 1.8.32 3.52-1.5 5.05-2.5-2.08-1.86-4.03-3.47-6.32-4.97-1.28-.85-2.3-2.32-3.48-1.1-.88.87-2.34 1.97-.82 3.07-.27.07-.52.13-.8.2-.77 1.56-2.23.17-3.05 1.76zm-10.43-3.38c.46-2.8 1.93-2.05 3.37-.82.14-.42.55-.74.68-1.17 2.1 3.2 1.78-1 1.66-2.46-2.28.46-4.97-1.16-7.34-2.6-.9-.54-4.25-1.83-4.68-2.86-.4-1 .78-2.57.22-3.96-1.34-3.28-2.2-8.2-5.2-9.86-1.28-.7-2.4-2.55-3.36-1.1-.44.68-2.76-1-3.42-1.33.8 1.28-.7 1.66-.4 2.48.3.9.62 1.78.93 2.66.7 2 1.4 3.95 2.1 5.92-1.4.55-2.13 1.52-2.68-.1-.63-1.83-1.25-3.64-1.84-5.46-.86-2.52-5.1-2.64-6.94-2.36 1.06 1.1 2.1 2.22 3.15 3.3-.7-.18-3.07-1.2-3.46-.54-.97 1.67-1.08 1.54-2.9 1.54.47-.64.94-1.27 1.4-1.9-1.23-.6-4.73-3.14-5.97-2.8-.83.2-1.1 2.24-2.05 2.3-1 .1-2 .18-2.98.25 1.62-1.3 3.3-3.1.96-4.45-1.73-1-2.5-.3-4.4.42-4 1.5-6.64 2.7-10.06 5.45.52.1.98.63 1.5.74-1.33 1.24-3.5 2.37-3.15 4.63h3.36c-.24.35-.28.92-.53 1.3 2.38-.1 4.76-.17 7.12-.25-2.47 1.12-4.93 2.2-7.4 3.3 1.47 1.48 1.9 2.33 3.83 2.3 2.5-.04 5-.07 7.5-.1 3.7-.04 6.75.8 10.36 1.73 2.5.64-1.56 1.36-2.44 1.36-1.9 0-3.92-.52-5.8-.77-3.05-.4-6.93 1.3-9.93 1.93 1.76 6.02 7.54 5.04 12.36 5.3-.28 3 .4 4.6 3.16 4.38 3.4-.27 6.77-.52 10.18-.8 2.3-.16 3.16-1.8 5.47-2.2 1.45-.23 2-.36 3.15-1.3.97-.78 1-2.03 2.4-1.58-.22.4-.16 1-.38 1.4 1.62.33 3.26.66 4.87 1-.32.2-.57.53-.9.73 2.72 0 5.3 1.53 8.03 1.25.7-.08 3.44-.95 3.44-1.7 0-1.22-1.7-.94-.6-2.52-1.83-.5-3 .55-4.28 1.82.03-1.3.3-2.4-.7-3.4.45.06.95.04 1.36.18.32.32.84.5 1.2.74zm-.14-44.78c-.82.03-1.62.38-2.2 1.02h2.87c-3.03 2.1 1.22 2.24 2.67 1.93 2.23-.48 4.5-.67 6.8-.94-.4.84-1.02 1.2-1.88 1.1.2.14.36.3.57.46-.92-.14-1.78.2-2.32 1 .9 0 1.85.23 2.67.66-.55-.08-1.17.2-1.72.22.2 1.5 1.37 1.37 2.55 1.76.65.2.98-.88 1.6-.82 1.82.1 4.23.93 5.74-.58-.6-.27-1.03-.9-1.6-1.18.62-.46.92-1.1.85-1.9.3.3.83.43 1.15.76.3-1.3-.54-1.7-.63-2.76-.05-.95.47-1.94.4-2.82-.03-.5-1.04-2.37-1.48-2.53-.7-.27-2.16-1.23-2.85-.8-2.06 1.24-3.67-.5-6.2.43-2.78 1.04 1.83 1.26 2.12 2.52-.5-.12-1.06.12-1.54 0 .7.97 1.4 1.93 2.13 2.9-.97-.55-8-7.27-7.68-2.63.67 0 1.35.04 2.02.07-1.53.6-1.2 2.2.43 1.7-.45 1.5-3.1.2-4.5.42zm105.4 33.4c-.92-3.05-4.8-2.6-6.93-1.83-1.28.44-4.38-4.45-5.65-5.67-1.48-1.45-4.98-3-6.94-2.72-1 .15-3.25-.05-4 .7-.55.5-2.3 2.72-2.92 2.36-2.16-1.3-2-1.4-3.8.42-1.03 1-2.48 1.02-1.53-.7 1.1-2.06 1.37-2.12.35-4.22-.73-1.5-1.28-1.3-2.14-2.48-.78-1.06-.45-2.93-1.87-3-1.04-.08-2.77-.56-3.76-.18-2.53 1-5 2.18-7.65 2.63.24-.97.48-1.94.72-2.92-4.04-.46-5.72-.45-9.46 1.16-2.8 1.2-4.46 2.92-5.7 6.17-.47 1.18-2.04 3.76-1.86 5.03.12.58.5 4.47.88 4.52 3.62.36 6-.02 8.6 2.77-2.62-.23-5.24-.45-7.88-.7 1 2.1 3.1 3.58 4.95 4.64 1.48.86 2.18-.3 3.4-.42 2.74-.26.75.5 2.24 1.87.6.57 2.88.96 3.72 1 2.54.1 5.9-.46 8.27.45.8.32 1.6.63 2.45.95.5.2.85-1.1 1.28-1.05 1.23.13 1.57 1.87 2.92 1.37-1-.95-2.03-1.9-3.03-2.86 4.03 1.16 6.53 2.1 10.58 1.14-.76-1.66-1-2.5-2.7-3 2.13-2 1.94 1.15 3.47 1.87.54.27 1.94-.6 2.08.18.17.85.36 1.7.5 2.56 1.85-1.93 5.13 2.35 6.64 3.6-2.8.82-3.37.36-3.37 3.58 1.28-.5 2.56-.97 3.85-1.46 1.7-.66 1.55-.82 2.53.88 1.27 2.2 4.04 1.54 5.38 3.98.87 1.6 1.74 3.24 2.63 4.84.43.77-.5 1.18-1.05 1.73-2.1 2.08-4.16 4.16-6.24 6.26.65.5 3.3 1.8 2.82 3.1-.23.56-4 1.13-4.6 1.3-2.43.7-5.3-.25-7.78-.56.3 1.7-1.92 2.12-2.7 3.54-.6 1.05 1.18 3.2 2.3 3.13 1.7-.1 3.75.32 5.06-.9 1.26-1.18 2.92-.2 4.45.17-.05-.52.3-1.1.23-1.6 1.05-.16 1.7.43 1.7 1.6 2.68-1.76 2.63-.13 4.37 2.55.95 1.45 2.74 1.3 4.3 2.14-.9.45-1.83.9-2.72 1.37 1.52.9 2.52 1.65 4.28 1.6-.18.32-.36.6-.56.9 1.72.43 3.43.86 5.13 1.3.73.2.66 1.74 1.9 2.04 3.34.87 6.7 1.72 10.07 2.6.2-1.6.7-2.23-.54-3.1-1.24-.88-2.48-1.78-3.73-2.65-.78-.55-2.65-.4-3.15-1.24-.67-1.18-1.34-2.38-2.03-3.56 1.2.53 2.4 1.08 3.6 1.6-.28-.5-.3-1.2-.57-1.73 2.06 1.28 4.1 2.57 6.16 3.86 1.1.7 3 3.2 3.73 2.96-.27-.7-.53-1.4-.8-2.1.36.22.87.17 1.25.36.78-1.83-1.8-2.32-.8-4.1.57.75 1.13 1.5 1.7 2.24-.16-1.15 0-3.52-.57-4.47-.7-1.17-2.08-.64-2.42-2.22-.37-1.9-.2-2.32-1.8-3.05-1.26-.58-2.3-1.54-2.74.6-.44-1.4-.9-2.74-1.32-4.1-.54-1.6-.86-.92-2.27-.38-.32-.95-.6-1.9-.92-2.85.95.13 1.88.25 2.82.36-.1-1.83-2.08-1.7-.96-3.4.75-1.13 1.63-.98 2.87-.3 1.06.6 2.1 2.7 3.26 2.98.83.18 2.65-.95 3.48-1.25.6 2.06-1.38 2.25-2.68 2.85 2.23 2.66 3.5 3.8 6.52 5.22.6-1.87.08-3.93-.1-5.83 2.46 1.7 3.46.37 6.05-.98-.87-.42-1.73-.84-2.6-1.25.75-.95 2.5-.17 3.6 0 .28-2.4 1.15-3.84-1.1-4.82-1.4-.6-4.03.1-5.53.12.48-.73.97-1.48 1.46-2.23-2.23-.32-3.25-.23-4.8-1.94-1.35-1.5-1.92-2.06-3.7-2.7-3.65-1.4-7.27-2.78-10.84-4.4 1-.12 2-.25 3.03-.37-.15-.95-.3-1.9-.45-2.85 1.42.3 2.84.6 4.28.88-.84-2.33-.67-2.25-2.87-1.86-1.22.2-2.3-.44-3.44-.88 2-1.25 2.64-1.46 4.93-1.3.02-1.8-1.9-2.65-3.1-3.46-.3 1.82-2.12 2.18-3.43 2.85.48-1.88-.93-1.57-2.18-1.78 1.57-.5 4.28-.53 4.86-2.5-1.4-.72-8.46-5.34-9.33-3.37-.7 1.58-3.1 3.2-3.84 1.18-.3-.88 2.97-2.3 3.73-2.75zm-19.7 24.58c1.14 1 4.4 2.9 5.66.87 1.28-2.1.26-3.07 1.05-5.16-2.65-3.7-9.7 1.6-6.7 4.3zm232.73 56.95c.1.47-.58 1.63.47 2.45 0-1.12-.16-1.93.55-2.84-.4-.1-1-.23-1.37-.17-.08.44.14.32.36.55zM238.52 87.22c-.37.4-1.07.42-1.46.8-1.28-2.88-1.94-2.3-4.88-2.36 1.5-1 3-2 4.48-3-.53-.18-.93-.77-1.43-.97.73-.46 1.47-.92 2.22-1.37-1.68-.9-2.4-1.63-4.18-1.02-1.9.66-2.56 1.14-4.36.25-1.73-.83-2.66-.2-4.5-.12-.78.04-1.9 1.9-2.52 2.5.75.32 4.16 1.23 4.16 2.05 0 1.73.06 3.92-2.36 3.5-1.1-.2-2.43-2.82-3.56-2.43-1.2.4-3 1.5-1.5 2.7 2.8 2.25 6.08 3 8.4 5.92 1.05 1.32 1.9 3.06 3.47 3.43 1.3.27 3.43-.8 2.9-2.45 2.18.97 8.23-3.1 4.26-4.5.58-.22 1.2-.55 1.8-.66-.3-.76-.62-1.52-.94-2.28zm302.14 91.9c-.25 1.12.45 1.63 1.58 1.48-.98 2.07-2.88-.27-3.75-1.3.1-.2.2-.42.38-.7.27.22.55.45.83.68.03-.3.06-.62.1-.93.52 0 .6.3.86.77z"/></g></g></g></svg>